<svg version="1.1" xmlns="http://www.w3.org/2000/svg" xmlns:xlink="http://www.w3.org/1999/xlink" width="138.98905" height="66.56775" viewBox="0,0,138.98905,66.56775"><g transform="translate(-209.09729,-146.34012)"><g data-paper-data="{&quot;isPaintingLayer&quot;:true}" fill-rule="nonzero" stroke-linecap="butt" stroke-linejoin="miter" stroke-miterlimit="10" stroke-dasharray="" stroke-dashoffset="0" style="mix-blend-mode: normal"><path d="M211.09729,210.90787v-61.81574h57.80573v61.81574z" fill="#00f6f7" stroke="#000000" stroke-width="4"/><path d="M276.83597,193.23113c-2.5,0 -2.5,-2.5 -2.5,-2.5l0.03076,-0.69501c1.93014,-12.15278 -0.15625,-24.55441 1.6753,-36.62725c0,0 0.38116,-2.47077 2.85193,-2.08962c2.47077,0.38116 2.08962,2.85193 2.08962,2.85193c-1.89214,12.04398 0.24078,24.48999 -1.67836,36.64685l0.03076,-0.0869c0,0 0,2.5 -2.5,2.5z" fill="#00ff14" stroke="none" stroke-width="0.5"/><path d="M298.21055,173.77059c-0.36986,2.47249 -2.84235,2.10263 -2.84235,2.10263l-0.97813,-0.15045c-0.2797,2.8739 -0.69355,5.78407 -1.23118,8.50695l-1.29561,1.88671c0,0 -1.77019,1.76534 -3.53553,-0.00486c-1.76534,-1.77019 0.00486,-3.53553 0.00486,-3.53553l-0.07612,0.67057c0.51763,-2.53686 0.76799,-5.10567 0.88524,-7.689c-1.40866,0.0294 -2.81788,0.03886 -4.22665,0.03906c0,0 -2.5,0 -2.5,-2.5c0,-2.5 2.5,-2.5 2.5,-2.5c1.44108,0.00021 2.88245,-0.01106 4.3234,-0.03949c0.00382,-6.63555 -0.2983,-13.29275 1.33708,-19.68013c0,0 0.63265,-2.41863 3.05128,-1.78598c2.41863,0.63265 1.78598,3.05128 1.78598,3.05128c-1.64345,6.12753 -0.43234,12.34207 -0.67109,18.58644l1.3662,0.19945c0,0 2.47249,0.36986 2.10263,2.84235z" fill="#00ff14" stroke="none" stroke-width="0.5"/><path d="M311.18786,194.00096c-2.05365,1.42566 -3.47931,-0.628 -3.47931,-0.628l-1.8183,-3.40196c0.00237,-10.3805 -2.73113,-20.41732 -2.4381,-30.77414c0.14134,-4.99554 0.86615,-9.4485 5.76556,-12.03307c4.56597,-2.40867 10.7292,0.6945 10.50885,6.32817c-0.06113,1.5629 -1.23657,2.89796 -2.1342,4.17884c-0.79248,1.13083 -1.6119,2.43199 -2.88062,2.9771c-1.27396,0.54735 -2.77295,0.03176 -4.15942,0.04763c0,0 -1.79089,-0.08929 -2.26363,-1.63335c0.0164,2.2586 0.33597,4.56753 0.4609,6.40431c0.55841,8.21041 2.13884,16.19252 2.14067,24.5045l0.92561,0.55064c0,0 1.42566,2.05365 -0.628,3.47931zM308.35865,157.17118c0.59661,-1.56149 2.44264,-1.46945 2.44264,-1.46945c0.646,0.11722 1.31672,0.56392 1.93801,0.35165c0.47232,-0.16137 0.49318,-0.86949 0.77779,-1.27952c0.38205,-0.55042 1.08276,-0.94198 1.21946,-1.59791c0.12695,-0.60918 -1.53462,-2.02926 -1.87909,-2.08863c-0.9142,-0.15756 -3.35419,2.09589 -3.42782,2.22489c-0.63295,1.10892 -0.94495,2.44247 -1.07099,3.85896z" fill="#00ff14" stroke="none" stroke-width="0.5"/><path d="M348.0808,169.13039c-0.13829,2.49617 -2.63446,2.35788 -2.63446,2.35788l-2.5666,-0.14848c-2.39493,0.21038 -4.76285,0.51814 -7.12641,0.84529c0.00662,2.19574 -0.01622,4.41878 -0.01603,6.6884l0.14214,1.44524c0,0 0.227,2.48967 -2.26267,2.71667c-2.48967,0.227 -2.71667,-2.26267 -2.71667,-2.26267l-0.1628,-1.89925c0.00016,-2.03229 0.02459,-4.02626 0.02879,-5.99668c-2.24832,0.29979 -4.50706,0.56763 -6.7956,0.73681c0,0 -2.49321,0.18419 -2.67739,-2.30902c-0.18419,-2.49321 2.30902,-2.67739 2.30902,-2.67739c2.39316,-0.17667 4.753,-0.45849 7.1023,-0.77169c-0.1433,-4.40944 -0.5876,-8.76271 -1.85441,-13.2331c0,0 -0.68038,-2.40564 1.72526,-3.08601c2.40564,-0.68038 3.08601,1.72526 3.08601,1.72526c1.32844,4.70578 1.82428,9.2798 2.00114,13.91094c2.36639,-0.32361 4.7384,-0.62625 7.13941,-0.83219l2.92108,0.15553c0,0 2.49617,0.13829 2.35788,2.63446z" fill="#00ff14" stroke="none" stroke-width="0.5"/></g></g></svg>