<svg version="1.1" xmlns="http://www.w3.org/2000/svg" xmlns:xlink="http://www.w3.org/1999/xlink" width="647.47872" height="511.34379" viewBox="0,0,647.47872,511.34379"><g transform="translate(60.57526,69.14711)"><g data-paper-data="{&quot;isPaintingLayer&quot;:true}" fill-rule="nonzero" stroke-linecap="butt" stroke-linejoin="miter" stroke-miterlimit="10" stroke-dasharray="" stroke-dashoffset="0" style="mix-blend-mode: normal"><path d="M-59.57525,441.19668v-509.34378h645.47872v509.34379z" fill="#cbecff" stroke="#000000" stroke-width="2"/><path d="M221.64366,218.69532c-0.26808,-0.11521 -0.49142,-0.24826 -0.67681,-0.39341c0.27817,0.40301 0.44107,0.8917 0.44107,1.41844c0,1.28677 -0.97215,2.34647 -2.22206,2.48472l0.19836,0.46897c0.79046,3.4596 1.94873,7.17221 4.13873,10.04151c0.80444,1.05397 1.90204,1.84781 2.84275,2.78217c0.28125,0.27935 0.55246,1.14858 0.82278,0.85864c0.3048,-0.32692 -0.5455,-0.83028 -0.44349,-1.26545c0.66224,-2.82494 2.18129,-4.78321 2.40078,-7.84597c0.02725,-3.74609 -1.13026,-6.9743 -2.61288,-10.31597c-0.94676,0.16543 -1.8727,0.33514 -2.75358,0.53797l1.14834,-0.0814c0,0 -0.9871,2.29687 -3.28397,1.30977zM220.33389,215.41135l2.32399,-2.81702c0.53775,-0.1237 1.07269,-0.25984 1.60652,-0.40082c-0.21615,-0.27473 -0.45878,-0.52922 -0.73593,-0.75564c-1.78709,-1.46 -4.43572,-1.63893 -6.14407,-3.19033c-1.40559,-1.27646 -1.5292,-3.60562 -2.9353,-4.88153c-0.81671,-0.7411 -1.85737,-1.40408 -3.00859,-1.99439c-1.35829,0.96631 -2.59161,2.09046 -3.62799,3.58581c0,0 -0.15377,0.21469 -0.43114,0.45455c0.65418,0.18357 1.35075,0.66336 1.61876,1.82792c0.41633,1.80899 -0.81967,2.58391 -1.48378,2.86304c0.01347,0.16363 0.02746,0.32513 0.042,0.48472c0.0412,0.1122 0.08307,0.22302 0.12562,0.33247l1.62487,-1.76321c2.51011,2.51513 5.9393,5.48274 7.9972,8.64395c0.43382,-0.36243 0.99236,-0.58053 1.60186,-0.58053c0.59266,0 1.13715,0.20622 1.56563,0.55083c-0.6968,-1.06345 -0.13966,-2.35983 -0.13966,-2.35983zM234.87918,208.72187c1.24107,-1.93682 3.07685,-5.35536 3.79567,-7.56668c0.83109,-2.55668 -0.4694,-4.92373 3.09914,-6.57136c4.03933,-1.86499 7.09682,2.58225 11.09199,-0.32924c1.67317,-3.62759 0.56053,-11.3755 4.33262,-13.60792c1.51082,-0.89415 7.54089,1.25661 8.97189,-0.95117c0.84362,-1.30156 -0.14066,-3.09901 -0.18906,-4.6493c-0.02621,-0.83945 -0.01464,-6.80374 0.16773,-7.22964c1.77136,-4.1368 5.89978,-4.3184 9.63116,-5.05573c0.34431,-0.06804 4.28081,-0.06448 4.55486,-1.77523c0.23845,-1.48851 -1.58417,-2.57651 -2.18944,-3.95715c-0.67707,-1.54442 -1.23464,-4.63801 -1.57631,-6.27675c0.24287,-4.94898 1.55047,-13.33086 4.84675,-17.3947c0.8061,-0.9938 2.15818,-1.4065 3.07159,-2.30266c1.12988,-1.10853 1.83281,-2.60221 2.49775,-4.03865c1.10577,-2.38876 2.25027,-5.50453 2.99583,-8.0307c0.24531,-0.83119 0.36521,-1.69492 0.51013,-2.54935c0.17206,-1.01444 1.12822,-3.80584 0.42165,-3.05787c-2.04428,2.16406 -4.20514,3.58042 -6.63088,5.36533c-1.63644,1.20412 -2.801,3.01812 -4.54348,4.06292c-1.81096,1.08586 -4.00169,1.375 -5.91301,2.27253c-1.32198,0.66898 -2.76031,1.14577 -3.96596,2.00693c-3.27315,2.33795 -5.19876,7.07231 -9.16854,8.74009c-1.42453,0.59847 -6.32925,0.34923 -7.62767,1.77379c-0.94397,1.03567 -0.8719,2.67139 -1.13567,4.04766c-0.77234,4.02974 -0.30005,8.32316 -2.67151,11.962c-1.92891,2.95978 -3.75632,4.68385 -7.31117,5.28101c-1.89834,0.31889 -7.09166,-1.70534 -7.95449,1.70259c-0.23096,0.91225 -0.04606,1.8815 -0.0691,2.82225c-1.4233,6.09993 -3.03839,10.24967 -8.59527,13.67827c-1.92813,1.18966 -4.40939,1.40515 -6.19134,2.80431c-0.26835,0.2107 0.36558,0.58371 0.47378,0.90727c0.29643,0.88642 0.49162,1.80354 0.73457,2.70609c0.49898,1.85367 0.88207,3.73676 1.35214,5.59797c0.31454,1.2454 1.32461,2.45681 1.04224,3.7099c-0.6273,2.78384 -3.6392,4.01978 -5.71736,5.22876c-0.23274,0.13539 -0.46472,0.26832 -0.69568,0.39949c0.53451,0.3948 1.05375,0.82122 1.5558,1.2824c0.8886,0.81623 1.57083,1.84599 2.19311,2.87972c0.36864,0.61238 0.21654,1.53299 0.74977,2.00898c0.61352,0.54765 1.61574,0.38284 2.34833,0.75653c1.28345,0.65467 2.55872,1.37206 3.65573,2.30608c1.27081,1.082 1.96165,2.11326 2.5315,3.27203c2.10888,-0.33665 4.14129,-0.07889 5.5202,-2.23082zM204.32435,205.53418c-2.03246,-1.45572 -0.57674,-3.48818 -0.57674,-3.48818c0.76782,-1.046 1.58504,-1.95203 2.44982,-2.76327c-1.20217,-0.38398 -2.35677,-0.70654 -3.35963,-0.97267c-3.44667,-0.91463 -7.25896,-0.77242 -10.90374,-1.12524c0.52498,1.65697 0.34583,3.66595 1.382,5.06074c1.75735,2.3656 4.48702,3.5413 7.16235,4.83247c0.75799,-0.3082 1.52834,-0.58376 2.30122,-0.83112c0.22154,-0.16687 0.49644,-0.31293 0.83637,-0.42655c0.32731,-0.1094 0.62454,-0.15851 0.89376,-0.1619c-0.06124,-0.03825 -0.12305,-0.07963 -0.18541,-0.12429zM214.52548,193.71441c0.80338,-0.45646 1.61354,-0.90091 2.42388,-1.34491c0.28832,-0.15797 0.88006,-0.13226 0.87195,-0.46091c-0.01357,-0.54956 -0.72934,-0.85397 -0.91717,-1.37061c-0.88628,-2.4378 -1.96134,-6.32856 -2.22397,-8.89162c-0.14182,-1.3841 -0.72546,-3.04011 0.08194,-4.17323c0.90868,-1.27525 6.03557,-3.47429 7.91615,-4.62113c4.30993,-2.62836 5.17632,-5.47512 6.29608,-10.16108c0.10758,-1.27384 -0.14944,-2.63354 0.32275,-3.82152c1.58161,-3.97914 5.52693,-5.44761 9.47017,-5.35011c2.06517,0.05106 2.61025,1.07833 4.36119,-0.32095c5.8082,-4.64169 1.38585,-13.917 6.28354,-19.01448c2.63733,-2.74492 6.12563,-1.724 9.22309,-2.91591c3.38353,-1.302 5.27979,-6.04515 8.07395,-8.06478c1.50088,-1.08484 3.27003,-1.73923 4.90505,-2.60884c1.80649,-0.83855 3.88323,-1.07981 5.59355,-2.10028c2.35586,-1.40563 4.95574,-4.27306 7.24302,-5.92503c1.26355,-0.91259 5.28758,-4.35033 6.66276,-4.18722c6.42827,0.76248 4.80577,8.0504 3.67489,11.97921c-1.28832,4.47576 -3.32513,10.7446 -6.65456,14.11489c-0.80683,0.81673 -2.04523,1.13702 -2.80658,1.99629c-1.27995,1.44457 -1.33353,3.62355 -1.92658,5.46022c-0.98097,3.03803 -1.6997,5.17882 -1.84794,8.4099c1.21337,5.42998 6.90425,11.61708 0.41064,15.99692c-0.51607,0.34808 -6.28207,1.56254 -7.82484,1.88499c-0.53403,0.11162 -3.03269,0.15517 -3.32691,1.39854c-0.88256,3.72975 2.10422,9.30124 -0.41318,12.74209c-2.3159,3.16543 -4.71516,3.35554 -8.05433,3.11861c-0.87327,-0.06196 -1.73156,-0.81209 -2.56764,-0.55247c-1.15296,0.35802 -0.24239,2.40234 -0.3714,3.60269c-0.37061,3.44816 -1.13997,5.90235 -2.7416,8.97362c-1.26888,0.89469 -2.3552,2.13283 -3.80664,2.68407c-2.07373,0.78759 -5.29718,0.30436 -7.38354,-0.29256c-0.57506,-0.16452 -1.02597,-0.81226 -1.62237,-0.76668c-0.29774,0.02275 -0.01424,0.59795 -0.04957,0.89446c-0.10734,0.90082 -0.08446,1.83684 -0.37814,2.69518c-0.47984,1.40242 -2.3909,4.20746 -3.06306,5.58207c-0.51854,1.06044 -0.67502,2.31162 -1.3707,3.26526c-1.79834,2.46518 -4.51325,3.64152 -7.43261,4.37807c1.55243,3.70129 2.56287,7.33585 2.58534,11.49019c-0.28677,3.52964 -1.23483,6.16048 -2.69352,9.34961c-0.57464,1.25632 -0.34415,3.28336 -1.61921,3.81512c-1.80944,0.75462 -4.06433,0.12826 -5.83909,-0.70465c-3.20453,-1.50393 -5.42363,-4.75953 -6.97572,-8.29354c-1.17788,1.1149 -2.68023,1.99223 -3.88806,3.07423c-1.29208,1.15747 -2.15439,2.72038 -3.18269,4.11745c-1.81338,2.46367 -2.07364,5.20019 -3.94234,7.65209c-2.82154,3.7021 -6.73408,7.54209 -10.42045,10.40141c-3.04386,2.36097 -6.65173,3.95552 -9.66625,6.30311c-2.35634,1.83502 -4.09334,4.38127 -6.43766,6.23163c-0.89366,0.70537 -1.99292,1.26108 -3.16557,1.72055l-3.40789,2.26572c-0.40192,0.27578 -0.88849,0.43716 -1.41275,0.43716c-1.38071,0 -2.5,-1.11929 -2.5,-2.5c0,-0.54114 0.17193,-1.04213 0.46415,-1.45131l1.74563,-2.51461l0.00627,0.00436l0.00561,-0.02132c2.54129,-3.52458 3.6198,-6.68699 5.21928,-10.65436c0.34963,-0.86723 1.27792,-1.49634 1.41691,-2.42101c0.27083,-1.80166 -0.59004,-3.51046 -1.24475,-5.09229c-1.22091,-1.43876 -3.64998,-4.00486 -3.8702,-5.86701c-0.45414,-3.84017 3.08998,-5.67557 4.25831,-8.8267c2.00338,-5.40339 4.54824,-10.39379 8.84443,-14.40621c0.30937,-0.28894 4.36807,-2.8826 5.13906,-4.08527c0.53565,-0.83559 0.60726,-1.92202 1.17566,-2.73568c0.92894,-1.32979 2.07229,-2.45701 3.3538,-3.41593c-2.33876,-1.13248 -4.62295,-2.36218 -6.25983,-4.67121c-1.26524,-1.7848 -0.98453,-4.30663 -1.96581,-6.26199c-0.55786,-1.11163 -3.91183,-0.96144 -4.07574,-0.97759l-0.27562,-0.23625l-0.05232,0.12591l-2.29774,-0.95476c-0.93297,-0.36281 -1.59423,-1.26962 -1.59423,-2.33087c0,-1.20803 0.85683,-2.21595 1.99591,-2.44916l4.26208,-0.96603l0.01074,0.04738c0.14041,-0.03911 0.28204,-0.07471 0.425,-0.10649c3.54632,-0.78828 4.80003,0.97468 7.77112,1.39802c5.72689,0.81599 12.11619,1.08644 17.70107,3.22473c1.07706,-0.64923 2.20305,-1.28082 3.37582,-1.94715zM202.05534,213.86972c-0.4948,-0.50708 -1.02731,-0.95215 -1.58642,-1.35362c-1.68437,0.8789 -3.18389,2.02121 -4.18066,3.5277c-1.16042,1.75381 -1.97535,3.83807 -3.58515,5.19119c-4.11479,3.45869 -7.90363,6.68533 -9.86278,11.88103c-0.13293,0.35253 -2.12135,5.71308 -2.3701,6.0995c-0.79785,1.23947 -3.16432,2.01967 -2.77661,3.44183c0.44162,1.61988 2.11565,2.60774 3.18361,3.90331c1.28592,3.06166 2.34517,4.79816 1.89025,8.58599c-0.15287,1.27292 -1.25281,2.24646 -1.71809,3.44111c-0.52589,1.35026 -1.02138,2.62684 -1.53863,3.86088c1.08793,-1.16285 2.16895,-2.33335 3.42008,-3.30851c1.97638,-1.54045 4.28775,-2.59724 6.37582,-3.98254c4.67638,-3.1025 9.23497,-7.34467 12.72518,-11.75007c1.8173,-2.29381 2.13752,-5.11612 3.89518,-7.58949c1.20141,-1.69062 2.34159,-3.47048 3.87115,-4.8712c1.66657,-1.5262 2.8969,-1.67738 3.61665,-2.83189c-0.29203,0.00721 -0.6183,-0.03995 -0.98164,-0.16141c-2.37105,-0.79256 -1.57848,-3.1636 -1.57848,-3.1636l0.60501,0.88237c-0.99098,-1.80561 -2.37722,-2.76537 -3.83237,-3.73755c-2.23934,0.67243 -3.03054,-1.58197 -3.03054,-1.58197c-0.13868,-0.39923 -0.26883,-0.7898 -0.39105,-1.17388c-0.17598,-0.19787 -0.34879,-0.40732 -0.51772,-0.63021c-0.76871,-1.01424 -0.73789,-2.43596 -1.10683,-3.65394c0,0 -0.07556,-0.2826 -0.07833,-0.68032c-0.28132,-0.17899 -0.4475,-0.34473 -0.4475,-0.34473z" fill="#000000" stroke="none" stroke-width="0.5"/><path d="M202.51719,214.16655c0.00277,0.39772 0.07887,0.68049 0.07887,0.68049c0.36894,1.21798 0.34301,2.64151 1.11172,3.65575c0.16893,0.22289 0.34337,0.43308 0.51935,0.63094c0.12222,0.38408 0.25436,0.77564 0.39303,1.17487c0,0 0.79851,2.25913 3.03785,1.5867c1.45515,0.97218 2.85085,1.94162 3.84184,3.74723l-0.60666,-0.88449c0,0 -0.78752,2.37838 1.58353,3.17094c0.36334,0.12145 0.69034,0.16997 0.98237,0.16276c-0.71975,1.15451 -1.9489,1.30806 -3.61548,2.83426c-1.52956,1.40072 -2.66582,3.1935 -3.86723,4.88412c-1.75765,2.47337 -2.09031,5.33727 -3.9076,7.63108c-3.49021,4.40539 -8.10236,8.66104 -12.77874,11.76354c-2.08807,1.38531 -4.40796,2.43815 -6.38435,3.9786c-1.25113,0.97516 -2.33401,2.14453 -3.42194,3.30737c0.51726,-1.23404 1.01146,-2.51147 1.53735,-3.86173c0.46528,-1.19465 1.56422,-2.1689 1.7171,-3.44181c0.45492,-3.78784 -0.61755,-5.53853 -1.90347,-8.60019c-1.06796,-1.29557 -2.7475,-2.29583 -3.18912,-3.91571c-0.38771,-1.42216 1.9771,-2.21057 2.77496,-3.45004c0.24875,-0.38643 2.23956,-5.76895 2.37249,-6.12149c1.95915,-5.1957 5.78669,-8.45534 9.90148,-11.91403c1.6098,-1.35313 2.43507,-3.43809 3.59549,-5.1919c0.99677,-1.50648 2.50423,-2.64788 4.1886,-3.52678c0.55911,0.40148 1.09524,0.8474 1.59004,1.35448c0,0 0.16722,0.16603 0.44854,0.34502z" data-paper-data="{&quot;noHover&quot;:false,&quot;origItem&quot;:[&quot;Path&quot;,{&quot;applyMatrix&quot;:true,&quot;segments&quot;:[[[404.11067,427.73944],[0,0],[-0.98959,-1.01416]],[[400.93783,425.03219],[1.11822,0.80296],[-3.36874,1.75779]],[[392.57651,432.08759],[1.99354,-3.01297],[-2.32084,3.50762]],[[385.40621,442.46997],[3.21961,-2.70625],[-8.22958,6.91738]],[[365.68065,466.23203],[3.9183,-10.3914],[-0.26586,0.70507]],[[360.94046,478.43104],[0.4975,-0.77286],[-1.59571,2.47894]],[[355.38724,485.3147],[-0.77543,-2.84432],[0.88323,3.23975]],[[361.75445,493.12132],[-2.13592,-2.59113],[2.57185,6.12332]],[[365.53495,510.29331],[0.90984,-7.57567],[-0.30575,2.54583]],[[362.09877,517.17554],[0.93056,-2.3893],[-1.05178,2.70053]],[[359.0215,524.89729],[1.03451,-2.46808],[2.17587,-2.32569]],[[365.86166,518.28027],[-2.50225,1.95032],[3.95277,-3.0809]],[[378.61329,510.31518],[-4.17613,2.77061],[9.35276,-6.205]],[[404.06364,486.81505],[-6.98042,8.81079],[3.63459,-4.58763]],[[411.854,471.63607],[-3.51531,4.94673],[2.40282,-3.38124]],[[419.59629,461.89367],[-3.05912,2.80145],[3.33315,-3.0524]],[[426.82958,456.22989],[-1.4395,2.30902],[-0.58406,0.01442]],[[424.86631,455.90708],[0.72667,0.2429],[-4.74209,-1.58512]],[421.70935,449.57988],[[422.91936,451.34463],[0,0],[-1.98196,-3.61122]],[[415.25462,443.86954],[2.9103,1.94436],[-4.47868,1.34485]],[[409.19354,440.7056],[0,0],[-0.27735,-0.79845]],[[408.41143,438.35784],[0.24445,0.76816],[-0.35196,-0.39574]],[[407.37599,437.09742],[0.33786,0.44578],[-1.53742,-2.02848]],[[405.16233,429.78954],[0.73789,2.43596],[0,0]],[[405.00567,428.42889],[0.00553,0.79544],[-0.56263,-0.35798]]],&quot;closed&quot;:true}]}" fill="#a0eaff" stroke="none" stroke-width="0.5"/><path d="M204.55172,205.68565c-0.26922,0.00339 -0.56957,0.05681 -0.89688,0.16621c-0.33992,0.11362 -0.62017,0.26531 -0.84171,0.43218c-0.77288,0.24735 -1.563,0.53387 -2.32099,0.84207c-2.67533,-1.29117 -5.46871,-2.51397 -7.22606,-4.87956c-1.03617,-1.39479 -0.84812,-3.43326 -1.3731,-5.09023c3.64478,0.35281 7.53328,0.20352 10.97995,1.11815c1.00286,0.26612 2.16877,0.60573 3.37094,0.98971c-0.86478,0.81125 -1.67845,1.73491 -2.44627,2.78091c0,0 -1.46373,2.06053 0.56873,3.51625c0.06235,0.04466 0.12415,0.08606 0.18539,0.12431z" data-paper-data="{&quot;noHover&quot;:false,&quot;origItem&quot;:[&quot;Path&quot;,{&quot;applyMatrix&quot;:true,&quot;segments&quot;:[[[408.6487,411.06835],[0.12471,0.08932],[-4.06492,-2.91144]],[[407.49522,404.092],[0,0],[1.53563,-2.09199]],[[412.39486,398.56545],[-1.72956,1.62249],[-2.40433,-0.76796]],[[405.6756,396.62012],[2.00572,0.53225],[-6.89335,-1.82925]],[[383.86812,394.36964],[7.28956,0.70563],[1.04995,3.31394]],[[386.63212,404.49112],[-2.07233,-2.78959],[3.5147,4.73119]],[[400.95681,414.15607],[-5.35066,-2.58234],[1.51599,-0.6164]],[[405.55925,412.49384],[-1.54576,0.4947],[0.44308,-0.33374]],[[407.23199,411.64074],[-0.67985,0.22723],[0.65463,-0.2188]],[[409.01951,411.31693],[-0.53844,0.00678],[-0.12248,-0.07651]]],&quot;closed&quot;:true}]}" fill="#a0eaff" stroke="none" stroke-width="0.5"/><path d="M220.49825,217.81466c-0.42848,-0.34461 -0.97894,-0.54795 -1.5716,-0.54795c-0.6095,0 -1.1779,0.22096 -1.61171,0.58338c-2.0579,-3.1612 -5.54587,-6.18131 -8.05597,-8.69644l-1.52564,1.75841c-0.04255,-0.10945 -0.18339,-0.20616 -0.22459,-0.31837c-0.01454,-0.15959 -0.0288,-0.324 -0.04227,-0.48764c0.66411,-0.27913 1.90273,-1.07342 1.4864,-2.88241c-0.26801,-1.16456 -0.96212,-1.65025 -1.6163,-1.83383c0.27737,-0.23986 0.43267,-0.4574 0.43267,-0.4574c1.03638,-1.49535 2.28945,-2.63861 3.64774,-3.60492c1.15122,0.59031 2.20463,1.24858 3.02134,1.98968c1.40609,1.27591 1.57846,3.62135 2.98405,4.89781c1.70835,1.5514 4.36763,1.77455 6.15472,3.23455c0.27714,0.22642 0.51893,0.48398 0.73508,0.75871c-0.53383,0.14098 -1.07078,0.28251 -1.60853,0.40621l-2.33915,2.83641c0,0 -0.56304,1.30033 0.13375,2.36378z" data-paper-data="{&quot;noHover&quot;:false,&quot;origItem&quot;:[&quot;Path&quot;,{&quot;applyMatrix&quot;:true,&quot;segments&quot;:[[440.66777,430.82269],[[445.31576,425.18865],[0,0],[1.0755,-0.2474]],[[448.5288,424.387],[-1.06766,0.28196],[-0.4323,-0.54947]],[[447.05695,422.87573],[0.55429,0.45284],[-3.57418,-2.92001]],[[434.76881,416.49508],[3.4167,3.1028],[-2.81118,-2.55292]],[[428.89821,406.73202],[2.81219,2.55182],[-1.63343,-1.48219]],[[422.88103,402.74324],[2.30243,1.18061],[-2.71658,1.93261]],[[415.62505,409.91487],[2.07277,-2.9907],[0,0]],[[414.76277,410.82397],[0.55474,-0.47971],[1.30836,0.36715]],[[418.00029,414.47981],[-0.53603,-2.32911],[0.83266,3.61798]],[[415.03274,420.2059],[1.32822,-0.55826],[0.02695,0.32726]],[[415.11674,421.17535],[-0.02909,-0.31919],[0.0824,0.22441]],[[415.36798,421.84029],[-0.08511,-0.2189],[0,0]],[[418.61772,418.31387],[0,0],[5.02021,5.03025]],[[434.61212,435.60176],[-4.1158,-6.32241],[0.86763,-0.72485]],[[437.81584,434.44069],[-1.21899,0],[1.18532,0]],[[440.9471,435.54236],[-0.85696,-0.68922],[-1.39359,-2.1269]]],&quot;closed&quot;:true}]}" fill="#a0eaff" stroke="none" stroke-width="0.5"/><path d="M224.93172,217.33572l-1.15452,0.08128c0.88089,-0.20283 1.82073,-0.37117 2.76749,-0.5366c1.48262,3.34167 2.678,6.62417 2.65075,10.37026c-0.21949,3.06276 -1.77357,5.06313 -2.43581,7.88807c-0.10201,0.43517 0.74855,0.93845 0.44374,1.26538c-0.27032,0.28994 -0.54433,-0.57851 -0.82558,-0.85786c-0.94071,-0.93437 -2.05569,-1.72701 -2.86013,-2.78097c-2.19,-2.8693 -3.38135,-6.6637 -4.17181,-10.1233l-0.19721,-0.47028c1.24991,-0.13825 2.24084,-1.21105 2.24084,-2.49782c0,-0.52674 -0.16231,-1.01566 -0.44048,-1.41867c0.18539,0.14515 0.41151,0.27724 0.67958,0.39244c2.29688,0.9871 3.30314,-1.31193 3.30314,-1.31193z" data-paper-data="{&quot;noHover&quot;:false,&quot;origItem&quot;:[&quot;Path&quot;,{&quot;applyMatrix&quot;:true,&quot;segments&quot;:[[[443.28732,437.39064],[4.59375,1.9742],[-0.53615,-0.23041]],[[441.9337,436.60382],[0.37079,0.29031],[0.55634,0.80602]],[[442.81584,439.44069],[0,-1.05347],[0,2.57354]],[[438.37172,444.41014],[2.49982,-0.2765],[0,0]],[[438.76843,445.34808],[0,0],[1.58091,6.91919]],[[447.0459,465.4311],[-4.38,-5.7386],[1.60888,2.10793]],[[452.7314,470.99545],[-1.88142,-1.86873],[0.56249,0.5587]],[[454.37695,472.71273],[-0.54064,0.57987],[0.60961,-0.65385]],[[453.48997,470.18183],[-0.20403,0.87035],[1.32448,-5.64987]],[[458.29153,454.48988],[-0.43899,6.12552],[0.05451,-7.49218]],[[453.06577,433.85795],[2.96524,6.68334],[-1.89353,0.33086]],[[447.5586,434.93389],[1.76177,-0.40567],[0,0]],[449.85527,434.7711]],&quot;closed&quot;:true}]}" fill="#a0eaff" stroke="none" stroke-width="0.5"/><path d="M229.33664,210.99742c-0.56985,-1.15877 -1.26379,-2.19172 -2.5346,-3.27372c-1.09701,-0.93402 -2.37572,-1.65363 -3.65916,-2.3083c-0.73259,-0.37368 -1.73656,-0.21017 -2.35008,-0.75783c-0.53323,-0.47599 -0.38249,-1.39768 -0.75113,-2.01006c-0.62228,-1.03373 -1.30704,-2.06575 -2.19564,-2.88198c-0.50205,-0.46117 -1.02266,-0.88895 -1.55717,-1.28375c0.23096,-0.13118 0.53454,-0.33391 0.76728,-0.4693c2.07817,-1.20898 5.01881,-2.37476 5.6461,-5.1586c0.28236,-1.25308 -0.73041,-2.46746 -1.04495,-3.71286c-0.47007,-1.86121 -0.85702,-3.74955 -1.356,-5.60322c-0.24295,-0.90255 -0.4399,-1.82263 -0.73632,-2.70905c-0.1082,-0.32357 -0.74275,-0.69774 -0.4744,-0.90844c1.78195,-1.39916 4.26344,-1.61418 6.19158,-2.80384c5.55688,-3.4286 7.1663,-7.59836 8.58961,-13.6983c0.02303,-0.94075 -0.16183,-1.91711 0.06913,-2.82936c0.86283,-3.40793 6.05776,-1.39301 7.9561,-1.71191c3.55486,-0.59716 5.40714,-2.35231 7.33605,-5.31208c2.37146,-3.63885 1.91811,-7.93787 2.69045,-11.96761c0.26378,-1.37627 0.19474,-3.01216 1.13871,-4.04783c1.29842,-1.42455 6.21731,-1.17368 7.64184,-1.77214c3.96978,-1.66778 5.90352,-6.39922 9.17667,-8.73717c1.20564,-0.86116 2.64691,-1.33649 3.96889,-2.00547c1.91132,-0.89753 4.1058,-1.18442 5.91676,-2.27028c1.74248,-1.0448 2.90824,-2.85797 4.54468,-4.06209c2.42575,-1.78491 4.58814,-3.20015 6.63241,-5.3642c0.70657,-0.74797 -0.24856,2.04422 -0.42063,3.05867c-0.14493,0.85443 -0.26399,1.71884 -0.5093,2.55003c-0.74556,2.52617 -1.88786,5.64392 -2.99362,8.03268c-0.66493,1.43643 -1.36707,2.93088 -2.49695,4.03941c-0.91341,0.89616 -2.26599,1.30837 -3.07209,2.30217c-3.29628,4.06384 -4.59379,12.45947 -4.83666,17.40846c0.34167,1.63873 0.90344,4.74441 1.5805,6.28884c0.60526,1.38064 2.42888,2.47673 2.19043,3.96524c-0.27405,1.71075 -4.21053,1.71078 -4.55484,1.77882c-3.73138,0.73734 -7.86437,0.93837 -9.63573,5.07516c-0.18237,0.42589 -0.205,6.4056 -0.17879,7.24505c0.04841,1.5503 1.02718,3.35225 0.18356,4.65381c-1.43101,2.20777 -7.48076,0.06533 -8.99158,0.95948c-3.77209,2.23243 -2.66997,9.98116 -4.34313,13.60875c-3.99517,2.91148 -7.06858,-1.53883 -11.10791,0.32617c-3.56855,1.64763 -2.23276,3.92112 -3.06385,6.47781c-0.71882,2.21132 -2.59136,5.72285 -3.83244,7.65967c-1.37891,2.15193 -3.4149,1.89255 -5.52377,2.2292z" data-paper-data="{&quot;noHover&quot;:false,&quot;origItem&quot;:[&quot;Path&quot;,{&quot;applyMatrix&quot;:true,&quot;segments&quot;:[[[469.75835,417.44374],[-2.75782,4.30386],[2.48214,-3.87364]],[[477.34969,402.31039],[-1.43764,4.42263],[1.66218,-5.11337]],[[483.54798,389.16766],[-7.13709,3.29526],[8.07867,-3.72999]],[[505.73196,388.50919],[-7.99035,5.82297],[3.34633,-7.25518]],[[514.39719,361.29334],[-7.54418,4.46485],[3.02164,-1.78829]],[[532.34098,359.39101],[-2.86201,4.41555],[1.68725,-2.60311]],[[531.96285,350.0924],[0.09681,3.10059],[-0.05242,-1.6789]],[[532.2983,335.63313],[-0.36473,0.85178],[3.54272,-8.27359]],[[551.56063,325.52166],[-7.46277,1.47468],[0.68861,-0.13607]],[[560.67035,321.97121],[-0.5481,3.42149],[0.4769,-2.97702]],[[556.29148,314.0569],[1.21053,2.76129],[-1.35413,-3.08885]],[[553.13885,301.5034],[0.68334,3.27747],[0.48574,-9.89796]],[[562.83236,266.71401],[-6.59256,8.12767],[1.6122,-1.9876]],[[568.97554,262.10869],[-1.82683,1.79232],[2.25976,-2.21707]],[[573.97103,254.0314],[-1.32986,2.87287],[2.21153,-4.77752]],[[579.9627,237.97],[-1.49112,5.05234],[0.49062,-1.66237]],[[580.98296,232.8713],[-0.28985,1.70885],[0.34413,-2.02889]],[[581.82626,226.75556],[1.41315,-1.49594],[-4.08855,4.32811]],[[568.5645,237.48622],[4.85149,-3.56982],[-3.27287,2.40824]],[[559.47755,245.61206],[3.48496,-2.0896],[-3.62192,2.17172]],[[547.65153,250.15712],[3.82263,-1.79506],[-2.64397,1.33796]],[[539.71962,254.17099],[2.41128,-1.72233],[-6.5463,4.67589]],[[521.38253,271.65116],[7.93956,-3.33555],[-2.84906,1.19694]],[[506.12719,275.19873],[2.59683,-2.8491],[-1.88794,2.07135]],[[503.85584,283.29405],[0.52755,-2.75254],[-1.54468,8.05948]],[[498.51282,307.21806],[4.74292,-7.27769],[-3.85782,5.91956]],[[483.89047,317.78009],[7.10971,-1.19433],[-3.79667,0.63779]],[[467.98149,321.18526],[1.72566,-6.81586],[-0.46193,1.8245]],[[467.84329,326.82976],[0.04607,-1.8815],[-2.8466,12.19987]],[[450.65275,354.18631],[11.11376,-6.8572],[-3.85626,2.37932]],[[438.27008,359.79493],[3.56389,-2.79832],[-0.53669,0.4214]],[[439.21765,361.60948],[-0.21641,-0.64713],[0.59286,1.77284]],[[440.68679,367.02166],[-0.4859,-1.80509],[0.99795,3.70734]],[[443.39106,378.21761],[-0.94014,-3.72242],[0.62908,2.4908]],[[445.47554,385.6374],[0.56473,-2.50617],[-1.25459,5.56767]],[[434.04082,396.09491],[4.15633,-2.41795],[-0.46548,0.27079]],[[432.64946,396.8939],[0.46193,-0.26235],[1.06903,0.78961]],[[435.76106,399.45869],[-1.0041,-0.92234],[1.77719,1.63246]],[[440.14727,405.21813],[-1.24456,-2.06746],[0.73728,1.22476]],[[441.64682,409.23609],[-1.06647,-0.95198],[1.22704,1.09531]],[[446.34347,410.74914],[-1.46518,-0.74737],[2.56689,1.30934]],[[453.65494,415.3613],[-2.19402,-1.86804],[2.54162,2.164]],[[458.71795,421.90537],[-1.13971,-2.31754],[4.21775,-0.6733]]],&quot;closed&quot;:true}]}" fill="#a0eaff" stroke="none" stroke-width="0.5"/><path d="M293.45027,234.2235l-0.42913,-0.20709c-1.9665,-2.29876 -2.04769,-2.83157 -4.75261,-4.27438c-1.95857,-1.04471 -5.11111,-1.49356 -6.65173,-3.18214c-1.4357,-1.57358 -3.59702,-3.49116 -3.13239,-5.56999c0.51767,-2.31612 8.87757,-2.3313 10.77948,-2.56845c5.87036,-1.05107 7.8362,-2.10745 11.31418,-6.65537c1.26776,-1.65776 2.74045,-3.2989 3.33299,-5.29997c1.34749,-4.55066 0.83781,-10.6573 7.34909,-11.89133c6.25737,-1.1859 5.60422,5.7688 6.12981,9.14148c0.80719,5.17969 0.76641,10.47156 0.81106,15.75956c0.00949,1.12397 -0.57124,2.25942 -0.32567,3.35627c0.38114,1.70236 5.00528,4.30731 6.1359,5.08309c1.34551,0.64876 7.03986,3.38679 7.39316,3.60724c3.84803,2.40106 7.942,6.01073 2.20082,10.00579c-1.06304,0.73972 -2.59,0.02946 -3.88507,0.03559c-4.21151,0.01992 -8.40005,-0.6533 -12.57461,-1.19132c-0.99931,-0.12879 -5.58205,-1.40744 -6.54259,-0.11715c-1.88033,2.52585 -2.75408,6.84093 -4.35203,9.53074c-1.63026,2.7442 -4.03779,7.52463 -6.0705,9.76452c-0.02446,0.02695 -0.04909,0.05372 -0.07388,0.0803l0.01416,0.00983l-1.74313,2.51099c-0.44914,0.6658 -1.21043,1.10364 -2.07399,1.10364c-1.38071,0 -2.5,-1.11929 -2.5,-2.5c0,-0.07403 0.00322,-0.14731 0.00952,-0.2197l0.19387,-2.51288l0.07752,0.00598l-0.05469,-0.2013c1.39304,-5.49901 -0.51711,-10.11181 -1.00691,-15.70791c-0.2235,-2.55353 0.18646,-5.24666 0.42737,-7.89605z" fill="#21cfff" stroke="none" stroke-width="0.5"/><path d="M143.95027,140.7235l-0.42913,-0.20709c-1.9665,-2.29876 -2.04769,-2.83157 -4.7526,-4.27438c-1.95857,-1.04471 -5.1111,-1.49356 -6.65173,-3.18214c-1.4357,-1.57358 -3.59703,-3.49116 -3.13239,-5.56999c0.51767,-2.31612 8.87757,-2.3313 10.77948,-2.56845c5.87036,-1.05107 7.8362,-2.10745 11.31418,-6.65537c1.26776,-1.65776 2.74045,-3.2989 3.33299,-5.29997c1.34749,-4.55066 0.83782,-10.6573 7.3491,-11.89133c6.25737,-1.18591 5.60421,5.76879 6.12981,9.14148c0.8072,5.17969 0.76642,10.47156 0.81106,15.75956c0.00949,1.12397 -0.57124,2.25942 -0.32566,3.35627c0.38114,1.70236 5.00528,4.30731 6.13589,5.08309c1.34552,0.64876 7.03986,3.38679 7.39316,3.60724c3.84803,2.40106 7.942,6.01073 2.20082,10.00579c-1.06304,0.73972 -2.59001,0.02946 -3.88507,0.03559c-4.21151,0.01992 -8.40005,-0.6533 -12.57461,-1.19132c-0.99931,-0.12879 -5.58205,-1.40744 -6.54259,-0.11715c-1.88033,2.52585 -2.75408,6.84093 -4.35203,9.53074c-1.63026,2.7442 -4.03779,7.52463 -6.0705,9.76452c-0.02446,0.02695 -0.04909,0.05371 -0.07388,0.0803l0.01416,0.00983l-1.74313,2.511c-0.44914,0.6658 -1.21044,1.10364 -2.07399,1.10364c-1.38071,0 -2.5,-1.11929 -2.5,-2.5c0,-0.07403 0.00322,-0.14731 0.00952,-0.21971l0.19387,-2.51289l0.07752,0.00599l-0.0547,-0.2013c1.39304,-5.49902 -0.51711,-10.11181 -1.00691,-15.70792c-0.2235,-2.55353 0.18646,-5.24666 0.42738,-7.89605z" fill="#21cfff" stroke="none" stroke-width="0.5"/><path d="M387.82682,170.20275c2.42498,0.60783 1.81715,3.03281 1.81715,3.03281l-0.18526,-0.38978c1.57569,7.30935 -0.66816,15.64325 -4.645,21.84939c0,0 -1.35449,2.10128 -3.45577,0.74679c-2.10127,-1.35449 -0.74679,-3.45577 -0.74679,-3.45577c2.51174,-3.87036 3.23831,-6.89519 3.72386,-11.3501c0.24082,-2.20954 0.8007,-4.50918 0.25241,-6.66312l0.20659,-1.95307c0,0 0.60783,-2.42498 3.03281,-1.81715z" fill="#e3ffff" stroke="none" stroke-width="0.5"/><path d="M352.35412,103.60084c-2.49132,0.20816 -2.69948,-2.28316 -2.69948,-2.28316l-0.17537,-2.93418c0.05284,-0.31067 0.11064,-0.60949 0.17356,-0.89765l0.00445,-0.82838c-0.59825,-6.26902 -1.25586,-10.66835 -5.35087,-15.61819c-1.02489,-1.23884 -1.94112,-2.56551 -2.97636,-3.79571c-0.04681,-0.05562 -1.37961,-2.39173 -2.28071,-1.49674c-2.22807,2.21299 -3.4282,5.44504 -4.96471,8.13072c-1.43217,5.48833 -2.06457,12.23828 -0.85671,17.85668c1.08384,5.04153 4.9461,9.74376 7.02263,14.45221c1.47217,3.33807 2.38144,8.84952 4.7883,11.63912c1.46931,1.70295 3.73971,2.57404 5.24417,4.24601c2.51676,2.79698 3.80338,9.73014 7.91874,9.53338c0,0 1.07536,0.07661 1.76342,0.83539c0.6861,-0.67794 1.38828,-1.41087 2.08173,-2.31109c0.4728,-0.61377 0.4497,-1.50251 0.86176,-2.15859c1.35982,-2.16515 2.99396,-4.14999 4.34925,-6.31797c1.44536,-2.31207 3.60265,-4.2552 4.50333,-6.82882c2.18297,-6.23762 1.38723,-14.4127 -0.46216,-20.47442c-0.81757,-2.67975 -0.71034,-4.68373 -2.27717,-7.20712c-1.85478,-2.98713 -4.58217,-5.2384 -6.28912,-8.45219c-3.20414,2.25064 -7.02424,5.4563 -8.09,9.35809l0.00314,0.71642c0,0 0,0.40442 -0.16266,0.88794l0.15398,1.24876c0,0 0.20816,2.49132 -2.28316,2.69948zM355.11625,88.95055c1.248,-1.19661 2.21875,-2.75141 3.71209,-3.6228c1.52162,-0.8879 3.37849,-1.00026 5.06775,-1.50039c3.25047,2.96464 7.10015,6.91074 9.38598,10.69747c2.19119,3.62994 1.76419,4.87929 2.81726,8.42536c2.11611,7.12572 2.88454,16.41504 0.32154,23.68704c-1.00496,2.85136 -3.29881,5.06781 -4.9017,7.6312c-1.32887,2.12518 -2.93782,4.06608 -4.27209,6.18788c-0.48954,0.77848 -0.53556,1.80322 -1.09759,2.53111c-2.24793,2.91129 -4.75319,3.63504 -5.98877,7.09133c0,0 -0.89959,2.33254 -3.23213,1.43294c-2.33254,-0.8996 -1.43294,-3.23213 -1.43294,-3.23213c0.26295,-0.64906 0.55271,-1.22044 0.86431,-1.73665c-0.79599,0.00012 -1.58182,-0.029 -2.23989,-0.42559c-3.82571,-2.30558 -4.71567,-7.55677 -7.5568,-10.70456c-1.53791,-1.70391 -3.87216,-2.58424 -5.33651,-4.35177c-2.83006,-3.416 -3.78621,-8.85334 -5.55122,-12.8573c-2.23926,-5.07982 -6.10637,-9.91685 -7.32615,-15.37404c-1.48334,-6.6363 -0.61613,-14.37334 1.1027,-20.83347c1.81772,-3.26229 3.7108,-8.71863 7.18349,-10.62812c3.79147,-2.08477 5.74054,-0.14922 8.29998,2.41138c5.07279,5.0751 7.56991,10.25741 8.8449,16.48693c0.41363,-0.42332 0.85838,-0.85807 1.33578,-1.31582z" fill="#e3ffff" stroke="none" stroke-width="0.5"/><path d="M352.12628,170.60174c-1.26277,0.70141 -2.58697,-0.22299 -2.58697,-0.22299c-3.56045,-2.50003 -7.38083,-5.31976 -9.83021,-9.02443c-2.21589,-3.35151 -3.05175,-7.51758 -5.18274,-10.88351c-2.26616,-3.57942 -5.41661,-6.67816 -7.47726,-10.41031c-2.25747,-4.08863 -3.18229,-8.54745 -4.86409,-12.84703c-2.22966,-5.7002 -5.47296,-10.88763 -6.95082,-16.90483c-0.71272,-2.90187 -0.78428,-6.41691 -0.96903,-9.34323c-0.14179,-2.27227 -0.23601,-4.54878 -0.26503,-6.82555c-0.09334,-0.10866 -0.17749,-0.22542 -0.25128,-0.3491l-2.60953,-4.2135c-0.5713,-0.76128 -1.09734,-1.59135 -1.57759,-2.56151c-2.21889,-4.48238 -2.47694,-9.06372 -3.54387,-13.86397c-1.27043,-5.71585 -1.79865,-10.63085 -0.60537,-16.499c0.69961,-3.4404 1.408,-9.68192 3.78632,-12.5435c5.84049,-7.02723 15.0754,0.92617 18.32939,6.58418c0.16026,0.27866 0.2993,0.57037 0.41873,0.87135c0.32454,-1.50319 0.73225,-2.9121 0.81627,-3.2659c1.19747,-4.15568 2.6018,-7.92048 4.74728,-11.71774c1.77127,-3.13495 3.52858,-6.40311 8.19794,-5.75402c3.87772,0.53904 5.54041,3.78638 6.84674,6.74389c2.72499,6.16938 5.11178,12.80765 4.95802,19.41999c-0.01054,0.45358 0.23176,-0.88739 0.45292,-1.28353c0.68977,-1.23548 1.57011,-2.35742 2.26729,-3.58873c1.3419,-2.37 2.42125,-4.95433 4.23048,-6.99007c3.77113,-4.24327 11.26031,-9.13477 17.16809,-7.15937c1.47201,0.4922 2.64912,1.61816 3.97368,2.42723c3.10652,5.97889 4.09543,11.63951 5.87127,18.04846c0.43968,1.58677 1.04411,3.12965 1.39793,4.73774c0.17807,0.80934 -0.52146,2.05372 0.1899,2.47884c0.85848,0.51304 1.98487,-0.30588 2.93768,-0.60976c1.4937,-0.47638 2.89113,-1.22129 4.37654,-1.72292c6.75693,-2.28188 12.24259,1.96334 14.18905,8.59752c2.34375,7.98825 -1.84491,13.29143 -4.36487,20.32036c-1.63551,4.56192 -2.14954,9.01469 -3.14558,13.70499c-3.23566,5.23271 -7.31223,10.35013 -9.39433,16.19264c-0.89756,2.5186 -0.98141,5.28801 -1.94654,7.7815c-2.2987,5.93888 -6.91784,10.82002 -10.06155,16.30093c-1.38857,2.42091 -1.39302,5.48761 -2.83118,7.87939c-0.96477,1.60451 -2.67218,2.62324 -3.98907,3.95405c-6.01839,6.08198 -11.39979,10.7882 -20.15449,12.15342l-1.60163,0.36052c0,0 -0.42124,0.09336 -0.95252,0.02751zM351.69555,165.78745c0.18114,-0.06813 0.30133,-0.09477 0.30133,-0.09477l1.92529,-0.42115c7.73949,-1.16495 12.01927,-5.49667 17.38403,-10.75358c1.04397,-1.02299 2.48049,-1.71395 3.22344,-2.97268c1.39278,-2.35969 1.40564,-5.35976 2.75391,-7.74516c2.96412,-5.24418 7.58348,-9.95667 9.74827,-15.6211c0.94022,-2.4602 1.01443,-5.18961 1.90575,-7.66795c2.12948,-5.92105 6.0133,-11.2288 9.48219,-16.42755c0.86568,-4.72302 1.46832,-9.07238 3.12444,-13.65166c2.13639,-5.90725 6.01871,-10.43335 4.21324,-17.1423c-0.34344,-1.27618 -0.8364,-2.56383 -1.65056,-3.60487c-4.90378,-6.27032 -11.72654,3.76671 -17.95004,0.04433c-1.58184,-0.94613 -1.46471,-3.38624 -2.07578,-5.1252c-2.4239,-6.89791 -2.98786,-14.16888 -6.14012,-20.80583c-7.59681,-4.34819 -13.97534,5.15664 -17.35554,10.7825c-1.35731,2.25905 -4.66823,8.69 -9.02293,7.01429c-1.84408,-0.70961 -1.73213,-3.55822 -2.42936,-5.40702c-0.90914,-2.41069 -1.04703,-5.05159 -1.78082,-7.52131c-0.3662,-1.23251 -2.88852,-7.89568 -3.37183,-9.07753c-0.71834,-1.75657 -2.36089,-5.42853 -4.75755,-2.97666c-1.7637,1.80434 -2.34692,4.46883 -3.43031,6.74753c-0.94325,1.98396 -1.59326,4.10131 -2.19468,6.21415c-0.38651,1.58012 -0.4192,3.29189 -1.15954,4.74036c-1.13973,2.22987 -1.98289,5.38528 -4.38233,6.10223c-1.72525,0.5155 -3.03808,-2.08963 -4.04025,-3.58559c-0.7249,-1.08208 -0.2805,-2.65901 -0.90779,-3.80046c-1.5397,-2.80171 -5.689,-6.82319 -9.14547,-6.75074c-1.08956,0.02284 -1.26248,1.82142 -1.57325,2.86596c-0.8306,2.79176 -1.48549,5.63577 -2.07402,8.48839c-1.58211,7.6686 0.1947,16.34938 2.29492,23.80433c0.69644,2.47211 1.74621,3.85672 2.41933,5.72953l0.36062,-0.22334l0.36848,0.59497c0.33654,-0.16863 0.71642,-0.26354 1.11846,-0.26354c1.38071,0 2.5,1.11929 2.5,2.5c0,0.12646 -0.00939,0.25074 -0.02751,0.37216l-0.36982,2.76611c0.00432,2.58107 0.11347,5.16235 0.27564,7.73832c0.14216,2.2858 0.23925,6.07182 0.83206,8.45345c1.4431,5.79761 4.60679,10.81123 6.76488,16.31398c1.58731,4.04735 2.41036,8.32367 4.54094,12.16487c2.04474,3.68644 5.18617,6.74977 7.41404,10.30255c2.0632,3.29019 2.86971,7.35181 5.00604,10.61109c1.9459,2.96874 4.99353,5.2668 7.88219,7.28886z" fill="#e3ffff" stroke="none" stroke-width="0.5"/><path d="M343.80144,158.54715c-2.13633,-3.25928 -2.94977,-7.32315 -5.01297,-10.61334c-2.22787,-3.55277 -5.37975,-6.62188 -7.42448,-10.30832c-2.13058,-3.84121 -2.96355,-8.12703 -4.55087,-12.17437c-2.1581,-5.50274 -5.33142,-10.53668 -6.77452,-16.33429c-0.59281,-2.38163 -0.69107,-6.17855 -0.83323,-8.46435c-0.16217,-2.57597 -0.27034,-5.16697 -0.27465,-7.74804l0.37063,-2.7695c0.01812,-0.12142 0.02764,-0.24613 0.02764,-0.3726c0,-1.38071 -1.1187,-2.5019 -2.49941,-2.5019c-0.40204,0 -0.68672,0.1255 -1.02326,0.29413l-0.46373,-0.62541l-0.36073,0.22369c-0.67312,-1.87281 -1.72122,-3.26192 -2.41766,-5.73403c-2.10021,-7.45495 -3.8681,-16.14968 -2.28599,-23.81828c0.58853,-2.85262 1.24739,-5.70056 2.07799,-8.49231c0.31077,-1.04454 0.48537,-2.84454 1.57493,-2.86738c3.45648,-0.07245 7.66665,4.02832 9.20635,6.83003c0.62729,1.14145 0.18397,2.71756 0.90888,3.79964c1.00217,1.49596 2.25467,4.02134 3.97992,3.50584c2.39945,-0.71695 3.24829,-3.876 4.38803,-6.10588c0.74034,-1.44847 0.77562,-3.16156 1.16213,-4.74168c0.60142,-2.11284 1.25491,-4.23168 2.19815,-6.21565c1.08339,-2.27871 1.6706,-4.94455 3.4343,-6.74888c2.39666,-2.45187 4.04208,1.21935 4.76042,2.97592c0.48331,1.18184 3.0068,7.84477 3.373,9.07727c0.73379,2.46972 0.87194,5.11057 1.78108,7.52126c0.69723,1.8488 0.58693,4.69712 2.43102,5.40673c4.35471,1.67571 7.67651,-4.75583 9.03382,-7.01487c3.3802,-5.62586 9.77244,-15.12795 17.36925,-10.77976c3.15227,6.63695 3.72893,13.91455 6.15284,20.81246c0.61106,1.73896 0.49828,4.1826 2.08013,5.12873c6.22349,3.72237 13.05411,-6.30558 17.95789,-0.03526c0.81416,1.04103 1.30899,2.33169 1.65243,3.60788c1.80547,6.70895 -2.07154,11.24842 -4.20793,17.15567c-1.65612,4.57928 -2.25758,8.94426 -3.12326,13.66728c-3.46889,5.19876 -7.36037,10.5293 -9.48985,16.45036c-0.89132,2.47834 -0.97132,5.21518 -1.91154,7.67538c-2.16479,5.66443 -6.80005,10.38824 -9.76417,15.63242c-1.34828,2.38539 -1.36611,5.38739 -2.75889,7.74708c-0.74295,1.25873 -2.18293,1.95069 -3.2269,2.97368c-5.36476,5.25691 -9.65972,9.59 -17.3992,10.75495l-1.92674,0.42104c0,0 -0.12041,0.02662 -0.30156,0.09475c-2.88867,-2.02206 -5.9434,-4.32133 -7.8893,-7.29007z" data-paper-data="{&quot;noHover&quot;:false,&quot;origItem&quot;:[&quot;Path&quot;,{&quot;applyMatrix&quot;:true,&quot;segments&quot;:[[[703.39109,331.57489],[-5.77733,-4.04413],[0.36228,-0.13626]],[703.99376,331.38535],[[707.84434,330.54305],[0,0],[15.47898,-2.32991]],[[742.61239,309.03589],[-10.72951,10.51383],[2.08795,-2.04597]],[[749.05927,303.09052],[-1.4859,2.51746],[2.78556,-4.71937]],[[754.56709,287.60021],[-2.69655,4.77079],[5.92824,-10.48837]],[[774.06362,256.35801],[-4.32958,11.32887],[1.88044,-4.9204]],[[777.87513,241.02211],[-1.78264,4.95667],[4.25895,-11.84211]],[[796.8395,208.167],[-6.93778,10.39751],[1.73136,-9.44605]],[[803.08839,180.86367],[-3.31225,9.15857],[4.27279,-11.8145]],[[811.51488,146.57908],[3.61094,13.4179],[-0.68688,-2.55237]],[[808.21376,139.36935],[1.62831,2.08207],[-9.80756,-12.54065]],[[772.31369,139.45801],[12.44698,7.44475],[-3.16369,-1.89226]],[[768.16213,129.2076],[1.22213,3.47793],[-4.84781,-13.79582]],[[755.88189,87.59595],[6.30453,13.2739],[-15.19363,-8.69638]],[[721.17081,109.16095],[6.76041,-11.25171],[-2.71462,4.51809]],[[703.12494,123.18954],[8.70941,3.35142],[-3.68816,-1.41922]],[[698.26622,112.3755],[1.39447,3.69759],[-1.81828,-4.82137]],[[694.70458,97.33288],[1.46758,4.93943],[-0.73239,-2.46501]],[[687.96091,79.17783],[0.96662,2.36368],[-1.43669,-3.51314]],[[678.44581,73.2245],[4.79331,-4.90374],[-3.5274,3.60867]],[[671.5852,86.71957],[2.16677,-4.55742],[-1.8865,3.96792]],[[667.19583,99.14787],[1.20284,-4.22568],[-0.77302,3.16024]],[[664.87675,108.62858],[1.48068,-2.89694],[-2.27947,4.45975]],[[656.11209,120.83304],[4.79889,-1.43389],[-3.4505,1.031]],[[648.03159,113.66187],[2.00434,2.99191],[-1.44981,-2.16417]],[[646.21601,106.06095],[1.25458,2.2829],[-3.0794,-5.60342]],[[627.92506,92.55947],[6.91295,-0.1449],[-2.17911,0.04567]],[[624.77856,98.2914],[0.62154,-2.08909],[-1.6612,5.58352]],[[620.63052,115.26818],[1.17705,-5.70524],[-3.16423,15.3372]],[[625.22036,162.87685],[-4.20043,-14.90991],[1.39289,4.94422]],[[630.05902,174.33592],[-1.34624,-3.74562],[0,0]],[630.78026,173.88924],[[631.51722,175.07918],[0,0],[0.67307,-0.33726]],[[633.75414,174.55211],[-0.80409,0],[2.76142,0]],[[638.75414,179.55211],[0,-2.76142],[0,0.25293]],[[638.69911,180.29643],[0.03624,-0.24284],[0,0]],[[637.95947,185.82865],[0,0],[0.00863,5.16214]],[[638.51076,201.3053],[-0.32435,-5.15194],[0.28431,4.5716]],[[640.17488,218.2122],[-1.18563,-4.76326],[2.88619,11.59521]],[[653.70465,250.84015],[-4.3162,-11.00548],[3.17463,8.0947]],[[662.78653,275.1699],[-4.26116,-7.68241],[4.08947,7.37288]],[[677.61462,295.77499],[-4.45574,-7.10555],[4.12641,6.58037]],[[687.6267,316.99717],[-4.27267,-6.51855],[3.8918,5.93748]]],&quot;closed&quot;:true}]}" fill="#9dffff" stroke="none" stroke-width="0.5"/><path d="M359.39054,136.6122l-0.62656,2.89153c-0.56229,1.42414 -0.68266,3.11661 -1.68687,4.27242c-1.45943,1.67977 -2.88954,2.24987 -4.41174,2.32689l0.01178,0.06693l-3.2832,0.5778c-0.15568,0.03035 -0.31653,0.04624 -0.48108,0.04624c-1.38071,0 -2.5,-1.11929 -2.5,-2.5c0,-0.7994 0.3752,-1.51117 0.95911,-1.96881l1.49066,-1.18929c-0.89367,-0.56995 -1.75815,-1.3481 -2.86802,-2.68868c-1.01849,-1.23021 -1.327,-2.92701 -2.25137,-4.22942c-2.86001,-4.02962 -6.85148,-6.76034 -9.36086,-11.18302c-4.14736,-7.30954 -3.02726,-18.32227 -2.46292,-26.39774c0.49712,-7.11363 0.92113,-15.2313 9.44594,-17.12798c1.38261,-0.30761 2.83223,0.05837 4.24835,0.08755c2.21564,1.66946 4.35731,3.63744 5.69793,6.0662c0.42761,0.77468 0.94346,1.52301 1.19033,2.37274c0.12156,0.41841 -0.52554,1.1349 -0.12287,1.30137c0.3879,0.16036 0.37671,-0.75417 0.6212,-1.09536c0.65171,-0.9095 1.30634,-1.82346 2.06175,-2.64885c1.31766,-1.43973 2.37843,-3.30693 4.14615,-4.13413c1.80725,-0.8457 3.96219,-0.52985 5.95651,-0.59337c1.75513,-0.0559 3.75072,-0.65688 5.26279,0.23602c3.8087,2.24911 4.52134,6.7168 5.4115,10.44845c1.68758,7.07461 -1.05661,13.48984 -2.85981,20.30812c-0.50108,1.89468 -0.40308,3.9723 -1.22906,5.74956c-1.37045,2.94878 -4.68314,5.70657 -6.74416,8.27442c-2.3091,3.16165 -4.33311,6.39887 -5.47483,10.16065l-0.0988,0.21855c-0.01256,0.21499 -0.04183,0.35119 -0.04183,0.35119z" fill="#e6ffff" stroke="none" stroke-width="0.5"/><path d="M207.94944,61.93246c3.40529,3.40529 6.23488,7.24377 9.62086,10.62976l0.86864,1.15254c5.85924,-2.87586 11.36485,-6.50501 16.04957,-10.8628c2.03232,-1.89049 5.57015,-4.26367 6.8285,-6.73506c0.52287,-1.02692 1.57584,-6.56571 1.83801,-7.85775c-0.08461,-1.18093 0.37042,-2.53677 -0.25383,-3.54279c-0.70675,-1.13899 -2.24395,-1.4681 -3.33696,-2.24406c-4.45443,-3.16236 -8.75606,-4.52088 -14.2163,-5.50768c-4.04612,-0.73124 -8.48237,-1.08827 -12.59757,-0.77867c-2.86952,0.21589 -4.11667,1.13329 -6.97165,2.34972c-5.69995,2.42858 -11.31967,5.10579 -16.7433,8.14289c-0.25852,0.60113 -0.68034,0.98354 -0.68034,0.98354c-2.94583,2.63714 -6.24363,4.15183 -9.70399,6.0163c-1.02908,0.55448 -2.06978,1.11745 -3.12184,1.67375c-2.26737,1.51259 -4.60092,2.91584 -7.2235,4.01368l-2.14838,0.26655c-0.50553,0.17762 -1.01322,0.34489 -1.52304,0.50039c-1.18229,0.3606 -2.45069,0.34591 -3.65598,0.62c-3.86423,0.87879 -12.0946,2.5453 -11.57974,8.21481c0.11597,1.27709 0.61247,2.50231 1.11648,3.68146c0.2415,0.56502 0.62741,1.08297 1.09192,1.48523c1.80124,1.55987 4.94174,3.44258 7.00029,4.72681c2.69105,1.67883 5.54033,3.12497 8.47922,4.31794c6.92246,3.25342 14.03536,0.51831 21.09517,-1.35407v-0.6247c0.03218,-2.12087 0.31829,-4.35545 1.32059,-6.22482c0.32133,-0.59929 1.07731,-0.92596 1.3077,-1.56575c0.58348,-1.62032 -0.62617,-3.58745 0.062,-5.16614c0.67042,-1.53795 2.50185,-3.13193 4.05984,-4.64311c0.07382,-0.21796 0.15007,-0.43671 0.2288,-0.65632c0.34548,-0.1821 0.67976,-0.39885 1.01197,-0.62199c0.18547,-0.20999 0.35662,-0.41743 0.50908,-0.62187c0,0 1.2253,-1.63372 2.9376,-0.84061c1.96722,-0.18177 3.66819,0.11344 5.15073,0.76255c1.64143,-1.22771 3.17944,0.31029 3.17944,0.31029zM200.74649,79.26296c0.10002,0.12801 0.20148,0.25531 0.30412,0.3819c0.19486,-0.03042 0.38951,-0.06175 0.58389,-0.0941c-0.31075,-0.09453 -0.60636,-0.19249 -0.88801,-0.2878zM219.21368,79.51766c0.61451,0.36359 1.17212,0.79136 1.61061,1.35253c3.07222,3.93184 -0.07521,7.113 -1.78533,10.41567c-0.94815,0.86391 -1.63536,2.16343 -2.84444,2.59173c-0.23508,0.08327 -0.4737,0.15968 -0.71551,0.22935c-1.35947,1.74796 -3.20758,2.9335 -5.25937,3.38553c-5.75431,2.83294 -14.20189,1.37212 -17.63273,-3.8928c-0.86103,-1.32133 -1.19558,-4.55273 -1.35134,-7.39494c-7.08549,1.62425 -14.32665,4.78099 -21.68899,3.48561c-1.58389,-0.27868 -2.95222,-1.2767 -4.42832,-1.91504c-3.17,-1.29929 -6.24555,-2.86213 -9.15524,-4.67067c-2.29086,-1.42391 -6.02439,-3.68035 -7.891,-5.43429c-4.95262,-4.65367 -4.64066,-12.32511 0.05629,-16.87817c3.91805,-3.79802 9.50576,-3.92305 14.43321,-5.26621c0.64559,-0.57147 1.48606,-0.67009 1.48606,-0.67009l0.92607,-0.10098c3.01684,-1.09221 5.95766,-2.60001 8.80008,-4.12525c2.28193,-1.59412 4.50263,-3.30271 6.88469,-4.79651c8.63182,-5.41304 18.29124,-10.82178 28.02401,-13.94549c5.27285,-1.69231 12.26037,-0.79372 17.55166,0.15611c6.06982,1.08958 11.44486,2.63042 16.32486,6.4246c1.57553,1.22497 3.69473,2.00479 4.67088,3.74547c1.0264,1.83028 0.61455,4.15163 0.92183,6.22744c-0.47554,2.51863 -1.3443,7.94601 -2.47267,10.11955c-1.51924,2.92647 -5.36863,5.71236 -7.78839,7.95523c-5.46625,5.06665 -11.94488,9.24008 -18.82801,12.44556c0.05348,0.18452 0.10385,0.36992 0.15106,0.55607z" fill="#e6ffff" stroke="none" stroke-width="0.5"/><path d="M363.61957,257.09691c-0.23622,0.20324 -0.94634,0.73958 -1.82799,0.70552c-0.28419,2.96267 -0.63488,5.93158 -0.798,9.01059c-0.59435,11.21968 0.45447,22.51692 -0.08863,33.73479c-0.24298,5.01893 -0.1065,9.7793 -0.01941,14.81537c0.01773,1.02515 0.00476,2.05061 0.01504,3.07587c0.00912,0.90885 -0.57433,2.05941 0.04316,2.72634c0.85317,0.92147 7.57295,1.27749 7.95327,1.31259c4.13133,0.40022 8.82746,1.50313 12.97722,1.27656c2.68246,-0.14646 5.32482,-1.59989 7.97526,-1.16142c2.77238,0.45865 5.29038,2.27808 8.09984,2.33691c2.77059,0.05802 5.53497,-0.85266 8.29308,-0.58364c4.48553,0.4375 8.77076,2.45013 13.21102,2.98148c1.55396,0.18595 3.13036,-0.09421 4.69484,-0.05244c1.05741,0.02823 2.12043,0.44392 3.1625,0.26225c1.08943,-0.18991 0.62257,-2.20848 0.4051,-3.29275c-0.30556,-1.5235 -0.85269,-2.98843 -1.27297,-4.48436c-1.84758,-6.57623 -3.02738,-13.21744 -4.24518,-19.93284c-0.48798,-10.04644 -0.27799,-20.11225 -0.80221,-30.10208c-0.17999,-3.42996 -1.07574,-6.15389 -2.3083,-9.34104c-0.18953,-0.4901 -0.09515,-1.19357 -0.53346,-1.48342c-0.81927,-0.54179 -1.93918,-0.38248 -2.84873,-0.75323c-0.36757,-0.14983 -4.72014,-2.71486 -6.34196,-2.75583c-2.49811,-0.06311 -4.97699,0.72021 -7.47287,0.59732c-4.97697,-0.24504 -9.62295,-0.1121 -14.62359,-0.08812c-5.10195,0.02446 -9.53148,-0.4577 -14.60684,0.32627c-3.00471,0.36816 -6.01999,0.66098 -9.0402,0.86928zM362.18273,252.28012l0.18671,-0.11151c3.21085,-0.20126 6.41677,-0.50214 9.60992,-0.89448c5.29027,-0.79298 9.95844,-0.34728 15.26328,-0.37273c5.0362,-0.02415 9.74991,-0.18524 14.76621,0.08947c2.61166,0.14302 5.21391,-0.72038 7.82551,-0.57646c2.77285,0.15281 5.41863,2.07339 7.7797,3.11235c1.37406,0.60464 3.03787,0.65873 4.2121,1.59405c2.26948,1.80773 3.88996,8.33328 4.3597,10.865c0.83619,4.50679 0.13476,9.1242 0.04625,13.62787c-0.12772,6.49865 0.63207,13.14994 0.93318,19.64546c1.18559,6.45634 2.34527,12.82871 4.09426,19.15981c0.73341,2.65484 2.39769,6.84713 1.30448,9.80039c-2.05928,5.56304 -8.99464,4.63296 -13.70262,4.07334c-4.35453,-0.51761 -8.58389,-2.50804 -12.96724,-2.95845c-2.72016,-0.27951 -5.4493,0.68338 -8.18219,0.59015c-2.89869,-0.09889 -5.53217,-1.78587 -8.37563,-2.35767c-2.42425,-0.4875 -4.85336,1.06025 -7.32294,1.18587c-4.3736,0.22247 -9.24741,-0.87641 -13.5985,-1.29792c-3.29012,-0.33202 -8.8819,-0.35706 -11.36652,-3.15461c-1.24059,-1.39684 -0.89088,-3.63641 -1.13392,-5.48876c-0.78746,-6.00187 -0.29686,-12.48882 -0.00436,-18.49066c0.5473,-11.22987 -0.5082,-22.54042 0.09051,-33.77296c0.35143,-6.59324 1.65847,-12.6748 1.09249,-19.30418c0,0 -0.20816,-2.49132 2.28316,-2.69948c2.49132,-0.20816 2.69948,2.28315 2.69948,2.28315c0.15173,1.85316 0.16932,3.66343 0.10697,5.45294z" fill="#e6ffff" stroke="none" stroke-width="0.5"/><path d="M372.63359,256.18503c5.07536,-0.78396 9.52134,-0.30825 14.62329,-0.33272c5.00065,-0.02398 9.66677,-0.15678 14.64375,0.08826c2.49588,0.12289 4.98356,-0.65768 7.48167,-0.59457c1.62183,0.04097 5.98215,2.61005 6.34972,2.75988c0.90955,0.37075 2.03231,0.21341 2.85158,0.7552c0.4383,0.28985 0.34523,0.99433 0.53476,1.48442c1.23256,3.18714 2.13614,5.91887 2.31613,9.34883c0.52423,9.98983 0.32316,20.1013 0.81114,30.14774c1.2178,6.7154 2.38723,13.37531 4.23481,19.95155c0.42028,1.49592 0.96557,2.96283 1.27113,4.48633c0.21747,1.08427 0.68239,3.10471 -0.40704,3.29462c-1.04207,0.18166 -2.10683,-0.2325 -3.16424,-0.26073c-1.56449,-0.04177 -3.1442,0.24092 -4.69816,0.05496c-4.44026,-0.53134 -8.73714,-2.53791 -13.22267,-2.97541c-2.75811,-0.26902 -5.53415,0.64436 -8.30474,0.58634c-2.80946,-0.05883 -5.33996,-1.87848 -8.11235,-2.33713c-2.65044,-0.43847 -5.30367,1.01211 -7.98613,1.15857c-4.14976,0.22656 -8.8596,-0.88434 -12.99093,-1.28455c-0.38031,-0.0351 -7.10575,-0.39654 -7.95892,-1.31802c-0.61749,-0.66693 -0.0356,-1.81933 -0.04471,-2.72818c-0.01029,-1.02525 0.00092,-2.05305 -0.01681,-3.0782c-0.08709,-5.03607 -0.23115,-9.81241 0.01183,-14.83134c0.54309,-11.21787 -0.49765,-22.55794 0.0967,-33.77762c0.16311,-3.07902 0.51925,-6.05414 0.80345,-9.01681c0.88164,0.03406 1.59321,-0.50362 1.82942,-0.70686c3.02021,-0.2083 6.04261,-0.50643 9.04732,-0.87459z" data-paper-data="{&quot;noHover&quot;:false,&quot;origItem&quot;:[&quot;Path&quot;,{&quot;applyMatrix&quot;:true,&quot;segments&quot;:[[[727.23914,514.19382],[6.04042,-0.41661],[-0.47243,0.40648]],[[723.58317,515.60486],[1.76329,0.06812],[-0.56838,5.92534]],[[721.98718,533.62605],[0.32622,-6.15803],[-1.1887,22.43936]],[[721.80992,601.09563],[1.08619,-22.43575],[-0.48597,10.03787]],[[721.77111,630.72638],[-0.17419,-10.07215],[0.03546,2.0503]],[[721.8012,636.87811],[-0.02057,-2.0505],[0.01823,1.8177]],[[721.88752,642.33079],[-1.23498,-1.33386],[1.70634,1.84295]],[[737.79406,644.95596],[-0.76063,-0.07019],[8.26265,0.80043]],[[763.74849,647.50908],[-8.29951,0.45313],[5.36493,-0.29291]],[[779.699,645.18625],[-5.30087,-0.87695],[5.54477,0.9173]],[[795.89867,649.86006],[-5.61891,-0.11766],[5.54118,0.11603]],[[812.48484,648.69279],[-5.51622,-0.53804],[8.97106,0.87501]],[[838.90687,654.65574],[-8.88052,-1.06269],[3.10792,0.37191]],[[848.29656,654.55087],[-3.12898,-0.08355],[2.11482,0.05647]],[[854.62156,655.07538],[-2.08414,0.36332],[2.17885,-0.37983]],[[855.43176,648.48989],[0.43493,2.16853],[-0.61112,-3.04701]],[[852.88582,639.52117],[0.84056,2.99185],[-3.69516,-13.15247]],[[844.39545,599.6555],[2.43561,13.43079],[-0.97596,-20.09288]],[[842.79103,539.45134],[1.04845,19.97966],[-0.35998,-6.85993]],[[838.17443,520.76926],[2.46512,6.37429],[-0.37907,-0.9802]],[[837.10752,517.80243],[0.8766,0.5797],[-1.63854,-1.08357]],[[831.41006,516.29596],[1.8191,0.7415],[-0.73514,-0.29966]],[[818.72614,510.78431],[3.24365,0.08194],[-4.99621,-0.12621]],[[803.78041,511.97895],[4.99175,0.24577],[-9.95395,-0.49008]],[[774.53322,511.80271],[10.00129,-0.04796],[-10.20391,0.04893]],[[745.31954,512.45525],[10.15073,-1.56793],[-6.00942,0.73633]]],&quot;closed&quot;:true}]}" fill="#8fffff" stroke="none" stroke-width="0.5"/><path d="M388.94445,281.63985c0,0 1.24291,2.16913 -0.92623,3.41205c-2.16914,1.24291 -3.41205,-0.92622 -3.41205,-0.92622c-0.11813,-0.30629 -0.16394,-0.66772 -0.245,-1.00227c-1.18073,0.61347 -2.51361,0.98051 -3.89493,1.11718c-4.41188,1.16893 -10.59181,-0.53838 -11.22745,-5.01758c-0.56052,-0.96999 -0.92417,-2.06792 -1.0288,-3.28415c-0.50141,-5.82909 6.88179,-8.98611 11.75667,-8.10675c1.63882,-1.15886 3.53475,-1.74428 6.03824,-0.80179c1.93234,0.72746 2.98809,2.85023 4.48212,4.27535c-0.58378,5.08644 0.08527,6.78438 -2.24058,9.02945c0.21555,0.4535 0.43158,0.90649 0.69799,1.30474zM377.58611,276.64029c-0.56991,0.93712 -0.37563,1.31938 0.04179,1.47717c0.05882,-0.5457 0.29323,-1.03879 0.6456,-1.42163c0.05314,-0.29078 0.11345,-0.57995 0.18194,-0.86712c-0.34318,0.22321 -0.6605,0.46819 -0.86934,0.81158zM384.92299,272.32219c0.18788,0.84412 0.25333,1.75915 0.26438,2.71034c0.27121,-0.67196 0.4667,-1.3717 0.58892,-2.05094c-0.30718,-0.27268 -0.59001,-0.49057 -0.8533,-0.6594z" fill="#21ffff" stroke="none" stroke-width="0.5"/><path d="M395.05189,319.81431c0,-1.38071 1.11929,-2.5 2.5,-2.5c1.38071,0 2.5,1.11929 2.5,2.5c0,1.38071 -1.11929,2.5 -2.5,2.5c-1.38071,0 -2.5,-1.11929 -2.5,-2.5z" fill="#8fffff" stroke="none" stroke-width="0.5"/><path d="M397.40315,307.30836c0,-1.38071 1.11929,-2.5 2.5,-2.5c1.38071,0 2.5,1.11929 2.5,2.5c0,1.38071 -1.11929,2.5 -2.5,2.5c-1.38071,0 -2.5,-1.11929 -2.5,-2.5z" fill="#8fffff" stroke="none" stroke-width="0.5"/></g></g></svg>