<svg version="1.1" xmlns="http://www.w3.org/2000/svg" xmlns:xlink="http://www.w3.org/1999/xlink" width="96.67592" height="91.89894" viewBox="0,0,96.67592,91.89894"><g transform="translate(-174.227,-143.82434)"><g data-paper-data="{&quot;isPaintingLayer&quot;:true}" fill-rule="nonzero" stroke-linecap="butt" stroke-linejoin="miter" stroke-miterlimit="10" stroke-dasharray="" stroke-dashoffset="0" style="mix-blend-mode: normal"><path d="M211.09719,210.90787v-61.81574h57.80573v61.81574z" fill="#00f6f7" stroke="#000000" stroke-width="4"/><path d="M218.22687,235.16347c-1.99804,1.5026 -3.50065,-0.49544 -3.50065,-0.49544l-1.31308,-2.3371c-0.87081,-8.35009 2.17125,-12.93232 7.26318,-19.36537c0,0 1.5517,-1.96016 3.51186,-0.40846c1.96016,1.5517 0.40846,3.51186 0.40846,3.51186c-4.28525,5.41263 -6.95711,8.76281 -6.21112,15.7371l0.33679,-0.14323c0,0 1.5026,1.99804 -0.49544,3.50065z" data-paper-data="{&quot;index&quot;:null}" fill="#000000" stroke="none" stroke-width="0.5"/><path d="M181.00956,197.11433c-0.17862,-2.49361 2.315,-2.67223 2.315,-2.67223l2.42114,-0.10293c2.35753,-1.53269 4.68431,-2.90926 7.0679,-4.34218c4.66279,-2.8031 7.62494,-6.03643 13.25181,-6.74156c0,0 2.48318,-0.28945 2.77263,2.19374c0.28945,2.48318 -2.19374,2.77263 -2.19374,2.77263c-4.76351,0.50023 -7.35168,3.69805 -11.28092,6.07619c-2.66895,1.61536 -5.37473,3.21376 -8.09593,4.80398l-3.58566,0.32734c0,0 -2.49361,0.17862 -2.67223,-2.315z" data-paper-data="{&quot;index&quot;:null}" fill="#000000" stroke="none" stroke-width="0.5"/><path d="M175.0829,189.03007c-1.8381,-1.69451 -0.14359,-3.53262 -0.14359,-3.53262l0.57083,-0.61241c6.23746,-5.97177 13.9274,-10.38137 22.25147,-12.61755c0,0 2.41502,-0.64627 3.06129,1.76876c0.64627,2.41502 -1.76876,3.06129 -1.76876,3.06129c-7.4906,1.99605 -14.48554,5.99785 -20.08003,11.39319l-0.35859,0.39576c0,0 -1.69451,1.8381 -3.53262,0.14359z" data-paper-data="{&quot;index&quot;:null}" fill="#000000" stroke="none" stroke-width="0.5"/><path d="M217.74158,177.53218l1.44796,-2.50305c5.31642,-5.01233 -0.20291,-12.84817 -3.34651,-17.7127c-0.52611,-0.78233 -1.00864,-1.59578 -1.57831,-2.34698c-1.02519,-1.3519 -2.27555,-2.53527 -3.20196,-3.95669c-0.37798,-0.57994 -0.34153,-1.35442 -0.66009,-1.96901c-0.38281,-0.73851 -2.81605,1.285 -2.94378,1.61374c-0.47604,1.22516 0.40289,2.598 0.63697,3.89139c0.50663,2.79936 2.71954,3.97775 3.64326,6.91805c0.65353,2.08025 -0.25384,4.3633 -0.12883,6.54021c0.15145,2.63743 2.1968,4.88614 2.54846,7.50441c0.13219,0.98422 -0.47658,1.95059 -0.45957,2.9435c0.01831,1.06889 0.29249,2.26424 0.65748,3.44709c0.96164,-1.05204 1.98726,-2.04325 3.08258,-2.95172c-0.0354,-0.77502 0.30233,-1.41823 0.30233,-1.41823zM208.69917,178.45563c-0.03075,-0.8591 0.58393,-1.68166 0.47637,-2.53455c-0.33631,-2.66672 -2.34801,-4.96738 -2.55812,-7.647c-0.13924,-1.77574 0.89484,-3.63857 0.3441,-5.33249c-0.51429,-1.58182 -1.99124,-2.6778 -2.79248,-4.13541c-1.10697,-2.01379 -2.29278,-7.79959 -1.36006,-9.98672c0.53686,-1.25887 1.68928,-2.19989 2.79248,-3.00978c2.94501,-2.16204 5.03279,-2.92968 8.24058,-0.39506c0.87608,0.69224 0.86743,2.07353 1.49207,2.99901c1.47246,2.18165 3.21065,3.9687 4.68311,6.15035c3.05929,4.7493 7.52615,11.4892 6.60612,17.65167c-0.10945,0.73314 -0.24554,1.33831 -0.41217,1.857c2.59905,0.91991 4.31043,4.52148 4.76456,6.67026c0.89815,4.24966 -2.0167,8.18178 -5.24729,11.03235c2.06117,1.62547 3.03832,4.45828 3.45394,6.96878c0.22211,1.3416 0.8984,2.81523 0.35941,4.06371c-0.54516,1.26277 -2.15001,1.71597 -3.22501,2.57396c0,0 -2.10741,1.34493 -3.45234,-0.76248c-0.00825,-0.01292 -0.01636,-0.02581 -0.02435,-0.03867c-0.47603,-0.26461 -0.76578,-0.59788 -0.76578,-0.59788l-0.62478,-0.74177c-0.81571,-0.7537 -2.76375,-2.44943 -3.77605,-3.70312l-0.97813,0.5937c-1.32787,-0.21759 -2.90834,-0.57898 -4.41957,-1.17538c0.03267,1.45344 -1.416,2.1901 -1.416,2.1901c-2.02979,1.00949 -4.26768,1.53242 -6.42117,2.24065c-4.46086,1.46707 -8.99849,5.80454 -12.9366,8.31783l-0.06444,0.19198c0,0 -1.69451,1.8381 -3.53262,0.14359c-1.8381,-1.69451 -0.14359,-3.53262 -0.14359,-3.53262l1.05085,-1.01781c4.42604,-2.82447 9.15563,-7.12183 14.13332,-8.87484c1.87275,-0.65953 3.8779,-1.00312 5.63845,-1.92071c-0.97008,-0.94689 -1.67126,-2.13076 -1.89599,-3.61041c-0.21032,-1.38477 1.48344,-2.37677 2.18903,-3.58671c0.57742,-0.99015 1.18904,-1.97191 1.83798,-2.93336c-1.01747,-2.77579 -1.90264,-4.94577 -2.01583,-8.10815zM219.92266,189.95988c2.18554,-1.36627 5.34684,-4.13286 5.97249,-6.70941c0.29865,-1.22989 -0.37837,-2.51461 -0.77102,-3.71779c-0.07024,-0.21525 0.1782,-0.84823 0.02815,-0.67867c-2.74574,3.10263 -6.44459,5.60308 -9.26913,8.94422c-0.135,0.42492 -0.40992,0.85173 -0.93001,1.17868c-0.19353,0.26426 -0.38107,0.53408 -0.56187,0.81005c-0.52481,0.80112 -0.75523,1.79382 -1.37889,2.52064c-0.31896,0.37173 -1.4323,0.15403 -1.32646,0.63227c0.20077,0.90714 2.37261,1.566 4.01196,1.92953c0.01079,-0.12106 0.03025,-0.24204 0.05936,-0.36283c0.44677,-1.85359 1.74731,-3.03492 3.30722,-3.62668c0.35094,-0.58742 0.85818,-0.92003 0.85818,-0.92003zM224.0224,198.86273c-0.23684,-0.94319 -0.52595,-2.15131 -0.92634,-2.70586c-0.30925,-0.42833 -1.33444,-0.88553 -1.96382,-0.98083c0.17154,0.414 0.19141,0.80867 0.13229,1.16126c0.74289,0.86693 1.87893,1.79272 2.75786,2.52544z" data-paper-data="{&quot;index&quot;:null}" fill="#000000" stroke="none" stroke-width="0.5"/></g></g></svg>