<svg version="1.1" xmlns="http://www.w3.org/2000/svg" xmlns:xlink="http://www.w3.org/1999/xlink" width="95.66667" height="49" viewBox="0,0,95.66667,49"><g transform="translate(-192.16667,-155.5)"><g data-paper-data="{&quot;isPaintingLayer&quot;:true}" fill-rule="nonzero" stroke-linecap="butt" stroke-linejoin="miter" stroke-miterlimit="10" stroke-dasharray="" stroke-dashoffset="0" style="mix-blend-mode: normal"><path d="M194.66668,202v-44h90.66667v44z" fill="#ffffff" stroke="#000000" stroke-width="5"/><path d="M233.49601,194.78477c-2.25614,-1.56096 -3.59747,-2.79042 -5.48078,-4.6798c-0.89908,-0.90197 -2.27745,-1.27016 -3.083,-2.25655c-0.45985,-0.56307 -0.49432,-1.37025 -0.81186,-2.02423c-2.94787,-6.07114 -4.76543,-11.43897 -0.82148,-17.55421c2.23174,-3.02067 8.60642,-7.64633 11.35121,-2.25561c0.36651,0.71982 0.61043,1.55394 0.777,2.4465c0.64142,-1.06348 1.41804,-2.04225 2.29622,-2.86106c1.24365,-1.15958 4.05906,-1.9797 5.72117,-1.06457c0.95431,0.52543 1.19005,1.82655 1.7303,2.77254c0.49542,0.86749 1.52004,1.37689 1.94268,2.28208c1.21653,2.60553 0.93044,5.45526 0.17777,8.11297c-1.16733,2.19195 -1.71801,4.89858 -3.09464,6.91282c-1.04257,1.52546 -2.56507,2.74772 -3.67124,4.20137c-1.29158,1.6973 -1.5807,3.5788 -3.19716,5.10102l-0.40182,0.30864c0,0 -0.74029,0.55371 -1.42377,0.07215c-0.08806,0.08075 -0.18774,0.14902 -0.29622,0.20207c-0.7091,0.97794 -1.71438,0.28387 -1.71438,0.28387z" fill="#ff0000" stroke="none" stroke-width="0.5"/><path d="M252.635,184.05717c0,-1.25 1.25,-1.25 1.25,-1.25l0.05943,0.02415c2.35109,-0.46404 3.19949,-0.88383 4.69166,-2.67506c0.51835,-0.62224 2.52125,-1.68804 1.71218,-1.72375c-1.14641,-0.0506 -5.11114,-1.03379 -5.834,-1.91746c-1.97344,-2.41244 -0.07973,-3.06874 1.07356,-4.40127c0.36417,-0.42076 1.49218,-1.18609 0.96446,-1.36264c-0.47583,-0.15919 -3.77218,-0.46595 -4.43062,-0.64015c0,0 -1.20842,-0.31973 -0.88869,-1.52814c0.31973,-1.20842 1.52814,-0.88869 1.52814,-0.88869c0.06035,0.01596 5.51426,1.20703 5.59873,1.32995c1.08098,1.57289 0.12335,3.52534 -0.85906,4.6992c-0.34262,0.40939 -1.53642,0.9776 -1.05387,1.20593c1.38326,0.65454 5.20965,0.63517 6.01884,2.17428c1.07797,2.05036 -0.88354,3.37643 -1.88072,4.61851c-1.8069,2.25068 -3.3052,2.98796 -6.15161,3.56101l-0.54843,0.02415c0,0 -1.25,0 -1.25,-1.25z" fill="#ff7373" stroke="none" stroke-width="0.5"/><path d="M241.10127,197.81498c-0.19443,-1.23478 1.04035,-1.42922 1.04035,-1.42922l1.3203,-0.20147c1.5967,-0.59274 3.11746,-0.55531 4.77285,-0.78581c0.13179,-0.01835 0.30064,-0.0551 0.48231,-0.09506c-1.18668,-0.86297 -2.74349,-2.67098 -2.93284,-2.85963c0,0 -0.88509,-0.88268 -0.00241,-1.76776c0.88268,-0.88509 1.76776,-0.00241 1.76776,-0.00241c1.04835,1.0466 2.19422,1.9908 3.28161,2.99677c0.59858,0.55375 1.79233,0.92691 1.7204,1.73917c-0.26789,3.02505 -6.58924,2.48979 -8.45418,3.19261l-1.56695,0.25317c0,0 -1.23478,0.19443 -1.42922,-1.04036z" fill="#ff7373" stroke="none" stroke-width="0.5"/><path d="M206.00026,181.50325c0.20496,-1.23308 1.43804,-1.02813 1.43804,-1.02813l1.3393,0.30646c0.81156,0.48272 1.39419,1.31992 2.24735,1.72461c2.2059,1.04633 6.39658,0.15386 7.60037,3.13421c0.24036,0.5951 -0.8708,2.67565 -1.90278,3.71739c0.53565,-0.04773 1.08038,-0.03465 1.61777,-0.03405c0.61607,0.00068 1.22775,0.1041 1.84163,0.15615c0,0 1.24533,0.10799 1.13733,1.35332c-0.10799,1.24533 -1.35332,1.13733 -1.35332,1.13733c-1.16332,-0.10339 -5.79002,0.59936 -6.40127,-0.62571c-0.46427,-0.93051 0.14336,-2.11797 0.56671,-3.0678c0.34134,-0.76583 1.04649,-1.31615 1.64775,-1.90053c0.10514,-0.10219 0.54609,-0.03144 0.42485,-0.11389c-1.68882,-1.14855 -4.55851,-0.70172 -6.37993,-1.56372c-0.87551,-0.41433 -1.47234,-1.27711 -2.31144,-1.76095l-0.48422,0.00337c0,0 -1.23309,-0.20495 -1.02813,-1.43804z" fill="#ff7373" stroke="none" stroke-width="0.5"/><path d="M218.26822,164.49811c-0.59979,-0.46055 -0.39449,-1.27941 -0.39449,-1.27941l2.48741,-0.3527c0.70453,2.46533 1.02247,6.34828 -2.34176,6.97458c-1.33743,0.24898 -2.71521,-0.27156 -4.02058,-0.70733c1.1091,0.89623 2.06625,1.99202 2.94728,3.07889c0,0 0.78217,0.97505 -0.19288,1.75721c-0.97505,0.78217 -1.75721,-0.19288 -1.75721,-0.19288c-1.2289,-1.55069 -5.47163,-3.99394 -5.45092,-6.12686c0.00917,-0.94405 1.12767,-1.76128 2.05233,-1.95188c2.47591,-0.51037 7.51385,4.44011 6.70752,-1.01137c-0.00938,-0.06339 -0.02187,-0.12608 -0.0367,-0.18824z" fill="#ff7373" stroke="none" stroke-width="0.5"/><path d="M246.57025,167.39927c0.36669,1.195 -0.82831,1.5617 -0.82831,1.5617l-1.84514,0.55811c-0.54576,0.31562 -3.08579,1.75993 -3.40702,2.06517c-1.04115,0.98932 -1.67449,2.40913 -2.85522,3.22684c-1.17893,0.81647 -2.46366,1.79183 -2.9338,3.14662c0,0 -0.41704,1.17838 -1.59542,0.76134c-1.17838,-0.41704 -0.76134,-1.59542 -0.76134,-1.59542c1.06499,-2.96198 3.00419,-3.08694 4.88983,-5.27503c1.8238,-2.11634 3.21648,-3.23025 5.6689,-4.6234l2.10582,-0.65426c0,0 1.195,-0.36669 1.5617,0.82831z" fill="#ff7373" stroke="none" stroke-width="0.5"/><path d="M224.21852,188.37623c0,-1.25 1.25,-1.25 1.25,-1.25l0.7989,0.00511c3.49291,-0.30298 6.11478,-1.64964 6.08095,-5.42314c0,0 0,-1.25 1.25,-1.25c1.25,0 1.25,1.25 1.25,1.25c-0.03686,5.11769 -3.54046,7.46009 -8.35522,7.91292l-1.02463,0.00511c0,0 -1.25,0 -1.25,-1.25z" fill="#ff7373" stroke="none" stroke-width="0.5"/><path d="M223.60751,170.00668c1.24484,-0.11348 1.35832,1.13136 1.35832,1.13136l0.00099,0.01083c0.20375,2.69609 1.27197,4.74589 3.88882,5.8523c0,0 1.1457,0.49988 0.64581,1.64558c-0.49988,1.1457 -1.64558,0.64581 -1.64558,0.64581c-3.47135,-1.55058 -5.00083,-4.26646 -5.37874,-7.91673l-0.00099,-0.01083c0,0 -0.11348,-1.24484 1.13136,-1.35832z" fill="#ff7373" stroke="none" stroke-width="0.5"/></g></g></svg>