<svg version="1.1" xmlns="http://www.w3.org/2000/svg" xmlns:xlink="http://www.w3.org/1999/xlink" width="483" height="369" viewBox="0,0,483,369"><g transform="translate(2.5025,0.04228)"><g data-paper-data="{&quot;isPaintingLayer&quot;:true}" fill-rule="nonzero" stroke-linecap="butt" stroke-linejoin="miter" stroke-miterlimit="10" stroke-dasharray="" stroke-dashoffset="0" style="mix-blend-mode: normal"><path d="M81.4975,44.95772v-44h398v44z" fill="#ff9b00" stroke="#000000" stroke-width="2"/><path d="M459.4975,361.95772v-314h20v314z" fill="#ff9b00" stroke="#000000" stroke-width="2"/><path d="M-0.5025,367.95772v-45h459v45z" fill="#ff9b00" stroke="#000000" stroke-width="2"/><path d="M-1.5025,358.95772v-290h14v290z" fill="#ff9b00" stroke="#000000" stroke-width="2"/><path d="M325.71516,144.63669c0.7262,-3.27666 1.55047,-6.32013 2.50174,-9.63163c1.01267,-3.52522 0.92519,-7.6151 3.37637,-10.64339c1.16211,-1.43572 2.83539,-2.37 4.30424,-3.48995c1.34289,-1.02393 2.44251,-2.81723 4.12687,-2.93854c1.69589,-0.12214 3.28744,1.17049 4.54581,2.31394c3.00856,2.73378 2.23186,5.72236 2.42176,9.3431c0.1013,1.9315 0.67521,3.81037 1.10162,5.69695c0.12665,0.56033 -0.21017,1.25205 0.12462,1.71888c0.66187,0.92289 1.93787,-1.1853 2.92136,-1.75324c3.19847,-1.84705 3.72465,-1.49376 7.6606,-2.07496c7.00592,-0.34179 14.4802,-1.68006 21.14505,-3.83435l0.13332,0.01146l-0.00885,-0.04141l2.69121,-0.57513c0.18443,-0.04336 0.37673,-0.0663 0.5744,-0.0663c1.38071,0 2.5,1.11929 2.5,2.5c0,0.56398 -0.18675,1.08434 -0.50179,1.50262l-2.13938,2.90946l-0.01627,-0.01197c-0.02613,0.04487 -0.05262,0.08957 -0.0795,0.13407c-0.84604,1.40122 -2.28006,2.35017 -3.37419,3.56758c-2.4907,2.77131 -4.9646,5.58293 -7.4287,8.38303c-1.80842,2.055 -4.71088,6.37047 -3.81355,9.15888c0.74804,2.3245 2.0452,2.62121 4.19901,4.39878c4.11343,3.39488 7.95555,7.93516 12.63569,10.55673c1.36233,0.7631 5.45174,1.82357 6.45254,3.16659c1.23771,1.66094 3.00452,3.74556 2.40724,5.72897c-1.29149,4.28868 -5.59266,4.09888 -8.69729,4.38992c-3.93351,0.29907 -7.93456,1.0613 -11.68011,0.53743c-0.33713,-0.04715 0.72072,0.16442 0.92211,0.43886c0.57811,0.78782 0.77497,1.80656 1.32052,2.61727c0.9114,1.3544 2.09857,2.50697 3.02991,3.84774c0.83889,1.20768 1.74377,2.40937 2.27022,3.78235c0.92279,2.40662 2.29827,8.42121 1.51761,11.33195c-0.40925,1.52594 -0.62797,3.46086 -1.95551,4.31736c-1.6325,1.05325 -3.8468,0.73862 -5.78867,0.67899c-4.4585,-0.13691 -9.4074,-1.68916 -13.92016,-2.09695c-0.63367,-0.05726 -1.27261,-0.43695 -1.88851,-0.2773c-1.2577,0.32602 -0.84429,2.49243 -0.91029,3.79002c-0.13176,2.59049 -0.08921,5.19665 -0.40825,7.77079c-0.2548,1.65203 -0.47082,3.3105 -0.76439,4.95608c-0.33615,1.88421 0.0559,4.12396 -1.12433,5.63071c-2.72613,3.48034 -6.70483,1.90786 -8.89942,-0.69756c-0.76636,-0.90982 -0.45591,-2.36152 -0.96956,-3.43448c-2.09162,-4.36924 -9.64126,-5.6931 -13.87778,-5.2828c-2.19371,0.21246 -4.27228,0.44035 -5.94947,1.92043c-2.95403,2.60684 -3.67714,7.57687 -7.11872,9.77595c-3.08713,1.9726 -5.64143,1.09172 -9.00311,0.36085c-2.23023,-0.48488 -4.27778,-1.81218 -5.98336,-3.32877c-2.41933,-1.27802 -4.64437,-2.84859 -7.03306,-4.16151c-0.70461,-0.38728 -6.12802,-2.96086 -6.77,-3.52414c-1.16125,-1.01889 -2.51766,-2.1308 -2.87744,-3.63319c-0.32052,-1.33841 0.68511,-2.66603 1.05124,-3.99268c0.7486,-2.71254 1.18033,-4.70416 3.26119,-6.96004c1.73126,-1.87687 4.41857,-2.65767 6.22967,-4.45762c0.47935,-0.47639 4.34949,-5.86125 3.94303,-6.1558c-1.82963,-1.32586 -4.32513,-1.54847 -6.11187,-2.9316c-2.1264,-1.64606 -3.07567,-4.48432 -5.11142,-6.24125c-1.05127,-0.9073 -7.74186,-3.84326 -8.3648,-4.28493c-1.24081,-0.87976 -2.10082,-2.20023 -3.15122,-3.30034c-0.66804,-0.8911 -1.71283,-1.59835 -2.00412,-2.67329c-1.61692,-5.96691 0.76215,-5.30951 5.7339,-7.719c4.72562,-2.2902 10.41971,-1.87179 15.5741,-2.70015c0.97816,-0.1572 3.73011,-0.43296 4.62878,-1.35444c2.4751,-2.53791 -1.16008,-5.24464 -2.40338,-6.68485c-4.36969,-5.06175 -7.84298,-9.89793 -9.70875,-16.37684c-1.44495,-5.0176 -3.68993,-10.64125 3.95247,-11.56305c1.97325,-0.238 3.9666,0.45305 5.87936,0.99314c1.45966,0.41215 2.77385,1.22786 4.16078,1.84179c2.78053,1.81266 5.64336,3.50616 8.57846,5.05608c1.83108,0.96694 3.4513,2.46624 5.46285,2.95766c2.12138,0.51826 4.31372,0.6341 6.49758,0.80705zM326.8583,149.7562c-3.04697,-0.34939 -6.15137,-0.381 -9.11652,-1.14933c-5.03323,-1.3042 -10.693,-5.60729 -14.95754,-8.40028c-2.29449,-1.02935 -4.71346,-1.8863 -7.20247,-2.24554c-0.41498,-0.0599 -1.0467,-0.32463 -1.25726,0.03794c-0.21588,0.37174 0.42894,0.75215 0.56081,1.16129c0.42529,1.31952 0.72558,2.67621 1.10575,4.00943c1.67528,5.87512 4.8847,9.86883 8.72571,14.53025c1.21589,1.47558 2.93971,2.61812 3.72614,4.36089c0.64427,1.42772 0.60448,3.13901 0.35611,4.68554c-1.52138,9.47318 -14.72594,7.15296 -21.45582,8.47249c-0.81392,0.15958 -1.48188,0.75682 -2.2649,1.0303c-1.12825,0.39406 -2.35097,0.50306 -3.4525,0.96657c-0.15433,0.06494 0.26632,0.20492 0.38293,0.32508c0.38871,0.40054 0.75393,0.82324 1.13089,1.23485c3.32111,3.62706 7.52155,4.10113 11.21281,7.26546c1.90153,1.63009 2.68998,4.36037 4.68551,5.87392c0.12667,0.09607 6.90115,3.5744 7.21192,4.10298c2.13617,3.63332 -0.31826,6.40116 -2.14866,9.23108c-2.54836,3.93992 -5.33749,4.28863 -8.44812,7.51216c-1.88587,1.95431 -1.3142,2.89428 -2.22508,5.15505c-0.21616,0.53651 -0.9439,0.90139 -0.90804,1.47869c0.02555,0.41117 0.68052,0.46677 1.04126,0.66573c0.83767,0.46202 1.69722,0.88332 2.55072,1.3154c3.80223,1.92491 7.33688,4.20372 11.07761,6.24056c0.70794,0.66863 1.28968,1.50343 2.1238,2.00591c0.61316,0.36936 1.38157,0.37831 2.08168,0.52745c1.25867,0.2681 2.50856,0.633 3.79226,0.72376c1.43865,0.10171 1.75029,-0.90419 2.46,-1.92534c1.74359,-2.50872 3.07404,-5.81861 5.44909,-7.81136c2.80063,-2.34983 5.20918,-2.76341 8.94189,-3.16004c5.29566,-0.56272 12.45292,1.1974 16.21798,5.0159c0.9015,0.91429 1.83631,1.85029 2.42992,2.98881c0.44403,0.85162 0.27742,1.91318 0.59796,2.81854c0.11296,0.31906 0.85591,0.81077 0.89751,0.47487c0.33664,-2.71811 0.43678,-5.46525 0.85444,-8.17209c0.59238,-4.66737 -1.16667,-12.75411 4.16779,-15.40507c1.25547,-0.6239 2.80021,-0.2086 4.20189,-0.18185c4.45364,0.085 5.32448,0.35283 9.47537,1.16855c2.33988,0.45983 4.80021,2.02215 7.04804,1.22608c0.36259,-0.12841 0.00752,-0.76933 0.00389,-1.15398c-0.01411,-1.4973 -0.00188,-2.76091 -0.2709,-4.25416c-0.45202,-2.50903 -1.21591,-5.08283 -2.69977,-7.15592c-1.61611,-2.25786 -4.26495,-4.74946 -4.9581,-7.65481c-0.38977,-1.63377 -1.29482,-3.71463 -0.25348,-5.03248c1.13759,-1.43966 3.54628,-0.94452 5.32677,-1.38793c3.52476,-0.87779 6.47778,-0.92578 10.03262,-1.20117c0.58645,-0.02127 3.77257,0.0403 4.23466,-0.69058c0.25756,-0.40738 -0.7069,-0.66604 -1.11968,-0.91483c-0.58188,-0.35072 -1.21973,-0.60001 -1.84285,-0.87078c-2.74126,-1.19119 -5.44334,-2.59104 -7.78638,-4.44674c-2.0333,-1.61038 -3.73381,-3.60565 -5.70315,-5.29364c-3.27971,-2.81116 -7.91758,-5.11577 -9.18933,-9.56605c-2.26236,-7.91671 5.87144,-14.88065 10.48997,-20.15186c0.70718,-0.80711 1.31464,-1.68521 1.93604,-2.50182c-5.509,1.3791 -11.33228,2.23998 -16.85174,2.5209c-1.21573,0.16526 -2.45823,0.19298 -3.64719,0.49578c-3.90708,0.99506 -5.53233,5.59757 -10.45909,2.31981c-1.25756,-0.83666 -1.29582,-2.73226 -1.83479,-4.14327c-1.53366,-4.01507 -0.71909,-7.33041 -1.39893,-11.42384c-0.1053,-0.63401 -0.62327,-1.12452 -0.95592,-1.67442c-0.16915,-0.27962 -0.25914,-0.96439 -0.54855,-0.81259c-0.66564,0.34915 -0.79581,1.29782 -1.34825,1.80753c-1.09258,1.00807 -2.57555,1.57923 -3.54443,2.7067c-1.89136,2.20092 -1.74982,6.26539 -2.50181,8.89706c-0.73712,2.57966 -1.392,4.95076 -1.98543,7.41666c0.12131,0.09024 0.24317,0.19558 0.36501,0.31776c1.76533,1.77021 -0.00487,3.53553 -0.00487,3.53553l-1.50472,0.92897c-0.33424,0.68808 -1.09868,1.63868 -2.71152,1.31524c-0.11989,-0.02404 -0.23274,-0.05277 -0.33895,-0.08567z" fill="#000000" stroke="none" stroke-width="0.5"/><path d="M327.18259,149.79407c1.61284,0.32344 2.38229,-0.62841 2.71653,-1.31649l1.50748,-0.92943c0,0 1.78325,-1.66619 0.01792,-3.43639c-0.12185,-0.12218 -0.25649,-0.32669 -0.3778,-0.41693c0.59343,-2.4659 1.25193,-4.83736 1.98905,-7.41702c0.75198,-2.63168 0.61351,-6.69624 2.50487,-8.89715c0.96889,-1.12747 2.45524,-1.69852 3.54782,-2.70658c0.55244,-0.50971 0.68373,-1.45829 1.34938,-1.80744c0.28941,-0.1518 0.37998,0.53302 0.54913,0.81265c0.33265,0.5499 0.8517,1.04053 0.957,1.67454c0.67984,4.09343 -0.13133,7.40932 1.40233,11.42439c0.53897,1.41101 0.58062,3.30741 1.83819,4.14406c4.92676,3.27776 6.56229,-1.32072 10.46937,-2.31578c1.18896,-0.30281 2.43433,-0.32889 3.65006,-0.49415c5.51947,-0.28092 11.35166,-1.13482 16.86066,-2.51391c-0.62139,0.81661 -1.22861,1.69495 -1.93579,2.50206c-4.61854,5.27122 -12.74592,12.24301 -10.48356,20.15972c1.27175,4.45029 5.91648,6.77068 9.19619,9.58184c1.96934,1.688 3.67105,3.69069 5.70435,5.30106c2.34305,1.85569 5.04531,3.26055 7.78657,4.45174c0.62312,0.27077 1.26094,0.52087 1.84283,0.87159c0.41278,0.2488 1.3772,0.50827 1.11964,0.91565c-0.46209,0.73088 -3.64825,0.67021 -4.2347,0.69147c-3.55484,0.27539 -6.50806,0.32567 -10.03282,1.20347c-1.78049,0.44341 -4.18957,-0.04893 -5.32716,1.39074c-1.04134,1.31785 -0.13788,3.40534 0.2519,5.03911c0.69314,2.90535 3.33956,5.4032 4.95567,7.66106c1.48386,2.07309 2.24519,4.65167 2.69721,7.1607c0.26902,1.49325 0.25495,2.75968 0.26906,4.25698c0.00362,0.38465 0.35817,1.0263 -0.00442,1.15471c-2.24783,0.79607 -4.71028,-0.76355 -7.05016,-1.22338c-4.15089,-0.81572 -5.02641,-1.07869 -9.48005,-1.16369c-1.40168,-0.02676 -2.94989,-0.43919 -4.20535,0.18471c-5.33447,2.65096 -3.58706,10.74425 -4.17944,15.41162c-0.41767,2.70684 -0.52107,5.45515 -0.85771,8.17326c-0.0416,0.3359 -0.78517,-0.15561 -0.89813,-0.47467c-0.32053,-0.90536 -0.1537,-1.96699 -0.59773,-2.81861c-0.59361,-1.13852 -1.52986,-2.07411 -2.43136,-2.98839c-3.76507,-3.8185 -10.93986,-5.57698 -16.23552,-5.01426c-3.73271,0.39664 -6.15055,0.80855 -8.95119,3.15837c-2.37505,1.99275 -3.70823,5.30179 -5.45182,7.81051c-0.70971,1.02115 -1.02274,2.02655 -2.46139,1.92484c-1.2837,-0.09075 -2.5366,-0.45689 -3.79527,-0.725c-0.70011,-0.14913 -1.47014,-0.15886 -2.0833,-0.52822c-0.83412,-0.50248 -1.418,-1.33839 -2.12593,-2.00703c-3.74073,-2.03684 -7.28415,-4.32187 -11.08639,-6.24679c-0.8535,-0.43209 -1.71474,-0.85496 -2.55241,-1.31697c-0.36073,-0.19896 -1.01643,-0.25527 -1.04197,-0.66644c-0.03587,-0.5773 0.69164,-0.94244 0.9078,-1.47895c0.91088,-2.26076 0.33784,-3.20219 2.22371,-5.1565c3.11064,-3.22352 5.89981,-3.57217 8.44817,-7.51209c1.8304,-2.82991 4.28009,-5.60391 2.14392,-9.23722c-0.31077,-0.52858 -7.08964,-4.01523 -7.21631,-4.1113c-1.99553,-1.51355 -2.78656,-4.25203 -4.68809,-5.88212c-3.69126,-3.16432 -7.89285,-3.64746 -11.21396,-7.27452c-0.37696,-0.41162 -0.74221,-0.83549 -1.13092,-1.23604c-0.1166,-0.12016 -0.53726,-0.26045 -0.38293,-0.32539c1.10154,-0.46352 2.32425,-0.57345 3.4525,-0.9675c0.78303,-0.27348 1.45101,-0.87182 2.26493,-1.03141c6.72988,-1.31953 19.93767,0.98466 21.45905,-8.48852c0.24837,-1.54653 0.29105,-3.26409 -0.35321,-4.69181c-0.78643,-1.74277 -2.50884,-2.88773 -3.72472,-4.36331c-3.84101,-4.66142 -7.04604,-8.66114 -8.72132,-14.53626c-0.38016,-1.33322 -0.67905,-2.69147 -1.10434,-4.011c-0.13187,-0.40914 -0.77641,-0.78986 -0.56053,-1.1616c0.21056,-0.36257 0.84283,-0.09841 1.25781,-0.03851c2.48901,0.35924 4.9105,1.21378 7.20499,2.24313c4.26454,2.79299 9.931,7.09105 14.96423,8.39525c2.96515,0.76833 6.08097,0.79464 9.12795,1.14403c0.10621,0.0329 0.21956,0.06148 0.33944,0.08552z" data-paper-data="{&quot;noHover&quot;:false,&quot;origItem&quot;:[&quot;Path&quot;,{&quot;applyMatrix&quot;:true,&quot;segments&quot;:[[[653.7166,299.5124],[0.21242,0.0658],[-6.09395,-0.69878]],[[635.48356,297.21375],[5.93029,1.53665],[-10.06646,-2.60841]],[[605.56849,280.41318],[8.52907,5.58599],[-4.58897,-2.0587]],[[591.16356,275.9221],[4.97802,0.71849],[-0.82995,-0.11979]],[[588.64904,275.99798],[0.42112,-0.72514],[-0.43176,0.74347]],[[589.77067,278.32056],[-0.26374,-0.81829],[0.85058,2.63905]],[[591.98216,286.33942],[-0.76033,-2.66645],[3.35056,11.75025]],[[609.43358,315.39993],[-7.68202,-9.32284],[2.43177,2.95117]],[[616.88587,324.12172],[-1.57287,-3.48554],[1.28853,2.85543]],[[617.59809,333.49279],[0.49674,-3.09306],[-3.04276,18.94636]],[[574.68645,350.43778],[13.45976,-2.63906],[-1.62783,0.31917]],[[570.15664,352.49839],[1.56606,-0.54696],[-2.2565,0.78811]],[[563.25164,354.43153],[2.20307,-0.92703],[-0.30866,0.12988]],[[564.01749,355.08169],[-0.23321,-0.24031],[0.77741,0.80109]],[[566.27926,357.55139],[-0.75392,-0.82323],[6.64222,7.25412]],[[588.70487,372.08231],[-7.38252,-6.32865],[3.80306,3.26017]],[[598.07589,383.83016],[-3.99106,-3.02711],[0.25333,0.19214]],[[612.49973,392.03612],[-0.62155,-1.05716],[4.27234,7.26663]],[[608.20241,410.49827],[3.66081,-5.65983],[-5.09673,7.87985]],[[591.30617,425.52258],[6.22127,-6.44704],[-3.77174,3.90862]],[[586.85601,435.83268],[1.82176,-4.52153],[-0.43232,1.07301]],[[585.03993,438.79006],[-0.07173,-1.1546],[0.05109,0.82234]],[[587.12245,440.12152],[-0.72147,-0.39792],[1.67535,0.92403]],[[592.22389,442.75233],[-1.707,-0.86418],[7.60447,3.84983]],[[614.37911,455.23345],[-7.48147,-4.07368],[1.41587,1.33727]],[[618.62671,459.24527],[-1.66825,-1.00495],[1.22632,0.73873]],[[622.79007,460.30016],[-1.40023,-0.29826],[2.51733,0.53621]],[[630.37458,461.74767],[-2.56739,-0.1815],[2.87731,0.20341]],[[635.29459,457.89699],[-1.41942,2.0423],[3.48718,-5.01745]],[[646.19277,442.27427],[-4.75011,3.98551],[5.60126,-4.69965]],[[664.07655,435.95418],[-7.46543,0.79328],[10.59132,-1.12544]],[[696.51252,445.98597],[-7.53014,-7.63699],[1.80299,1.82857]],[[701.37236,451.96359],[-1.18722,-2.27705],[0.88805,1.70324]],[[702.56827,457.60067],[-0.64106,-1.81072],[0.22592,0.63812]],[[704.3633,458.5504],[-0.0832,0.6718],[0.67328,-5.43622]],[[706.07219,442.20622],[-0.83534,5.41369],[1.18477,-9.33475]],[[714.40777,411.39607],[-10.66893,5.30192],[2.51093,-1.2478]],[[722.81155,411.03238],[-2.80337,-0.05351],[8.90729,0.17001]],[[741.76228,413.36949],[-8.30178,-1.63145],[4.67975,0.91966]],[[755.85836,415.82165],[-4.49566,1.59214],[0.72519,-0.25683]],[[755.86615,413.51369],[0.00725,0.76929],[-0.02822,-2.99459]],[[755.32435,405.00537],[0.53803,2.98649],[-0.90403,-5.01806]],[[749.92481,390.69353],[2.96773,4.14618],[-3.23223,-4.51571]],[[740.00862,375.38391],[1.38628,5.8107],[-0.77955,-3.26754]],[[739.50165,365.31895],[-2.08268,2.6357],[2.27519,-2.87933]],[[750.15519,362.54309],[-3.56098,0.88682],[7.04951,-1.75559]],[[770.22042,360.14075],[-7.10967,0.55078],[1.1729,-0.04254]],[[778.68973,358.75958],[-0.92417,1.46176],[0.51511,-0.81475]],[[776.45037,356.92992],[0.82556,0.49759],[-1.16377,-0.70144]],[[772.76468,355.18835],[1.24624,0.54154],[-5.48253,-2.38238]],[[757.19191,346.29488],[4.68609,3.71139],[-4.0666,-3.22075]],[[745.78562,335.70759],[3.93868,3.37599],[-6.55942,-5.62232]],[[727.40695,316.57548],[2.54351,8.90057],[-4.52471,-15.83342]],[[748.3869,276.27176],[-9.23707,10.54243],[1.41435,-1.61422]],[[752.25897,271.26812],[-1.24278,1.63322],[-11.018,2.7582]],[[718.55548,276.30992],[11.03893,-0.56184],[-2.43146,0.33052]],[[711.2611,277.30148],[2.37792,-0.60561],[-7.81417,1.99011]],[[690.34293,281.94111],[9.85352,6.55552],[-2.51513,-1.67331]],[[686.67335,273.65457],[1.07795,2.82203],[-3.06732,-8.03014]],[[683.87549,250.80688],[1.35968,8.18686],[-0.21059,-1.26802]],[[681.96364,247.45803],[0.66531,1.09981],[-0.33831,-0.55925]],[[680.86654,245.83285],[0.57882,-0.30361],[-1.33129,0.69831]],[[678.17004,249.44791],[1.10488,-1.01942],[-2.18515,2.01613]],[[671.08117,254.86131],[1.93777,-2.25493],[-3.78272,4.40183]],[[666.07756,272.65544],[1.50397,-5.26336],[-1.47424,5.15932]],[[662.1067,287.48876],[1.18685,-4.93181],[0.24261,0.18048]],[[662.83673,288.12427],[-0.24369,-0.24436],[3.53065,3.54041]],[662.82698,295.19533],[[659.81754,297.05327],[0,0],[-0.66848,1.37616]],[[654.39449,299.68375],[3.22569,0.64689],[-0.23977,-0.04808]]],&quot;closed&quot;:true}]}" fill="#00ba37" stroke="none" stroke-width="0.5"/><path d="M327.68881,172.44278c0.26433,0 0.50072,0.02795 0.71211,0.07793c0.26603,-2.01665 0.70801,-3.98292 1.58621,-5.88429c0.70502,-1.52643 0.66489,-4.46368 2.34627,-4.46525c1.84951,-0.00172 7.8908,6.3844 9.21616,8.22577c0.22008,0.30577 -0.21708,1.08366 0.15799,1.11913c0.41869,0.03959 0.36394,-0.81219 0.71992,-1.03611c1.23693,-0.77804 2.58778,-2.43009 3.95006,-1.90136c1.81643,0.70499 3.12724,2.82515 3.40064,4.75431c0.19301,1.36185 -1.32517,2.43721 -2.2353,3.4685c-0.21274,0.24106 -1.24909,0.01828 -0.95358,0.14493c1.34211,0.57518 2.99311,0.17158 4.30412,0.81448c1.22321,0.59984 6.09094,4.20878 6.30323,5.57878c0.23492,1.51603 -1.02279,2.94427 -1.94172,4.17272c-0.94029,1.25701 -2.34661,2.08572 -3.51993,3.12859c-1.96137,1.90917 -2.91002,3.53383 -3.78125,6.16906c-0.42926,1.2984 0.12161,3.34326 -1.10323,3.95144c-1.87044,0.92873 -4.17925,-0.09617 -6.25796,-0.29636c-4.54604,-0.4378 -9.72396,-1.11348 -14.20357,-1.93913c-1.75687,-0.32381 -3.83445,-0.2692 -5.15235,-1.47528c-1.14506,-1.04789 -1.43717,-2.9124 -1.33454,-4.46117c0.35088,-5.29495 2.2896,-6.18965 5.86685,-9.07358c0.20642,-0.16641 4.53593,-2.79871 3.78198,-3.58055c-0.9803,-1.01656 -2.34843,-1.57656 -3.44264,-2.46937l-0.91948,-2.5232c0,0 0,-2.5 2.5,-2.5zM332.86793,176.44929c1.44412,1.4061 2.27222,3.10063 1.26328,5.85377c-1.43703,3.92132 -5.91371,4.34076 -8.11528,7.35819c-0.66591,0.91269 -0.762,2.12739 -1.12115,3.19857c-0.06775,0.20208 -0.36126,0.55229 -0.15895,0.61933c1.97523,0.65452 4.1703,0.03551 6.23595,0.28656c3.18476,0.38707 7.47062,0.92985 10.46079,1.77041c0.86046,0.24188 1.4726,1.19255 2.36333,1.26684c0.44329,0.03697 -0.77179,-0.68836 -0.71138,-1.12907c0.16483,-1.20254 0.83532,-2.28142 1.33075,-3.3895c0.89452,-2.00071 2.36313,-3.73101 3.90118,-5.29224c1.04733,-0.91118 2.01819,-1.91857 3.14201,-2.73356c0.21893,-0.15877 1.0198,0.03331 0.80144,-0.12624c-2.64931,-1.93563 -9.35302,-2.25715 -10.55402,-6.11257c-0.18701,-0.60035 -0.04466,-1.19941 0.24237,-1.78687c-0.62928,0.14387 -1.12352,0.19961 -1.23874,0.18254c-1.34512,-0.19933 -2.03131,-1.81199 -2.97708,-2.78902c-0.79798,-0.82435 -2.48974,-2.31307 -3.44692,-3.95707c-0.17944,0.3527 -0.36271,0.70609 -0.46975,1.07381c-0.60087,2.06438 -0.5376,2.67252 -0.69533,4.7827c0,0 -0.03337,0.43257 -0.25251,0.92341z" fill="#000000" stroke="none" stroke-width="0.5"/><path d="M333.09189,175.48482c0.15773,-2.11018 0.10551,-2.72411 0.70639,-4.78848c0.10703,-0.36773 0.29303,-0.72204 0.47246,-1.07474c0.95718,1.644 2.65983,3.13064 3.45781,3.95499c0.94577,0.97703 1.65137,2.59201 2.99649,2.79134c0.11521,0.01708 0.61612,-0.03595 1.2454,-0.17981c-0.28703,0.58746 -0.42528,1.1888 -0.23827,1.78914c1.201,3.85542 7.92831,4.22271 10.57763,6.15834c0.21837,0.15955 -0.58256,-0.03186 -0.80149,0.12691c-1.12381,0.81499 -2.09781,1.83629 -3.14514,2.74747c-1.53805,1.56123 -3.02595,3.31551 -3.92047,5.31622c-0.49543,1.10808 -1.17598,2.19204 -1.34081,3.39458c-0.06041,0.44071 1.15555,1.16571 0.71226,1.12874c-0.89072,-0.07429 -1.50943,-1.02289 -2.36989,-1.26478c-2.99018,-0.84056 -7.31674,-1.39127 -10.5015,-1.77833c-2.06565,-0.25105 -4.27178,0.35713 -6.24701,-0.29739c-0.20231,-0.06704 0.09048,-0.41823 0.15823,-0.62031c0.35915,-1.07119 0.45159,-2.29188 1.1175,-3.20457c2.20157,-3.01744 6.67382,-3.47026 8.11084,-7.39158c1.00893,-2.75314 0.19786,-4.47571 -1.24627,-5.88182c0.21914,-0.49084 0.25583,-0.92593 0.25583,-0.92593z" data-paper-data="{&quot;noHover&quot;:false,&quot;origItem&quot;:[&quot;Path&quot;,{&quot;applyMatrix&quot;:true,&quot;segments&quot;:[[[665.73585,352.89857],[0.43828,-0.98168],[2.88825,2.81221]],[[668.26242,364.60612],[2.01786,-5.50629],[-2.87405,7.84265]],[[652.03186,379.3225],[4.40313,-6.03487],[-1.33182,1.82537]],[[649.78956,385.71964],[0.71831,-2.14237],[-0.13551,0.40416]],[[649.47167,386.9583],[-0.40463,-0.13408],[3.95045,1.30904]],[[661.94357,387.53142],[-4.13129,-0.5021],[6.36952,0.77413]],[[682.86516,391.07225],[-5.98035,-1.68112],[1.72093,0.48377]],[[687.59181,393.60593],[-1.78145,-0.14857],[0.88658,0.07394]],[[686.16905,391.34779],[-0.12082,0.88142],[0.32967,-2.40509]],[[688.83054,384.56879],[-0.99085,2.21616],[1.78904,-4.00142]],[[696.6329,373.98431],[-3.07609,3.12245],[2.09467,-1.82237]],[[702.91691,368.51719],[-2.24763,1.62998],[0.43786,-0.31754]],[[704.51979,368.26472],[0.43673,0.31909],[-5.29862,-3.87127]],[[683.41175,356.03958],[2.402,7.71085],[-0.37403,-1.20069]],[[683.8965,352.46585],[-0.57406,1.17492],[-1.25855,0.28773]],[[681.41902,352.83092],[0.23043,0.03415],[-2.69023,-0.39866]],[[675.46486,347.25288],[1.89154,1.95406],[-1.59595,-1.6487]],[[668.57103,339.33874],[1.91436,3.288],[-0.35888,0.7054]],[[667.63153,341.48636],[0.21407,-0.73545],[-1.20175,4.12875]],[[666.24087,351.05175],[0.31545,-4.22036],[0,0]]],&quot;closed&quot;:true}]}" fill="#00ba37" stroke="none" stroke-width="0.5"/><path d="M307.60156,169.27601c0,-2.76142 2.23858,-5 5,-5c2.76142,0 5,2.23858 5,5c0,2.76142 -2.23858,5 -5,5c-2.76142,0 -5,-2.23858 -5,-5z" fill="#ff0000" stroke="none" stroke-width="0.5"/><path d="M340.91104,155.01148c0,-2.76142 2.23858,-5 5,-5c2.76142,0 5,2.23858 5,5c0,2.76142 -2.23858,5 -5,5c-2.76142,0 -5,-2.23858 -5,-5z" fill="#ff0000" stroke="none" stroke-width="0.5"/><path d="M355.99832,180.02332c0,-2.76142 2.23858,-5 5,-5c2.76142,0 5,2.23858 5,5c0,2.76142 -2.23858,5 -5,5c-2.76142,0 -5,-2.23858 -5,-5z" fill="#ff0000" stroke="none" stroke-width="0.5"/><path d="M317.98627,208.16163c0,-2.76142 2.23858,-5 5,-5c2.76142,0 5,2.23858 5,5c0,2.76142 -2.23858,5 -5,5c-2.76142,0 -5,-2.23858 -5,-5z" fill="#ff0000" stroke="none" stroke-width="0.5"/><path d="M344.04605,216.56403c0,-2.76142 2.23858,-5 5,-5c2.76142,0 5,2.23858 5,5c0,2.76142 -2.23858,5 -5,5c-2.76142,0 -5,-2.23858 -5,-5z" fill="#ff0000" stroke="none" stroke-width="0.5"/><path d="M332.09384,189.40275c0,-2.76142 2.23858,-5 5,-5c2.76142,0 5,2.23858 5,5c0,2.76142 -2.23858,5 -5,5c-2.76142,0 -5,-2.23858 -5,-5z" fill="#ff0000" stroke="none" stroke-width="0.5"/><path d="M298.00055,181.58653c0,-2.76142 2.23858,-5 5,-5c2.76142,0 5,2.23858 5,5c0,2.76142 -2.23858,5 -5,5c-2.76142,0 -5,-2.23858 -5,-5z" fill="#ff0000" stroke="none" stroke-width="0.5"/></g></g></svg>