<svg version="1.1" xmlns="http://www.w3.org/2000/svg" xmlns:xlink="http://www.w3.org/1999/xlink" width="142.48883" height="102.24296" viewBox="0,0,142.48883,102.24296"><g transform="translate(-209.09725,-147.09213)"><g data-paper-data="{&quot;isPaintingLayer&quot;:true}" fill-rule="nonzero" stroke-linecap="butt" stroke-linejoin="miter" stroke-miterlimit="10" stroke-dasharray="" stroke-dashoffset="0" style="mix-blend-mode: normal"><path d="M211.09726,210.90787v-61.81574h57.80573v61.81574z" fill="#00f6f7" stroke="#000000" stroke-width="4"/><g stroke="none" stroke-width="0.5"><g><path d="M280.82746,193.24597c-0.71957,1.26516 -1.38917,2.47915 -2.00437,3.39251c0.01586,0.06413 0.0355,0.12874 0.05813,0.19291c-0.02514,-0.03886 -0.05313,-0.07114 -0.08443,-0.09497c-0.93979,-0.71517 -2.15354,-0.99314 -3.27202,-1.37219c-1.79215,-0.60735 -3.53621,-1.54218 -5.17911,-2.48113c-1.00786,-0.57602 -2.1311,-0.97389 -3.21373,-1.39277c-0.72974,-0.28232 -1.47235,-0.54244 -2.22899,-0.74177c-0.26257,-0.06917 -0.75077,0.19938 -0.81197,-0.06516c-0.07366,-0.31853 0.38994,-0.53342 0.62195,-0.76379c0.52937,-0.52559 3.16947,-4.25974 4.20575,-3.88015c1.91232,0.70052 2.86745,2.19803 4.41435,3.36061c2.29577,1.72539 5.52132,2.15862 7.49444,3.84589z" data-paper-data="{&quot;noHover&quot;:false,&quot;origItem&quot;:[&quot;Path&quot;,{&quot;applyMatrix&quot;:true,&quot;segments&quot;:[[[290.70156,197.04816],[0,0],[-1.15982,2.32268]],[[288.83299,205.20695],[1.11875,-2.64498],[-0.75382,1.78221]],[[286.62252,210.25816],[0.21708,-2.02498],[-0.11762,1.0973]],[[291.36824,213.38896],[-0.63805,-0.3865],[0.27964,0.16939]],[[292.25489,213.80837],[-0.29126,0.14853],[0.24189,-0.12336]],[[292.12154,213.00479],[-0.00359,0.2715],[0.01036,-0.78237]],[[292.29649,210.664],[-0.09739,0.77636],[0.14452,-1.15183]],[[292.84666,207.22513],[-0.3151,1.11728],[0.51362,-1.82123]],[[294.00682,201.66814],[-0.15577,1.88585],[0.09722,-1.17696]],[[294.55628,198.16809],[-0.46658,1.0849],[0.01555,-0.03614]],[[294.62793,198.06315],[-0.03163,0.0338],[-0.0568,0.03749]],[[294.45536,198.16652],[0.05838,-0.03089],[-1.03506,-0.37595]],[[290.70155,197.04816],[1.40167,0.39212],[0,0]]],&quot;closed&quot;:true,&quot;fillColor&quot;:[0,0,0,1]}]}" fill="#8f4c00"/><path d="M284.31354,197.03738c0.35054,0.02671 0.76169,-0.02667 1.216,-0.20604c2.32532,-0.91809 1.37472,-3.14886 1.37472,-3.14886c-0.09439,-0.21551 -0.1444,-0.53366 -0.22147,-0.76027c0.7513,-1.11946 1.57727,-2.0702 2.48816,-2.58179c1.19628,-0.67187 2.17993,1.23056 2.81378,1.55852c0.64193,0.33213 1.39556,0.41795 2.11677,0.4993c-1.88641,0.70231 -3.39516,2.52284 -4.91653,3.88208c-4.45922,3.98411 -7.30498,8.92965 -11.37873,13.28106c-1.09453,1.16914 -1.93051,2.62837 -3.245,3.54325c-0.46176,0.3214 -0.84308,-0.88784 -0.87536,-1.44952c-0.0449,-0.7806 0.64599,-2.4505 0.89064,-3.12003c2.30178,-1.66228 3.86792,-3.35875 5.35326,-5.53757c0.18646,0.00676 0.37479,-0.01461 0.56506,-0.07278c0.59628,-0.18221 0.99563,-0.6509 1.31551,-1.20604l0.04815,0.01359c0,0 2.38086,-0.86377 1.58162,-3.19782c0.27945,-0.44474 0.57658,-0.95377 0.87347,-1.4971z" data-paper-data="{&quot;noHover&quot;:false,&quot;origItem&quot;:[&quot;Path&quot;,{&quot;applyMatrix&quot;:true,&quot;segments&quot;:[[[293.58691,192.69103],[0,0],[0.59903,0.15663]],[[295.24835,193.16655],[-0.49912,-0.16356],[2.07137,-1.34015]],[298.68417,193.89486],[[298.68272,193.94485],[0,0],[0.61603,0.17607]],[[300.15051,194.93518],[-0.32106,-0.53448],[0.10246,0.17055]],[[300.35854,195.46549],[-0.03855,-0.18256],[2.47343,0.91411]],[[307.01163,199.33176],[-2.16974,-1.83126],[0.70883,0.07542]],[[310.25,199.44706],[-0.74655,0.23241],[0.53717,-0.16721]],[[311.44186,198.25205],[0.42355,0.37029],[-1.20571,-1.05412]],[[307.21838,195.96155],[1.3992,0.77918],[-5.20767,-2.90005]],[[291.58051,188.13092],[4.94454,3.36293],[-1.68694,-1.14735]],[[286.71033,184.35047],[1.13782,1.66048],[0.09555,0.71948]],[[286.74129,186.51905],[0.16698,-0.70322],[-0.16488,0.69434]],[[285.9135,189.61448],[-0.94132,-0.99819],[0.71676,0.76006]],[[289.02128,191.39794],[-1.26796,-0.45817],[0.20123,-0.1296]],[[289.60575,190.99099],[-0.18629,0.14372],[0,0]],[[293.09325,191.57177],[-1.45336,-2.03415],[0.28395,0.39742]],[[293.58691,192.69102],[-0.05888,-0.34658],[0,0]]],&quot;closed&quot;:true,&quot;fillColor&quot;:[0,0,0,1]}]}" fill="#8f4c00"/><g><path d="M286.58602,209.91477c5.12064,3.13212 11.67031,5.29933 15.86296,9.664c2.34666,2.44293 4.28866,6.09698 6.77869,8.35291c1.00542,0.9109 2.41407,1.28826 3.43837,2.17788c2.16674,1.88187 3.14857,4.27437 5.80934,5.75932c3.24417,1.81054 8.61004,2.51638 12.58929,4.4228c-0.11893,-1.77766 -0.20263,-3.55953 -0.61186,-5.28721c-0.47407,-2.0014 -2.32279,-3.46183 -2.94483,-5.42229c-0.45465,-1.43295 0.67395,-3.61962 -0.56244,-4.47481c-1.50491,-1.04091 -3.51856,-1.2149 -4.97207,-2.32643c-5.40597,-4.13416 -10.78605,-8.43682 -16.40846,-12.3395c-1.4539,-1.00919 -3.05689,-1.82678 -4.37634,-3.00635c-3.55176,-3.17525 -4.34236,-5.8447 -9.07537,-7.0667c-2.77254,2.56981 -4.9073,5.55665 -7.19269,8.48961c0.55514,0.35227 1.11027,0.70453 1.66539,1.0568zM308.41686,206.33443c5.69559,3.91326 11.2286,8.20697 16.60953,12.48668c1.54619,1.22976 3.90202,1.23965 5.31711,2.61825c1.66256,1.6197 1.27325,4.46441 1.94741,6.68545c0.62263,2.05129 2.48833,3.60232 3.0159,5.6801c0.59813,2.35563 0.32632,4.85067 0.56958,7.26884c0.71289,0.70914 1.42577,1.41831 2.13867,2.12746l0.00036,-0.00035l1.78235,1.86345c0.73133,0.72967 0.9598,1.86924 0.48699,2.85307c-0.57327,1.1929 -1.96946,1.72383 -3.18028,1.23904l-3.72854,-1.45048l0.01172,-0.03011c-0.05365,-0.01085 -0.10726,-0.02203 -0.16082,-0.03351c-2.84223,-0.61013 -6.60493,-3.48964 -9.30589,-4.6468c-2.67304,-1.14519 -5.2823,-1.32192 -7.87201,-2.75491c-3.02333,-1.67293 -4.3502,-4.39207 -6.79519,-6.47644c-1.016,-0.86617 -2.40753,-1.22916 -3.38993,-2.13326c-3.18219,-2.92855 -4.91759,-7.63216 -8.62923,-10.06643c-4.21106,-2.76179 -8.97744,-4.77812 -13.2904,-7.40463c-0.74941,-0.47547 -1.49879,-0.95093 -2.24819,-1.4264l-0.00984,-0.0069c-0.06652,0.07199 -0.13341,0.14379 -0.20061,0.21542c-1.28259,1.36673 -4.20653,4.78229 -6.01932,5.04769c-8.29541,1.21456 -6.61878,-8.3663 -4.82921,-12.50885c1.98001,-1.6165 3.45744,-2.93056 4.80762,-4.74403c-1.61653,-0.54916 -3.33583,-0.83293 -4.8755,-1.56934c-1.7983,-0.8601 -3.30599,-2.29779 -5.16843,-3.00834c-1.9192,-0.73222 -5.32363,-1.40586 -6.00191,-3.88798c-1.25848,-4.60539 5.84731,-11.81227 10.28894,-11.13631c3.31086,0.50387 4.41224,2.59325 6.65321,4.33166c2.12758,1.65043 4.93512,2.06151 7.22609,3.38564c1.10775,-1.43971 2.34334,-2.61347 3.7414,-3.11454c1.3535,-0.48508 2.91597,-0.51972 4.31012,-0.16812c1.04275,0.26301 1.64365,1.41805 2.59951,1.9108c2.51933,1.29877 6.05516,0.32111 5.37682,5.63912c-0.00761,0.05972 -1.75426,1.75901 -3.51168,3.45507c4.81193,2.35349 7.70429,6.57933 12.33362,9.75998zM280.77907,193.23343c-1.97311,-1.68727 -5.16864,-2.06145 -7.46439,-3.78685c-1.5469,-1.16258 -2.4541,-2.6663 -4.36641,-3.36679c-1.03625,-0.37959 -3.65651,3.32174 -4.18589,3.84735c-0.23202,0.23034 -0.69509,0.44031 -0.62146,0.75884c0.06117,0.26456 0.54941,-0.00415 0.81198,0.06501c0.75662,0.19933 1.4992,0.45373 2.22892,0.73604c1.08265,0.41888 2.19576,0.78974 3.20362,1.36575c1.64288,0.93896 3.31913,1.86267 5.11127,2.47006c1.11849,0.37906 2.32335,0.6647 3.26316,1.37987c0.03131,0.02383 0.05934,0.05603 0.08448,0.09491c-0.02263,-0.06418 -0.04271,-0.12833 -0.05856,-0.19246c0.6152,-0.91336 1.2737,-2.10659 1.99326,-3.37175zM284.30874,197.08714c-0.29689,0.54334 -0.58388,1.05233 -0.86333,1.49705c0.79923,2.33404 -1.53788,3.15758 -1.53788,3.15758l-0.04815,-0.01351c-0.31988,0.55514 -0.71973,1.00239 -1.31601,1.18461c-0.19027,0.05816 -0.37842,0.08032 -0.56488,0.07356c-1.48533,2.17882 -3.05917,3.85787 -5.36094,5.52015c-0.24467,0.66952 -0.94021,2.3337 -0.89531,3.11428c0.0323,0.56165 0.40943,1.76695 0.87117,1.44555c1.3145,-0.91488 2.14968,-2.37476 3.24421,-3.54391c4.07375,-4.3514 6.92192,-9.29486 11.38114,-13.27897c1.52137,-1.35926 2.95994,-3.10863 4.84635,-3.81095c-0.72122,-0.08134 -1.46971,-0.16244 -2.11166,-0.49459c-0.63382,-0.32796 -1.60697,-2.22393 -2.80321,-1.55205c-0.91089,0.5116 -1.73102,1.46456 -2.48233,2.58401c0.07706,0.22661 0.15908,0.45004 0.25347,0.66557c0,0 0.9181,2.32531 -1.40721,3.24341c-0.45431,0.17937 -0.8549,0.23495 -1.20543,0.20823zM278.96579,197.10461c0.04337,0.17003 0.06918,0.36552 0.08702,0.54364l0.09272,-0.04834c-0.04176,-0.16494 -0.1108,-0.33012 -0.17973,-0.49528z" fill="#000000"/><path d="M285.72625,209.71886c-0.55515,-0.35226 -1.11003,-0.70504 -1.66516,-1.05732c2.28536,-2.93296 4.43268,-5.93684 7.20522,-8.50667c4.73301,1.22201 5.52941,3.88705 9.08116,7.06231c1.31945,1.17956 2.93153,1.99248 4.38542,3.00168c5.62243,3.90269 11.06933,8.26351 16.47531,12.39769c1.4535,1.11154 3.46637,1.28842 4.97128,2.32931c1.23639,0.85517 0.10397,3.05106 0.55863,4.484c0.62202,1.96047 2.46733,3.42639 2.94141,5.42779c0.40924,1.72766 0.48875,3.51461 0.60769,5.29227c-3.97924,-1.90641 -9.35662,-2.60316 -12.60079,-4.4137c-2.66079,-1.48494 -3.6517,-3.87337 -5.81843,-5.75522c-1.02427,-0.88962 -2.4486,-1.26442 -3.45403,-2.1753c-2.49003,-2.25592 -4.4822,-5.96113 -6.82885,-8.40405c-4.19266,-4.36465 -10.73822,-6.55064 -15.85882,-9.68275z" data-paper-data="{&quot;noHover&quot;:false,&quot;origItem&quot;:[&quot;Path&quot;,{&quot;applyMatrix&quot;:true,&quot;segments&quot;:[[[305.48257,187.37814],[0,0],[1.8003,-5.72625]],[[311.02193,169.64846],[-3.22072,5.12402],[1.80266,-2.86794]],[[317.48681,161.05038],[-1.58652,2.96182],[0.64061,-1.19593]],[[318.76819,157.18728],[-0.6154,1.20908],[1.30179,-2.55763]],[[322.95103,150.15719],[-0.79714,2.94099],[0.97192,-3.58581]],[[324.19684,136.87189],[-0.88712,4.32224],[-1.69607,0.54545]],[[319.21472,138.74466],[1.57735,-0.81504],[-1.82727,0.94417]],[[314.66589,142.91377],[1.75176,-1.07783],[-1.28039,0.7878]],[[310.46009,144.54206],[0.53066,-1.40656],[-0.64591,1.71202]],[[309.4056,149.92925],[0.7269,-1.67923],[-2.70354,6.24553]],[[301.40217,168.8355],[2.42658,-6.39956],[-0.62749,1.65485]],[[299.54384,173.80914],[0.82532,-1.5656],[-2.22169,4.21441]],[[294.88257,184.32452],[0.04068,-4.88805],[3.16421,2.0685]],[[304.86007,189.24974],[-3.39872,-1.50794],[0.20751,-0.62387]],[[305.48258,187.37815],[-0.2075,0.62387],[0,0]]],&quot;closed&quot;:true,&quot;fillColor&quot;:[0,0,0,1]}]}" fill="#c6c6c6"/></g></g><path d="M350.32462,197.93663c2.15724,1.26346 0.89377,3.42069 0.89377,3.42069l-0.55175,0.83095c-1.01781,3.08875 -1.87678,6.14228 -2.91456,9.21162c-0.29387,0.86917 -1.81778,6.6257 -2.55729,7.614c-0.68493,0.91534 -1.84882,1.34531 -2.77323,2.01798c0,0 -2.07598,1.39295 -3.46893,-0.68302c-1.39295,-2.07598 0.68302,-3.46893 0.68302,-3.46893c2.69036,-1.54004 2.38173,-4.13008 3.39579,-7.12791c1.02822,-3.03974 1.88069,-6.05954 2.88503,-9.12452l0.98746,-1.7971c0,0 1.26346,-2.15724 3.42069,-0.89377z" fill="#000000"/><path d="M340.34194,180.33342l3.68427,0.04329c-0.38983,3.33026 -1.54867,6.18136 -2.49713,9.35792c-2.20537,7.38612 -3.06212,13.76737 -8.77757,19.30754c0,0 -1.80383,1.73097 -3.53478,-0.07286c-1.73097,-1.80383 0.07286,-3.53478 0.07286,-3.53478c4.97545,-4.71745 5.5506,-10.76921 7.45506,-17.1522c0.70614,-2.36668 1.58849,-4.50621 2.06451,-6.87123c-0.06932,-0.60251 0.07082,-1.09483 0.07082,-1.09483l0.11573,0.00136c0.02307,-0.16618 0.04386,-0.33371 0.06217,-0.50275z" fill="#000000"/><path d="M329.87615,182.4999c2.44403,0.52607 1.91796,2.97009 1.91796,2.97009l-0.38093,1.72639c-1.04269,3.40061 -1.56624,7.40869 -3.39954,10.49437c-1.50158,2.52733 -3.80104,4.41455 -5.25392,7.07833c0,0 -1.20352,2.19125 -3.39475,0.98773c-2.19125,-1.20352 -0.98773,-3.39475 -0.98773,-3.39475c1.50058,-2.71565 3.824,-4.73557 5.3751,-7.28689c1.6216,-2.6673 1.96797,-6.36729 2.88043,-9.34427l0.27329,-1.31305c0,0 0.52607,-2.44403 2.97009,-1.91796z" fill="#000000"/><path d="M318.93875,179.53817c2.48416,0.28094 2.20324,2.76509 2.20324,2.76509l-0.07286,0.60614c-0.8313,4.71683 -3.11074,7.77717 -5.23508,11.97301c0,0 -1.13329,2.22838 -3.36168,1.09508c-2.22838,-1.13329 -1.09508,-3.36168 -1.09508,-3.36168c1.90756,-3.73552 4.06295,-6.40409 4.76492,-10.55832l0.03144,-0.31612c0,0 0.28094,-2.48416 2.76509,-2.20324z" fill="#000000"/></g></g></g></svg>