<svg version="1.1" xmlns="http://www.w3.org/2000/svg" xmlns:xlink="http://www.w3.org/1999/xlink" width="123.57318" height="87.3923" viewBox="0,0,123.57318,87.3923"><g transform="translate(-209.09716,-147.09213)"><g data-paper-data="{&quot;isPaintingLayer&quot;:true}" fill-rule="nonzero" stroke-linecap="butt" stroke-linejoin="miter" stroke-miterlimit="10" stroke-dasharray="" stroke-dashoffset="0" style="mix-blend-mode: normal"><path d="M211.09717,210.90787v-61.81574h57.80573v61.81574z" fill="#00f6f7" stroke="#000000" stroke-width="4"/><path d="M279.42082,192.90325c0,-1.38071 1.11929,-2.5 2.5,-2.5c1.38071,0 2.5,1.11929 2.5,2.5c0,1.38071 -1.11929,2.5 -2.5,2.5c-1.38071,0 -2.5,-1.11929 -2.5,-2.5z" fill="#000000" stroke="none" stroke-width="0.5"/><path d="M274.12811,202.44472c0,-1.38071 1.11929,-2.5 2.5,-2.5c1.38071,0 2.5,1.11929 2.5,2.5c0,1.38071 -1.11929,2.5 -2.5,2.5c-1.38071,0 -2.5,-1.11929 -2.5,-2.5z" fill="#000000" stroke="none" stroke-width="0.5"/><path d="M291.63464,205.08386c0,-1.38071 1.11929,-2.5 2.5,-2.5c1.38071,0 2.5,1.11929 2.5,2.5c0,1.38071 -1.11929,2.5 -2.5,2.5c-1.38071,0 -2.5,-1.11929 -2.5,-2.5z" fill="#000000" stroke="none" stroke-width="0.5"/><path d="M280.5404,215.84338c0,-1.38071 1.11929,-2.5 2.5,-2.5c1.38071,0 2.5,1.11929 2.5,2.5c0,1.38071 -1.11929,2.5 -2.5,2.5c-1.38071,0 -2.5,-1.11929 -2.5,-2.5z" fill="#000000" stroke="none" stroke-width="0.5"/><path d="M293.85405,195.51078c0,-0.45523 0.12167,-0.88204 0.33427,-1.24969c-0.11724,0.01686 -0.23711,0.02559 -0.35902,0.02559c-1.38071,0 -2.5,-1.11929 -2.5,-2.5c0,-1.38071 1.11929,-2.5 2.5,-2.5c1.38071,0 2.5,1.11929 2.5,2.5c0,0.45523 -0.12167,0.88204 -0.33428,1.24969c0.11724,-0.01686 0.23711,-0.02559 0.35902,-0.02559c1.38071,0 2.5,1.11929 2.5,2.5c0,1.38071 -1.11929,2.5 -2.5,2.5c-1.38071,0 -2.5,-1.11929 -2.5,-2.5z" fill="#000000" stroke="none" stroke-width="0.5"/><path d="M295.60416,216.04639c0,-1.38071 1.11929,-2.5 2.5,-2.5c1.38071,0 2.5,1.11929 2.5,2.5c0,1.38071 -1.11929,2.5 -2.5,2.5c-1.38071,0 -2.5,-1.11929 -2.5,-2.5z" fill="#000000" stroke="none" stroke-width="0.5"/><path d="M304.45923,206.50494c0,-1.38071 1.11929,-2.5 2.5,-2.5c1.38071,0 2.5,1.11929 2.5,2.5c0,1.38071 -1.11929,2.5 -2.5,2.5c-1.38071,0 -2.5,-1.11929 -2.5,-2.5z" fill="#000000" stroke="none" stroke-width="0.5"/><path d="M299.16652,223.25326c0,-1.38071 1.11929,-2.5 2.5,-2.5c1.38071,0 2.5,1.11929 2.5,2.5c0,1.38071 -1.11929,2.5 -2.5,2.5c-1.38071,0 -2.5,-1.11929 -2.5,-2.5z" fill="#000000" stroke="none" stroke-width="0.5"/><path d="M307.00374,220.10661c0,-1.38071 1.11929,-2.5 2.5,-2.5c1.38071,0 2.5,1.11929 2.5,2.5c0,1.38071 -1.11929,2.5 -2.5,2.5c-1.38071,0 -2.5,-1.11929 -2.5,-2.5z" fill="#000000" stroke="none" stroke-width="0.5"/><path d="M285.05451,203.18946c0,-1.38071 1.11929,-2.5 2.5,-2.5c1.38071,0 2.5,1.11929 2.5,2.5c0,1.38071 -1.11929,2.5 -2.5,2.5c-1.38071,0 -2.5,-1.11929 -2.5,-2.5z" fill="#000000" stroke="none" stroke-width="0.5"/><path d="M304.16606,197.70471c0,-1.38071 1.11929,-2.5 2.5,-2.5c1.38071,0 2.5,1.11929 2.5,2.5c0,1.38071 -1.11929,2.5 -2.5,2.5c-1.38071,0 -2.5,-1.11929 -2.5,-2.5z" fill="#000000" stroke="none" stroke-width="0.5"/><path d="M318.87786,214.2961c0,-1.38071 1.11929,-2.5 2.5,-2.5c1.38071,0 2.5,1.11929 2.5,2.5c0,1.38071 -1.11929,2.5 -2.5,2.5c-1.38071,0 -2.5,-1.11929 -2.5,-2.5z" fill="#000000" stroke="none" stroke-width="0.5"/><path d="M311.59069,231.98443c0,-1.38071 1.11929,-2.5 2.5,-2.5c1.38071,0 2.5,1.11929 2.5,2.5c0,1.38071 -1.11929,2.5 -2.5,2.5c-1.38071,0 -2.5,-1.11929 -2.5,-2.5z" fill="#000000" stroke="none" stroke-width="0.5"/><path d="M322.72764,227.18527c0,-1.38071 1.11929,-2.5 2.5,-2.5c1.38071,0 2.5,1.11929 2.5,2.5c0,1.38071 -1.11929,2.5 -2.5,2.5c-1.38071,0 -2.5,-1.11929 -2.5,-2.5z" fill="#000000" stroke="none" stroke-width="0.5"/><path d="M292.89161,224.85428c0,-1.38071 1.11929,-2.5 2.5,-2.5c1.38071,0 2.5,1.11929 2.5,2.5c0,1.38071 -1.11929,2.5 -2.5,2.5c-1.38071,0 -2.5,-1.11929 -2.5,-2.5z" fill="#000000" stroke="none" stroke-width="0.5"/><path d="M289.17202,177.64533c2.37104,0.79257 1.57847,3.16361 1.57847,3.16361l-0.25253,0.69601c-0.45831,0.95983 -0.91662,1.91966 -1.37493,2.8795c0,0 -1.07722,2.25601 -3.33324,1.17879c-2.25601,-1.07722 -1.17879,-3.33324 -1.17879,-3.33324c0.45831,-0.95983 0.91662,-1.91966 1.37493,-2.8795l0.02247,-0.1267c0,0 0.79257,-2.37104 3.16361,-1.57847z" fill="#000000" stroke="none" stroke-width="0.5"/><path d="M305.81598,187.96925c0,-1.38071 1.11929,-2.5 2.5,-2.5c1.38071,0 2.5,1.11929 2.5,2.5c0,1.38071 -1.11929,2.5 -2.5,2.5c-1.38071,0 -2.5,-1.11929 -2.5,-2.5z" fill="#000000" stroke="none" stroke-width="0.5"/><path d="M295.50399,180.97618c0,-1.38071 1.11929,-2.5 2.5,-2.5c1.38071,0 2.5,1.11929 2.5,2.5c0,1.38071 -1.11929,2.5 -2.5,2.5c-1.38071,0 -2.5,-1.11929 -2.5,-2.5z" fill="#000000" stroke="none" stroke-width="0.5"/><path d="M321.74632,185.74389c2.49961,-0.04398 2.5436,2.45563 2.5436,2.45563l0.04956,2.81656c0.04413,2.56399 0.10651,5.13246 0.352,7.68506c0,0 0.23765,2.48868 -2.25103,2.72632c-2.48868,0.23765 -2.72632,-2.25103 -2.72632,-2.25103c-0.25437,-2.68164 -0.32548,-5.37914 -0.37386,-8.07238l-0.04956,-2.81656c0,0 -0.04398,-2.49961 2.45563,-2.5436z" fill="#000000" stroke="none" stroke-width="0.5"/><path d="M329.1712,204.82343c2.4796,-0.31876 2.79835,2.16084 2.79835,2.16084c0.21251,1.65306 0.47495,3.69458 0.68745,5.34765c0,0 0.31876,2.4796 -2.16084,2.79835c-2.4796,0.31876 -2.79835,-2.16084 -2.79835,-2.16084c-0.21251,-1.65306 -0.42501,-3.30613 -0.63752,-4.95919l-0.04994,-0.38846c0,0 -0.31876,-2.4796 2.16084,-2.79835z" fill="#000000" stroke="none" stroke-width="0.5"/><path d="M302.59265,165.53347c2.14218,1.28883 0.85335,3.431 0.85335,3.431l-1.66173,2.76178c-0.34176,0.40043 -0.96848,0.67792 -1.02528,1.20129c-0.06111,0.56302 0.48553,1.02332 0.72829,1.53497c0,0 0.75466,2.38338 -1.62871,3.13804c-2.38338,0.75466 -3.13804,-1.62871 -3.13804,-1.62871c-0.30718,-1.22517 -1.06834,-2.42099 -0.92154,-3.67552c0.14037,-1.19958 1.14969,-2.12438 1.72454,-3.18657l1.63811,-2.72293c0,0 1.28883,-2.14218 3.431,-0.85335z" fill="#000000" stroke="none" stroke-width="0.5"/><path d="M308.42836,180.83908c0,-1.38071 1.11929,-2.5 2.5,-2.5c1.38071,0 2.5,1.11929 2.5,2.5c0,1.38071 -1.11929,2.5 -2.5,2.5c-1.38071,0 -2.5,-1.11929 -2.5,-2.5z" fill="#000000" stroke="none" stroke-width="0.5"/></g></g></svg>