<svg version="1.1" xmlns="http://www.w3.org/2000/svg" xmlns:xlink="http://www.w3.org/1999/xlink" width="61.93209" height="42.70043" viewBox="0,0,61.93209,42.70043"><g transform="translate(-181.1983,-140.74223)"><g data-paper-data="{&quot;isPaintingLayer&quot;:true}" fill-rule="nonzero" stroke-linecap="butt" stroke-linejoin="miter" stroke-miterlimit="10" stroke-dasharray="" stroke-dashoffset="0" style="mix-blend-mode: normal"><path d="M208.68289,179.52561v-35.34266h33.1975v35.34266z" fill="#6693ff" stroke="#000000" stroke-width="2.5"/><path d="M217.02745,164.7737c-2.49361,0.17862 -2.67223,-2.31499 -2.67223,-2.31499l0.02631,-0.84568c-0.25502,-0.7312 -0.51005,-1.46241 -0.76507,-2.19361c-0.63105,0.08832 -2.29603,0.12434 -2.81297,-1.8195c-0.64252,-2.41602 1.77351,-3.05854 1.77351,-3.05854c4.132,-1.09863 8.07134,-1.81512 12.3121,-2.30312l1.24987,-0.43544c0,0 2.38678,-0.74384 3.13061,1.64294c0.74384,2.38678 -1.64294,3.13061 -1.64294,3.13061l-2.16596,0.6291c-2.38989,0.275 -4.66686,0.62389 -6.94394,1.0811c0.1953,0.55995 0.39059,1.11991 0.58589,1.67986l0.23982,2.13503c0,0 0.17862,2.49361 -2.31499,2.67223z" fill="#000000" stroke="none" stroke-width="0.5"/><path d="M231.80408,172.37729c-0.40991,2.46617 -2.87607,2.05626 -2.87607,2.05626l-0.13828,-0.07432c-5.47201,0.19483 -11.26712,0.17811 -16.70995,-0.4405c0,0 -2.48361,-0.28579 -2.19782,-2.7694c0.28579,-2.48361 2.7694,-2.19782 2.7694,-2.19782c5.185,0.60477 10.74156,0.61131 15.95382,0.41113l1.14265,0.13858c0,0 2.46617,0.40991 2.05626,2.87607z" fill="#000000" stroke="none" stroke-width="0.5"/><path d="M193.5637,161.47582c0.13689,0.28701 0.34837,0.8449 0.29341,1.46584c0.99377,3.13182 2.00501,6.55493 2.31697,9.74724c0.20062,2.05295 0.01509,4.14846 0.39765,6.1754l-0.62211,2.8377c0,0 -0.7925,2.37106 -3.16356,1.57856c-2.37106,-0.7925 -1.57856,-3.16356 -1.57856,-3.16356l0.44532,-0.35591c-0.99319,-5.61281 -1.10295,-10.82417 -2.90884,-16.39473c0,0 -0.02312,-0.07174 -0.04888,-0.19433c-2.26119,-2.9371 -6.58335,-5.2686 -7.37941,-8.87465c-0.65815,-2.98134 1.59189,-7.60192 3.25702,-9.96455c0.88086,-1.24985 1.46345,-3.1032 2.93248,-3.52744c1.36294,-0.3936 2.5996,1.16651 3.96977,1.53413c3.03333,0.81386 4.87952,-0.69556 6.77273,3.46875c0.58091,1.27779 -0.04991,2.82166 -0.32269,4.19853c-0.64561,3.25872 -2.08248,6.79999 -3.46529,9.81031l-0.24901,0.68155c0,0 -0.19542,0.51969 -0.64698,0.97716zM190.18187,157.13852c0.70801,-1.63818 1.22853,-3.35698 1.75305,-5.06352c0.46163,-1.50193 2.00591,-2.87239 1.67123,-4.4076c-0.26504,-1.21578 -2.54451,-0.08631 -3.68823,-0.57649c-0.56694,-0.24298 -0.56169,-1.27425 -1.15395,-1.44658c-0.37356,-0.10869 0.27647,0.78624 0.15713,1.15653c-0.2769,0.85914 -0.91321,1.56022 -1.2962,2.3776c-0.60742,1.29636 -1.7191,2.65077 -1.42446,4.05174c0.28642,1.36183 1.93596,2.00255 2.96843,2.93563c0.34686,0.31347 0.68466,0.63807 1.01299,0.97269z" fill="#000000" stroke="none" stroke-width="0.5"/><path d="M189.1613,156.21525c-1.03246,-0.93308 -2.71918,-1.60094 -3.0056,-2.96276c-0.29465,-1.40096 0.8259,-2.81246 1.43332,-4.10883c0.38299,-0.81738 1.04473,-1.53255 1.32163,-2.39169c0.11935,-0.37029 -0.52995,-1.26538 -0.15639,-1.15668c0.59226,0.17233 0.59691,1.20264 1.16385,1.44562c1.14372,0.49018 3.45829,-0.62472 3.72333,0.59106c0.33468,1.53521 -1.19752,2.95714 -1.65915,4.45907c-0.52452,1.70654 -1.08997,3.45925 -1.79799,5.09742c-0.32833,-0.33463 -0.67614,-0.65974 -1.023,-0.97321z" data-paper-data="{&quot;noHover&quot;:false,&quot;origItem&quot;:[&quot;Path&quot;,{&quot;applyMatrix&quot;:true,&quot;segments&quot;:[[[190.18187,157.13852],[-0.32833,-0.33463],[0.70801,-1.63818]],[[191.93493,152.075],[-0.52452,1.70654],[0.46163,-1.50193]],[[193.60616,147.6674],[0.33468,1.53521],[-0.26504,-1.21578]],[[189.91793,147.09091],[1.14372,0.49018],[-0.56694,-0.24298]],[[188.76399,145.64433],[0.59226,0.17233],[-0.37356,-0.10869]],[[188.92111,146.80086],[0.11935,-0.37029],[-0.2769,0.85914]],[[187.62491,149.17846],[0.38299,-0.81738],[-0.60742,1.29636]],[[186.20046,153.2302],[-0.29465,-1.40096],[0.28642,1.36183]],[[189.16889,156.16583],[-1.03246,-0.93308],[0.34686,0.31347]]],&quot;closed&quot;:true}]}" fill="#c8c8c8" stroke="none" stroke-width="0.5"/></g></g></svg>