<svg version="1.1" xmlns="http://www.w3.org/2000/svg" xmlns:xlink="http://www.w3.org/1999/xlink" width="132.20925" height="69.64839" viewBox="0,0,132.20925,69.64839"><g transform="translate(-174.52037,-145.8008)"><g data-paper-data="{&quot;isPaintingLayer&quot;:true}" fill-rule="nonzero" stroke-linecap="butt" stroke-linejoin="miter" stroke-miterlimit="10" stroke-dasharray="" stroke-dashoffset="0" style="mix-blend-mode: normal"><path d="M251.81135,214.1992v-57.13622h53.66828v57.13622z" fill="#6693ff" stroke="#000000" stroke-width="2.5"/><path d="M265.30146,190.35072c-4.03126,0.28876 -4.32002,-3.7425 -4.32002,-3.7425l0.04253,-1.36716c-0.41227,-1.18208 -0.82457,-2.36418 -1.23684,-3.54627c-1.02018,0.14278 -3.71185,0.20101 -4.54755,-2.94147c-1.03872,-3.90583 2.86712,-4.94455 2.86712,-4.94455c6.67994,-1.77608 13.04842,-2.93439 19.90419,-3.72331l2.02059,-0.70395c0,0 3.85855,-1.20252 5.06106,2.65604c1.20252,3.85855 -2.65604,5.06106 -2.65604,5.06106l-3.50157,1.01703c-3.86358,0.44457 -7.54461,1.0086 -11.22582,1.74775c0.31573,0.90524 0.63144,1.81049 0.94717,2.71572l0.3877,3.45157c0,0 0.28876,4.03126 -3.7425,4.32002z" fill="#000000" stroke="none" stroke-width="0.5"/><path d="M289.1899,202.64296c-0.66268,3.9869 -4.64956,3.32422 -4.64956,3.32422l-0.22355,-0.12015c-8.84625,0.31497 -18.21483,0.28794 -27.01391,-0.71213c0,0 -4.01509,-0.46202 -3.55308,-4.47711c0.46202,-4.01509 4.47711,-3.55308 4.47711,-3.55308c8.38226,0.97769 17.36519,0.98827 25.79152,0.66465l1.84725,0.22403c0,0 3.9869,0.66268 3.32422,4.64956z" fill="#000000" stroke="none" stroke-width="0.5"/><path d="M243.85338,155.50711l0.35963,4.53861c-0.06997,0.76655 -0.13994,1.53311 -0.2099,2.29966c0.00461,1.29484 -0.0034,2.34846 -0.01373,2.78175c-0.00656,0.27552 -0.01373,0.55076 -0.02152,0.82575c0.36392,11.17866 -1.38378,22.2391 -1.40799,33.44973c-0.00632,2.92719 0.20799,10.30277 -2.51947,12.34088c-2.01165,1.50321 -4.99947,0.52141 -7.50927,0.60663c-7.50855,0.25495 -18.98931,-1.78764 -21.98276,-9.95895c-0.73487,-2.00602 0.46964,-4.24702 0.73406,-6.36698c0.66354,-5.31986 1.17567,-10.56066 1.25116,-15.91122c-8.36635,-0.95145 -16.25913,-2.75522 -24.77168,-5.37953c-2.64388,-0.81508 -5.54281,-1.01051 -7.9567,-2.36239c-1.98698,-1.11279 -3.88135,-2.75014 -4.85131,-4.81061c-0.83922,-1.78274 -0.20314,-3.9376 -0.19447,-5.90797c0.02071,-4.70876 -0.75322,-12.83774 4.49484,-15.56358c1.90462,-0.98926 9.52738,0.85002 11.96763,1.30631c9.52764,1.78155 18.71964,2.60286 28.41559,2.78453c5.52059,-0.22911 16.09627,-1.68568 21.75895,1.89384c0.83928,0.30845 1.39542,0.87762 1.76246,1.46507c0.14802,0.16334 0.28911,0.33325 0.4229,0.50998c0.08179,0.10804 0.14849,0.49106 0.20268,1.05485c0.05426,0.24765 0.06893,0.40363 0.06893,0.40363zM218.32986,200.20342c0.85804,4.02061 11.80689,3.61197 14.49362,4.06881c0.82504,0.14028 1.43697,1.20043 2.26546,1.08215c0.48949,-0.06989 -0.65497,-0.81301 -0.70544,-1.30488c-0.12706,-1.23832 0.01151,-2.48646 0.06988,-3.73286c-0.1796,0.06347 -0.36498,0.12158 -0.55638,0.17406c-2.0932,0.57387 -4.14173,-1.30053 -6.20029,-1.9884c-2.16738,-0.72423 -5.79921,-1.81598 -8.37181,-3.43969c-0.59236,1.72135 -1.36177,3.42236 -0.99503,5.14081zM235.78848,163.66555c0.02224,-0.25855 0.04451,-0.51709 0.06675,-0.77564c-0.03837,-0.87146 -0.06331,-1.74159 0.05358,-2.60276c0.02171,-0.15994 0.10343,-0.31578 0.21066,-0.46802c0.01394,-0.16194 0.02787,-0.32387 0.04181,-0.48581l-0.13327,-1.15043c-0.43909,0.04956 -0.95626,0.2401 -1.36664,0.22127c-5.03387,-0.23105 -9.8855,-0.35167 -14.93069,-0.14177c-8.56013,-0.15589 -16.74675,-0.59144 -25.18688,-2.08238c-3.43429,-0.60667 -8.42595,-2.7065 -11.67401,-2.86161c-0.33437,-0.01596 0.17735,0.65129 0.19203,0.98571c0.05342,1.21738 0.04754,2.43762 0.01165,3.65565c-0.05299,1.79835 -1.74437,6.54574 0.67581,7.35565c12.0949,4.04749 23.52,6.60154 36.03913,7.30606c0.54438,-0.24347 1.2208,-0.37596 2.06109,-0.32218c0.76681,0.04908 1.3785,0.23461 1.86634,0.50294l1.28395,0.09505c0,0 4.02975,0.30914 3.72062,4.33889c-0.20302,2.64643 -2.01068,3.42156 -3.22782,3.64188c-0.0391,2.076 -0.10548,4.14841 -0.47436,6.18524c-0.1316,0.72668 -1.30881,1.30855 -0.99751,1.97822c0.29778,0.64059 1.40956,0.16729 2.08738,0.36631c1.56937,0.46079 3.18798,0.84713 4.63599,1.60775c0.62818,0.32997 18.17553,6.54069 18.83255,6.80868c0.31946,0.13031 -17.55331,-5.92241 -17.4922,-6.26197c0.23659,-1.31448 0.65127,-2.59059 0.97359,-3.88672c1.78481,-7.1771 2.58783,-14.22069 2.81874,-21.5778c-0.016,-0.80833 -0.04476,-1.61892 -0.08828,-2.4322z" fill="#000000" stroke="none" stroke-width="0.5"/><path d="M235.94972,166.06295c-0.23091,7.35711 -1.04098,14.48231 -2.8258,21.65941c-0.32232,1.29612 -0.86021,2.46842 -1.0968,3.7829c-0.06112,0.33956 17.93633,6.49396 17.61686,6.36365c-0.65702,-0.26799 -18.21596,-6.46488 -18.84413,-6.79486c-1.448,-0.76062 -3.07476,-1.14015 -4.64414,-1.60094c-0.67782,-0.19902 -1.87853,0.1395 -2.17631,-0.50109c-0.3113,-0.66968 0.85736,-1.24569 0.98896,-1.97236c0.36888,-2.03683 0.41458,-4.0851 0.45368,-6.1611c1.21713,-0.22032 3.01518,-0.96646 3.2182,-3.61289c0.30913,-4.02975 -3.71794,-4.30533 -3.71794,-4.30533l-1.28254,-0.09076c-0.48784,-0.26833 -1.09397,-0.44167 -1.86078,-0.49075c-0.84029,-0.05379 -1.50989,0.08895 -2.05427,0.33243c-12.51913,-0.70451 -23.95758,-3.33285 -36.05249,-7.38034c-2.42018,-0.8099 -0.72305,-5.57092 -0.67006,-7.36927c0.03589,-1.21803 0.04514,-2.44399 -0.00828,-3.66137c-0.01468,-0.33443 -0.52559,-1.0029 -0.19123,-0.98694c3.24806,0.15511 8.24684,2.24582 11.68113,2.85249c8.44013,1.49094 16.70371,1.90164 25.26384,2.05753c5.0452,-0.2099 9.93932,-0.065 14.9732,0.16605c0.41038,0.01883 0.9291,-0.16998 1.36819,-0.21954l0.13518,1.15272c-0.01394,0.16194 -0.02718,0.32474 -0.04111,0.48668c-0.10723,0.15225 -0.18848,0.30869 -0.21019,0.46863c-0.11689,0.86117 -0.08794,1.73701 -0.04957,2.60847c-0.02224,0.25855 -0.04337,0.51893 -0.06561,0.77748c0.04352,0.81328 0.076,1.63077 0.09199,2.4391z" data-paper-data="{&quot;noHover&quot;:false,&quot;origItem&quot;:[&quot;Path&quot;,{&quot;applyMatrix&quot;:true,&quot;selected&quot;:true,&quot;segments&quot;:[[[235.78848,163.66555],[0.04352,0.81328],[0.02224,-0.25855],7],[[235.85523,162.88991],[-0.02224,0.25855],[-0.03837,-0.87146],7],[[235.90881,160.28715],[-0.11689,0.86117],[0.02171,-0.15994],7],[[236.11948,159.81913],[-0.10723,0.15225],[0.01394,-0.16194],7],[[236.16128,159.33332],[-0.01394,0.16194],[0,0],7],[[236.02801,158.18289],[0,0],[-0.43909,0.04956],7],[[234.66137,158.40416],[0.41038,0.01883],[-5.03387,-0.23105],7],[[219.73068,158.26239],[5.0452,-0.2099],[-8.56013,-0.15589],7],[[194.5438,156.18001],[8.44013,1.49094],[-3.43429,-0.60667],7],[[182.86978,153.3184],[3.24806,0.15511],[-0.33437,-0.01596],7],[[183.06182,154.30411],[-0.01468,-0.33443],[0.05342,1.21738],7],[[183.07346,157.95976],[0.03589,-1.21803],[-0.05299,1.79835],7],[[183.74927,165.31541],[-2.42018,-0.8099],[12.0949,4.04749],7],[[219.7884,172.62146],[-12.51913,-0.70451],[0.54438,-0.24347],7],[[221.84949,172.29928],[-0.84029,-0.05379],[0.76681,0.04908],7],[[223.71583,172.80222],[-0.48784,-0.26833],[0,0],7],[[224.99978,172.89727],[0,0],[0,0],7],[[228.7204,177.23616],[0.30913,-4.02975],[-0.20302,2.64643],7],[[225.49258,180.87804],[1.21713,-0.22032],[-0.0391,2.076],7],[[225.01822,187.06328],[0.36888,-2.03683],[-0.1316,0.72668],7],[[224.02071,189.0415],[-0.3113,-0.66968],[0.29778,0.64059],7],[[226.10808,189.4078],[-0.67782,-0.19902],[1.56937,0.46079],7],[[230.74407,191.01556],[-1.448,-0.76062],[0.62818,0.32997],7],[[249.57662,197.82424],[-0.65702,-0.26799],[0.31946,0.13031],7],[[232.08442,191.56227],[-0.06112,0.33956],[0.23659,-1.31448],7],[[233.05802,187.67555],[-0.32232,1.29612],[1.78481,-7.1771],7],[[235.87676,166.09775],[-0.23091,7.35711],[-0.016,-0.80833],7]],&quot;closed&quot;:true}]}" fill="#ff0000" stroke="none" stroke-width="0.5"/><path d="M219.25855,195.01643c2.57259,1.62372 6.31077,2.69141 8.47814,3.41564c2.05856,0.68787 4.14786,2.63563 6.24107,2.06176c0.1914,-0.05248 0.37683,-0.11263 0.55643,-0.1761c-0.05837,1.2464 -0.20549,2.52965 -0.07843,3.76797c0.05047,0.49187 1.19153,1.24112 0.70204,1.311c-0.82849,0.11828 -1.44198,-0.93941 -2.26703,-1.0797c-2.68673,-0.45685 -13.78371,-0.09308 -14.64175,-4.11368c-0.36673,-1.71844 0.41717,-3.46555 1.00953,-5.1869z" data-paper-data="{&quot;noHover&quot;:false,&quot;origItem&quot;:[&quot;Path&quot;,{&quot;applyMatrix&quot;:true,&quot;selected&quot;:true,&quot;segments&quot;:[[[218.32986,200.20342],[-0.36673,-1.71844],[0.85804,4.02061],7],[[232.82348,204.27223],[-2.68673,-0.45685],[0.82504,0.14028],7],[[235.08893,205.35438],[-0.82849,0.11828],[0.48949,-0.06989],7],[[234.38349,204.04951],[0.05047,0.49187],[-0.12706,-1.23832],7],[[234.45337,200.31665],[-0.05837,1.2464],[-0.1796,0.06347],7],[[233.89699,200.4907],[0.1914,-0.05248],[-2.0932,0.57387],7],[[227.6967,198.5023],[2.05856,0.68787],[-2.16738,-0.72423],7],[[219.32489,195.06261],[2.57259,1.62372],[-0.59236,1.72135],7]],&quot;closed&quot;:true}]}" fill="#ff0000" stroke="none" stroke-width="0.5"/></g></g></svg>