<svg version="1.1" xmlns="http://www.w3.org/2000/svg" xmlns:xlink="http://www.w3.org/1999/xlink" width="529" height="415.5" viewBox="0,0,529,415.5"><g transform="translate(3.5,25.5)"><g data-paper-data="{&quot;isPaintingLayer&quot;:true}" fill-rule="nonzero" stroke-linejoin="miter" stroke-miterlimit="10" stroke-dasharray="" stroke-dashoffset="0" style="mix-blend-mode: normal"><path d="M363.5,389v-100.0286c11.2178,-0.33274 22.639,-0.24027 33.68554,0.72228c6.85695,3.55712 14.6077,5.24413 22.38701,4.55379c2.04913,-0.18184 4.08623,-0.53365 6.0903,-0.99805c0.76767,-0.17789 1.39095,-0.89142 2.17851,-0.91806c0.9706,-0.03283 1.84909,0.6535 2.81553,0.7491c5.26022,0.52037 10.59429,0.43215 15.85761,-0.05597c2.09546,-0.19434 3.92804,-1.52896 5.95222,-2.1046c1.77756,-0.50551 3.99724,0.07619 5.43761,-1.08166c2.61949,-2.10569 4.46562,-5.11432 5.99395,-8.10763c1.76113,-3.44927 0.57662,-16.19996 0.53335,-17.25142c-0.25709,-6.24814 -0.377,-12.40783 -0.37885,-18.66275c-0.19195,-5.93458 -0.36853,-11.87407 -0.52269,-17.81643h60.96992v161z" fill="#9f6c00" stroke="#000000" stroke-width="2" stroke-linecap="butt"/><path d="" fill="#9f6c00" stroke="#000000" stroke-width="2" stroke-linecap="butt"/><path d="M513.5,227l-52,72l-10.03598,-7.73606" fill="none" stroke="#000000" stroke-width="2" stroke-linecap="round"/><path d="M364.5,386.5l96,-88l54,85" fill="none" stroke="#000000" stroke-width="2" stroke-linecap="round"/><path d="M-2.5,251.5v-276h136.21176v276z" fill="#a7a7a7" stroke="#000000" stroke-width="2" stroke-linecap="butt"/><path d="M260.5,257.5v-276h136.21177l4,229c0,0 -10.6993,-3.41352 -20.27953,-0.20215c-2.98818,1.00166 -8.14052,5.58759 -14.09242,10.67395c-0.57947,0.40628 -1.19633,0.93591 -1.82364,1.55091c-7.22183,6.10486 -15.37167,12.47532 -22.1843,13.99224c-38.29762,8.52745 -81.83187,20.98505 -81.83187,20.98505z" fill="#a7a7a7" stroke="#000000" stroke-width="2" stroke-linecap="butt"/><text transform="translate(369.05219,335.59667) rotate(0.65032) scale(0.5,0.5)" font-size="40" xml:space="preserve" fill="#66c0ff" fill-rule="nonzero" stroke="none" stroke-width="1" stroke-linecap="butt" stroke-linejoin="miter" stroke-miterlimit="10" stroke-dasharray="" stroke-dashoffset="0" font-family="Pixel" font-weight="normal" text-anchor="start" style="mix-blend-mode: normal"><tspan x="0" dy="0">EVENTS</tspan><tspan x="0" dy="46.15px">OPEN</tspan></text></g></g></svg>