<svg version="1.1" xmlns="http://www.w3.org/2000/svg" xmlns:xlink="http://www.w3.org/1999/xlink" width="139.62109" height="120.31657" viewBox="0,0,139.62109,120.31657"><g transform="translate(-209.09729,-92.5913)"><g data-paper-data="{&quot;isPaintingLayer&quot;:true}" fill-rule="nonzero" stroke-linecap="butt" stroke-linejoin="miter" stroke-miterlimit="10" stroke-dasharray="" stroke-dashoffset="0" style="mix-blend-mode: normal"><path d="M211.09729,210.90787v-61.81574h57.80573v61.81574z" fill="#00f6f7" stroke="#000000" stroke-width="4"/><path d="M282.62924,190.33453c0.14963,-0.43702 0.46602,-0.87897 1.05703,-1.26243c2.09722,-1.36076 3.45798,0.73647 3.45798,0.73647c5.06576,8.22466 13.45558,-0.21048 20.77534,1.82646c2.60776,0.72569 4.47353,2.0317 6.3367,3.86166c0.99624,0.97848 2.68124,1.71058 2.81728,3.10033c0.41747,4.26477 -4.19199,6.52347 -6.55814,9.00986c-0.76276,0.80152 -1.19196,1.9751 -2.14962,2.52929c-2.9731,1.72052 -7.22954,1.58786 -10.55393,1.77536c-3.17899,-0.28726 -6.9343,0.38732 -9.96922,-0.76139c-3.2756,-1.23981 -6.47304,-4.4796 -8.66439,-7.11281c-2.49752,-3.0011 -2.40255,-3.41006 -2.27093,-7.65111c0.04723,-1.52163 -0.47753,-3.4299 0.57386,-4.53088c1.59468,-1.66989 3.37674,-1.80308 5.14805,-1.52081zM287.61654,197.30506c-1.05608,0.22752 -2.00832,-0.42995 -2.00832,-0.42995l-1.16601,-0.99973c-0.63498,-0.17828 -1.26778,-0.3645 -1.90493,-0.53485c-0.39954,-0.10682 -0.97584,-0.64103 -1.20475,-0.29659c-0.25308,0.38081 0.5134,0.79267 0.57387,1.24589c0.14064,1.05419 -0.23022,2.15639 0.01801,3.19054c0.44572,1.85691 4.24201,4.67053 5.685,5.79967c2.91562,2.28146 6.82808,1.31795 10.28199,1.63212c2.15839,-0.13253 5.82948,0.18526 7.73841,-0.96101c0.60168,-0.3613 0.73053,-1.20917 1.2039,-1.72732c0.80758,-0.88398 1.72396,-1.66303 2.61948,-2.4578c0.87294,-0.77472 2.84901,-1.05512 2.71239,-2.21424c-0.04572,-0.38789 -0.8142,-0.03812 -1.14603,-0.24414c-1.46536,-0.90983 -2.67562,-2.35252 -4.33384,-2.82726c-4.78157,-1.36897 -9.88865,2.78442 -14.77753,2.18716c-1.7006,-0.20776 -3.09132,-0.6711 -4.29163,-1.36249z" fill="#000000" stroke="none" stroke-width="0.5"/><path d="M291.86289,199.42435c4.88888,0.59726 10.08692,-3.55531 14.86849,-2.18634c1.65821,0.47475 2.87249,1.93219 4.33785,2.84202c0.33182,0.20603 1.10043,-0.14256 1.14615,0.24533c0.13662,1.15912 -1.83936,1.44725 -2.7123,2.22197c-0.89553,0.79477 -1.81427,1.58603 -2.62185,2.47002c-0.47337,0.51815 -0.60621,1.37509 -1.20789,1.73638c-1.90893,1.14626 -5.61401,0.85296 -7.7724,0.98549c-3.45391,-0.31418 -7.42102,0.62183 -10.33664,-1.65963c-1.44299,-1.12914 -5.24394,-3.96917 -5.68966,-5.82608c-0.24823,-1.03415 0.12468,-2.14642 -0.01596,-3.20061c-0.06047,-0.45322 -0.82593,-0.868 -0.57285,-1.24881c0.22891,-0.34445 0.80539,0.1893 1.20493,0.29612c0.63715,0.17036 1.36274,0.39387 1.99772,0.57215l1.16675,0.99783c0,0 0.85878,0.62192 1.91487,0.3944c1.20031,0.6914 2.59221,1.152 4.29281,1.35976z" data-paper-data="{&quot;noHover&quot;:false,&quot;origItem&quot;:[&quot;Path&quot;,{&quot;applyMatrix&quot;:true,&quot;segments&quot;:[[[287.61654,198.08304],[1.20031,0.6914],[-1.05608,0.22752]],[285.60822,197.65309],[[284.44221,196.65336],[0,0],[-0.63498,-0.17828]],[[282.53728,196.11851],[0.63715,0.17036],[-0.39954,-0.10682]],[[281.33252,195.82192],[0.22891,-0.34445],[-0.25308,0.38081]],[[281.90639,197.06781],[-0.06047,-0.45322],[0.14064,1.05419]],[[281.9244,200.25835],[-0.24823,-1.03415],[0.44572,1.85691]],[[287.6094,206.05802],[-1.44299,-1.12914],[2.91562,2.28146]],[[297.89139,207.69014],[-3.45391,-0.31418],[2.15839,-0.13253]],[[305.6298,206.72914],[-1.90893,1.14626],[0.60168,-0.3613]],[[306.83369,205.00182],[-0.47337,0.51815],[0.80758,-0.88398]],[[309.45318,202.54402],[-0.89553,0.79477],[0.87294,-0.77472]],[[312.16557,200.32978],[0.13662,1.15912],[-0.04572,-0.38789]],[[311.01954,200.08564],[0.33182,0.20603],[-1.46536,-0.90983]],[[306.68571,197.25837],[1.65821,0.47475],[-4.78157,-1.36897]],[[291.90818,199.44553],[4.88888,0.59726],[-1.7006,-0.20776]]],&quot;closed&quot;:true}]}" fill="#00f6f7" stroke="none" stroke-width="0.5"/><g stroke="none" stroke-width="0.5"><path d="M298.60069,157.38052c-0.11015,-0.08591 -0.20935,-0.17318 -0.29848,-0.26138c-1.73156,1.60747 -3.43545,-0.09181 -3.43545,-0.09181c-1.60739,-1.64071 -2.50673,-3.85234 -3.8642,-5.70515c-1.21233,-1.65471 -3.36401,-2.64789 -4.1527,-4.54151c-0.16497,-0.39609 -0.82553,-4.98894 -1.03374,-5.84271c-0.58921,-2.41608 -1.7934,-4.66157 -2.30851,-7.09452c-0.45949,-2.17028 -0.10791,-4.03371 -0.0449,-6.17573c0.09302,-3.1619 -0.36093,-6.91001 1.83069,-9.58037c1.07619,-1.31128 2.28447,-2.75459 3.90134,-3.26775c0.9408,-0.29859 7.84734,2.0053 8.26114,2.32399c2.2546,1.73639 2.58133,6.3493 3.02069,8.55585c0.01685,0.15851 0.03355,0.31704 0.05011,0.47558c0.06663,-0.14001 0.12925,-0.2816 0.18622,-0.42538c1.39633,-3.52416 3.58535,-11.19443 9.56232,-6.88705c4.13898,2.98281 2.1031,6.99773 1.47292,10.6708c-0.58062,3.38422 -1.19276,6.73478 -1.84117,10.09776c-0.48736,2.52767 -0.06619,5.27815 -1.07141,7.648c-0.46603,1.09869 -1.57189,1.8013 -2.26479,2.77301c-0.3861,0.54146 -2.6989,4.40587 -3.22336,5.27765l-1.23791,1.61685c0,0 -1.53747,1.97134 -3.50881,0.43387zM298.43922,153.53146l0.62383,-0.77927c0.66017,-1.09724 2.99148,-4.99953 3.48381,-5.66786c0.48751,-0.66178 1.36845,-1.03485 1.69852,-1.78763c0.31599,-0.72066 0.02989,-1.57586 0.1191,-2.35769c0.44179,-3.87185 1.40554,-7.62534 1.99213,-11.4764c0.33621,-2.20727 2.18817,-6.49585 1.02226,-8.52435c-0.24136,-0.41992 -0.75965,0.66626 -0.92296,1.12224c-0.41709,1.16457 -0.64602,2.39355 -1.09989,3.54428c-0.41046,1.04066 -1.19605,1.92887 -1.48509,3.00957c-0.4779,1.78688 0.32616,4.01687 -0.78886,5.4927c-0.19965,0.26425 -0.43105,0.49032 -0.68638,0.68762l0.04662,0.0595l-2.11705,1.65889c-0.42746,0.34142 -0.9694,0.54553 -1.55901,0.54553c-1.37609,0 -2.4925,-1.1118 -2.49996,-2.48613l-0.01615,-2.54157c-0.2251,-2.53201 -0.45382,-5.06388 -0.71859,-7.59204c-0.34302,-1.82524 0.35975,-4.4996 -1.24751,-5.43012c-0.77966,-0.45138 -1.7812,-0.31361 -2.63499,-0.6011c-0.46962,-0.15813 -0.81798,-0.84373 -1.29868,-0.72342c-2.45296,0.61393 -1.84465,6.60257 -1.88983,8.13075c-0.13421,4.53961 1.15182,7.58737 2.21969,11.96526c0.40795,1.67245 0.21476,3.48226 0.79553,5.10282c0.53735,1.49941 2.67683,2.29517 3.46902,3.3636c1.2459,1.68035 1.94861,3.78657 3.45272,5.24036c0,0 0.01533,0.01529 0.04171,0.04445z" fill="#000000"/><path d="M298.55084,153.537c-1.5041,-1.45379 -2.22077,-3.56173 -3.46667,-5.24208c-0.79219,-1.06843 -2.94983,-1.87339 -3.48718,-3.3728c-0.58077,-1.62056 -0.40232,-3.44972 -0.81028,-5.12217c-1.06787,-4.37789 -2.34489,-7.47906 -2.21068,-12.01867c0.04518,-1.52818 -0.547,-7.5286 1.90596,-8.14252c0.4807,-0.12031 0.83138,0.5643 1.301,0.72243c0.85379,0.28748 1.86196,0.1476 2.64162,0.59898c1.60727,0.93051 0.92858,3.70193 1.27159,5.52717c0.26478,2.52816 0.5104,5.05219 0.73551,7.5842l0.03701,2.50171c0.00747,1.37433 1.06066,2.43713 2.43674,2.43713c0.58961,0 1.10679,-0.18841 1.53426,-0.52983l2.10511,-1.62927l-0.04666,-0.05884c0.25533,-0.1973 0.48692,-0.4162 0.68657,-0.68045c1.11502,-1.47583 0.32599,-3.67477 0.80389,-5.46165c0.28903,-1.0807 1.07794,-1.96598 1.4884,-3.00664c0.45387,-1.15073 0.68646,-2.37702 1.10356,-3.54158c0.16331,-0.45598 0.73745,-1.62511 0.97881,-1.20519c1.16591,2.02849 -0.67169,6.33202 -1.0079,8.5393c-0.58659,3.85107 -1.55763,7.66649 -1.99942,11.53834c-0.08921,0.78183 0.19061,1.6423 -0.12539,2.36297c-0.33007,0.75278 -1.22034,1.13105 -1.70785,1.79283c-0.49234,0.66833 -2.8402,4.57451 -3.50037,5.67176l-0.6258,0.77934c-0.02638,-0.02916 -0.04183,-0.04444 -0.04183,-0.04444z" data-paper-data="{&quot;noHover&quot;:false,&quot;origItem&quot;:[&quot;Path&quot;,{&quot;applyMatrix&quot;:true,&quot;segments&quot;:[[[298.43919,187.94127],[-0.02638,-0.02916],[0,0]],[[299.06302,187.162],[0,0],[0.66017,-1.09724]],[[302.54684,181.49414],[-0.49234,0.66833],[0.48751,-0.66178]],[[304.24536,179.70651],[-0.33007,0.75278],[0.31599,-0.72066]],[[304.36445,177.34882],[-0.08921,0.78183],[0.44179,-3.87185]],[[306.35659,165.87242],[-0.58659,3.85107],[0.33621,-2.20727]],[[307.37884,157.34807],[1.16591,2.02849],[-0.24136,-0.41992]],[[306.45589,158.47031],[0.16331,-0.45598],[-0.41709,1.16457]],[[305.356,162.01459],[0.45387,-1.15073],[-0.41046,1.04066]],[[303.87091,165.02416],[0.28903,-1.0807],[-0.4779,1.78688]],[[303.08205,170.51687],[1.11502,-1.47583],[-0.19965,0.26425]],[[302.39568,171.20449],[0.25533,-0.1973],[0,0]],[302.4423,171.26399],[[300.32525,172.92287],[0,0],[-0.42746,0.34142]],[[298.76624,173.4684],[0.58961,0],[-1.37609,0]],[[296.26628,170.98227],[0.00747,1.37433],[0,0]],[[296.25013,168.4407],[0,0],[-0.2251,-2.53201]],[[295.53154,160.84866],[0.26478,2.52816],[-0.34302,-1.82524]],[[294.28402,155.41854],[1.60727,0.93051],[-0.77966,-0.45138]],[[291.64903,154.81745],[0.85379,0.28748],[-0.46962,-0.15813]],[[290.35035,154.09403],[0.4807,-0.12031],[-2.45296,0.61393]],[[288.46052,162.22478],[0.04518,-1.52818],[-0.13421,4.53961]],[[290.68022,174.19005],[-1.06787,-4.37789],[0.40795,1.67245]],[[291.47575,179.29287],[-0.58077,-1.62056],[0.53735,1.49941]],[[294.94477,182.65646],[-0.79219,-1.06843],[1.2459,1.68035]],[[298.39748,187.89682],[-1.5041,-1.45379],[0,0]]],&quot;closed&quot;:true}]}" fill="#ff0000"/></g><path d="M348.45938,127.37083c1.01306,2.28554 -1.27248,3.2986 -1.27248,3.2986l-1.59636,0.69491c-0.40776,0.1355 -4.83321,1.58227 -5.27258,1.82051c-2.05745,1.11564 -3.79318,2.82073 -5.95204,3.72463c-1.77818,0.74451 -4.11876,1.38806 -6.29889,1.94299c0.00742,0.01887 0.01474,0.03796 0.02196,0.05727l0.00001,0c0.87572,2.3416 -1.46588,3.21733 -1.46588,3.21733l-1.64915,0.57435c-2.00757,0.36373 -4.01072,0.75529 -6.00257,1.19708c0,0 -2.44078,0.54093 -2.98171,-1.89985c-0.54093,-2.44078 1.89985,-2.98171 1.89985,-2.98171c1.38513,-0.30674 2.77544,-0.59046 4.16883,-0.85791c-0.03923,-0.10606 -0.0745,-0.21921 -0.10529,-0.33991c-0.618,-2.42241 1.80441,-3.04041 1.80441,-3.04041c2.29226,-0.58415 6.3132,-1.50368 8.61501,-2.45467c2.05498,-0.84901 3.67062,-2.52723 5.63313,-3.57237c0.86143,-0.45876 4.92722,-1.77275 6.00765,-2.13204l1.14751,-0.5213c0,0 2.28554,-1.01306 3.2986,1.27248z" fill="#ff0000" stroke="none" stroke-width="0.5"/><path d="M341.34604,161.75722c-0.23273,2.48914 -2.72187,2.25642 -2.72187,2.25642l-5.10608,-0.48806c-1.67193,-0.49494 -3.4825,-0.65455 -5.01579,-1.48481c-1.66801,-0.90321 -2.81692,-2.47906 -4.029,-3.98615c-1.19896,1.90514 -3.25343,0.81241 -3.25343,0.81241l-2.62693,-1.43423c-0.96408,-1.00216 -1.92817,-2.00431 -2.89225,-3.00647c0,0 -1.71904,-1.81518 0.09614,-3.53423c0.065,-0.06156 0.12988,-0.11858 0.19455,-0.17132c-0.45308,-0.59053 -1.07339,-1.81118 0.09814,-3.15371c1.64373,-1.88366 3.52738,-0.23993 3.52738,-0.23993c2.09765,1.83311 4.5194,3.28047 6.5651,5.17138c1.84071,1.70143 2.42693,3.92158 4.73724,5.16522c1.0701,0.57603 2.34705,0.63169 3.52057,0.94754l4.64981,0.42408c0,0 2.48914,0.23273 2.25642,2.72187z" fill="#ff0000" stroke="none" stroke-width="0.5"/><path d="M288.74095,172.94028c-0.92634,2.32205 -3.24838,1.39571 -3.24838,1.39571l-1.93709,-1.27158c-0.57761,-1.01645 -1.61206,-1.8865 -1.73282,-3.04935c-0.4454,-4.28904 2.7876,-7.699 4.95687,-10.94408c0,0 1.00622,-1.5052 2.58699,-1.09741c0.68034,-0.46646 1.36068,-0.93292 2.04102,-1.39938c0,0 2.06191,-1.4137 3.4756,0.64821c1.4137,2.06191 -0.64821,3.4756 -0.64821,3.4756c-0.81298,0.5574 -1.62597,1.11481 -2.43895,1.67221l-1.57409,0.88501c0,0 -0.19432,0.10766 -0.49921,0.20087c-1.72699,2.17288 -3.77116,4.74236 -1.96468,6.89928l-0.41275,-0.66347c0,0 2.32205,0.92634 1.39571,3.24838z" fill="#ff0000" stroke="none" stroke-width="0.5"/><path d="M280.12372,153.50085c-2.46582,0.412 -2.87781,-2.05382 -2.87781,-2.05382l-0.18311,-1.19233c-0.10586,-2.37625 -0.8166,-4.70365 -1.55894,-6.96345c0,0 -0.64471,-1.99321 1.07078,-2.92064c0.3286,-0.99716 1.2677,-1.71694 2.37491,-1.71694c1.38071,0 2.5,1.11929 2.5,2.5c0,0.72566 -0.30918,1.37912 -0.80299,1.83581c0.69192,2.28672 1.26826,4.62613 1.4093,7.00164l0.12169,0.63191c0,0 0.412,2.46582 -2.05382,2.87781z" fill="#ff0000" stroke="none" stroke-width="0.5"/><path d="M270.43492,126.48151c1.99804,-1.50261 3.50065,0.49544 3.50065,0.49544l0.84965,1.30892c0.76218,0.55741 1.52437,1.11482 2.28655,1.67222c0,0 2.01794,1.47578 0.54216,3.49372c-1.47578,2.01794 -3.49372,0.54216 -3.49372,0.54216c-0.76218,-0.55741 -1.52437,-1.11482 -2.28655,-1.67222l-1.89417,-2.33959c0,0 -1.50261,-1.99804 0.49544,-3.50065z" fill="#ff0000" stroke="none" stroke-width="0.5"/><path d="M306.23561,92.5913c2.5,0 2.5,2.5 2.5,2.5l-0.08736,1.71926c-0.75264,2.74816 -0.38706,5.85834 -1.73056,8.37108c-0.57048,1.06697 -2.01871,1.31717 -3.06837,1.93825c1.13272,1.37287 -0.0019,2.95701 -0.0019,2.95701l-1.52436,2.1283c0,0 -1.45572,2.03246 -3.48818,0.57674c-2.03246,-1.45572 -0.57674,-3.48818 -0.57674,-3.48818l1.52436,-2.1283c0,0 0.28232,-0.39417 0.77188,-0.71101c-0.06382,-0.09444 -0.12545,-0.19685 -0.18446,-0.30781c-1.17398,-2.20721 1.03324,-3.38119 1.03324,-3.38119c2.6479,-0.81724 1.73227,-4.71352 2.41982,-7.2651l-0.08736,-0.40905c0,0 0,-2.5 2.5,-2.5z" fill="#ff0000" stroke="none" stroke-width="0.5"/><path d="M328.74995,98.7365c2.43564,0.56359 1.87205,2.99924 1.87205,2.99924l-0.2447,1.05753c-0.88565,3.81572 -1.42487,7.50812 -2.00527,11.36847c0,0 -0.37185,2.47219 -2.84404,2.10034c-2.47219,-0.37185 -2.10034,-2.84404 -2.10034,-2.84404c0.00116,-0.00769 0.00232,-0.01539 0.00347,-0.02308c-1.29566,-0.09331 -2.31782,-1.17402 -2.31782,-2.49346c0,-1.38071 1.11929,-2.5 2.5,-2.5c0.19963,0 0.39379,0.0234 0.5799,0.0676c0.37113,-2.26389 0.78432,-4.5123 1.31282,-6.80301l0.2447,-1.05753c0,0 0.56359,-2.43564 2.99924,-1.87205z" fill="#ff0000" stroke="none" stroke-width="0.5"/><path d="M266.51253,101.77116c2.28939,-1.00433 3.29373,1.28506 3.29373,1.28506l1.15173,2.65324c0.40631,1.76035 0.18663,3.79095 1.20271,5.28477c1.2512,1.8395 5.39237,2.29237 7.35309,3.32482c0,0 2.20721,1.17399 1.03322,3.38119c-1.17399,2.20721 -3.38119,1.03322 -3.38119,1.03322c-3.08695,-1.66182 -6.83116,-1.83624 -9.10993,-4.88432c-0.68944,-0.92219 -1.58888,-5.42824 -1.84606,-6.57286l-0.98235,-2.21141c0,0 -1.00433,-2.28939 1.28506,-3.29373z" fill="#ff0000" stroke="none" stroke-width="0.5"/></g></g></svg>