<svg version="1.1" xmlns="http://www.w3.org/2000/svg" xmlns:xlink="http://www.w3.org/1999/xlink" width="124.84676" height="141.92516" viewBox="0,0,124.84676,141.92516"><g transform="translate(-209.09727,-147.09213)"><g data-paper-data="{&quot;isPaintingLayer&quot;:true}" fill-rule="nonzero" stroke-linecap="butt" stroke-linejoin="miter" stroke-miterlimit="10" stroke-dasharray="" stroke-dashoffset="0" style="mix-blend-mode: normal"><path d="M211.09727,210.90787v-61.81574h57.80573v61.81574z" fill="#00f6f7" stroke="#000000" stroke-width="4"/><g stroke="none" stroke-width="0.5"><g><path d="M273.57217,210.71938c-1.28199,0.68915 -2.49445,1.36151 -3.50103,1.80815c-0.02065,0.06275 -0.03836,0.12792 -0.0533,0.1943c-0.00064,-0.04628 -0.00719,-0.0885 -0.02103,-0.12532c-0.41589,-1.10531 -1.29622,-1.98592 -2.04212,-2.90151c-1.19517,-1.46705 -2.17554,-3.18593 -3.06803,-4.85452c-0.54751,-1.02363 -1.28744,-1.95769 -1.98181,-2.88796c-0.46805,-0.62702 -0.95879,-1.24208 -1.49374,-1.81311c-0.18564,-0.19816 -0.7419,-0.23019 -0.65313,-0.48679c0.10692,-0.30896 0.61383,-0.24455 0.9328,-0.31636c0.72777,-0.16381 4.94888,-1.92342 5.62487,-1.05106c1.24744,1.60984 1.26047,3.38598 1.95278,5.19296c1.02747,2.68176 3.52932,4.76324 4.30376,7.24121z" data-paper-data="{&quot;noHover&quot;:false,&quot;origItem&quot;:[&quot;Path&quot;,{&quot;applyMatrix&quot;:true,&quot;segments&quot;:[[[290.70156,197.04816],[0,0],[-1.15982,2.32268]],[[288.83299,205.20695],[1.11875,-2.64498],[-0.75382,1.78221]],[[286.62252,210.25816],[0.21708,-2.02498],[-0.11762,1.0973]],[[291.36824,213.38896],[-0.63805,-0.3865],[0.27964,0.16939]],[[292.25489,213.80837],[-0.29126,0.14853],[0.24189,-0.12336]],[[292.12154,213.00479],[-0.00359,0.2715],[0.01036,-0.78237]],[[292.29649,210.664],[-0.09739,0.77636],[0.14452,-1.15183]],[[292.84666,207.22513],[-0.3151,1.11728],[0.51362,-1.82123]],[[294.00682,201.66814],[-0.15577,1.88585],[0.09722,-1.17696]],[[294.55628,198.16809],[-0.46658,1.0849],[0.01555,-0.03614]],[[294.62793,198.06315],[-0.03163,0.0338],[-0.0568,0.03749]],[[294.45536,198.16652],[0.05838,-0.03089],[-1.03506,-0.37595]],[[290.70155,197.04816],[1.40167,0.39212],[0,0]]],&quot;closed&quot;:true,&quot;fillColor&quot;:[0,0,0,1]}]}" fill="#8f4c00"/><path d="M274.50969,215.78382c0.28272,0.20895 0.65935,0.38228 1.13951,0.47184c2.45762,0.45836 2.83819,-1.93646 2.83819,-1.93646c0.0346,-0.23272 0.16135,-0.52878 0.21653,-0.76169c1.23142,-0.54887 2.4364,-0.91513 3.47988,-0.86429c1.37041,0.06678 1.19237,2.20105 1.55493,2.81576c0.36719,0.62254 0.95992,1.09582 1.52757,1.54808c-1.97116,-0.40783 -4.21681,0.33224 -6.22795,0.67489c-5.89483,1.00439 -10.93405,3.68076 -16.6976,5.20116c-1.54855,0.40851 -3.0323,1.20016 -4.63201,1.27638c-0.56196,0.02679 -0.24219,-1.20016 0.02903,-1.69308c0.37689,-0.68506 1.84972,-1.73228 2.41283,-2.16935c2.83325,-0.1845 5.06157,-0.78899 7.47784,-1.845c0.15434,0.10484 0.32522,0.18684 0.51731,0.23871c0.60192,0.16261 1.18931,-0.02211 1.75534,-0.3223l0.03356,0.03711c0,0 2.47579,0.53389 3.03946,-1.86795c0.4731,-0.22817 0.99535,-0.50139 1.53563,-0.8038z" data-paper-data="{&quot;noHover&quot;:false,&quot;origItem&quot;:[&quot;Path&quot;,{&quot;applyMatrix&quot;:true,&quot;segments&quot;:[[[293.58691,192.69103],[0,0],[0.59903,0.15663]],[[295.24835,193.16655],[-0.49912,-0.16356],[2.07137,-1.34015]],[298.68417,193.89486],[[298.68272,193.94485],[0,0],[0.61603,0.17607]],[[300.15051,194.93518],[-0.32106,-0.53448],[0.10246,0.17055]],[[300.35854,195.46549],[-0.03855,-0.18256],[2.47343,0.91411]],[[307.01163,199.33176],[-2.16974,-1.83126],[0.70883,0.07542]],[[310.25,199.44706],[-0.74655,0.23241],[0.53717,-0.16721]],[[311.44186,198.25205],[0.42355,0.37029],[-1.20571,-1.05412]],[[307.21838,195.96155],[1.3992,0.77918],[-5.20767,-2.90005]],[[291.58051,188.13092],[4.94454,3.36293],[-1.68694,-1.14735]],[[286.71033,184.35047],[1.13782,1.66048],[0.09555,0.71948]],[[286.74129,186.51905],[0.16698,-0.70322],[-0.16488,0.69434]],[[285.9135,189.61448],[-0.94132,-0.99819],[0.71676,0.76006]],[[289.02128,191.39794],[-1.26796,-0.45817],[0.20123,-0.1296]],[[289.60575,190.99099],[-0.18629,0.14372],[0,0]],[[293.09325,191.57177],[-1.45336,-2.03415],[0.28395,0.39742]],[[293.58691,192.69102],[-0.05888,-0.34658],[0,0]]],&quot;closed&quot;:true,&quot;fillColor&quot;:[0,0,0,1]}]}" fill="#8f4c00"/><g><path d="M269.58964,227.89929c2.67248,5.37485 7.06828,10.69198 8.29956,16.61757c0.68917,3.31659 0.39181,7.44394 1.30181,10.67834c0.36744,1.30599 1.36002,2.37438 1.75476,3.67238c0.835,2.74572 0.39492,5.29413 1.85935,7.96624c1.78553,3.258 5.9554,6.70807 8.3126,10.43801c0.84417,-1.56895 1.72041,-3.12274 2.29212,-4.80366c0.66228,-1.94724 -0.12736,-4.16694 0.38783,-6.15815c0.37657,-1.45542 2.49484,-2.70769 1.90216,-4.08926c-0.72141,-1.68161 -2.33455,-2.89933 -2.97489,-4.61343c-2.38153,-6.37527 -4.65157,-12.87951 -7.33947,-19.17376c-0.69507,-1.62763 -1.61826,-3.17221 -2.10888,-4.87269c-1.32066,-4.57745 -0.57139,-7.2588 -3.93085,-10.80967c-3.71439,0.70298 -7.11024,2.0982 -10.60503,3.36772c0.28297,0.59346 0.56594,1.18692 0.8489,1.78037zM289.98414,236.47069c2.74427,6.34211 5.1486,12.92005 7.43155,19.4053c0.656,1.86351 2.6462,3.12412 3.11204,5.04402c0.5473,2.25566 -1.29455,4.45828 -1.9041,6.69791c-0.56297,2.06846 0.1929,4.37393 -0.46467,6.4143c-0.74549,2.31322 -2.30194,4.28212 -3.38126,6.45969c0.2269,0.9796 0.45378,1.95921 0.68068,2.93882l0.00049,-0.00011l0.5192,2.5258c0.23161,1.00679 -0.1806,2.09348 -1.10404,2.67549c-1.11966,0.7057 -2.58448,0.41328 -3.3524,-0.64096l-2.38719,-3.21049l0.02593,-0.01927c-0.03968,-0.03771 -0.07914,-0.07567 -0.11841,-0.11387c-2.08314,-2.02757 -3.73968,-6.46664 -5.41239,-8.88247c-1.65543,-2.39085 -3.77161,-3.92748 -5.20348,-6.51782c-1.67162,-3.02406 -1.35017,-6.03254 -2.31322,-9.09769c-0.40018,-1.27372 -1.3859,-2.32084 -1.73745,-3.60883c-1.13876,-4.17205 -0.10852,-9.07859 -1.95847,-13.11339c-2.09888,-4.57769 -5.06438,-8.81912 -7.32148,-13.33638c-0.38204,-0.80108 -0.76406,-1.60214 -1.14609,-2.40322l-0.00467,-0.01107c-0.09461,0.02562 -0.18943,0.05088 -0.28443,0.07583c-1.81287,0.47591 -6.10506,1.81479 -7.78162,1.07601c-7.67206,-3.38061 -1.15925,-10.60469 2.55852,-13.16232c2.53637,-0.31676 4.48628,-0.64449 6.59386,-1.46287c-1.07735,-1.32441 -2.38281,-2.47866 -3.29552,-3.92082c-1.06603,-1.68441 -1.5789,-3.70358 -2.77875,-5.29541c-1.23641,-1.64035 -3.762,-4.02055 -3.01717,-6.48352c1.382,-4.56984 11.2316,-6.89725 14.63449,-3.96377c2.53657,2.18666 2.35887,4.54186 3.333,7.20552c0.92485,2.52887 3.08441,4.3694 4.3211,6.70873c1.70357,-0.63066 3.37406,-0.9681 4.8246,-0.64939c1.4043,0.30857 2.74617,1.10975 3.74017,2.14862c0.74344,0.77705 0.63847,2.0748 1.18619,3.00026c1.4436,2.43923 4.95822,3.49058 1.55689,7.63452c-0.03819,0.04654 -2.4209,0.55747 -4.81102,1.05994c2.82487,4.55123 3.02856,9.66806 5.25909,14.82287zM273.53785,210.68303c-0.77443,-2.47796 -3.28224,-4.49347 -4.30969,-7.17523c-0.69231,-1.80699 -0.66144,-3.5629 -1.90888,-5.17271c-0.67597,-0.87234 -4.86283,0.87002 -5.59061,1.03384c-0.31896,0.07178 -0.82281,0.00348 -0.92975,0.31243c-0.08881,0.2566 0.46757,0.28852 0.65322,0.48667c0.53493,0.57102 1.02869,1.18121 1.49673,1.80822c0.69438,0.93028 1.44009,1.83608 1.98761,2.8597c0.89247,1.66859 1.82131,3.342 3.01645,4.80908c0.74591,0.9156 1.61463,1.79798 2.03053,2.90331c0.01385,0.03683 0.02048,0.079 0.02111,0.1253c0.01495,-0.06639 0.03204,-0.1314 0.0527,-0.19415c1.00658,-0.44664 2.19861,-1.10732 3.48059,-1.79647zM274.47917,215.82342c-0.54028,0.30242 -1.05392,0.581 -1.52702,0.80915c-0.56367,2.40183 -2.98103,1.85711 -2.98103,1.85711l-0.0336,-0.03704c-0.56603,0.30019 -1.14245,0.46649 -1.74437,0.30388c-0.19208,-0.05187 -0.36323,-0.13311 -0.51757,-0.23795c-2.41626,1.05601 -4.64184,1.64165 -7.47508,1.82616c-0.56312,0.43705 -2.03685,1.47695 -2.41373,2.16199c-0.27118,0.4929 -0.59241,1.71429 -0.03047,1.68749c1.59972,-0.07622 3.08313,-0.86884 4.63169,-1.27736c5.76355,-1.52039 10.80371,-4.19372 16.69853,-5.19811c2.01115,-0.34266 4.15953,-1.05976 6.1307,-0.65194c-0.56766,-0.45226 -1.15855,-0.91881 -1.52574,-1.54137c-0.36254,-0.6147 -0.17903,-2.73791 -1.54942,-2.80466c-1.04349,-0.05084 -2.24471,0.32041 -3.47613,0.86927c-0.05518,0.23291 -0.10447,0.46576 -0.13908,0.69849c0,0 -0.45835,2.45762 -2.91597,1.99927c-0.48016,-0.08955 -0.84901,-0.25541 -1.13172,-0.46436zM269.94424,212.9982c-0.05364,0.16707 -0.13569,0.34638 -0.21526,0.50673l0.10423,0.00834c0.0523,-0.16191 0.08162,-0.33852 0.11103,-0.51505z" fill="#000000"/><path d="M268.96553,227.27634c-0.28299,-0.59346 -0.56547,-1.18722 -0.84843,-1.78069c3.49477,-1.26954 6.91031,-2.67252 10.62471,-3.37551c3.35945,3.55088 2.61744,6.23158 3.93809,10.80903c0.49063,1.70047 1.424,3.24593 2.11906,4.87356c2.68792,6.29427 4.98364,12.88328 7.36517,19.25858c0.64033,1.71411 2.25127,2.93386 2.97269,4.61545c0.5927,1.38155 -1.53371,2.63961 -1.91027,4.09502c-0.51521,1.99121 0.26863,4.21375 -0.39365,6.16099c-0.57169,1.68091 -1.45419,3.23677 -2.29834,4.80573c-2.3572,-3.72993 -6.54165,-7.17841 -8.32718,-10.43642c-1.46446,-2.67212 -1.03423,-5.2219 -1.86923,-7.9676c-0.39472,-1.29798 -1.40194,-2.37254 -1.7694,-3.67852c-0.91001,-3.23439 -0.62795,-7.43175 -1.31712,-10.74832c-1.23131,-5.92558 -5.61364,-11.25643 -8.28609,-16.63125z" data-paper-data="{&quot;noHover&quot;:false,&quot;origItem&quot;:[&quot;Path&quot;,{&quot;applyMatrix&quot;:true,&quot;segments&quot;:[[[305.48257,187.37814],[0,0],[1.8003,-5.72625]],[[311.02193,169.64846],[-3.22072,5.12402],[1.80266,-2.86794]],[[317.48681,161.05038],[-1.58652,2.96182],[0.64061,-1.19593]],[[318.76819,157.18728],[-0.6154,1.20908],[1.30179,-2.55763]],[[322.95103,150.15719],[-0.79714,2.94099],[0.97192,-3.58581]],[[324.19684,136.87189],[-0.88712,4.32224],[-1.69607,0.54545]],[[319.21472,138.74466],[1.57735,-0.81504],[-1.82727,0.94417]],[[314.66589,142.91377],[1.75176,-1.07783],[-1.28039,0.7878]],[[310.46009,144.54206],[0.53066,-1.40656],[-0.64591,1.71202]],[[309.4056,149.92925],[0.7269,-1.67923],[-2.70354,6.24553]],[[301.40217,168.8355],[2.42658,-6.39956],[-0.62749,1.65485]],[[299.54384,173.80914],[0.82532,-1.5656],[-2.22169,4.21441]],[[294.88257,184.32452],[0.04068,-4.88805],[3.16421,2.0685]],[[304.86007,189.24974],[-3.39872,-1.50794],[0.20751,-0.62387]],[[305.48258,187.37815],[-0.2075,0.62387],[0,0]]],&quot;closed&quot;:true,&quot;fillColor&quot;:[0,0,0,1]}]}" fill="#c6c6c6"/></g></g><path d="M329.94509,251.63333c1.15566,2.21686 -1.0612,3.37251 -1.0612,3.37251l-0.90904,0.41056c-2.50392,2.07525 -4.85458,4.20511 -7.36511,6.2533c-0.71092,0.58001 -5.06157,4.64594 -6.21328,5.08998c-1.0667,0.41125 -2.2811,0.15679 -3.42166,0.2352c0,0 -2.49883,0.0764 -2.57523,-2.42243c-0.0764,-2.49883 2.42243,-2.57523 2.42243,-2.57523c3.09742,0.12559 4.21272,-2.23231 6.66514,-4.23254c2.48669,-2.02821 4.81392,-4.13294 7.2938,-6.19522l1.79165,-0.99732c0,0 2.21686,-1.15566 3.37251,1.0612z" fill="#000000"/><path d="M330.84634,231.41664l3.09768,1.99502c-2.10038,2.61362 -4.59744,4.41261 -7.0893,6.59911c-5.79407,5.08402 -9.91168,10.03373 -17.69768,11.68841c0,0 -2.44799,0.50737 -2.95534,-1.94061c-0.50737,-2.44799 1.94061,-2.95534 1.94061,-2.95534c6.72189,-1.35115 10.42584,-6.17146 15.43182,-10.56574c1.85612,-1.62931 3.74075,-2.97254 5.40107,-4.72276c0.26154,-0.54719 0.64194,-0.88971 0.64194,-0.88971l0.0973,0.06267c0.10787,-0.1285 0.21453,-0.25935 0.31989,-0.3928z" fill="#000000"/><path d="M320.82992,227.68868c1.79054,1.74471 0.04584,3.53524 0.04584,3.53524l-1.24031,1.25982c-2.69077,2.32618 -5.2647,5.44286 -8.45774,7.08204c-2.61527,1.34257 -5.56613,1.71884 -8.21268,3.20287c0,0 -2.18416,1.21633 -3.40048,-0.96782c-1.21633,-2.18416 0.96782,-3.40048 0.96782,-3.40048c2.71453,-1.50261 5.75621,-1.97855 8.42618,-3.31511c2.79133,-1.39733 5.05143,-4.34723 7.40671,-6.3838l0.92943,-0.96693c0,0 1.74471,-1.79054 3.53524,-0.04584z" fill="#000000"/><path d="M313.1399,219.36629c1.95483,1.55841 0.39644,3.51324 0.39644,3.51324l-0.3839,0.47469c-3.21134,3.55343 -6.7688,4.934 -10.79846,7.35883c0,0 -2.14441,1.28511 -3.42953,-0.85932c-1.28511,-2.14441 0.85932,-3.42953 0.85932,-3.42953c3.60136,-2.15015 6.8455,-3.26482 9.64825,-6.41045l0.19466,-0.25105c0,0 1.55841,-1.95483 3.51324,-0.39644z" fill="#000000"/></g></g></g></svg>