<svg version="1.1" xmlns="http://www.w3.org/2000/svg" xmlns:xlink="http://www.w3.org/1999/xlink" width="128.16438" height="75.45176" viewBox="0,0,128.16438,75.45176"><g transform="translate(-209.09729,-137.45611)"><g data-paper-data="{&quot;isPaintingLayer&quot;:true}" fill-rule="nonzero" stroke-linecap="butt" stroke-linejoin="miter" stroke-miterlimit="10" stroke-dasharray="" stroke-dashoffset="0" style="mix-blend-mode: normal"><path d="M211.09729,210.90787v-61.81574h57.80573v61.81574z" fill="#00f6f7" stroke="#000000" stroke-width="4"/><path d="M282.62924,190.33453c0.14963,-0.43702 0.46602,-0.87897 1.05703,-1.26243c2.09722,-1.36076 3.45798,0.73647 3.45798,0.73647c5.06576,8.22466 13.45558,-0.21048 20.77534,1.82646c2.60776,0.72569 4.47353,2.0317 6.3367,3.86166c0.99624,0.97848 2.68124,1.71058 2.81728,3.10033c0.41747,4.26477 -4.19199,6.52347 -6.55814,9.00986c-0.76276,0.80152 -1.19196,1.9751 -2.14962,2.52929c-2.9731,1.72052 -7.22954,1.58786 -10.55393,1.77536c-3.17899,-0.28726 -6.9343,0.38732 -9.96922,-0.76139c-3.2756,-1.23981 -6.47304,-4.4796 -8.66439,-7.11281c-2.49752,-3.0011 -2.40255,-3.41006 -2.27093,-7.65111c0.04723,-1.52163 -0.47753,-3.4299 0.57386,-4.53088c1.59468,-1.66989 3.37674,-1.80308 5.14805,-1.52081zM287.61654,197.30506c-1.05608,0.22752 -2.00832,-0.42995 -2.00832,-0.42995l-1.16601,-0.99973c-0.63498,-0.17828 -1.26778,-0.3645 -1.90493,-0.53485c-0.39954,-0.10682 -0.97584,-0.64103 -1.20475,-0.29659c-0.25308,0.38081 0.5134,0.79267 0.57387,1.24589c0.14064,1.05419 -0.23022,2.15639 0.01801,3.19054c0.44572,1.85691 4.24201,4.67053 5.685,5.79967c2.91562,2.28146 6.82808,1.31795 10.28199,1.63212c2.15839,-0.13253 5.82948,0.18526 7.73841,-0.96101c0.60168,-0.3613 0.73053,-1.20917 1.2039,-1.72732c0.80758,-0.88398 1.72396,-1.66303 2.61948,-2.4578c0.87294,-0.77472 2.84901,-1.05512 2.71239,-2.21424c-0.04572,-0.38789 -0.8142,-0.03812 -1.14603,-0.24414c-1.46536,-0.90983 -2.67562,-2.35252 -4.33384,-2.82726c-4.78157,-1.36897 -9.88865,2.78442 -14.77753,2.18716c-1.7006,-0.20776 -3.09132,-0.6711 -4.29163,-1.36249z" fill="#000000" stroke="none" stroke-width="0.5"/><path d="M291.86289,199.42435c4.88888,0.59726 10.08692,-3.55531 14.86849,-2.18634c1.65821,0.47475 2.87249,1.93219 4.33785,2.84202c0.33182,0.20603 1.10043,-0.14256 1.14615,0.24533c0.13662,1.15912 -1.83936,1.44725 -2.7123,2.22197c-0.89553,0.79477 -1.81427,1.58603 -2.62185,2.47002c-0.47337,0.51815 -0.60621,1.37509 -1.20789,1.73638c-1.90893,1.14626 -5.61401,0.85296 -7.7724,0.98549c-3.45391,-0.31418 -7.42102,0.62183 -10.33664,-1.65963c-1.44299,-1.12914 -5.24394,-3.96917 -5.68966,-5.82608c-0.24823,-1.03415 0.12468,-2.14642 -0.01596,-3.20061c-0.06047,-0.45322 -0.82593,-0.868 -0.57285,-1.24881c0.22891,-0.34445 0.80539,0.1893 1.20493,0.29612c0.63715,0.17036 1.36274,0.39387 1.99772,0.57215l1.16675,0.99783c0,0 0.85878,0.62192 1.91487,0.3944c1.20031,0.6914 2.59221,1.152 4.29281,1.35976z" data-paper-data="{&quot;noHover&quot;:false,&quot;origItem&quot;:[&quot;Path&quot;,{&quot;applyMatrix&quot;:true,&quot;segments&quot;:[[[287.61654,198.08304],[1.20031,0.6914],[-1.05608,0.22752]],[285.60822,197.65309],[[284.44221,196.65336],[0,0],[-0.63498,-0.17828]],[[282.53728,196.11851],[0.63715,0.17036],[-0.39954,-0.10682]],[[281.33252,195.82192],[0.22891,-0.34445],[-0.25308,0.38081]],[[281.90639,197.06781],[-0.06047,-0.45322],[0.14064,1.05419]],[[281.9244,200.25835],[-0.24823,-1.03415],[0.44572,1.85691]],[[287.6094,206.05802],[-1.44299,-1.12914],[2.91562,2.28146]],[[297.89139,207.69014],[-3.45391,-0.31418],[2.15839,-0.13253]],[[305.6298,206.72914],[-1.90893,1.14626],[0.60168,-0.3613]],[[306.83369,205.00182],[-0.47337,0.51815],[0.80758,-0.88398]],[[309.45318,202.54402],[-0.89553,0.79477],[0.87294,-0.77472]],[[312.16557,200.32978],[0.13662,1.15912],[-0.04572,-0.38789]],[[311.01954,200.08564],[0.33182,0.20603],[-1.46536,-0.90983]],[[306.68571,197.25837],[1.65821,0.47475],[-4.78157,-1.36897]],[[291.90818,199.44553],[4.88888,0.59726],[-1.7006,-0.20776]]],&quot;closed&quot;:true}]}" fill="#00f6f7" stroke="none" stroke-width="0.5"/><path d="M308.28302,161.23416c-0.14617,0.65889 -0.28831,1.3177 -0.37178,1.97553c-2.1064,2.35258 -3.2634,4.41858 -6.72249,5.02103c-0.15249,0.02656 -0.30645,0.05394 -0.46161,0.08158c0.87467,0.38012 1.75629,0.59096 2.64696,0.3477c1.82904,-0.49954 5.13029,-3.42124 6.32712,-5.00879zM308.58309,156.27225c0.06088,0.20824 0.1064,0.40232 0.13492,0.57927c0.05675,0.352 0.07957,0.70456 0.07697,1.05756c0.14311,-0.10366 0.30651,-0.20127 0.49273,-0.29089c2.25266,-1.08422 3.33688,1.16844 3.33688,1.16844l2.07649,4.90496c-1.90765,4.28617 -5.37627,8.75983 -10.44079,9.88924c-2.94005,0.65565 -8.2608,-2.4038 -10.41495,-3.40199c-0.47574,-0.90492 -1.01603,-1.81375 -1.54948,-2.73511c-3.47719,-0.16075 -6.2623,-1.84821 -6.12152,-7.29794c0.14021,-5.42763 7.07727,-12.97746 13.17785,-13.10108c1.93011,-0.8805 4.06565,-1.03923 6.28013,-0.00554c1.46519,0.68393 2.03988,2.58473 2.57657,4.11002c0.54097,1.53746 0.63906,3.32602 0.37421,5.12306z" fill="#ff6666" stroke="none" stroke-width="0.5"/><path d="M280.24221,149.00803c-2.21098,-1.16686 -1.04412,-3.37784 -1.04412,-3.37784l1.52438,-2.88841c0,0 1.16686,-2.21098 3.37784,-1.04412c2.21098,1.16686 1.04412,3.37784 1.04412,3.37784l-1.52438,2.88841c0,0 -1.16686,2.21098 -3.37784,1.04412z" fill="#ff6666" stroke="none" stroke-width="0.5"/><path d="M292.71501,168.68525c-0.06155,-0.31121 -0.12137,-0.62337 -0.18925,-0.93111c-0.43743,-0.95702 -0.78363,-1.99154 -1.2751,-2.89687c-0.1395,-0.25698 -0.28045,-0.50863 -0.42101,-0.75589c-0.52102,1.40144 -0.86005,2.80265 -0.91454,4.10866c-0.03751,0.89906 1.65374,0.75024 2.53686,0.92294zM301.21543,147.85856c0.89679,0.15994 1.82102,0.5237 2.72221,1.03773c-0.12397,-0.13528 -0.25293,-0.26648 -0.3874,-0.39317c-0.53014,-0.49945 -1.36136,-1.07743 -2.03407,-0.79819c-0.10527,0.0437 -0.20531,0.09527 -0.30074,0.15363zM300.48863,156.86081c-0.07088,-0.00293 -0.14225,-0.00715 -0.21379,-0.01184c-1.10512,0.56997 -2.72818,1.94525 -2.9888,3.06911c-0.01242,0.07597 -0.02373,0.15241 -0.0339,0.2292c-0.02059,0.3532 0.11725,0.67195 0.47857,0.9197c0.37998,0.26055 0.92497,-0.08511 1.38193,-0.0263c0.66166,0.08514 1.36035,0.76888 1.94896,0.45492c0.59892,-0.31946 0.49908,-1.26253 0.74861,-1.89379c-0.06025,-0.64256 0.27816,-1.47389 -0.18074,-1.92768c-0.25794,-0.25508 -0.65683,-0.54012 -1.14084,-0.81331zM292.81573,151.57135c1.64163,-3.80377 4.47943,-7.97548 7.50986,-8.7226c2.07433,-0.51141 4.3823,0.50745 6.19749,1.63415c1.3681,0.8492 1.9359,2.57854 2.78929,3.94404c2.49132,3.98634 5.35359,9.23762 3.5231,14.2103c-0.67209,1.82578 -2.52458,2.96105 -3.8028,4.42779c-1.33212,1.5286 -2.10746,2.69825 -2.8513,3.52328c-0.60728,1.10424 -1.32159,2.11323 -2.37591,2.72099c-1.58279,0.9124 -5.99927,0.68628 -8.53935,-0.56666l-0.81506,0.9733c-2.08828,-0.17584 -4.34537,0.31357 -6.26485,-0.52752c-4.55461,-1.99576 -3.13353,-6.38974 -2.3018,-9.96468c0.24211,-1.04063 0.89722,-1.94048 1.39681,-2.8849c0.35847,-0.67766 0.75198,-1.43266 1.18294,-2.22692c0.01171,-1.37857 0.55376,-2.87708 1.97096,-4.67099c0.64582,-0.8175 1.46088,-1.43384 2.38063,-1.8696z" fill="#ff0000" stroke="none" stroke-width="0.5"/><path d="M283.48217,139.95611c0,-1.38071 1.11929,-2.5 2.5,-2.5c1.38071,0 2.5,1.11929 2.5,2.5c0,1.38071 -1.11929,2.5 -2.5,2.5c-1.38071,0 -2.5,-1.11929 -2.5,-2.5z" fill="#ff0000" stroke="none" stroke-width="0.5"/><path d="M318.23756,143.60461c0,-1.38071 1.11929,-2.5 2.5,-2.5c1.38071,0 2.5,1.11929 2.5,2.5c0,1.38071 -1.11929,2.5 -2.5,2.5c-1.38071,0 -2.5,-1.11929 -2.5,-2.5z" fill="#ff0000" stroke="none" stroke-width="0.5"/><path d="M321.2863,172.79266c0,-1.38071 1.11929,-2.5 2.5,-2.5c1.38071,0 2.5,1.11929 2.5,2.5c0,1.38071 -1.11929,2.5 -2.5,2.5c-1.38071,0 -2.5,-1.11929 -2.5,-2.5z" fill="#ff0000" stroke="none" stroke-width="0.5"/><path d="M297.96356,183.58612c0,-1.38071 1.11929,-2.5 2.5,-2.5c1.38071,0 2.5,1.11929 2.5,2.5c0,1.38071 -1.11929,2.5 -2.5,2.5c-1.38071,0 -2.5,-1.11929 -2.5,-2.5z" fill="#ff0000" stroke="none" stroke-width="0.5"/><path d="M279.82371,179.7856c0,-1.38071 1.11929,-2.5 2.5,-2.5c1.38071,0 2.5,1.11929 2.5,2.5c0,1.38071 -1.11929,2.5 -2.5,2.5c-1.38071,0 -2.5,-1.11929 -2.5,-2.5z" fill="#ff0000" stroke="none" stroke-width="0.5"/><path d="M332.26168,154.24608c0,-1.38071 1.11929,-2.5 2.5,-2.5c1.38071,0 2.5,1.11929 2.5,2.5c0,1.38071 -1.11929,2.5 -2.5,2.5c-1.38071,0 -2.5,-1.11929 -2.5,-2.5z" fill="#ff0000" stroke="none" stroke-width="0.5"/><path d="M274.79329,155.31024c0,-1.38071 1.11929,-2.5 2.5,-2.5c1.38071,0 2.5,1.11929 2.5,2.5c0,1.38071 -1.11929,2.5 -2.5,2.5c-1.38071,0 -2.5,-1.11929 -2.5,-2.5z" fill="#ff0000" stroke="none" stroke-width="0.5"/></g></g></svg>