<svg version="1.1" xmlns="http://www.w3.org/2000/svg" xmlns:xlink="http://www.w3.org/1999/xlink" width="65.00873" height="72.85966" viewBox="0,0,65.00873,72.85966"><g transform="translate(-209.09718,-140.04821)"><g data-paper-data="{&quot;isPaintingLayer&quot;:true}" fill-rule="nonzero" stroke-linecap="butt" stroke-linejoin="miter" stroke-miterlimit="10" stroke-dasharray="" stroke-dashoffset="0" style="mix-blend-mode: normal"><path d="M211.09719,210.90787v-61.81574h57.80573v61.81574z" fill="#00f6f7" stroke="#000000" stroke-width="4"/><path d="M229.48204,212.30276c-2.33919,-0.88212 -1.45708,-3.22132 -1.45708,-3.22132l1.26995,-2.36081c6.58418,-5.20874 12.08309,-5.09492 20.24299,-4.24178c0,0 2.48643,0.26011 2.22632,2.74654c-0.26011,2.48643 -2.74654,2.22632 -2.74654,2.22632c-6.86611,-0.71867 -11.12636,-1.17994 -16.6157,3.18633l0.30137,0.20765c0,0 -0.88212,2.33919 -3.22132,1.45708z" data-paper-data="{&quot;index&quot;:null}" fill="#000000" stroke="none" stroke-width="0.5"/><path d="M221.59684,184.18843c0.47003,-2.45542 2.92545,-1.98539 2.92545,-1.98539l2.36589,0.52449c2.67288,-0.87337 5.27582,-1.60383 7.94817,-2.3741c5.22767,-1.50681 8.92301,-3.86758 14.54154,-3.09882c0,0 2.4739,0.36025 2.11365,2.83416c-0.36025,2.4739 -2.83416,2.11365 -2.83416,2.11365c-4.73153,-0.74424 -8.05637,1.67859 -12.46575,2.96384c-2.99509,0.87301 -6.02139,1.72013 -9.06049,2.55537l-3.5489,-0.60775c0,0 -2.45542,-0.47003 -1.98539,-2.92545z" data-paper-data="{&quot;index&quot;:null}" fill="#000000" stroke="none" stroke-width="0.5"/><path d="M217.9537,174.84991c-1.33934,-2.11097 0.77163,-3.4503 0.77163,-3.4503l0.70937,-0.44462c7.56573,-4.16266 16.1323,-6.44159 24.75149,-6.45711c0,0 2.5,-0.00208 2.50207,2.49792c0.00208,2.5 -2.49792,2.50207 -2.49792,2.50207c-7.75199,-0.00172 -15.54195,2.0623 -22.33787,5.83369l-0.44846,0.28998c0,0 -2.11097,1.33934 -3.4503,-0.77163z" data-paper-data="{&quot;index&quot;:null}" fill="#000000" stroke="none" stroke-width="0.5"/><path d="M262.13458,174.73364l2.0441,-2.04536c6.42855,-3.47297 3.11496,-12.4665 1.33114,-17.97684c-0.30673,-0.89148 -0.56333,-1.80181 -0.92017,-2.67444c-0.64218,-1.57043 -1.54535,-3.03605 -2.07416,-4.6482c-0.21576,-0.65776 0.01905,-1.39669 -0.13038,-2.07261c-0.17956,-0.81221 -3.05208,0.5159 -3.26022,0.80061c-0.77569,1.0611 -0.28023,2.61408 -0.38737,3.9241c-0.23189,2.83537 1.60261,4.54423 1.73741,7.62327c0.09537,2.17841 -1.3697,4.15051 -1.80991,6.28611c-0.53333,2.58738 0.86343,5.28723 0.52847,7.90768c-0.12591,0.98504 -0.96315,1.76189 -1.20259,2.72565c-0.25776,1.0375 -0.30089,2.26314 -0.25306,3.50009c1.20028,-0.76869 2.44669,-1.46211 3.73914,-2.05763c0.16552,-0.75796 0.6576,-1.29242 0.6576,-1.29242zM253.15962,173.29564c0.19168,-0.838 0.99758,-1.47438 1.11344,-2.32618c0.36227,-2.66332 -0.98859,-5.40469 -0.50107,-8.04796c0.32308,-1.75164 1.80229,-3.28507 1.70668,-5.0637c-0.08928,-1.66092 -1.2339,-3.10051 -1.63245,-4.71537c-0.55062,-2.23104 -0.20536,-8.12701 1.25948,-9.9999c0.84314,-1.078 2.19914,-1.69025 3.47379,-2.18849c3.4027,-1.33007 5.6178,-1.53377 8.06406,1.7419c0.6681,0.89462 0.30378,2.22703 0.66882,3.28223c0.86051,2.48742 2.07946,4.66205 2.93997,7.14947c1.73205,5.37728 4.31114,13.04066 1.8341,18.75789c-0.29469,0.68017 -0.58214,1.22983 -0.8768,1.68806c2.2742,1.55863 2.99964,5.47958 2.88469,7.67281c-0.22734,4.33758 -4.05705,7.38573 -7.91313,9.30748c1.57266,2.10174 1.78678,5.09068 1.54141,7.6235c-0.13112,1.35352 0.14256,2.95166 -0.69996,4.01908c-0.85216,1.07963 -2.5196,1.10395 -3.7794,1.65592c0,0 -2.38282,0.75642 -3.13924,-1.6264c-0.00464,-0.01461 -0.00915,-0.02915 -0.01356,-0.04364c-0.39176,-0.37835 -0.58584,-0.77503 -0.58584,-0.77503l-0.41252,-0.87772c-0.59393,-0.93846 -2.03917,-3.07893 -2.6942,-4.55114l-1.09809,0.32158c-1.22695,-0.55244 -2.66091,-1.30891 -3.9674,-2.27462c-0.34299,1.41277 -1.93257,1.75122 -1.93257,1.75122c-2.22138,0.45231 -4.51845,0.38087 -6.78171,0.51022c-4.68826,0.26794 -10.19041,3.28955 -14.64319,4.70308l-0.11174,0.16889c0,0 -2.11097,1.33934 -3.4503,-0.77163c-1.33934,-2.11097 0.77163,-3.4503 0.77163,-3.4503l1.27765,-0.71263c5.00442,-1.58846 10.68171,-4.52185 15.94303,-4.93289c1.97946,-0.15464 4.00543,0.03011 5.94298,-0.40279c-0.6933,-1.1649 -1.06571,-2.48948 -0.90154,-3.97707c0.15364,-1.3922 2.04584,-1.9142 3.0394,-2.90145c0.81308,-0.80791 1.65705,-1.59889 2.53184,-2.36063c-0.26777,-2.94424 -0.56384,-5.26904 0.14175,-8.35377zM261.03934,187.30366c2.46381,-0.75691 6.2313,-2.61537 7.4998,-4.94367c0.60551,-1.11139 0.28243,-2.52718 0.21311,-3.79091c-0.0124,-0.22608 0.39078,-0.77365 0.2021,-0.6485c-3.45256,2.29025 -7.67086,3.75304 -11.26101,6.25344c-0.23994,0.37578 -0.61556,0.71733 -1.20234,0.89921c-0.2551,0.20546 -0.50584,0.41784 -0.75164,0.6379c-0.71354,0.63882 -1.192,1.5386 -1.98189,2.08016c-0.40398,0.27698 -1.42361,-0.22028 -1.44459,0.26908c-0.03978,0.92824 1.88891,2.12454 3.37921,2.89825c0.04162,-0.11419 0.0916,-0.22607 0.15086,-0.33527c0.90936,-1.67585 2.4704,-2.48212 4.13013,-2.65191c0.49046,-0.47714 1.06629,-0.6678 1.06629,-0.6678zM262.70632,196.96233c0.01422,-0.97236 0.04621,-2.21419 -0.19774,-2.85319c-0.18843,-0.49356 -1.06116,-1.19951 -1.64472,-1.45378c0.05905,0.44422 -0.02345,0.83068 -0.17144,1.15613c0.49438,1.02909 1.35348,2.21637 2.0139,3.15085z" data-paper-data="{&quot;index&quot;:null}" fill="#000000" stroke="none" stroke-width="0.5"/></g></g></svg>