<svg version="1.1" xmlns="http://www.w3.org/2000/svg" xmlns:xlink="http://www.w3.org/1999/xlink" width="105.59582" height="98.24655" viewBox="0,0,105.59582,98.24655"><g transform="translate(-209.09717,-116.47576)"><g data-paper-data="{&quot;isPaintingLayer&quot;:true}" fill-rule="nonzero" stroke-linecap="butt" stroke-linejoin="miter" stroke-miterlimit="10" stroke-dasharray="" stroke-dashoffset="0" style="mix-blend-mode: normal"><path d="M211.09718,210.90787v-61.81574h57.80573v61.81574z" fill="#00f6f7" stroke="#000000" stroke-width="4"/><path d="M300.10161,181.33645c0.60505,-5.97201 -0.27857,-12.8141 1.83934,-18.48358c1.18541,-3.17324 3.63771,-6.50637 4.59246,-9.72784c0.38551,-1.30077 0.11548,-2.73386 0.47365,-4.04242c0.75765,-2.76805 2.48878,-4.68931 2.67468,-7.73074c0.22666,-3.70827 -1.46137,-8.8504 -1.46668,-13.26273c-1.55072,0.87718 -3.12051,1.72444 -4.50044,2.84163c-1.59857,1.2942 -2.1141,3.59308 -3.61169,5.0029c-1.09461,1.03046 -3.55437,0.96038 -3.78961,2.4452c-0.28633,1.80727 0.42906,3.69759 0.05678,5.48913c-1.38461,6.66323 -2.93233,13.3761 -4.01455,20.13416c-0.27985,1.74756 -0.32243,3.54653 -0.81408,5.24669c-1.32348,4.57663 -3.38707,6.4455 -2.43838,11.24077c3.51715,1.38584 7.13393,2.01621 10.76738,2.80565c0.07705,-0.65294 0.1541,-1.30587 0.23115,-1.95881zM287.41857,163.21065c1.06007,-6.82858 2.53345,-13.67542 4.06011,-20.37914c0.43868,-1.92628 -0.57283,-4.05394 0.05678,-5.92652c0.73972,-2.20007 3.47237,-3.08136 5.18223,-4.65104c1.57918,-1.44971 2.16904,-3.80313 3.81327,-5.17863c1.8641,-1.55944 4.23067,-2.39518 6.30485,-3.66186c0.33038,-0.94971 0.66077,-1.89943 0.99115,-2.84914l-0.00047,-0.00018l0.90755,-2.41363c0.3409,-0.97521 1.26905,-1.67475 2.36059,-1.67475c1.3235,0 2.40679,1.02845 2.4943,2.32977l0.30767,3.98889l-0.03222,0.00249c0.01346,0.05306 0.02661,0.10621 0.03944,0.15946c0.68119,2.82604 -0.28437,7.46471 -0.1574,10.40037c0.12566,2.90531 1.09655,5.33365 0.92669,8.28851c-0.19829,3.44962 -2.07437,5.82335 -2.89404,8.92992c-0.34061,1.29092 -0.06504,2.70237 -0.4544,3.97943c-1.26121,4.13668 -4.74899,7.73819 -5.33534,12.13798c-0.66524,4.99179 -0.41806,10.16121 -0.91724,15.18624c-0.10395,0.8814 -0.20789,1.7628 -0.31184,2.6442l-0.00196,0.01184c0.0937,0.02878 0.18738,0.05795 0.28105,0.08751c1.78742,0.56403 6.13243,1.72 7.15686,3.23894c4.68786,6.95075 -4.67381,9.58952 -9.18274,9.77087c-2.31463,-1.08445 -4.13896,-1.84691 -6.35832,-2.27833c0.20522,1.69488 0.69418,3.36744 0.69735,5.07416c0.0037,1.9934 -0.63905,3.97504 -0.47279,5.9615c0.17133,2.04699 1.0388,5.40725 -0.9046,7.09372c-3.60583,3.12911 -13.17941,-0.15382 -14.49405,-4.44996c-0.97995,-3.2024 0.4262,-5.10011 1.02238,-7.87294c0.56601,-2.63251 -0.27955,-5.34108 -0.07843,-7.97953c-1.77746,-0.37484 -3.3706,-0.98007 -4.4278,-2.02314c-1.02349,-1.00982 -1.73149,-2.40311 -2.01844,-3.81198c-0.21463,-1.05378 0.56617,-2.09567 0.59627,-3.17066c0.07936,-2.83328 -2.33336,-5.59675 2.75369,-7.28883c0.05713,-0.019 2.3453,0.81924 4.63522,1.66858c0.03697,-5.35651 2.59298,-9.79387 3.4546,-15.3441zM287.58167,193.79589c-0.66613,2.50924 0.38076,5.55152 -0.17997,8.3681c-0.37782,1.89783 -1.34019,3.36683 -1.14326,5.39387c0.10672,1.09841 4.57779,1.85688 5.28082,2.10636c0.30812,0.10934 0.69795,0.4358 0.95315,0.23143c0.21194,-0.16973 -0.24172,-0.49339 -0.29311,-0.76001c-0.14808,-0.7683 -0.24043,-1.54779 -0.30205,-2.3278c-0.09141,-1.15726 -0.23929,-2.32116 -0.15666,-3.47908c0.13469,-1.88747 0.2412,-3.79841 0.01237,-5.67679c-0.14281,-1.1723 -0.40726,-2.38201 -0.16973,-3.53885c0.00792,-0.03854 0.02481,-0.07776 0.04895,-0.11726c-0.04804,0.0482 -0.09717,0.09407 -0.1481,0.13613c-1.0897,-0.15886 -2.45041,-0.23555 -3.90242,-0.3361zM289.52621,188.94527c0.61833,0.03225 1.20139,0.07045 1.72328,0.12969c1.75754,-1.73136 3.51212,0.01842 3.51212,0.01842l0.00869,0.04925c0.63891,0.04785 1.21522,0.21452 1.63774,0.67303c0.13483,0.14631 0.23631,0.30629 0.31098,0.47728c2.60719,0.39501 4.80226,1.08627 7.29751,2.44089c0.70944,-0.06949 2.51065,-0.16341 3.19477,-0.54199c0.49225,-0.27239 1.41524,-1.13437 0.92556,-1.41135c-1.39398,-0.7885 -3.07156,-0.90892 -4.59943,-1.38904c-5.68655,-1.78695 -11.3759,-2.21282 -16.89837,-4.5063c-1.88412,-0.78248 -4.08397,-1.32135 -5.53409,-2.71741c0.23908,0.68529 0.4902,1.39505 0.46888,2.11751c-0.02105,0.71334 -1.30842,2.41168 -0.18468,3.19888c0.85566,0.5994 2.06982,0.92583 3.40424,1.11811c0.17086,-0.16762 0.33672,-0.33832 0.49009,-0.51674c0,0 1.69819,-1.83471 3.53289,-0.13651c0.35845,0.33178 0.58206,0.66878 0.70981,0.99629zM291.85625,193.75343c0.13446,-0.11273 0.29948,-0.22069 0.4523,-0.31392l-0.08374,-0.06262c-0.13058,0.10907 -0.24955,0.24286 -0.36856,0.37654z" fill="#000000" stroke="none" stroke-width="0.5"/><path d="M300.10322,181.38643c-0.07705,0.65294 -0.15463,1.30588 -0.23168,1.95882c-3.63345,-0.78944 -7.27028,-1.42354 -10.78743,-2.80938c-0.94869,-4.79527 1.10909,-6.66697 2.43257,-11.2436c0.49165,-1.70016 0.52701,-3.50414 0.80686,-5.2517c1.08222,-6.75806 2.65,-13.55789 4.03461,-20.22112c0.37228,-1.79154 -0.3396,-3.68259 -0.05327,-5.48986c0.23524,-1.48482 2.70553,-1.41542 3.80014,-2.44588c1.49759,-1.40982 2.01986,-3.70796 3.61843,-5.00216c1.37993,-1.11719 2.9563,-1.9628 4.50702,-2.83998c0.00531,4.41233 1.7073,9.56155 1.48064,13.26982c-0.1859,3.04143 -1.90839,4.97066 -2.66604,7.73871c-0.35817,1.30856 -0.079,2.75747 -0.46451,4.05824c-0.95475,3.22147 -3.43678,6.61816 -4.62219,9.7914c-2.11791,5.66948 -1.2501,12.51467 -1.85515,18.48668z" data-paper-data="{&quot;noHover&quot;:false,&quot;origItem&quot;:[&quot;Path&quot;,{&quot;applyMatrix&quot;:true,&quot;segments&quot;:[[[300.10161,181.33645],[0,0],[0.60505,-5.97201]],[[301.94095,162.85287],[-2.11791,5.66948],[1.18541,-3.17324]],[[306.53342,153.12503],[-0.95475,3.22147],[0.38551,-1.30077]],[[307.00707,149.08261],[-0.35817,1.30856],[0.75765,-2.76805]],[[309.68175,141.35187],[-0.1859,3.04143],[0.22666,-3.70827]],[[308.21507,128.08914],[0.00531,4.41233],[-1.55072,0.87718]],[[303.71463,130.93077],[1.37993,-1.11719],[-1.59857,1.2942]],[[300.10294,135.93367],[1.49759,-1.40982],[-1.09461,1.03046]],[[296.31333,138.37887],[0.23524,-1.48482],[-0.28633,1.80727]],[[296.37011,143.868],[0.37228,-1.79154],[-1.38461,6.66323]],[[292.35556,164.00216],[1.08222,-6.75806],[-0.27985,1.74756]],[[291.54148,169.24885],[0.49165,-1.70016],[-1.32348,4.57663]],[[289.1031,180.48962],[-0.94869,-4.79527],[3.51715,1.38584]],[[299.87048,183.29527],[-3.63345,-0.78944],[0.07705,-0.65294]],[[300.10163,181.33646],[-0.07705,0.65294],[0,0]]],&quot;closed&quot;:true,&quot;fillColor&quot;:[0,0,0,1]}]}" fill="#c6c6c6" stroke="none" stroke-width="0.5"/><path d="M289.47825,188.9594c-0.12775,-0.32751 -0.35321,-0.67434 -0.71166,-1.00612c-1.8347,-1.6982 -3.43319,0.12882 -3.43319,0.12882c-0.15337,0.17842 -0.41877,0.35835 -0.58963,0.52597c-1.33442,-0.19228 -2.54892,-0.52441 -3.40458,-1.12381c-1.12374,-0.7872 0.16504,-2.49747 0.18609,-3.21081c0.02132,-0.72246 -0.22777,-1.43864 -0.46685,-2.12393c1.45012,1.39606 3.64894,1.93782 5.53306,2.7203c5.52247,2.29348 11.30827,2.7453 16.99482,4.53225c1.52787,0.48012 3.20514,0.60187 4.59912,1.39037c0.48968,0.27698 -0.43506,1.14461 -0.92731,1.417c-0.68412,0.37858 -2.48853,0.47937 -3.19797,0.54886c-2.49525,-1.35462 -4.70406,-2.03025 -7.31125,-2.42526c-0.07467,-0.17099 -0.17567,-0.33133 -0.3105,-0.47764c-0.42252,-0.45851 -1.02424,-0.61517 -1.66315,-0.66302l-0.0088,-0.04924c0,0 -1.80439,-1.77775 -3.56193,-0.04639c-0.52189,-0.05924 -1.10792,-0.10512 -1.72625,-0.13737z" data-paper-data="{&quot;noHover&quot;:false,&quot;origItem&quot;:[&quot;Path&quot;,{&quot;applyMatrix&quot;:true,&quot;segments&quot;:[[[289.52621,188.94527],[0,0],[0.61833,0.03225]],[[291.24949,189.07496],[-0.52189,-0.05924],[1.75754,-1.73136]],[294.76161,189.09338],[[294.7703,189.14263],[0,0],[0.63891,0.04785]],[[296.40804,189.81566],[-0.42252,-0.45851],[0.13483,0.14631]],[[296.71902,190.29294],[-0.07467,-0.17099],[2.60719,0.39501]],[[304.01653,192.73383],[-2.49525,-1.35462],[0.70944,-0.06949]],[[307.2113,192.19184],[-0.68412,0.37858],[0.49225,-0.27239]],[[308.13686,190.78049],[0.48968,0.27698],[-1.39398,-0.7885]],[[303.53743,189.39145],[1.52787,0.48012],[-5.68655,-1.78695]],[[286.63906,184.88515],[5.52247,2.29348],[-1.88412,-0.78248]],[[281.10497,182.16774],[1.45012,1.39606],[0.23908,0.68529]],[[281.57385,184.28525],[0.02132,-0.72246],[-0.02105,0.71334]],[[281.38917,187.48413],[-1.12374,-0.7872],[0.85566,0.5994]],[[284.79342,188.60224],[-1.33442,-0.19228],[0.17086,-0.16762]],[[285.28351,188.0855],[-0.15337,0.17842],[0,0]],[[288.8164,187.94899],[-1.8347,-1.6982],[0.35845,0.33178]],[[289.52621,188.94528],[-0.12775,-0.32751],[0,0]]],&quot;closed&quot;:true,&quot;fillColor&quot;:[0,0,0,1]}]}" fill="#8f4c00" stroke="none" stroke-width="0.5"/><path d="M287.57074,193.74709c1.45201,0.10055 2.83668,0.17777 3.92638,0.33663c0.05093,-0.04206 0.10069,-0.08775 0.14873,-0.13595c-0.02414,0.0395 -0.04112,0.07869 -0.04904,0.11723c-0.23753,1.15684 0.03773,2.37102 0.18054,3.54332c0.22883,1.87838 0.14048,3.85922 0.00579,5.74669c-0.08263,1.15792 0.04536,2.34013 0.13677,3.49739c0.06162,0.78001 0.14935,1.56156 0.29743,2.32986c0.05139,0.26662 0.50504,0.59028 0.2931,0.76001c-0.2552,0.20437 -0.64977,-0.12052 -0.95789,-0.22986c-0.70303,-0.24948 -5.21155,-1.01236 -5.31827,-2.11077c-0.19693,-2.02704 0.74009,-3.53272 1.11791,-5.43055c0.56073,-2.81658 -0.44758,-5.91475 0.21855,-8.42399z" data-paper-data="{&quot;noHover&quot;:false,&quot;origItem&quot;:[&quot;Path&quot;,{&quot;applyMatrix&quot;:true,&quot;segments&quot;:[[[287.58166,193.79589],[0,0],[-0.66613,2.50924]],[[287.40169,202.16399],[0.56073,-2.81658],[-0.37782,1.89783]],[[286.25843,207.55786],[-0.19693,-2.02704],[0.10672,1.09841]],[[291.53925,209.66422],[-0.70303,-0.24948],[0.30812,0.10934]],[[292.4924,209.89565],[-0.2552,0.20437],[0.21194,-0.16973]],[[292.19928,209.13564],[0.05139,0.26662],[-0.14808,-0.7683]],[[291.89723,206.80784],[0.06162,0.78001],[-0.09141,-1.15726]],[[291.74057,203.32876],[-0.08263,1.15792],[0.13469,-1.88747]],[[291.75294,197.65197],[0.22883,1.87838],[-0.14281,-1.1723]],[[291.58321,194.11312],[-0.23753,1.15684],[0.00792,-0.03854]],[[291.63216,193.99586],[-0.02414,0.0395],[-0.04804,0.0482]],[[291.48406,194.13199],[0.05093,-0.04206],[-1.0897,-0.15886]],[[287.58164,193.79589],[1.45201,0.10055],[0,0]]],&quot;closed&quot;:true,&quot;fillColor&quot;:[0,0,0,1]}]}" fill="#8f4c00" stroke="none" stroke-width="0.5"/></g></g></svg>