<svg version="1.1" xmlns="http://www.w3.org/2000/svg" xmlns:xlink="http://www.w3.org/1999/xlink" width="108.00283" height="67.09061" viewBox="0,0,108.00283,67.09061"><g transform="translate(-209.09729,-145.81727)"><g data-paper-data="{&quot;isPaintingLayer&quot;:true}" fill-rule="nonzero" stroke-linecap="butt" stroke-linejoin="miter" stroke-miterlimit="10" stroke-dasharray="" stroke-dashoffset="0" style="mix-blend-mode: normal"><path d="M211.09729,210.90787v-61.81574h57.80573v61.81574z" fill="#00f6f7" stroke="#000000" stroke-width="4"/><path d="M282.62924,190.33453c0.14963,-0.43702 0.46602,-0.87897 1.05703,-1.26243c2.09722,-1.36076 3.45798,0.73647 3.45798,0.73647c5.06576,8.22466 13.45558,-0.21048 20.77534,1.82646c2.60776,0.72569 4.47353,2.0317 6.3367,3.86166c0.99624,0.97848 2.68124,1.71058 2.81728,3.10033c0.41747,4.26477 -4.19199,6.52347 -6.55814,9.00986c-0.76276,0.80152 -1.19196,1.9751 -2.14962,2.52929c-2.9731,1.72052 -7.22954,1.58786 -10.55393,1.77536c-3.17899,-0.28726 -6.9343,0.38732 -9.96922,-0.76139c-3.2756,-1.23981 -6.47304,-4.4796 -8.66439,-7.11281c-2.49752,-3.0011 -2.40255,-3.41006 -2.27093,-7.65111c0.04723,-1.52163 -0.47753,-3.4299 0.57386,-4.53088c1.59468,-1.66989 3.37674,-1.80308 5.14805,-1.52081zM287.61654,197.30506c-1.05608,0.22752 -2.00832,-0.42995 -2.00832,-0.42995l-1.16601,-0.99973c-0.63498,-0.17828 -1.26778,-0.3645 -1.90493,-0.53485c-0.39954,-0.10682 -0.97584,-0.64103 -1.20475,-0.29659c-0.25308,0.38081 0.5134,0.79267 0.57387,1.24589c0.14064,1.05419 -0.23022,2.15639 0.01801,3.19054c0.44572,1.85691 4.24201,4.67053 5.685,5.79967c2.91562,2.28146 6.82808,1.31795 10.28199,1.63212c2.15839,-0.13253 5.82948,0.18526 7.73841,-0.96101c0.60168,-0.3613 0.73053,-1.20917 1.2039,-1.72732c0.80758,-0.88398 1.72396,-1.66303 2.61948,-2.4578c0.87294,-0.77472 2.84901,-1.05512 2.71239,-2.21424c-0.04572,-0.38789 -0.8142,-0.03812 -1.14603,-0.24414c-1.46536,-0.90983 -2.67562,-2.35252 -4.33384,-2.82726c-4.78157,-1.36897 -9.88865,2.78442 -14.77753,2.18716c-1.7006,-0.20776 -3.09132,-0.6711 -4.29163,-1.36249z" fill="#000000" stroke="none" stroke-width="0.5"/><path d="M291.86289,199.42435c4.88888,0.59726 10.08692,-3.55531 14.86849,-2.18634c1.65821,0.47475 2.87249,1.93219 4.33785,2.84202c0.33182,0.20603 1.10043,-0.14256 1.14615,0.24533c0.13662,1.15912 -1.83936,1.44725 -2.7123,2.22197c-0.89553,0.79477 -1.81427,1.58603 -2.62185,2.47002c-0.47337,0.51815 -0.60621,1.37509 -1.20789,1.73638c-1.90893,1.14626 -5.61401,0.85296 -7.7724,0.98549c-3.45391,-0.31418 -7.42102,0.62183 -10.33664,-1.65963c-1.44299,-1.12914 -5.24394,-3.96917 -5.68966,-5.82608c-0.24823,-1.03415 0.12468,-2.14642 -0.01596,-3.20061c-0.06047,-0.45322 -0.82593,-0.868 -0.57285,-1.24881c0.22891,-0.34445 0.80539,0.1893 1.20493,0.29612c0.63715,0.17036 1.36274,0.39387 1.99772,0.57215l1.16675,0.99783c0,0 0.85878,0.62192 1.91487,0.3944c1.20031,0.6914 2.59221,1.152 4.29281,1.35976z" data-paper-data="{&quot;noHover&quot;:false,&quot;origItem&quot;:[&quot;Path&quot;,{&quot;applyMatrix&quot;:true,&quot;segments&quot;:[[[287.61654,198.08304],[1.20031,0.6914],[-1.05608,0.22752]],[285.60822,197.65309],[[284.44221,196.65336],[0,0],[-0.63498,-0.17828]],[[282.53728,196.11851],[0.63715,0.17036],[-0.39954,-0.10682]],[[281.33252,195.82192],[0.22891,-0.34445],[-0.25308,0.38081]],[[281.90639,197.06781],[-0.06047,-0.45322],[0.14064,1.05419]],[[281.9244,200.25835],[-0.24823,-1.03415],[0.44572,1.85691]],[[287.6094,206.05802],[-1.44299,-1.12914],[2.91562,2.28146]],[[297.89139,207.69014],[-3.45391,-0.31418],[2.15839,-0.13253]],[[305.6298,206.72914],[-1.90893,1.14626],[0.60168,-0.3613]],[[306.83369,205.00182],[-0.47337,0.51815],[0.80758,-0.88398]],[[309.45318,202.54402],[-0.89553,0.79477],[0.87294,-0.77472]],[[312.16557,200.32978],[0.13662,1.15912],[-0.04572,-0.38789]],[[311.01954,200.08564],[0.33182,0.20603],[-1.46536,-0.90983]],[[306.68571,197.25837],[1.65821,0.47475],[-4.78157,-1.36897]],[[291.90818,199.44553],[4.88888,0.59726],[-1.7006,-0.20776]]],&quot;closed&quot;:true}]}" fill="#00f6f7" stroke="none" stroke-width="0.5"/><path d="M306.40857,145.81727c2.5,0 2.5,2.5 2.5,2.5l-0.0342,-0.10806c0.57543,4.01266 -0.77207,9.92466 -3.55793,13.21784c-2.24113,2.64925 -4.43137,3.25816 -7.26185,4.07056c-0.1584,1.25206 -0.34049,3.02895 -0.11612,3.27689c1.69481,1.8729 5.91793,1.83374 8.16525,1.82217l1.04061,-0.48043c0,0 2.37236,-0.78862 3.16097,1.58374c0.78862,2.37236 -1.58374,3.16097 -1.58374,3.16097l-2.61785,0.73571c-4.05079,-0.01741 -9.44042,-0.40072 -12.26122,-3.9546c-1.13809,-1.43386 -1.05251,-3.85474 -0.82781,-5.94396c-1.2179,-0.01131 -3.10634,0.00327 -3.45162,0.19722c-2.26271,1.27104 -2.25736,3.75541 -2.64352,5.96472l-0.37943,0.98903c0,0 -1.12062,2.23478 -3.35539,1.11416c-2.10686,-1.05648 -1.23145,-3.10322 -1.12433,-3.33406c0.69672,-3.88561 1.31205,-6.87158 5.21878,-9.18176c0.82844,-0.48988 2.21369,-0.66364 3.59025,-0.72011c-0.96982,-2.85738 -1.70049,-5.16414 -4.29935,-7.53536l0.44741,0.46539c0,0 -2.45171,-0.48902 -1.96269,-2.94073c0.48902,-2.45171 2.94073,-1.96269 2.94073,-1.96269l1.97184,0.76946c3.76997,3.53328 4.48315,6.88857 6.24297,11.35026c1.83665,-0.47952 4.05977,-1.11448 5.19293,-2.55901c1.75161,-2.23292 3.08814,-6.60421 2.53951,-9.28124l-0.0342,-0.71614c0,0 0,-2.5 2.5,-2.5z" fill="#ff0000" stroke="none" stroke-width="0.5"/></g></g></svg>