<svg version="1.1" xmlns="http://www.w3.org/2000/svg" xmlns:xlink="http://www.w3.org/1999/xlink" width="94.74282" height="109.6061" viewBox="0,0,94.74282,109.6061"><g transform="translate(-200.67094,-121.24577)"><g data-paper-data="{&quot;isPaintingLayer&quot;:true}" fill-rule="nonzero" stroke-linecap="butt" stroke-linejoin="miter" stroke-miterlimit="10" stroke-dasharray="" stroke-dashoffset="0" style="mix-blend-mode: normal"><path d="M217.86619,153.4125c-0.60649,0.6514 -1.23825,1.28969 -1.87922,1.92744c-1.22717,0.6645 -2.64119,1.08532 -3.53038,2.19225c-0.4486,0.55846 -0.85711,1.60797 -1.19327,2.60407c-1.27179,1.41944 -2.43185,2.91147 -3.3418,4.55751c-0.20782,0.37593 -1.46568,2.27861 -1.66008,3.61224c-0.09342,-0.25134 -0.27599,-0.43256 -0.35282,-0.57751c-1.01327,-3.51159 -2.70144,-7.11693 -2.78432,-10.80157c-0.0485,-2.15639 0.74332,-3.87965 1.61019,-5.77437c0.74784,-1.63455 0.58004,-3.4989 1.62553,-4.98972c2.11979,-3.02271 4.61274,-5.61442 7.66716,-7.6472c1.551,-1.22716 3.48447,-1.76817 5.29015,-2.52193c0.74998,-0.31307 1.61732,-0.98195 2.35516,-0.64125c0.43762,0.20208 0.52067,0.96618 0.99549,1.04924c0.72394,0.12664 1.45851,-0.25339 2.15008,-0.50211c3.21083,-1.15474 5.97988,-4.82682 8.77482,-6.79714c3.29634,-2.32379 7.45272,-2.93217 11.16669,-4.33989c8.06041,-1.87896 15.91295,-0.97384 23.99389,0.13392c2.16384,0.29663 4.22204,0.61107 6.28901,1.19155c-1.35105,0.27321 -2.76314,0.72827 -4.06514,1.28723c-3.13272,1.50135 -7.14319,1.52205 -9.99766,3.31345c-1.12667,0.70707 -1.80713,1.84063 -2.91262,2.58037c-2.99785,2.00599 -6.5249,3.59185 -9.15001,6.21159c-1.09686,1.09462 -1.74292,2.5892 -2.83051,3.69303c-0.61207,0.62122 -1.36898,1.10685 -1.92041,1.78248c-0.85889,1.05235 -4.03878,4.59105 -4.15363,6.64371c-0.15127,-0.04777 -0.30622,-0.09556 -0.45709,-0.1443c-0.4337,-0.68568 -0.9608,-1.36576 -1.57882,-2.04723c0,0 -0.85953,-0.93374 -1.78332,-0.09164c-0.34339,0.31303 -0.44073,0.63905 -0.43006,0.923c-3.06007,-0.66803 -6.09528,-0.70341 -8.99193,-0.12542c-0.00436,-0.00865 -0.00874,-0.0174 -0.01308,-0.02606c0,0 -0.46424,-1.1452 -1.58166,-0.58497c-0.64135,0.32154 -0.73092,0.82352 -0.69009,1.19554c-1.96535,0.62666 -3.86129,1.52853 -5.65932,2.68689z" data-paper-data="{&quot;noHover&quot;:false,&quot;origItem&quot;:[&quot;Path&quot;,{&quot;applyMatrix&quot;:true,&quot;segments&quot;:[[[437.56021,306.80549],[0,0],[3.59608,-2.31672]],[[448.87761,301.42805],[-3.93069,1.25332],[-0.08167,-0.74405]],[[450.25602,299.03073],[-1.28269,0.64309],[2.23485,-1.12046]],[[453.61133,300.14512],[0,0],[0.00867,0.01731]],[[453.6374,300.19703],[-0.00871,-0.0173],[5.79329,-1.15598]],[[471.58826,300.40085],[-6.12013,-1.33605],[-0.02133,-0.56791]],[[472.45249,298.55825],[-0.68679,0.62605],[1.84757,-1.68419]],[[475.98425,298.72163],[0,0],[1.23604,1.36293]],[[479.10212,302.8115],[-0.86739,-1.37135],[0.30174,0.09748]],[[480.00851,303.10107],[-0.30255,-0.09554],[0.22969,-4.10532]],[[488.23433,289.93291],[-1.71779,2.10469],[1.10285,-1.35125]],[[492.0804,286.38508],[-1.22414,1.24243],[2.17517,-2.20766]],[[497.75078,279.01672],[-2.19371,2.18923],[5.25022,-5.23948]],[[516.05105,266.5939],[-5.9957,4.01197],[2.21099,-1.47947]],[[522.04121,261.32001],[-2.25334,1.41414],[5.70894,-3.58278]],[[542.04095,254.70001],[-6.26544,3.0027],[2.60401,-1.11791]],[[549.99745,252.22454],[-2.70211,0.54643],[-4.13393,-1.16096]],[[537.42544,249.85095],[4.32768,0.59325],[-16.16188,-2.21552]],[[489.49332,249.62172],[16.12082,-3.75792],[-7.42794,2.81545]],[[467.2166,258.30001],[6.59268,-4.64757],[-5.58988,3.94064]],[[449.71763,271.85706],[6.42166,-2.30949],[-1.38314,0.49743]],[[445.42221,272.85397],[1.44788,0.25328],[-0.94963,-0.16612]],[[443.43022,270.75717],[0.87525,0.40415],[-1.47567,-0.68139]],[[438.72382,272.03267],[1.49995,-0.62614],[-3.61136,1.50752]],[[428.15015,277.05999],[3.102,-2.45431],[-6.10884,4.06555]],[[412.82004,292.32526],[4.23957,-6.04542],[-2.09098,2.98164]],[[409.56787,302.29035],[1.49568,-3.2691],[-1.73375,3.78944]],[[406.34429,313.82485],[-0.097,-4.31277],[0.16575,7.36927]],[[411.9009,335.40224],[-2.02654,-7.02318],[0.15366,0.2899]],[[412.44013,336.66816],[-0.18684,-0.50269],[0.3888,-2.66726]],[[415.75726,329.43891],[-0.41564,0.75187],[1.8199,-3.29209]],[[422.43745,320.31773],[-2.54358,2.83888],[0.67233,-1.99219]],[[424.82139,315.10403],[-0.89721,1.11691],[1.77837,-2.21385]],[[431.88119,310.71727],[-2.45433,1.329],[1.28194,-1.27548]],[[435.63793,306.85788],[-1.21298,1.30279],[0,0]]],&quot;closed&quot;:true}]}" fill="#b1faff" stroke="none" stroke-width="0.5"/><path d="M231.67586,196.61318c0.3886,-1.22288 0.87292,-2.55264 1.71182,-2.99382c2.42136,-1.2734 6.52674,-0.70763 8.99025,0.07584c0.57498,0.18286 1.21221,0.53375 1.70473,0.98305c-0.18062,0.81797 -0.37448,1.6471 -0.59184,2.47071l-0.16681,0.27585c0,0 -0.26319,0.53857 -0.06267,1.05194c-0.07217,0.19428 -0.09916,0.44729 0.03043,0.7087c-2.20557,2.54864 -4.24321,5.23473 -5.95764,8.00994c-0.1938,0.31372 0.01044,-0.75304 -0.1119,-1.10091c-0.29711,-0.8449 -1.22838,-2.53312 -1.85039,-3.15119c-1.58402,-1.57399 -3.40077,-3.10646 -3.4373,-5.59884c0,0 -0.01902,-0.39763 -0.25869,-0.73126z" data-paper-data="{&quot;noHover&quot;:false,&quot;origItem&quot;:[&quot;Path&quot;,{&quot;applyMatrix&quot;:true,&quot;segments&quot;:[[[463.96008,394.73036],[0,0],[0.07307,4.98476]],[[470.80931,405.81109],[-3.16804,-3.14799],[1.24402,1.23614]],[[474.45534,412.08953],[-0.59422,-1.68979],[0.24466,0.69575]],[[474.67592,414.29105],[-0.38761,0.62744],[3.42886,-5.55042]],[[486.48482,398.38676],[-4.41114,5.09728],[-0.25917,-0.52281]],[[486.42675,396.98166],[-0.14435,0.38855],[-0.40104,-1.02674]],[486.558,394.89314],[[486.89287,394.34393],[0,0],[0.43471,-1.64723]],[[488.08978,389.42202],[-0.36124,1.63595],[-0.98506,-0.8986]],[[484.69814,387.47206],[1.14997,0.36572],[-4.92703,-1.56694]],[[466.83261,387.32071],[4.84271,-2.5468],[-1.67781,0.88237]],[[463.43916,393.27487],[0.77719,-2.44577],[0.47933,0.66727]]],&quot;closed&quot;:true}]}" fill="#77bbff" stroke="none" stroke-width="0.5"/><path d="M237.92739,153.47737c0.87295,1.5945 1.37322,3.25713 2.11212,5.17539c1.10461,2.8677 3.29507,5.34502 4.23749,8.22671c1.68261,5.14503 0.79501,11.97252 0.79578,17.35378c0.13906,2.90275 -0.10632,5.68884 -0.59718,8.45706c-3.34052,-2.18164 -9.23401,-2.39739 -12.05557,-0.72155c-0.54978,0.32654 -0.97058,0.78554 -1.30981,1.31756c0.27006,-2.50037 0.65866,-5.00583 1.28363,-7.36117c2.29803,-7.75088 1.27026,-15.89161 -0.85766,-23.50803c-0.56143,-2.00951 -0.52052,-4.17314 -1.24866,-6.16916c-0.48812,-1.33809 -1.32849,-2.6226 -2.14323,-3.9055c2.44505,-0.38108 5.00448,-0.28581 7.61428,0.36302c0.72561,0.25631 1.44268,0.5409 2.1688,0.7719z" data-paper-data="{&quot;noHover&quot;:false,&quot;origItem&quot;:[&quot;Path&quot;,{&quot;applyMatrix&quot;:true,&quot;segments&quot;:[[[471.52195,305.51082],[1.45122,0.51262],[-5.2196,-1.29766]],[[456.3274,304.77706],[4.89011,-0.76216],[1.62947,2.56581]],[[460.61145,312.58905],[-0.97625,-2.67617],[1.45628,3.99204]],[[463.11736,324.92353],[-1.12286,-4.01903],[4.25583,15.23285]],[[464.81876,371.75524],[4.59607,-15.50175],[-1.24993,4.71068]],[[462.24671,386.47615],[0.54012,-5.00074],[0.67846,-1.06405]],[[464.86182,383.83991],[-1.09957,0.65308],[5.6431,-3.35168]],[[488.915,385.28738],[-6.68103,-4.36328],[0.98172,-5.53645]],[[490.08687,368.3855],[0.27813,5.80549],[-0.00154,-10.76253]],[[488.47476,333.81993],[3.36523,10.29006],[-1.88484,-5.76338]],[[480.056,317.40282],[2.20923,5.7354],[-1.47779,-3.83651]],[[475.84849,307.05453],[1.7459,3.189],[-1.45225,-0.462]]],&quot;closed&quot;:true}]}" fill="#007efe" stroke="none" stroke-width="0.5"/><path d="M206.2824,169.48547l-3.83333,-12.83333c0,0 2.58283,-9.75881 4.00115,-11.01954c1.02676,-0.91267 2.97742,-4.38132 5.34802,-5.83247c2.6668,-1.63247 5.79085,-4.21021 7.8494,-4.70672c3.71786,-0.89674 8.30143,-0.94127 8.30143,-0.94127c0,0 -8.27996,4.43193 -8.54748,4.64457c-3.58683,2.85107 -7.95252,8.0221 -7.95252,8.0221c0,0 -3.73048,7.19395 -4.55708,10.82032c-0.89081,3.90809 -0.60958,11.84635 -0.60958,11.84635z" fill="#89f7ff" stroke="none" stroke-width="0"/><path d="M221.375,137.00466c0,0 9.6713,-9.10249 11.52382,-9.51385c1.34109,-0.29779 4.73295,-2.37911 7.51009,-2.4935c3.12413,-0.12869 7.77434,-2.5274 9.81437,-1.95961c1.71413,0.47709 6.97907,0.2065 12.29811,0.85019c6.11391,0.73988 12.24578,2.36651 12.24578,2.36651c0,0 -27.55683,0.01004 -27.89401,0.06566c-4.52083,0.74569 -10.68422,3.63926 -10.68422,3.63926c0,0 -4.85155,2.29539 -6.74591,4.40265c-1.66445,1.85151 -8.06802,2.64269 -8.06802,2.64269z" fill="#89f7ff" stroke="none" stroke-width="0"/><path d="M218.78011,153.40275c1.79804,-1.15836 3.69335,-2.06206 5.6587,-2.68872c-0.04083,-0.37203 0.04786,-0.87712 0.6892,-1.19866c1.11742,-0.56023 1.67766,0.5572 1.67766,0.5572c0.00433,0.00866 0.00868,0.0173 0.01304,0.02595c2.89665,-0.57799 5.91536,-0.56611 8.97543,0.10191c-0.01066,-0.28395 0.08872,-0.60827 0.43212,-0.9213c0.92379,-0.8421 1.76588,0.08169 1.76588,0.08169c0.61802,0.68147 1.12524,1.35926 1.55894,2.04494c0.15087,0.04874 0.30192,0.09701 0.45319,0.14478c0.11485,-2.05266 3.25402,-5.53173 4.11291,-6.58408c0.55142,-0.67562 1.31097,-1.1527 1.92303,-1.77391c1.08758,-1.10383 1.73834,-2.58956 2.83519,-3.68418c2.62511,-2.61974 6.15229,-4.20542 9.15014,-6.21141c1.1055,-0.73973 1.86841,-1.92988 2.99508,-2.63694c2.85447,-1.79139 6.86715,-1.80865 9.99987,-3.31c1.30201,-0.55895 2.6272,-0.96452 3.97825,-1.23774c-2.06696,-0.58048 -4.12216,-0.89017 -6.286,-1.18679c-8.08094,-1.10776 -15.90565,-1.99358 -23.96606,-0.11462c-3.71397,1.40772 -7.84202,2.01536 -11.13836,4.33914c-2.79494,1.97032 -5.53866,5.62378 -8.74949,6.77853c-0.69157,0.24872 -1.42377,0.6251 -2.14771,0.49846c-0.47482,-0.08306 -0.55837,-0.84633 -0.99599,-1.0484c-0.73783,-0.3407 -1.60323,0.32468 -2.3532,0.63775c-1.80568,0.75376 -3.73584,1.28651 -5.28683,2.51366c-3.05442,2.03277 -5.54527,4.60993 -7.66505,7.63263c-1.04549,1.49082 -0.87824,3.34799 -1.62608,4.98254c-0.86687,1.89472 -1.66029,3.61087 -1.61179,5.76725c0.08288,3.68463 1.76503,7.2771 2.7783,10.78869c0.07683,0.14495 0.1762,0.38162 0.26962,0.63296c0.1944,-1.33363 1.45074,-3.23869 1.65856,-3.61462c0.90995,-1.64604 2.06831,-3.14115 3.3401,-4.56059c0.33616,-0.99609 0.74337,-2.04839 1.19197,-2.60685c0.88918,-1.10692 2.30273,-1.52888 3.5299,-2.19338c0.64097,-0.63774 1.27188,-1.2783 1.87837,-1.92969zM211.62451,163.54144c-0.57673,0.76165 -1.10216,1.55227 -1.5549,2.38201c-0.5847,1.07157 -1.86576,5.46602 -3.13197,5.84119c-1.72674,0.51161 -2.80833,-2.23072 -3.29599,-3.10464c-1.13483,-3.78597 -2.90319,-7.72062 -2.96921,-11.70894c-0.04178,-2.52347 0.7946,-4.61912 1.83671,-6.84288c0.83891,-1.79014 0.67659,-3.62495 1.82244,-5.33483c2.18742,-3.26417 5.03206,-6.11332 8.28432,-8.27333c2.01672,-1.53852 7.41598,-4.22943 10.0336,-3.44024c0.38399,0.11577 0.37115,0.77522 0.72827,0.95774c0.50507,0.25814 0.9183,-0.67004 1.41075,-0.95151c1.64769,-0.94179 2.84337,-2.55849 4.40636,-3.71841c4.7474,-3.52312 9.36559,-4.86776 14.82269,-6.92807c8.89929,-2.09512 17.43718,-0.9769 26.35575,0.20309c3.50038,0.46313 7.07197,1.0746 9.8435,3.04606l0.19599,-0.34938l1.12794,0.63273c0.39285,0.21071 0.66001,0.6253 0.66001,1.10229c0,0.69035 -0.55964,1.25 -1.25,1.25c-0.05001,0 -0.09935,-0.00294 -0.14783,-0.00865l-1.29922,-0.13638c-2.56356,-0.00367 -5.09163,0.43243 -7.44583,1.4653c-1.30118,0.62289 -2.74948,1.35952 -4.1136,1.78034c-1.79035,0.55231 -3.95477,0.29906 -5.57181,1.35802c-1.12732,0.73826 -1.92134,1.91345 -3.03982,2.66503c-7.00676,4.70831 -13.7177,9.71114 -16.98411,17.54867l0.04873,1.02039c0.00124,0.02276 0.00186,0.0457 0.00186,0.06877c0,0.60097 -0.42411,1.10289 -0.98936,1.22278c0.31589,0.82059 0.62486,1.67549 0.9753,2.57969c1.12767,2.90962 3.27034,5.35884 4.2395,8.29926c1.77407,5.38251 0.91902,12.33788 0.91819,17.96827c0.1615,3.71678 -0.23203,7.25613 -0.99237,10.80991c0.22031,0.48779 0.35075,1.01918 0.37319,1.59444c-0.05779,0.59038 -0.31896,1.19663 -0.70883,1.67819c0.75764,0.89708 -0.12391,1.70862 -0.12391,1.70862l-0.88414,0.81127c-1.07504,1.24059 -2.4252,2.4794 -3.36131,3.81082c-1.09842,1.56227 -0.88339,2.53617 -2.59076,3.91409c-0.55066,0.4444 -1.05862,1.19083 -1.76612,1.17783c-2.55597,-0.04694 -2.3285,-2.39555 -3.17395,-3.92642c-0.42165,-0.76348 -1.30093,-1.16331 -1.91879,-1.77889c-1.17302,-1.16868 -2.11565,-2.95347 -2.59271,-4.67938c-0.29882,0.14706 -0.70666,0.19781 -1.18859,-0.12436c-0.95275,-0.6369 -0.44809,-1.56338 -0.35754,-1.7131c0.27846,-4.04379 0.72021,-8.31233 1.74537,-12.21658c2.19476,-7.35484 1.11384,-14.93166 -0.87355,-22.15261c-0.52594,-1.91096 -0.49908,-3.97046 -1.16101,-5.86969c-0.49458,-1.41905 -1.47723,-2.8194 -2.36197,-4.20951c-2.56004,0.76861 -4.99434,2.06777 -7.26524,3.81019c-0.1772,0.13596 -0.43172,0.27731 -0.72821,0.4244c-1.40274,1.37627 -2.85759,2.74653 -4.18681,4.19528c-0.15162,0.4848 -0.28568,0.9462 -0.40324,1.30132c0,0 -0.35489,1.06177 -1.39779,0.8398zM235.76098,152.75541c-2.6098,-0.64883 -5.15222,-0.74796 -7.59727,-0.36688c0.81474,1.2829 1.6539,2.56791 2.14202,3.90599c0.72814,1.99602 0.69153,4.15773 1.25296,6.16724c2.12792,7.61642 3.14873,15.66498 0.8507,23.41585c-0.62497,2.35534 -1.01596,4.86008 -1.28602,7.36046c0.33923,-0.53203 0.75777,-0.99158 1.30756,-1.31812c2.82155,-1.67584 8.68607,-1.4579 12.02659,0.72374c0.49086,-2.76823 0.725,-5.54819 0.58593,-8.45094c-0.00077,-5.38127 0.87656,-12.13775 -0.80605,-17.28278c-0.94242,-2.88169 -3.10477,-5.34085 -4.20938,-8.20855c-0.7389,-1.91825 -1.2308,-3.57964 -2.10375,-5.17415c-0.72612,-0.231 -1.43766,-0.51554 -2.16327,-0.77185zM231.98004,197.36518c0.03653,2.49238 1.84059,3.96637 3.42461,5.54036c0.62201,0.61807 1.5259,2.29433 1.82301,3.13922c0.12233,0.34787 -0.08351,1.41448 0.11029,1.10076c1.71443,-2.77521 3.69888,-5.4035 5.90445,-7.95215c-0.12958,-0.2614 -0.10121,-0.50827 -0.02903,-0.70255c-0.20052,-0.51337 0.06562,-1.04426 0.06562,-1.04426l0.16744,-0.27461c0.21735,-0.82361 0.41783,-1.64298 0.59846,-2.46096c-0.49253,-0.4493 -1.12083,-0.79212 -1.69582,-0.97498c-2.46352,-0.78347 -6.51141,-1.34907 -8.93277,-0.07567c-0.83891,0.44118 -1.30813,1.7542 -1.69672,2.97708c0.23967,0.33363 0.26046,0.72774 0.26046,0.72774z" fill="#000000" stroke="none" stroke-width="0.5"/><path d="M294.16376,185.29303c0,10.76314 -8.62041,19.48839 -19.25422,19.48839c-10.63381,0 -19.25422,-8.72525 -19.25422,-19.48839c0,-10.76314 8.62041,-19.48839 19.25422,-19.48839c10.63381,0 19.25422,8.72525 19.25422,19.48839z" fill="#ffca00" stroke="#ff7500" stroke-width="2.5"/><text transform="translate(269.29116,190.79918) scale(0.5,0.5)" font-size="40" xml:space="preserve" fill="#fff100" fill-rule="nonzero" stroke="none" stroke-width="1" stroke-linecap="butt" stroke-linejoin="miter" stroke-miterlimit="10" stroke-dasharray="" stroke-dashoffset="0" font-family="Pixel" font-weight="normal" text-anchor="start" style="mix-blend-mode: normal"><tspan x="0" dy="0">L</tspan></text><text transform="translate(269.60217,225.60187) scale(0.5,0.5)" font-size="40" xml:space="preserve" fill="#fff100" fill-rule="nonzero" stroke="none" stroke-width="1" stroke-linecap="butt" stroke-linejoin="miter" stroke-miterlimit="10" stroke-dasharray="" stroke-dashoffset="0" font-family="Pixel" font-weight="normal" text-anchor="start" style="mix-blend-mode: normal"><tspan x="0" dy="0">1</tspan></text></g></g></svg>