<svg version="1.1" xmlns="http://www.w3.org/2000/svg" xmlns:xlink="http://www.w3.org/1999/xlink" width="178.49359" height="131.34603" viewBox="0,0,178.49359,131.34603"><g transform="translate(-144.95411,-98.75328)"><g data-paper-data="{&quot;isPaintingLayer&quot;:true}" fill-rule="nonzero" stroke="none" stroke-width="0.5" stroke-linecap="butt" stroke-linejoin="miter" stroke-miterlimit="10" stroke-dasharray="" stroke-dashoffset="0" style="mix-blend-mode: normal"><path d="M195.59323,162.37973c-0.81915,0.37484 -1.63232,0.75948 -2.32793,1.3152c-0.87077,0.69565 -1.33165,1.82226 -2.20813,2.5107c-2.8731,2.2567 -6.47185,3.86064 -9.39179,6.1154c-0.84749,0.65442 -1.38096,1.72029 -2.33548,2.20546c-5.63176,2.86259 -15.0463,1.16108 -17.62988,-5.05017c-0.7596,-1.82618 -0.41087,-3.94307 -0.83993,-5.87384c-3.64984,-1.85061 -7.56991,-2.82018 -11.12289,-4.81484c-1.21203,-0.68044 -2.74935,-1.14886 -3.44193,-2.354c-1.01401,-1.76444 -1.26159,-3.92377 -1.33463,-5.95752c-0.14013,-3.90238 1.9814,-5.88029 5.94323,-6.62499c1.99734,-0.37544 4.19814,3.32688 5.75317,2.01837c0.71906,-0.60507 -0.10928,-1.87905 -0.25073,-2.80811c-0.18814,-1.23571 -0.47721,-2.45406 -0.73661,-3.6768c-1.0252,-4.83266 -4.44443,-9.5287 -4.19646,-14.61996c0.26654,-5.47258 0.00707,-8.5709 6.505,-8.10948c1.15777,0.08221 1.8253,1.46036 2.8601,1.98607c1.40637,0.71449 3.02512,0.90315 4.50471,1.45009c3.34671,0.25107 7.09659,0.68712 9.87169,-1.79584c2.70006,-2.41582 3.97621,-6.98192 7.59937,-8.45542c4.24222,-1.72527 10.50159,-0.69763 14.80222,0.43735c1.14251,0.30152 2.11568,1.21182 3.29303,1.31227c4.13027,0.3524 9.96769,-2.13075 13.92102,-3.42294c1.46765,-0.47972 2.83531,-1.46685 4.37873,-1.51124c1.27983,-0.03681 2.43632,0.79579 3.62113,1.28114c7.51908,3.0801 8.32859,11.71808 11.56078,18.30755c1.44381,5.34915 2.50234,9.91122 2.78504,15.44957c0.16518,3.23601 -0.28957,8.12711 0.69977,11.26123c0.2946,0.93325 1.17254,1.61476 1.44867,2.55365c0.15925,0.54147 0.84817,6.55163 0.99128,7.6388c1.61707,12.28437 4.68466,30.32189 -9.33739,36.51225c-1.74918,0.03814 -3.52089,0.39686 -5.24753,0.11442c-2.7349,-0.44737 -4.74978,-2.85849 -7.07353,-4.36847c-0.98135,-0.63768 -2.31814,-0.64975 -3.22361,-1.39124c-3.94438,-3.23008 -6.36099,-7.08438 -7.99172,-11.73446c-0.5473,-1.56064 -2.49765,-3.27411 -1.63416,-4.68461c0.94442,-1.54269 3.52159,-0.82848 5.2768,-1.26556c0.12985,-0.03234 0.46289,-0.04065 0.3755,-0.14198c-0.9839,-1.14091 -2.52268,-1.65601 -3.69805,-2.59848c-3.64166,-2.92007 -6.89467,-6.16239 -10.24017,-9.40431c-0.41396,-0.40114 -1.14588,-1.04079 -1.92867,-1.80527z" fill="#a6b5ff"/><path d="M246.15146,152.75147c-1.09403,-0.98317 -1.70137,-2.40122 -2.49453,-3.63995c-4.41028,-6.8879 -5.09362,-13.58612 -0.46499,-20.7364c1.29971,-2.00779 3.70197,-3.03225 5.62215,-4.45822c0.90366,-0.67109 1.42432,-1.84617 2.43709,-2.33735c1.56381,-0.75843 3.32634,-1.07819 5.05088,-1.29421c1.50322,-0.18829 6.54054,0.50711 7.7342,1.13273c1.48318,0.77737 2.42378,2.34266 3.83265,3.24778c0.93426,0.60021 2.18734,0.58248 3.10429,1.20882c1.41946,0.96961 2.51503,2.3442 3.78815,3.49926c1.00977,0.91612 2.3445,1.55348 3.06019,2.71397c1.02023,1.65429 1.32862,3.65308 1.99293,5.47961c0.8035,4.04471 0.98059,7.51942 0.29161,11.65412c-0.0793,0.4759 -0.12826,0.97057 -0.19065,1.46202c0.50034,0.26231 0.97308,0.56528 1.39565,0.94206c1.51305,1.34911 2.28339,3.35019 3.42507,5.02528c0.93405,3.59577 1.72582,5.39713 1.71197,8.8873c-0.02328,5.8647 -3.24094,10.73014 -7.32388,14.68697c0.46554,0.23728 0.95962,0.48944 1.49081,0.75772c1.43352,0.72402 3.11395,1.05445 4.34042,2.09124c1.29967,1.09866 2.04145,2.72442 3.01094,4.1231c5.00253,7.21707 6.65259,18.61805 2.67548,26.92298c-1.77917,3.71523 -5.77394,7.89704 -9.02655,10.35273c-9.43009,7.11963 -20.1263,6.28236 -31.12942,3.98305c-2.63102,-1.5446 -5.16483,-3.25234 -7.81082,-4.77114c-1.51001,-0.86675 -3.32065,-1.27021 -4.62993,-2.41789c-0.80259,-0.70353 -0.82971,-1.97872 -1.40863,-2.87536c-1.88252,-2.91573 -4.18154,-5.56401 -4.51305,-9.29731c-0.41126,-4.63158 2.17813,-9.27014 3.9454,-13.27866c1.96161,-4.44931 5.35269,-9.6063 9.50256,-12.84612c-3.3813,-2.18363 -6.0101,-5.42716 -6.43904,-9.74454c-0.43591,-4.38758 2.72118,-11.38826 5.01228,-14.94976c1.1717,-1.82139 2.43113,-3.16151 3.83418,-4.24404c-0.64934,-0.37239 -1.27204,-0.7807 -1.82743,-1.2798z" fill="#ffffff"/><path d="M238.19436,132.60834c-2.37776,-0.79047 -4.74732,-1.97341 -5.93419,-3.85317c-0.94089,-1.49016 -0.8519,-3.42018 -1.27785,-5.13027c1.73695,-1.97594 3.90051,-3.8867 6.44482,-4.55589c0.90242,-0.23735 4.91799,-0.47795 5.86939,-1.50658c0.4445,-0.48058 0.07679,-1.31363 0.22758,-1.95065c0.24826,-1.04878 0.5787,-2.07974 0.96467,-3.08601c1.39593,-3.63925 3.75357,-9.13846 7.14756,-11.27176c6.1666,-3.87602 16.28937,-3.5246 20.78759,3.02444c2.04962,2.98407 3.83682,9.21499 3.93167,12.90142c0.03839,1.49232 -0.49497,2.95754 -0.50095,4.45034c2.08898,-0.33141 7.28737,0.30659 8.7732,1.4807c4.5288,3.57868 1.41016,11.92713 -2.93962,13.79031c-2.91324,1.24785 -7.1716,0.71408 -10.22207,0.56856c-10.5215,-0.50191 -20.68238,-2.57986 -31.16592,-3.44953c0,0 -1.55494,-0.12923 -2.10589,-1.41192z" fill="#000000"/><path d="M323.44592,120.72421c-0.07788,2.49878 -2.57666,2.42091 -2.57666,2.42091l-3.11831,-0.09749c-4.2274,-0.04145 -6.33763,0.92876 -9.25981,3.92939c-1.40396,0.50611 -2.90943,0.78973 -4.21188,1.51835c-3.75173,2.09882 -5.65002,6.02854 -10.107,7.42484c-5.76878,1.80725 -11.94171,1.44137 -17.81736,2.62423c-2.40738,0.48465 -4.60915,1.70351 -6.95636,2.42529c-1.65251,0.50815 -3.44468,0.48195 -5.08168,1.03807c-2.32308,0.7892 -5.09946,2.00994 -7.6427,2.09606c-4.00131,0.13549 -8.27837,-2.12356 -12.02666,-3.25492c0,0 -2.39311,-0.72321 -1.6699,-3.11632c0.72321,-2.39311 3.11632,-1.6699 3.11632,-1.6699c3.10529,0.93955 7.14086,3.16995 10.46866,3.04237c1.65066,-0.06328 4.99162,-1.44438 6.17021,-1.83974c1.73608,-0.58238 3.62798,-0.5834 5.37671,-1.12662c2.44103,-0.75827 4.74599,-1.98695 7.25119,-2.49447c5.7366,-1.16215 11.65845,-0.86993 17.30693,-2.49232c3.93344,-1.12978 5.69779,-5.01514 9.03379,-6.94084c1.2473,-0.72001 2.71724,-0.95566 4.07585,-1.4335c3.4678,-3.66049 7.05408,-4.69174 12.05156,-4.72938l3.19618,0.0993c0,0 2.49878,0.07788 2.42091,2.57666z" fill="#acfffc"/><path d="M269.37309,147.03537c0.17764,2.49368 -2.31605,2.67132 -2.31605,2.67132l-1.06993,0.05642c-5.08184,0.98523 -9.67507,0.98287 -14.66714,-0.33592c0,0 -2.41098,-0.66121 -1.74976,-3.07219c0.66121,-2.41098 3.07219,-1.74976 3.07219,-1.74976c4.11678,1.18133 8.15032,1.12376 12.3667,0.25446l1.69268,-0.14037c0,0 2.49368,-0.17764 2.67131,2.31604z" fill="#acfffc"/><path d="M220.5786,176.90672c1.75333,0.16113 2.09373,2.06219 2.09373,2.06219c0.528,2.95006 0.80195,5.96615 1.37144,8.90211c0.06981,0.35989 0.18142,0.71038 0.29331,1.06068c0.31975,-3.1887 1.74722,-6.49283 2.65945,-9.36784c0.19113,-0.60237 0.86061,-1.04871 0.8778,-1.68044c0.04414,-1.62183 -1.67114,-2.83025 -2.0807,-4.40013c-1.5828,-6.06709 -1.1772,-12.61796 -2.92618,-18.68171c-2.66167,-7.23259 -3.91172,-14.04479 -4.51231,-21.7025c-0.16971,-2.16385 -0.59681,-4.30051 -0.82685,-6.45879c-0.09154,-0.85886 -0.13533,-1.72843 -0.07544,-2.59008c0.01972,-0.2837 0.59498,-0.78776 0.31068,-0.79458c-2.07295,-0.04971 -3.93481,1.32726 -5.95094,1.81182c-2.15165,0.51713 -4.58442,0.23904 -6.50104,1.3452c-1.09117,0.62975 -1.64681,1.94093 -2.67223,2.67287c-1.32125,0.94309 -2.93323,1.41249 -4.29315,2.29892c-3.35501,2.1869 -6.19914,5.50214 -8.95024,8.34583c-0.95204,0.98408 -2.17589,1.73979 -2.91972,2.88937c-0.90426,1.39752 -1.03346,3.20313 -1.92993,4.60565c-0.77125,1.20663 -1.99159,2.05833 -2.98738,3.0875c-1.63022,2.89645 -2.47733,6.72571 -4.20158,9.81122c0.709,-0.42459 1.41734,-0.85025 2.06375,-1.36114c1.24975,-0.98772 2.19996,-2.32348 3.46692,-3.28903c1.63644,-1.24713 5.94597,-3.37827 7.76126,-4.40495c2.019,-1.14188 3.61401,-2.9661 5.68118,-4.01828c3.04669,-1.55076 7.09095,-1.7687 10.38474,-1.62468c1.84599,0.08072 6.5607,-0.02356 7.75383,1.31274c1.08853,1.21913 0.35343,3.25573 0.70055,4.85282c0.40848,1.87942 1.0134,3.72767 1.2163,5.64023c0.36232,4.06464 0.4198,8.46242 1.24958,12.46456c0.51857,2.50111 1.83883,4.83124 2.94317,7.21042zM220.88382,194.50408c-2.48171,-0.01217 -2.48171,-2.49996 -2.48171,-2.49996l0.00973,-1.94436c-0.24461,-2.82579 -0.60554,-5.85121 -1.39498,-8.59112c-1.04379,-3.62264 -3.44329,-6.87691 -4.23334,-10.56449c-0.90836,-4.23979 -0.99075,-8.88517 -1.37539,-13.20103c-0.16399,-1.76226 -1.00869,-3.41914 -1.15163,-5.18324c-0.06676,-0.82397 0.84216,-1.67443 0.50321,-2.42842c-0.20052,-0.44606 -0.91759,0.38448 -1.40522,0.42191c-0.95699,0.07346 -1.91949,-0.0418 -2.87792,-0.09313c-2.44164,-0.13075 -5.70548,-0.05334 -7.96671,1.13039c-1.95168,1.02169 -3.45503,2.76292 -5.36916,3.85333c-1.09464,0.62357 -6.09649,3.17913 -7.23564,4.05704c-2.51468,1.93797 -4.96399,3.95968 -7.47447,5.90308c-0.84542,0.65445 -1.22648,2.08137 -2.28153,2.25431c-11.74561,1.92531 -4.65938,-7.04838 -2.2145,-11.88087c1.40985,-2.78668 2.02256,-5.62254 3.63057,-8.433c0.93821,-0.94776 2.09816,-1.7185 2.81464,-2.84329c0.89655,-1.40749 1.0176,-3.22378 1.93708,-4.6164c0.91609,-1.38749 2.327,-2.37553 3.47403,-3.57915c2.96009,-3.10615 6.09316,-6.61345 9.71662,-8.99728c1.32188,-0.86965 2.90006,-1.31362 4.19193,-2.22725c1.20954,-0.8554 1.94707,-2.32458 3.24759,-3.03405c0.4333,-0.23638 6.89398,-1.60894 7.70653,-1.80345c2.18113,-0.52211 7.65734,-2.35425 9.83526,-1.14003c2.31699,1.29176 2.20383,7.43543 2.49641,9.73319c0.54158,4.25335 0.11582,8.85216 1.03773,13.02943c0.82769,3.75035 2.24728,7.78246 3.59626,11.41937c1.75514,6.16076 1.41216,12.76053 2.99364,18.90524c0.51974,2.01941 2.23259,3.74793 2.2605,5.83297c0.01443,1.07782 -0.80312,2.00502 -1.09547,3.04253c-0.89755,3.18523 -1.62357,6.26709 -2.51433,9.4487c-0.45291,1.6177 -0.35581,3.77074 -1.73332,4.73227c-1.53362,1.0705 -3.89868,1.16691 -5.59762,0.38489c-0.47954,-0.22073 -0.80383,-0.61316 -1.04877,-1.08813z" fill="#000000"/><path d="M217.59837,169.66273c-0.82978,-4.00214 -0.90003,-8.37047 -1.26235,-12.43511c-0.2029,-1.91256 -0.80506,-3.73981 -1.21354,-5.61923c-0.34711,-1.59709 0.3958,-3.61959 -0.69273,-4.83872c-1.19314,-1.33629 -5.88653,-1.21633 -7.73252,-1.29704c-3.29379,-0.14402 -7.29157,0.06829 -10.33826,1.61906c-2.06716,1.05219 -3.64461,2.8547 -5.66361,3.99658c-1.8153,1.02667 -6.12094,3.14003 -7.75739,4.38716c-1.26696,0.96555 -2.21747,2.29402 -3.46723,3.28174c-0.64642,0.51088 -1.4538,0.95014 -2.1628,1.37473c1.72424,-3.08551 2.57252,-6.93589 4.20273,-9.83234c0.99579,-1.02917 2.21946,-1.88966 2.99071,-3.09629c0.89647,-1.40253 1.03217,-3.21815 1.93644,-4.61567c0.74383,-1.14957 1.97464,-1.91213 2.92668,-2.89622c2.75109,-2.84369 5.61814,-6.1693 8.97314,-8.35621c1.35991,-0.88644 2.98045,-1.35656 4.3017,-2.29966c1.02543,-0.73194 1.58555,-2.04291 2.67671,-2.67267c1.91662,-1.10615 4.35908,-0.82621 6.51073,-1.34334c2.01614,-0.48456 3.88472,-1.859 5.95767,-1.80929c0.2843,0.00682 -0.2909,0.51091 -0.31061,0.79461c-0.05989,0.86165 -0.01452,1.73198 0.07702,2.59084c0.23003,2.15828 0.66279,4.29828 0.8325,6.46214c0.60059,7.65771 1.87229,14.508 4.53397,21.74058c1.74898,6.06374 1.33347,12.64781 2.91628,18.7149c0.40956,1.56988 2.12271,2.78096 2.07857,4.40278c-0.01719,0.63173 -0.68851,1.08008 -0.87964,1.68245c-0.91223,2.87501 -2.34813,6.18616 -2.66788,9.37487c-0.11189,-0.3503 -0.27904,-0.78394 -0.34885,-1.14384c-0.56949,-2.93595 -0.84845,-5.94818 -1.37645,-8.89825c0,0 -0.34011,-1.90132 -2.09344,-2.06245c-1.10434,-2.37918 -2.42899,-4.70502 -2.94756,-7.20613z" data-paper-data="{&quot;noHover&quot;:false,&quot;origItem&quot;:[&quot;Path&quot;,{&quot;applyMatrix&quot;:true,&quot;segments&quot;:[[[220.5786,176.90672],[-1.10434,-2.37918],[1.75333,0.16113]],[[222.67233,178.96891],[0,0],[0.528,2.95006]],[[224.04377,187.87102],[-0.56949,-2.93595],[0.06981,0.35989]],[[224.33708,188.9317],[-0.11189,-0.3503],[0.31975,-3.1887]],[[226.99653,179.56386],[-0.91223,2.87501],[0.19113,-0.60237]],[[227.87433,177.88342],[-0.01719,0.63173],[0.04414,-1.62183]],[[225.79363,173.48329],[0.40956,1.56988],[-1.5828,-6.06709]],[[222.86745,154.80158],[1.74898,6.06374],[-2.66167,-7.23259]],[[218.35514,133.09908],[0.60059,7.65771],[-0.16971,-2.16385]],[[217.52829,126.64029],[0.23003,2.15828],[-0.09154,-0.85886]],[[217.45286,124.05021],[-0.05989,0.86165],[0.01972,-0.2837]],[[217.76353,123.25564],[0.2843,0.00682],[-2.07295,-0.04971]],[[211.81259,125.06746],[2.01614,-0.48456],[-2.15165,0.51713]],[[205.31155,126.41266],[1.91662,-1.10615],[-1.09117,0.62975]],[[202.63932,129.08553],[1.02543,-0.73194],[-1.32125,0.94309]],[[198.34617,131.38445],[1.35991,-0.88644],[-3.35501,2.1869]],[[189.39594,139.73028],[2.75109,-2.84369],[-0.95204,0.98408]],[[186.47621,142.61965],[0.74383,-1.14957],[-0.90426,1.39752]],[[184.54628,147.2253],[0.89647,-1.40253],[-0.77125,1.20663]],[[181.5589,150.3128],[0.99579,-1.02917],[-1.63022,2.89645]],[[177.35732,160.12402],[1.72424,-3.08551],[0.709,-0.42459]],[[179.42108,158.76289],[-0.64642,0.51088],[1.24975,-0.98772]],[[182.888,155.47386],[-1.26696,0.96555],[1.63644,-1.24713]],[[190.64926,151.06891],[-1.8153,1.02667],[2.019,-1.14188]],[[196.33044,147.05063],[-2.06716,1.05219],[3.04669,-1.55076]],[[206.71517,145.42595],[-3.29379,-0.14402],[1.84599,0.08072]],[[214.46901,146.73869],[-1.19314,-1.33629],[1.08853,1.21913]],[[215.16955,151.59151],[-0.34711,-1.59709],[0.40848,1.87942]],[[216.38585,157.23174],[-0.2029,-1.91256],[0.36232,4.06464]],[[217.63543,169.6963],[-0.82978,-4.00214],[0.51857,2.50111]]],&quot;closed&quot;:true}]}" fill="#a6f8ff"/></g></g></svg>