<svg version="1.1" xmlns="http://www.w3.org/2000/svg" xmlns:xlink="http://www.w3.org/1999/xlink" width="430.23248" height="548.95487" viewBox="0,0,430.23248,548.95487"><g transform="translate(2.5359,52.3711)"><g data-paper-data="{&quot;isPaintingLayer&quot;:true}" fill="#4cbd63" fill-rule="nonzero" stroke="none" stroke-width="0.5" stroke-linecap="butt" stroke-linejoin="miter" stroke-miterlimit="10" stroke-dasharray="" stroke-dashoffset="0" style="mix-blend-mode: normal"><path d="M290.90654,330.22333l-0.2382,-1.28674c-0.67992,-2.38495 -1.35985,-4.76989 -2.03977,-7.15484c-0.91389,-3.2056 -2.38204,-6.30294 -2.74166,-9.61682l-1.35501,-4.7529c-0.07255,-0.23412 -0.11162,-0.48296 -0.11162,-0.74093c0,-1.38071 1.11929,-2.5 2.5,-2.5c0.89896,0 1.6871,0.47448 2.12765,1.18666l2.01847,3.15132c0.15679,-0.33183 0.38445,-0.62362 0.66346,-0.85582l2.40541,-2.02891l0.1023,0.12128l0.18382,-0.32982c0.13164,-0.05883 0.26346,-0.11719 0.39545,-0.17508c-0.65037,-0.4514 -1.07622,-1.20359 -1.07622,-2.05523c0,-0.93651 0.51495,-1.75274 1.27713,-2.18101l2.33624,-1.3685l0.02484,0.04241l0.09033,-0.10586c4.03179,-1.82612 9.6224,-3.56491 13.15264,-6.2617c3.48147,-2.65954 6.73021,-7.21348 9.84071,-10.36219c3.32598,-3.66691 6.57594,-8.12245 10.33017,-11.34094c2.16451,-1.85563 4.93865,-2.85025 7.41571,-4.26186c5.54794,-3.16162 11.96758,-5.93137 17.09933,-9.71901c3.33573,-2.46203 6.00872,-5.62956 8.48609,-9.00846c1.15549,-2.34995 2.45331,-4.71142 3.92683,-6.92826v-0.31193c0.00461,-4.89712 0.16605,-10.01656 1.2229,-14.82996c2.67151,-12.16729 8.91054,-23.59311 10.95114,-35.90302c0.58678,-3.49185 1.21831,-6.96963 1.88434,-10.4378c0.68213,-7.66994 1.39114,-15.39023 2.89451,-22.79878c0.73208,-3.60766 1.85347,-7.15022 3.05284,-10.68436c-0.11816,-4.75136 -0.27477,-9.50808 -0.69077,-14.22109c-0.15527,-1.75912 -0.71136,-3.49254 -0.65268,-5.25753c0.03364,-1.01183 0.42908,-3.36872 1.16577,-5.63738c-0.96162,-4.26151 -2.52576,-8.22639 -3.46172,-12.51017c-1.03929,-4.75669 -1.12872,-9.88535 -1.78055,-14.71154c-1.07585,-7.96565 -2.60352,-15.84736 -3.32958,-23.85606c-0.59502,-2.57457 -1.08523,-5.13453 -1.33564,-7.55422c-0.15238,-1.47247 0.32594,-2.98969 0.03357,-4.44086c-0.2914,-1.44632 -1.16505,-2.71103 -1.74757,-4.06654l0.15638,-0.50388h-0.20769v-3.4856c0,-0.85185 0.42605,-1.60418 1.07668,-2.05555c-0.013,-0.03216 -0.02602,-0.06432 -0.03904,-0.09648c-1.72234,-1.1034 -3.29238,-2.3636 -4.53579,-3.79962c-0.26482,-0.30584 -4.12614,-8.62383 -4.26076,-8.91151c-0.17737,-0.37905 -4.25081,-9.07292 -4.34062,-9.31141c-1.15113,-3.05681 -1.72447,-6.37013 -2.28639,-9.67963c-1.58146,-0.87084 -3.21994,-1.60777 -4.93654,-2.137c-7.99955,-2.46626 -16.38408,-2.84156 -24.09504,-6.4782c-7.46504,-3.52067 -14.64217,-7.73953 -22.3401,-10.86651c-1.29606,-0.52647 -8.26008,-2.85154 -9.45517,-3.35545c-5.37847,-2.26784 -10.58297,-5.18767 -15.81217,-7.78524c-12.24106,-3.5343 -24.51008,-6.33541 -37.21642,-7.71503c-10.16509,-1.1037 -20.40351,-1.4347 -30.65116,-1.57968c-4.03769,0.73377 -8.07458,1.58634 -12.17842,2.23804c-5.52068,0.8767 -12.43331,0.96261 -17.65587,2.94871c-2.41712,0.91922 -4.38052,2.76575 -6.69363,3.92201c-9.4583,4.72793 -19.7663,9.4913 -28.41014,15.58782c-1.40049,0.98777 -2.46013,2.42888 -3.9196,3.32723c-1.52758,0.94027 -3.29519,1.41855 -4.94278,2.12783c-0.07142,0.03029 -9.22446,3.91203 -9.26079,3.92644c-2.98352,1.18324 -6.26998,1.68985 -9.04419,3.30392c-2.75727,1.60422 -4.85631,4.13776 -7.2965,6.1924c-2.49104,2.09746 -5.19301,3.96597 -7.47999,6.28424c-1.13034,1.14579 -5.43616,6.96299 -6.47549,7.86693c-0.20855,0.18138 -8.43564,5.18028 -8.88022,5.45111c-5.68577,3.4636 -11.04068,7.06505 -16.39268,11.02493c-1.74981,1.29466 -3.81934,2.24072 -5.34557,3.7751c3.18566,6.51458 3.08657,14.94133 0.0777,21.22025c-0.59549,1.24267 -0.69018,2.88063 -1.77103,3.73538c-2.57104,2.03321 -4.91254,1.76874 -7.61855,1.64775c0.00912,0.00685 0.01732,0.01417 0.02448,0.02198c1.04654,1.14162 1.78778,2.52948 2.67017,3.80225c3.14905,4.5422 4.12058,8.66291 5.25677,14.03445c1.01764,4.88408 1.15293,9.09626 1.0761,14.07337c-0.01903,1.23286 0.31332,2.54577 -0.12881,3.69679c-1.43143,3.72655 -3.47408,4.15318 -6.97384,5.11016c-5.12017,1.40007 -9.05483,1.67381 -14.25503,1.23575c-4.11856,-0.34694 -8.09919,-0.60153 -12.01404,-1.13475c-1.03339,2.40509 -1.92671,4.84685 -2.40258,7.4211c-0.21112,7.02835 -0.13042,14.07892 -0.32213,21.11206c0.1269,2.35039 0.307,4.68936 0.54618,7.00387c0.54394,5.26364 2.1054,9.2339 -0.24865,14.18796c0,0 -0.64454,1.28554 -1.93093,1.41777c-0.23906,2.53832 -0.474,5.07676 -0.68283,7.61468c0.00963,0.61614 0.02165,1.23183 0.03578,1.84713c0.15481,-0.02999 0.31471,-0.0457 0.47828,-0.0457c1.28807,0 2.34861,0.97412 2.48514,2.22585l0.60951,4.92959l-0.01598,0.00198l0.02157,0.04726c0.47588,5.98232 2.57307,11.02022 4.53545,16.69667c1.5392,4.45234 2.67549,9.66567 4.77557,13.87818c1.43916,2.88677 3.61788,5.34131 5.41813,8.01782c1.89892,2.82336 4.03534,5.49302 5.77209,8.41893c1.37355,2.31403 2.13507,4.94035 3.19648,7.41315c3.63719,8.47365 6.78584,17.35091 10.63369,25.77264c3.34341,5.10674 6.55009,10.3125 10.01769,15.33394c2.65739,3.84818 5.02232,8.82221 9.52655,10.91593c2.37526,1.1041 5.02029,1.49785 7.51574,2.29384l0.26787,0.3572l0.09738,-0.1302l2.30657,1.72523c0.62204,0.45476 1.0261,1.18996 1.0261,2.01953c0,1.38071 -1.11929,2.5 -2.5,2.5h-2.91255v-0.06085c-0.18987,0.00944 -0.38082,0.00813 -0.57305,-0.00571c-1.85302,-0.1334 -3.35235,-1.60267 -5.01711,-2.42733c-2.40679,-1.19224 -4.51534,-2.60612 -6.41268,-4.22011c0.61998,0.95418 1.24035,1.90034 1.85643,2.8368c0.98101,1.49115 2.29726,2.77475 3.08647,4.3757c0.64991,1.31839 1.00132,2.78984 1.19325,4.30596l0.67334,2.51818c2.05173,2.48488 4.06167,5.00142 5.86674,7.65552l0.56267,-1.12227c0.40138,-0.84424 1.26207,-1.42786 2.25908,-1.42786c1.38071,0 2.5,1.11929 2.5,2.5c0,0.34426 -0.06958,0.67226 -0.19545,0.97072l-1.52482,3.86357c-0.07811,0.19773 -0.15663,0.39536 -0.23554,0.59289c1.55823,2.55549 3.52174,5.7886 3.54138,5.88712c0.03028,0.15187 0.05453,0.30408 0.07339,0.4566l0.05001,-0.00889l0.61917,3.48271c0.03092,0.15708 0.04713,0.31945 0.04713,0.4856c0,1.38071 -1.11929,2.5 -2.5,2.5c-0.68913,0 -1.31314,-0.27883 -1.76536,-0.72983c-0.00006,-0.00006 -0.00012,-0.00012 -0.00018,-0.00018l-3.44558,-3.43621c-0.08578,-0.06401 -0.17129,-0.12819 -0.25654,-0.19253c-1.98846,4.30909 -4.14529,8.54697 -6.42888,12.68332c-0.92717,1.67842 -1.89177,3.35162 -2.86285,5.02725c-0.13376,0.28796 -0.26717,0.57595 -0.40019,0.86398c0.07493,2.35644 0.13455,4.70866 0.13879,7.05164c0.00546,3.01943 0.44171,6.07481 -0.02302,9.05826c-0.16989,1.09061 -2.44275,8.52785 -2.71433,9.81202c-0.66374,3.13848 -0.74016,6.38147 -1.39126,9.52259c-1.38231,6.66871 -3.51503,13.29395 -5.30484,19.86462c-1.41933,2.12759 -2.81143,4.49777 -3.9539,6.93902c0.61943,-0.30463 1.47849,-0.41828 2.46558,0.30757c2.01408,1.48104 0.53304,3.49512 0.53304,3.49512l-0.48362,0.65768c-1.79168,2.43651 -3.7094,4.78515 -5.40808,7.28631c-0.13639,0.94354 -0.31787,1.87624 -0.60212,2.78437c-0.25244,0.8065 -4.16264,9.49589 -5.57319,9.42372c-0.08311,-0.00425 -0.16522,-0.0093 -0.24632,-0.01513l-2.02132,3.88766c-0.40819,0.82571 -1.259,1.39356 -2.24245,1.39356c-1.38071,0 -2.5,-1.11929 -2.5,-2.5c0,-0.25602 0.03848,-0.50305 0.10998,-0.73562l0.81417,-2.87976c0.15712,-0.74499 0.31838,-1.4891 0.48302,-2.23246c-1.17553,-2.26604 -0.96407,-5.41296 -0.62342,-8.17228c-1.64319,2.86529 -3.30408,5.72049 -4.98093,8.56621l-0.47323,0.20102l0.10497,0.13935l-2.47836,1.86696c-0.42188,0.32492 -0.95043,0.51815 -1.52411,0.51815c-1.38071,0 -2.5,-1.11929 -2.5,-2.5c0,-0.11882 0.00829,-0.23571 0.02432,-0.35012l0.61695,-4.92199c0.00644,-1.42649 0.16249,-2.89272 0.59379,-4.61021c2.39235,-9.52662 8.54189,-18.88586 12.81882,-27.68926c0.47325,-0.97411 0.93409,-1.95331 1.38448,-2.93681c0.89373,-7.64357 1.82516,-15.28181 2.8052,-22.90544c1.16124,-9.03319 1.42658,-18.56055 3.23072,-27.4587c0.53938,-2.6603 1.44795,-5.34563 2.39954,-7.99488c0.24034,-1.66734 0.58602,-3.31423 1.13286,-4.42082l1.27767,-4.77825c0.1229,-0.50456 0.39892,-0.94916 0.77605,-1.2818c-5.95784,-14.37464 -11.07391,-29.08627 -16.44358,-43.691c-2.7856,-7.57688 -5.18664,-15.36737 -7.75174,-23.08292c-1.33854,-2.06717 -2.59935,-4.1771 -3.76087,-6.32432c-1.93252,-3.57251 -3.05565,-7.59666 -4.39669,-11.4949c-4.77776,-6.19178 -9.9163,-12.66229 -11.55202,-20.51362c-0.91181,-4.37663 -0.55074,-9.23078 -0.6854,-13.66563c-0.03127,-1.0297 -0.06742,-2.05802 -0.10716,-3.08524c-0.79068,-2.82306 -1.50043,-5.65049 -2.05897,-8.53668l-0.39866,0.1599l-1.84022,-4.58806c-0.12923,-0.30179 -0.20077,-0.63416 -0.20077,-0.98323c0,-1.38071 1.11929,-2.5 2.5,-2.5c0.025,0 0.04992,0.00037 0.07475,0.0011l0.01538,-0.29915c-0.21936,-1.65217 0.17119,-3.32893 0.25678,-4.9934c0.30114,-5.85599 0.64864,-11.67788 0.64822,-17.54122c-0.00108,-15.16953 0.98944,-30.34961 1.07928,-45.51224c-1.62142,-0.49857 -3.24108,-1.09711 -4.86433,-1.82319c-7.89157,-3.52989 -14.71508,-10.82992 -19.90059,-17.56407c-1.20136,-8.74111 0.60088,-18.6293 8.06278,-23.66267c-0.14324,-0.1478 -0.2202,-0.25526 -0.2202,-0.25526c-4.05756,-5.70599 -8.10735,-12.56854 -10.23984,-19.24841c-0.60246,-1.88717 -1.84395,-3.71487 -1.7109,-5.6914c0.18082,-2.68637 3.86989,-7.70151 5.34176,-9.90892c1.75734,-2.63552 2.94158,-5.73405 5.20315,-7.95205c1.7266,-1.69334 6.23622,-2.48486 8.13395,-2.92157c1.75305,-0.40341 5.65313,-1.29224 7.32738,-0.45187c2.90087,1.45607 4.84205,4.14994 6.94831,6.6126l1.01472,-1.51192c2.36912,-3.99068 4.70711,-8.00198 7.10819,-11.97345c0.97424,-1.61143 1.60287,-3.5049 2.95702,-4.81337c3.5175,-3.39885 10.05478,-4.89531 14.4942,-6.64565c10.45888,-4.12365 20.69602,-7.3181 31.56128,-10.19689c9.56047,-3.83449 18.70882,-8.72028 28.26749,-12.4784c4.6615,-1.83273 9.66375,-3.06564 14.427,-4.61888c1.02772,-0.33513 2.0545,-0.67959 3.08082,-1.03012c1.19906,-1.02783 1.76924,-2.71429 3.0711,-3.60869c1.54661,-1.06255 3.47977,-1.4056 5.22662,-2.09083c4.99829,-1.96066 9.45319,-3.6392 14.76017,-4.52521c6.31423,-1.03823 12.69483,-2.46276 19.05822,-3.13003c9.9345,-1.04174 20.1411,-1.25903 30.12299,-1.67233c7.94702,-0.32905 16.1637,0.21999 24.06563,-0.65294c4.28724,-0.47361 8.60253,-2.17351 12.91483,-2.33205c5.00516,-0.18401 10.26486,0.52198 15.26898,0.78464c6.66204,0.35055 13.35531,-0.01772 20.00658,0.36834c14.93842,0.86707 30.16654,3.03238 44.92046,5.45153c6.03339,0.98928 12.50376,2.315 18.63405,4.43989c-0.46276,-0.94025 -0.90663,-1.88877 -1.32738,-2.84743c-1.33796,-3.0485 -2.53879,-6.17604 -3.70249,-9.31889c-0.49795,-0.84155 -0.94859,-1.68641 -1.33056,-2.53229c-0.62948,-1.39397 -0.88862,-2.92258 -1.22377,-4.42107c-0.29608,-0.79682 -0.59452,-1.59159 -0.89699,-2.38325l-2.2756,-4.26718c-0.20153,-0.36045 -0.3164,-0.77594 -0.3164,-1.21825c0,-1.38071 1.11929,-2.5 2.5,-2.5c0.60846,0 1.16615,0.21737 1.59965,0.57869l1.92604,1.58059l-0.06528,0.07955c0.20911,0.14554 0.40455,0.31132 0.58302,0.50225c1.31351,1.40522 1.08294,3.69172 1.58931,5.5474c0.11147,0.40851 0.23179,0.81558 0.36094,1.22049c0.29478,0.79782 0.5878,1.59719 0.88073,2.39709c0.67647,1.61762 1.50223,3.1737 2.47684,4.61707c3.10734,4.60191 8.01455,9.8425 10.01881,15.0197c0.45566,1.17703 0.82394,2.39413 1.14423,3.63257c2.45574,1.59961 4.72287,3.44004 6.7237,5.56752c0.78699,0.84806 1.60704,1.86291 2.4569,2.92415l0.23572,-0.81914c0.28206,-1.07161 1.25766,-1.86189 2.41783,-1.86189c1.19018,0 2.18611,0.83169 2.43831,1.94559l1.16545,4.67197c0.47075,1.15713 0.92983,2.31755 1.37858,3.48095c5.01203,2.90403 11.32476,4.7284 16.51331,7.09038c1.46968,0.66904 3.1431,1.01935 4.39329,2.04141c1.48056,1.2104 2.47761,2.92005 3.58377,4.48003c4.12818,5.82182 6.69147,12.90482 6.66373,20.01971c-0.01655,4.24312 0.65515,6.67324 -4.75155,8.35435c-3.75778,1.16841 -7.05501,-2.00935 -9.65916,-3.78401c-1.76747,-1.20448 -3.54597,-2.38619 -5.32673,-3.56291c0.26431,0.84506 0.52991,1.6901 0.79727,2.53501c1.05407,3.33104 2.02965,6.65208 2.93685,9.97281c0.25399,0.33603 0.50186,0.67622 0.7426,1.02125l3.54018,3.35146c0.48363,0.45588 0.78554,1.10245 0.78554,1.81953c0,1.38071 -1.11929,2.5 -2.5,2.5c-0.11891,0 -0.23588,-0.0083 -0.35037,-0.02436c2.17158,9.07904 3.89937,18.21862 5.38837,27.61581c0.77035,2.34575 1.56564,4.6836 2.34454,7.03936c0.59251,1.79205 1.62497,3.50504 1.7378,5.38913c0.11587,1.93483 -0.35338,3.78544 -1.08222,5.55801l-0.3014,1.42771c0.026,0.26014 0.05139,0.52042 0.07616,0.78083c0.45836,-0.56515 1.15834,-0.92635 1.94269,-0.92635c1.37624,0 2.49275,1.11206 2.49996,2.48661l0.03065,4.99796c0.3251,1.36588 0.11003,2.6976 -0.27477,3.99148c-0.31603,10.87017 -0.73713,21.69933 -1.32748,32.55212c0.37875,7.82706 0.59488,15.62922 0.34614,23.51518c-0.13899,4.40668 -0.1206,8.85772 -1.16039,13.15422c-0.44621,1.84375 -0.30602,3.95629 -1.37744,5.52173c-1.13656,1.66063 -2.90136,4.06358 -4.85628,3.58633c-0.22089,-0.05393 -0.42988,-0.12948 -0.62809,-0.22396c0.13454,3.52405 0.3556,7.04299 0.6746,10.54993c0.43777,4.81262 0.42588,9.49113 0.56871,14.31451c0.04888,1.65086 0.18863,3.2982 0.23671,4.94908c0.03979,1.36627 -0.10226,2.73972 0.02684,4.10046c0.03073,0.32395 0.12617,0.93578 0.44465,0.86905c0.63863,-0.13381 0.97612,-0.87049 1.52009,-1.23513l2.13944,-2.13363c0.00006,-0.00006 0.00012,-0.00012 0.00018,-0.00018c0.45222,-0.451 1.07623,-0.72983 1.76536,-0.72983c1.38071,0 2.5,1.11929 2.5,2.5c0,0.37024 -0.08049,0.72169 -0.22491,1.03779l-1.17419,2.73231c0.47326,-0.04033 0.83523,-0.01823 1.04045,0.08469c1.57634,0.79054 0.74816,3.5398 0.42455,5.27331c-0.62536,3.34991 -3.01578,6.11668 -4.33475,9.25885c-0.69801,1.66288 -1.04069,3.49044 -1.95593,5.04437c-1.47054,2.49676 -4.05885,4.13678 -6.11494,6.17854c-6.86888,6.821 -15.94864,11.66882 -24.49788,16.1555c-4.2532,2.37395 -7.25766,5.60417 -11.06381,8.64262c-6.56412,5.24013 -13.26477,10.21208 -20.12214,15.06373c-1.37798,0.97494 -2.7258,1.94459 -4.07265,2.88197c-0.14778,0.16615 -0.30671,0.32178 -0.48061,0.46325c-0.33423,0.2719 -0.71405,0.46708 -1.11411,0.629c-3.76021,2.52716 -7.60212,4.72165 -12.15565,6.00091c-6.39391,1.79629 -12.54445,4.20307 -18.88618,6.16453c-1.65287,0.51122 -3.87104,1.02353 -4.46345,2.64907c0,0 -0.89091,1.77703 -2.66846,1.36749c3.33519,11.44815 6.60363,22.91606 9.90171,34.37488c5.32427,18.49861 11.31969,36.57587 17.68859,54.7409c0.60706,1.73142 1.21437,3.46274 1.82173,5.19405c1.21477,2.12965 2.33064,4.29339 3.1596,6.55156c0.0481,0.13103 0.84864,3.79019 1.47575,6.67018c0.05342,0.15259 0.10683,0.30518 0.16024,0.45777c1.55236,4.43523 3.70614,10.06194 3.77433,14.82924l1.005,4.8444c0.04108,0.17979 0.06278,0.36695 0.06278,0.55919c0,1.38071 -1.11929,2.5 -2.5,2.5c-1.16117,0 -2.13744,-0.79164 -2.41855,-1.86465l-0.93776,-3.27326c-1.29013,-4.50761 -2.2898,-8.97817 -3.28608,-13.55847c-0.24393,-1.12142 -0.43088,-2.2592 -0.62075,-3.39606c-1.01551,-2.82456 -2.12712,-5.6309 -3.10601,-8.42283c-0.47597,-1.35752 -0.95117,-2.71452 -1.42538,-4.07116c-0.51726,-0.90193 -1.05283,-1.79796 -1.59161,-2.69266c6.39944,27.13736 12.76134,54.28324 19.35569,81.37396l1.54769,4.60915c0.09617,0.26566 0.14861,0.55226 0.14861,0.85111c0,1.38071 -1.11929,2.5 -2.5,2.5c-0.91797,0 -1.72037,-0.49475 -2.15512,-1.23214l-2.58844,-4.22568l0.04564,-0.02796c-0.07399,-0.09985 -0.14618,-0.20126 -0.21644,-0.30432c-1.00872,-1.47977 -0.90999,-3.46424 -1.35848,-5.19805c-1.66949,-6.45415 -3.3043,-12.9175 -4.95642,-19.37612c-5.78212,-22.60403 -11.57624,-45.20476 -17.40055,-67.79796c-2.88936,-11.20819 -6.19744,-22.39506 -8.68549,-33.69811c-1.33758,-6.07654 -2.46063,-12.2168 -3.53964,-18.36477c-0.30676,-0.67356 -0.61921,-1.34562 -0.93769,-2.01615c0,0 -0.66177,-1.39329 0.14871,-2.51086c-0.14455,-0.83242 -0.28906,-1.66474 -0.43395,-2.4968c-0.7172,-2.4689 -1.61656,-4.93265 -1.31709,-7.4303c-0.10205,-0.56073 -0.20485,-1.12115 -0.30853,-1.68122zM93.02111,330.5622c0.09252,-0.19288 0.18284,-0.38721 0.27156,-0.58261c-1.4932,-1.36033 -2.9191,-2.76783 -4.30956,-4.20897c-0.85127,5.12322 -1.03423,10.31914 -0.98252,15.5333c1.66092,-3.58642 3.31164,-7.17913 5.02053,-10.74173zM84.06781,324.84891c0,0 0.32107,-1.92127 2.09229,-2.08858c-2.11729,-2.31093 -4.20153,-4.68115 -6.37381,-7.05922c1.30733,3.62777 2.59156,7.39822 2.42073,11.2717c-0.00131,0.02964 -0.00271,0.05927 -0.00419,0.08889l0.01368,-0.00124l0.44809,4.94857c0.0086,0.08433 0.013,0.16991 0.013,0.25651c0,1.38071 -1.11929,2.5 -2.5,2.5c-0.74649,0 -1.41657,-0.32719 -1.87465,-0.84597c-0.51158,1.50543 -1.08162,3.03492 -1.63902,4.57622c-0.20727,1.39448 -0.27703,2.80882 -0.43222,4.21087c-0.55008,4.96965 -1.1073,9.93851 -1.66095,14.90776c-0.61249,5.49741 -1.44296,10.93891 -2.34263,16.37287c1.63873,-4.10266 3.33743,-8.17862 5.22889,-12.17221c1.75364,-3.7026 3.8116,-7.31119 5.88597,-10.89764c-0.23278,-8.72459 -0.71365,-17.42507 0.72481,-26.06853zM54.03395,427.42597c0.52214,-0.90656 1.04662,-1.81177 1.57334,-2.71566c0.46945,-1.72474 1.02174,-3.42792 1.6095,-5.12137c-1.29554,2.54556 -2.50456,5.15248 -3.18283,7.83704zM71.05083,411.71096c0.95971,-2.07384 2.09422,-4.07656 3.41664,-5.99574c1.60669,-6.24619 3.64776,-12.48448 4.95701,-18.79666c0.65357,-3.15098 0.73164,-6.40406 1.39748,-9.55247c0.67723,-3.20233 2.13811,-6.222 2.65218,-9.45454c0.25274,-1.58922 0.28359,-3.27418 0.23557,-4.97693c-2.70597,6.5368 -5.08358,13.18685 -6.87877,20.1192c-2.42951,9.38189 -3.8825,19.14407 -5.78011,28.65713zM68.10772,399.87829c-0.07117,0.65645 -0.14252,1.31289 -0.21414,1.96931c0.4064,-2.0836 0.81507,-4.1682 1.23427,-6.25097c-0.18112,0.38739 -0.36336,0.77438 -0.5466,1.16101c-0.15045,1.04208 -0.30637,2.08338 -0.47352,3.12065zM38.51532,40.25011c0,0 -0.17923,0.26811 -0.50524,0.54736c0.49227,0.34833 1.01179,0.66049 1.56637,0.92631c4.16365,0.81006 8.32771,2.05554 12.47447,2.81429c2.59364,0.47457 5.25597,0.58367 7.83002,0.92931c1.95714,-0.92834 3.85565,-1.91765 5.19952,-3.25859c4.47356,-4.46381 8.08023,-10.59066 11.94249,-15.60691c2.83137,-2.94632 5.7873,-7.14794 9.16542,-9.48512c3.78179,-2.61646 7.91785,-4.3123 11.68638,-7.02133c6.7931,-4.88326 13.46549,-9.71742 20.35166,-14.30218c-8.41324,3.55287 -16.57254,7.7876 -25.08178,11.16566c-10.7759,2.87577 -20.922,6.01048 -31.29895,10.10183c-3.64488,1.43708 -9.95867,2.73371 -12.83794,5.57441c-1.03276,1.01892 -1.41865,2.53127 -2.14781,3.78551c-2.33239,4.01199 -4.73916,7.98291 -7.10819,11.97345l-1.23644,1.85599zM277.70589,-21.13321c2.99073,0.77417 5.9736,1.6019 8.95376,2.47462c5.29488,2.58368 10.5198,5.55144 15.94607,7.83944c3.06135,1.29082 6.31617,2.07988 9.39427,3.33024c7.77997,3.1603 15.04819,7.39889 22.58543,10.9739c6.37732,3.02484 13.31124,3.66739 20.02986,5.29542c-5.75545,-4.5426 -12.29467,-8.23389 -17.88178,-12.92269c-3.82617,-3.21099 -7.29493,-6.94576 -11.02829,-10.276c-2.85442,-2.69298 -6.79088,-2.87821 -10.53263,-3.65406c-5.77749,-1.19796 -11.33862,-2.50925 -17.26239,-2.65809c-6.71145,-0.16863 -13.48126,-0.10218 -20.2043,-0.4028zM393.73975,32.80074c0.65601,0.45947 3.75847,3.33976 5.56028,3.05946c2.23516,-0.34771 1.07515,-7.22716 0.92699,-8.0022c-0.94654,-4.95146 -4.21908,-12.79469 -8.24639,-16.07521c-0.93938,-0.76519 -2.2383,-0.92868 -3.34897,-1.41279c-3.70613,-1.6154 -7.97346,-3.08814 -11.96622,-4.83911c2.358,6.69323 4.46336,13.46378 6.56122,20.25437c3.51688,2.32154 7.05908,4.59627 10.51309,7.01548zM360.39772,-8.22707c-0.44731,-0.48971 -0.91258,-0.96223 -1.39441,-1.41828c0.05705,0.24889 0.11532,0.49714 0.17514,0.7446c1.85976,3.13398 3.64491,6.30031 5.17595,9.57674c0.48428,1.03637 0.9103,2.11925 1.30061,3.22697c-0.13821,-1.82983 -0.1678,-3.67439 -0.03276,-5.54637c0.00881,-0.1221 0.01532,-0.2447 0.02003,-0.3677c-1.85311,-2.10702 -3.59567,-4.43912 -5.24456,-6.21596zM349.04886,-16.14094c-7.3071,-3.34245 -15.7387,-5.04156 -23.09403,-6.24759c-14.58335,-2.39118 -29.63608,-4.53704 -44.40116,-5.39404c-6.64107,-0.38547 -13.32637,-0.01849 -19.97893,-0.36682c-0.67495,-0.03542 -1.3546,-0.07948 -2.03763,-0.12861c4.72635,0.54038 9.4417,1.56111 14.16094,1.90413c6.39935,0.46514 12.9152,0.44933 19.3304,0.58503c8.02945,0.16986 15.31974,1.19134 23.16041,2.82087c4.81745,1.00121 9.04739,1.55472 12.84494,4.81867c3.695,3.2969 7.12683,6.99883 10.9139,10.17701c5.96704,5.00764 12.94226,8.90378 18.99016,13.84809c-1.26662,-3.68941 -2.80456,-7.30364 -3.92842,-11.03237c-0.18713,-0.62087 -0.35656,-1.25053 -0.51403,-1.88624c-1.80452,-3.03734 -3.67333,-6.04673 -5.44652,-9.09813zM255.55094,-28.59401c-2.906,-0.23347 -5.8271,-0.4357 -8.66594,-0.34321c-0.31424,0.01024 -0.62889,0.02923 -0.94389,0.0558c2.87384,0.13276 5.7528,0.22225 8.65696,0.26259c0.31769,0.00442 0.63531,0.01281 0.95286,0.02482zM139.24644,-11.2812c-2.37057,1.42274 -7.0801,4.20069 -7.27738,4.31739c-10.90797,6.45266 -20.88866,13.74053 -31.17804,21.12065c-3.74985,2.68961 -7.8094,4.38911 -11.58201,6.94432c-3.07558,2.08311 -5.8195,6.08912 -8.39696,8.763c-3.98297,5.18951 -7.74375,11.55776 -12.43655,16.10527c-0.55599,0.53878 -1.17873,1.01926 -1.84573,1.46016c0.85776,0.47476 1.68311,1.05942 2.46777,1.78579c0.42976,0.39783 0.83712,0.81669 1.22227,1.25441c1.58562,-1.33905 3.4837,-2.33978 5.1593,-3.57953c5.47087,-4.04783 10.95334,-7.73508 16.7654,-11.2756c2.72725,-1.66135 5.79058,-2.85802 8.20016,-4.95372c2.46756,-2.14613 3.90061,-5.27757 6.19728,-7.60566c0.10699,-0.10845 7.59308,-6.40732 7.81901,-6.59755c0.40729,-0.34294 7.75776,-6.547 8.0025,-6.6894c0.33483,-0.19482 9.10287,-3.38709 9.71536,-3.63c3.08034,-1.22163 6.10125,-2.58808 9.15201,-3.88181c2.87987,-1.19981 5.39301,-3.15265 7.94533,-4.94676c7.45772,-5.24226 16.41875,-9.66894 24.5735,-13.7363c2.916,-1.45441 5.93681,-2.71386 8.75295,-4.3533c0.93701,-0.54549 1.62428,-1.5173 2.63724,-1.90388c1.03324,-0.39431 2.11818,-0.72322 3.23788,-1.00322c-0.28319,-0.00853 -0.56635,-0.01734 -0.84946,-0.02643c-9.30109,1.92588 -18.95872,3.23117 -28.11743,5.73435c-6.79797,1.85796 -13.47269,4.4012 -20.16439,6.69784zM374.93729,27.65682c0.9978,1.73989 2.03335,3.4605 3.16167,5.13001c1.02207,1.5123 2.18539,2.92918 3.40777,4.30626c-0.85482,-2.70532 -1.69322,-5.41096 -2.53001,-8.11373c-1.35059,-0.90768 -2.6962,-1.82521 -4.03296,-2.76046c-0.14992,-0.10506 -0.29975,-0.21111 -0.44953,-0.31808c0.14028,0.58849 0.28822,1.17371 0.44304,1.756zM395.25285,111.31363c-0.04631,-1.59268 -0.12578,-3.17328 -0.23299,-4.7455c-0.29929,-0.20564 -0.55156,-0.47475 -0.7374,-0.78792c0.25348,1.37704 0.48992,2.74514 0.71122,4.09667c0.0773,0.48979 0.1638,0.96811 0.25916,1.43675zM389.48323,86.86206c1.82504,5.23197 3.22793,10.8945 4.33464,16.48465l-0.13084,-1.4354c-0.29236,-3.20738 -0.25182,-6.46037 -0.85423,-9.62422c-0.74132,-3.89338 -3.08917,-8.09018 -4.4909,-11.79054c-1.63934,-4.32762 -3.17289,-8.67032 -4.67356,-13.02303c0.0485,0.6039 0.09821,1.20767 0.15006,1.81108c0.84351,3.64838 1.92373,7.33841 2.77965,10.69311c0.61513,2.41093 2.06567,4.53503 2.88518,6.88436zM387.3035,210.81429c-0.66175,5.27801 -1.07911,10.56465 -1.80305,15.75428c0.72806,-0.35746 1.46344,-0.69757 2.2023,-1.02052c0.10954,-0.0784 0.21863,-0.15734 0.32724,-0.23684l-0.14538,-0.18222l2.8968,-2.31117c0.17868,-0.14511 0.37778,-0.26605 0.59232,-0.35784c0.01671,-0.47666 0.02381,-0.95036 -0.00546,-1.4137c-0.29837,-4.72325 -0.08476,-9.4505 -0.3436,-14.16778c-0.19297,-3.51674 -0.40573,-6.99707 -0.59622,-10.47046c-0.60732,1.63568 -1.21485,3.27261 -1.82348,4.91017c-0.4602,3.16324 -0.90424,6.32786 -1.30147,9.49608zM367.96639,254.19753c2.91008,-3.34719 5.45515,-7.387 8.47084,-10.66237l-0.00724,-0.73797c-0.00575,-0.83 -0.06728,-1.6563 -0.15945,-2.48066c-1.21196,1.45917 -2.38507,3.00747 -3.54993,4.59314v0.18251c0,1.17247 -0.80713,2.15643 -1.89607,2.42656c-0.93186,1.28868 -1.86909,2.58328 -2.82735,3.8573c-0.49765,1.0325 -0.96724,2.0577 -1.41314,3.05748c-0.4725,0.71123 -0.93902,1.46507 -1.40691,2.23988c0.69612,-0.5554 1.38901,-1.11604 2.08018,-1.67825c0.2401,-0.26218 0.47654,-0.52799 0.70909,-0.79763zM398.10619,235.74706c-1.86607,1.94906 -3.95243,3.70678 -6.12405,5.55979c-5.10965,4.35997 -10.2759,8.58429 -15.56306,12.72719c-1.92879,1.49994 -3.83794,3.06777 -5.75789,4.62925c-5.27445,5.57906 -11.92555,9.63309 -18.23058,14.03841c-2.39066,1.67035 -5.21695,2.81937 -7.22491,4.93441c-2.15906,2.27418 -4.00686,5.10898 -5.76184,8.01754c3.52482,-2.54365 7.00002,-5.15566 10.38715,-7.85795c5.21846,-4.16335 9.92621,-8.94655 15.69844,-12.24245c6.7817,-3.56011 13.98185,-7.32596 20.0693,-11.99297c2.55764,-1.96085 4.53143,-4.5842 6.83026,-6.84293c2.98437,-2.93232 3.77168,-6.93683 5.56419,-10.72503c0.03844,-0.08123 0.07604,-0.16302 0.11298,-0.24526zM394.92733,230.37756c-0.91132,-0.41825 -1.74817,-1.17914 -2.4709,-2.29839l-0.80213,0.74535l-0.03922,-0.04221l-0.06069,0.13021c-0.46931,0.35048 -0.94931,0.69006 -1.43756,1.02133c-0.26094,0.20692 -0.5453,0.38959 -0.84257,0.55889c-1.61871,1.05106 -3.31019,2.02941 -4.98996,3.02416c-0.36054,1.64697 -0.77939,3.27875 -1.27532,4.89173c0.52109,-0.34671 1.0374,-0.69889 1.54091,-1.06584c0.32835,-0.2393 8.15459,-5.95049 8.34518,-6.05762c0.41622,-0.23396 1.14077,-0.55557 2.03225,-0.90761zM327.58175,292.2983c-1.88123,1.77824 -4.59771,3.19784 -7.22434,4.52089c2.13057,-0.86069 4.20211,-1.88058 6.27697,-2.86796c0.50453,-0.2401 1.0972,-0.30147 1.63348,-0.46532c0.50059,-0.36869 1.00409,-0.73189 1.51575,-1.08008c1.38153,-1.53397 2.06281,-3.70253 3.22649,-5.44329c1.26941,-1.89892 2.51789,-4.08271 3.833,-6.22694c-3.56719,3.31174 -5.71266,8.20828 -9.26135,11.5627zM340.68396,271.68997c-2.2492,1.28176 -4.80954,2.11939 -6.76297,3.81819c-3.52964,3.06954 -6.58623,7.28827 -9.73007,10.77026c0.58266,-0.54648 1.15465,-1.10389 1.70959,-1.67882c0.66756,-0.69161 6.18336,-7.3216 6.70991,-7.76222c0.10897,-0.09119 2.48066,-1.49891 4.75723,-2.84402c2.97523,-2.02114 6.2549,-3.73472 9.41464,-5.5761c-2.07657,1.08387 -4.13831,2.15575 -6.09833,3.27271zM395.17853,141.96623c-0.05482,0.23907 -0.10936,0.47817 -0.16353,0.71734c-0.30383,1.34157 -0.6082,2.68251 -0.91249,4.02301c0.07083,1.5486 0.17676,3.09961 0.29931,4.65106c0.10417,1.07617 0.19784,2.15201 0.27272,3.22718c0.28206,3.20023 0.58031,6.39646 0.73246,9.57124c0.87115,-3.85586 1.49911,-7.78543 1.75065,-11.92868c0.14465,-2.35609 0.28064,-4.71036 0.40863,-7.0635c-0.08696,-1.6071 -0.1808,-3.21504 -0.27593,-4.82594c-0.69945,0.59533 -1.39673,1.21595 -2.11182,1.6283zM396.05667,184.78751c0.34095,-2.10997 1.16157,-4.13849 1.396,-6.26458c0.11171,-1.01307 0.20131,-2.03182 0.27314,-3.05451c-0.63382,2.11516 -1.31174,4.21978 -2.01905,6.31516c0.12936,1.00118 0.24861,2.00274 0.34992,3.00393zM390.05895,110.68213c-0.60704,-3.7335 -1.33622,-7.60492 -2.2303,-11.43339c0.25916,2.9695 0.52457,5.95615 1.14665,8.79868c0.37353,1.7068 0.96794,3.3541 1.55615,5.00353c-0.18181,-0.78573 -0.33944,-1.5761 -0.4725,-2.36882zM372.79143,18.40258c1.2635,0.96091 2.51752,1.9185 3.776,2.83311c-1.91551,-6.09167 -3.89511,-12.15313 -6.1098,-18.14758c0.29642,4.99988 1.24154,10.24159 2.3338,15.31447zM379.24806,211.67463c0.05794,-0.56227 0.11035,-1.12573 0.15826,-1.69015c-1.33687,3.69806 -2.69397,7.39092 -3.84378,11.12921c1.23246,-3.14642 2.46397,-6.2914 3.68552,-9.43906zM95.48067,325.15881c0.01352,-0.02481 0.0271,-0.04958 0.04074,-0.07431c-1.53571,-2.45321 -3.10445,-4.85332 -4.86689,-7.19977c-0.01439,0.00025 -0.02882,0.00037 -0.04328,0.00037c-0.57082,0 -1.09695,-0.1913 -1.51779,-0.5133l-2.30966,-1.72754l0.02813,-0.0376l-0.13712,-0.04875c-0.58168,-0.54448 -1.16425,-1.08805 -1.74711,-1.63132c3.50308,3.88208 6.83447,7.69573 10.55298,11.23222zM60.42488,272.95411c-0.09238,-0.10878 -0.18465,-0.21774 -0.27682,-0.3269c0.26726,0.79945 0.53638,1.59781 0.80797,2.39476c-0.17876,-0.68874 -0.35588,-1.378 -0.53115,-2.06786zM75.02145,296.4968c0.10825,0.48286 0.21642,0.9658 0.32456,1.4488c0.22731,0.19363 0.45625,0.38591 0.6814,0.58158c-0.35004,-0.66918 -0.68457,-1.3464 -1.00596,-2.03038z" data-paper-data="{&quot;index&quot;:null}"/><path d="M59.17939,188.79282c0.14323,0.1478 0.2202,0.25526 0.2202,0.25526c4.05757,5.70598 8.10736,12.56853 10.23985,19.2484c0.60246,1.88717 1.84395,3.71488 1.7109,5.6914c-0.18082,2.68636 -3.86989,7.70152 -5.34176,9.90892c-1.75734,2.63552 -2.94158,5.73404 -5.20315,7.95205c-1.72659,1.69333 -6.23621,2.48486 -8.13395,2.92156c-1.75305,0.40342 -5.65314,1.29224 -7.32738,0.45187c-4.96059,-2.48991 -7.11481,-8.59943 -12.08717,-10.98275c-4.16365,-0.81006 -8.3277,-2.05554 -12.47446,-2.81429c-5.91155,-1.08165 -12.17995,-0.26473 -16.94664,-4.67732c-6.96825,-6.4506 -8.04618,-18.42894 -4.08762,-26.68966c0.59549,-1.24267 0.69017,-2.88063 1.77103,-3.73538c2.57103,-2.0332 4.91253,-1.76873 7.61855,-1.64774c-0.00912,-0.00685 -0.01732,-0.01417 -0.02448,-0.02198c-1.04654,-1.14163 -1.78778,-2.5295 -2.67017,-3.80226c-3.14905,-4.5422 -4.12059,-8.66291 -5.25677,-14.03445c-1.01764,-4.88408 -1.15293,-9.09627 -1.0761,-14.07337c0.01903,-1.23287 -0.31332,-2.54577 0.12881,-3.69679c1.43143,-3.72654 3.4741,-4.15318 6.97385,-5.11016c5.12016,-1.40007 9.05483,-1.67381 14.25502,-1.23575c9.03438,0.76104 17.40508,1.07772 25.87365,4.8657c7.89157,3.52989 14.71508,10.82992 19.90059,17.56407c1.20135,8.74111 -0.60089,18.6293 -8.06278,23.66267z" data-paper-data="{&quot;index&quot;:null}"/><path d="M70.20051,305.41443c-7.46189,-5.03337 -9.26413,-14.92156 -8.06278,-23.66267c5.18551,-6.73415 12.00902,-14.03418 19.90059,-17.56407c8.46857,-3.78798 16.83927,-4.10466 25.87365,-4.8657c5.20019,-0.43806 9.13486,-0.16432 14.25502,1.23575c3.49976,0.95698 5.54242,1.38362 6.97385,5.11016c0.44213,1.15102 0.10978,2.46392 0.12881,3.69679c0.07683,4.97711 -0.05846,9.18929 -1.0761,14.07338c-1.13618,5.37154 -2.10772,9.49226 -5.25677,14.03445c-0.88239,1.27277 -1.62363,2.66064 -2.67017,3.80226c-0.00716,0.00781 -0.01535,0.01513 -0.02448,0.02198c2.70602,-0.121 5.04752,-0.38546 7.61855,1.64774c1.08085,0.85475 1.17554,2.49271 1.77103,3.73538c3.95856,8.26072 2.88063,20.23906 -4.08762,26.68966c-4.7667,4.41259 -11.03509,3.59566 -16.94665,4.67732c-4.14676,0.75875 -8.31081,2.00423 -12.47446,2.81429c-4.97236,2.38331 -7.12659,8.49284 -12.08717,10.98275c-1.67425,0.84037 -5.57433,-0.04846 -7.32738,-0.45187c-1.89773,-0.43671 -6.40735,-1.22823 -8.13395,-2.92157c-2.26157,-2.218 -3.44582,-5.31652 -5.20315,-7.95205c-1.47188,-2.20741 -5.16094,-7.22256 -5.34177,-9.90892c-0.13305,-1.97653 1.10844,-3.80424 1.7109,-5.6914c2.13249,-6.67986 6.18229,-13.54242 10.23985,-19.2484c0,0 0.07696,-0.10746 0.2202,-0.25526z" data-paper-data="{&quot;index&quot;:null}"/><path d="M262.88819,309.91824c-0.14324,-0.1478 -0.2202,-0.25526 -0.2202,-0.25526c-4.05756,-5.70599 -8.10736,-12.56854 -10.23985,-19.24841c-0.60246,-1.88717 -1.84394,-3.71488 -1.7109,-5.6914c0.18083,-2.68636 3.86989,-7.70152 5.34177,-9.90892c1.75733,-2.63552 2.94158,-5.73404 5.20315,-7.95205c1.7266,-1.69334 6.23621,-2.48487 8.13395,-2.92157c1.75306,-0.40342 5.65314,-1.29224 7.32738,-0.45187c4.96058,2.48992 7.11481,8.59944 12.08717,10.98276c4.16365,0.81006 8.32771,2.05554 12.47447,2.81429c5.91155,1.08165 12.17994,0.26473 16.94664,4.67732c6.96825,6.4506 8.04617,18.42894 4.08762,26.68966c-0.59549,1.24267 -0.69018,2.88063 -1.77103,3.73538c-2.57104,2.0332 -4.91254,1.76873 -7.61855,1.64774c0.00913,0.00685 0.01732,0.01417 0.02449,0.02198c1.04654,1.14163 1.78778,2.5295 2.67017,3.80226c3.14905,4.5422 4.12059,8.66291 5.25677,14.03445c1.01764,4.88408 1.15293,9.09627 1.0761,14.07337c-0.01903,1.23287 0.31332,2.54577 -0.12881,3.69679c-1.43142,3.72654 -3.47408,4.15318 -6.97384,5.11016c-5.12017,1.40007 -9.05483,1.67381 -14.25503,1.23575c-9.03437,-0.76104 -17.40507,-1.07772 -25.87364,-4.8657c-7.89157,-3.52989 -14.71509,-10.82992 -19.9006,-17.56407c-1.20135,-8.74111 0.60089,-18.6293 8.06278,-23.66267z" data-paper-data="{&quot;index&quot;:null}"/><path d="M350.4708,229.84317c-0.14324,-0.1478 -0.22021,-0.25526 -0.22021,-0.25526c-4.05756,-5.70598 -8.10736,-12.56853 -10.23985,-19.2484c-0.60246,-1.88716 -1.84394,-3.71488 -1.7109,-5.6914c0.18084,-2.68636 3.86989,-7.70152 5.34177,-9.90892c1.75733,-2.63552 2.94158,-5.73405 5.20315,-7.95205c1.7266,-1.69334 6.23622,-2.48486 8.13395,-2.92157c1.75305,-0.40342 5.65313,-1.29224 7.32738,-0.45187c4.96059,2.48991 7.11481,8.59944 12.08717,10.98275c4.16366,0.81006 8.32771,2.05554 12.47447,2.81429c5.91155,1.08166 12.17995,0.26473 16.94664,4.67732c6.96825,6.45059 8.04617,18.42893 4.08762,26.68966c-0.59549,1.24267 -0.69018,2.88063 -1.77103,3.73538c-2.57104,2.0332 -4.91254,1.76873 -7.61855,1.64774c0.00912,0.00685 0.01731,0.01417 0.02448,0.02198c1.04654,1.14163 1.78778,2.52949 2.67017,3.80226c3.14904,4.5422 4.12058,8.66291 5.25677,14.03445c1.01764,4.88408 1.15293,9.09627 1.0761,14.07337c-0.01903,1.23287 0.31331,2.54577 -0.12881,3.69679c-1.43143,3.72654 -3.4741,4.15318 -6.97385,5.11016c-5.12016,1.40007 -9.05482,1.67381 -14.25502,1.23575c-9.03438,-0.76104 -17.40508,-1.07772 -25.87365,-4.8657c-7.89157,-3.52989 -14.71508,-10.82992 -19.90059,-17.56407c-1.20136,-8.74111 0.60088,-18.6293 8.06278,-23.66267z" data-paper-data="{&quot;index&quot;:null}"/><path d="M365.98129,104.72305c-0.14324,-0.1478 -0.22021,-0.25526 -0.22021,-0.25526c-4.05756,-5.70598 -8.10736,-12.56853 -10.23985,-19.2484c-0.60246,-1.88716 -1.84394,-3.71488 -1.7109,-5.6914c0.18084,-2.68636 3.86989,-7.70152 5.34177,-9.90892c1.75734,-2.63552 2.94158,-5.73404 5.20315,-7.95205c1.7266,-1.69334 6.23622,-2.48486 8.13395,-2.92157c1.75306,-0.40342 5.65314,-1.29224 7.32738,-0.45187c4.96059,2.48991 7.11481,8.59944 12.08717,10.98275c4.16366,0.81006 8.32771,2.05554 12.47447,2.81429c5.91155,1.08166 12.17994,0.26473 16.94664,4.67732c6.96824,6.4506 8.04617,18.42894 4.08762,26.68966c-0.59549,1.24267 -0.69018,2.88063 -1.77103,3.73538c-2.57103,2.0332 -4.91254,1.76873 -7.61855,1.64774c0.00913,0.00685 0.01732,0.01417 0.02449,0.02198c1.04654,1.14163 1.78778,2.5295 2.67017,3.80226c3.14904,4.5422 4.12058,8.66291 5.25677,14.03445c1.01764,4.88408 1.15293,9.09627 1.0761,14.07337c-0.01903,1.23287 0.31332,2.54577 -0.12881,3.69679c-1.43142,3.72654 -3.47409,4.15318 -6.97384,5.11016c-5.12016,1.40007 -9.05482,1.67381 -14.25502,1.23575c-9.03438,-0.76104 -17.40508,-1.07772 -25.87365,-4.8657c-7.89157,-3.52989 -14.71508,-10.82992 -19.90059,-17.56407c-1.20136,-8.74111 0.60088,-18.6293 8.06278,-23.66267z" data-paper-data="{&quot;index&quot;:null}"/></g></g></svg>