<svg version="1.1" xmlns="http://www.w3.org/2000/svg" xmlns:xlink="http://www.w3.org/1999/xlink" width="95.66667" height="49" viewBox="0,0,95.66667,49"><g transform="translate(-192.16666,-155.5)"><g data-paper-data="{&quot;isPaintingLayer&quot;:true}" fill-rule="nonzero" stroke-linecap="butt" stroke-linejoin="miter" stroke-miterlimit="10" stroke-dasharray="" stroke-dashoffset="0" style="mix-blend-mode: normal"><path d="M194.66667,202v-44h90.66667v44z" fill="#ffffff" stroke="#000000" stroke-width="5"/><path d="M232.26013,188.37215c-0.16086,-0.12401 -0.3059,-0.31118 -0.40972,-0.5888c-0.43786,-1.1708 0.73295,-1.60866 0.73295,-1.60866c2.82425,-1.02672 3.91303,-2.96555 5.94446,-5.05104c5.11803,-5.25423 7.31326,-13.02229 8.37728,-20.03841l0.07505,-1.64675c0.02629,-0.66714 0.57543,-1.19992 1.24902,-1.19992c0.52184,0 0.969,0.31977 1.1562,0.77406l0.53163,1.21186l-0.18894,0.08289c3.34494,4.57211 4.69945,10.52584 4.56146,16.15596c-0.08532,3.48105 -0.13672,7.11611 -2.0413,10.21197c-1.92088,3.12237 -4.20974,5.25866 -7.05403,7.47259c-3.52922,3.79298 -10.44668,6.96695 -15.6646,6.98321c-1.00612,0.00314 -4.97972,0.344 -5.49733,-0.72819c-1.81222,-3.75385 1.67112,-3.55514 3.02115,-5.52511c1.63983,-2.39286 3.51679,-4.25576 5.20673,-6.50565z" fill="#ff0000" stroke="none" stroke-width="0.5"/><path d="M208.12584,165.45597c0.22302,-1.22994 1.45296,-1.00693 1.45296,-1.00693l0.57388,0.13599c7.0765,-0.31947 13.93826,-1.52207 20.96499,-2.19038c4.47998,-0.42609 9.1837,-0.97638 13.03137,1.72838c0,0 1.01429,0.73055 0.28374,1.74485c-0.73055,1.01429 -1.74485,0.28374 -1.74485,0.28374c-3.17817,-2.36296 -7.61583,-1.6208 -11.33471,-1.26809c-7.06708,0.67027 -13.96952,1.87492 -21.08733,2.19894l-1.13313,-0.17353c0,0 -1.22994,-0.22302 -1.00693,-1.45296z" fill="#ff0000" stroke="none" stroke-width="0.5"/><path d="M198.71719,181.92887c0,-1.10633 0.97918,-1.23349 1.20426,-1.2481c4.11041,-0.76656 7.23441,-3.5484 11.36479,-4.38891c3.51083,-0.71443 7.19631,-1.6933 10.75358,-2.02992c3.25643,-0.30816 6.57393,0.22158 9.7479,-0.58755c0,0 1.21287,-0.30239 1.51527,0.91048c0.30239,1.21287 -0.91048,1.51527 -0.91048,1.51527c-3.33553,0.8157 -6.70743,0.33488 -10.11554,0.65053c-3.47656,0.32199 -7.07189,1.31089 -10.50652,1.99386c-4.16032,0.82727 -7.2977,3.6381 -11.50252,4.41427l-0.30074,0.02008c0,0 -1.25,0 -1.25,-1.25z" fill="#ff0000" stroke="none" stroke-width="0.5"/><path d="M197.53028,192.808c0.405,-0.4061 0.81051,-0.44005 1.1308,-0.35785c5.14559,-2.16388 10.63284,-4.18602 16.00523,-5.64397c3.85634,-1.04652 7.98705,-0.77618 11.60946,-2.52344c0,0 1.12824,-0.53812 1.66636,0.59012c0.53812,1.12824 -0.59012,1.66636 -0.59012,1.66636c-3.83672,1.81212 -7.98005,1.57443 -12.02935,2.67926c-5.46675,1.49158 -11.05262,3.56223 -16.2633,5.77742l-1.52668,-0.42014c0,0 -0.88508,-0.88268 -0.0024,-1.76777z" fill="#ff0000" stroke="none" stroke-width="0.5"/><path d="M213.0465,194.43588c-0.35829,-1.19755 0.83926,-1.55584 0.83926,-1.55584l0.83181,-0.24746c3.07259,-0.76556 5.92587,-0.9701 9.02047,-1.49044c0,0 1.23308,-0.20495 1.43804,1.02813c0.20495,1.23308 -1.02813,1.43804 -1.02813,1.43804c-3.05572,0.5025 -5.8037,0.69612 -8.8256,1.45002l-0.72002,0.21682c0,0 -1.19755,0.35829 -1.55584,-0.83926z" fill="#ff0000" stroke="none" stroke-width="0.5"/><path d="M243.17717,185.41099c0,-0.69036 0.55964,-1.25 1.25,-1.25c0.69036,0 1.25,0.55964 1.25,1.25c0,0.69036 -0.55964,1.25 -1.25,1.25c-0.69036,0 -1.25,-0.55964 -1.25,-1.25z" fill="#ff0000" stroke="none" stroke-width="0.5"/></g></g></svg>