<svg version="1.1" xmlns="http://www.w3.org/2000/svg" xmlns:xlink="http://www.w3.org/1999/xlink" width="61.80573" height="65.81574" viewBox="0,0,61.80573,65.81574"><g transform="translate(-209.09716,-147.09213)"><g data-paper-data="{&quot;isPaintingLayer&quot;:true}" fill-rule="nonzero" stroke-linecap="butt" stroke-linejoin="miter" stroke-miterlimit="10" stroke-dasharray="" stroke-dashoffset="0" style="mix-blend-mode: normal"><path d="M211.09717,210.90787v-61.81574h57.80573v61.81574z" fill="#32ff00" stroke="#000000" stroke-width="4"/><path d="M220.51872,180.27615c-1.61104,-0.47512 -2.68592,-2.16032 -3.48914,-3.63545c-0.41077,-0.7544 -0.01031,-1.72385 0.1077,-2.57469c0.08836,-0.63708 0.1683,-2.51333 0.31863,-4.53945c-0.95881,0 -1.78656,-0.09001 -2.01674,-0.38618l-3.09611,-4.62475c0.5399,-1.12232 0.69621,-2.55545 1.44038,-3.51128c0.13468,-0.17298 0.2886,-0.33033 0.46754,-0.46737c0.13,-0.09956 0.28972,-0.19382 0.47574,-0.28302c0.7611,-0.46825 1.65718,-0.73833 2.61633,-0.73833c0.01035,0 0.0207,0.00003 0.03104,0.00009c4.02158,-0.71464 10.31496,-0.77196 12.38885,-0.61414c3.15989,0.24047 7.34389,3.48825 5.88136,6.76548c-1.17099,2.62395 -4.32039,3.47297 -7.59477,3.69972c-0.04495,5.54762 -2.10926,12.50826 -7.53082,10.90936z" fill="#000000" stroke="none" stroke-width="0.5"/><path d="M213.41051,197.94211c0.78865,-1.3071 1.07541,-3.15743 2.17638,-4.12697c0.15955,-0.14051 0.33621,-0.26252 0.53397,-0.36169c3.38229,-1.69621 13.55956,-0.34481 14.17804,3.99635c0.96495,6.77305 -6.14227,5.76055 -9.87354,5.59106c-0.83634,-0.03799 -4.26676,0.04043 -4.75428,-0.9153z" fill="#000000" stroke="none" stroke-width="0.5"/></g></g></svg>