<svg version="1.1" xmlns="http://www.w3.org/2000/svg" xmlns:xlink="http://www.w3.org/1999/xlink" width="61.80573" height="65.81574" viewBox="0,0,61.80573,65.81574"><g transform="translate(-209.09718,-147.09213)"><g data-paper-data="{&quot;isPaintingLayer&quot;:true}" fill-rule="nonzero" stroke-linecap="butt" stroke-linejoin="miter" stroke-miterlimit="10" stroke-dasharray="" stroke-dashoffset="0" style="mix-blend-mode: normal"><path d="M211.09719,210.90787v-61.81574h57.80573v61.81574z" fill="#f5ff66" stroke="#000000" stroke-width="4"/><path d="M218.93603,180.13974c-1.57314,-1.18308 -0.97619,-2.67326 -0.65115,-3.25356c0.09783,-4.0378 -0.35036,-7.85038 0.84077,-11.75047c0,0 0.76382,-2.38046 3.14427,-1.61664c2.38046,0.76382 1.61664,3.14427 1.61664,3.14427c-1.20451,3.51218 -0.4747,7.42533 -0.62984,11.15692l-0.82002,1.82407c0,0 -1.50263,1.99803 -3.50066,0.49541z" fill="#000000" stroke="none" stroke-width="0.5"/><path d="M226.89704,180.69591c-2.23485,-1.12048 -1.11437,-3.35532 -1.11437,-3.35532l0.13646,-0.15091c1.05867,-4.04343 1.46261,-6.80247 1.20414,-11.03204c0,0 -0.15165,-2.4954 2.34375,-2.64705c2.4954,-0.15166 2.64705,2.34374 2.64705,2.34374c0.28362,4.69163 -0.18273,8.10457 -1.3577,12.60069l-0.50402,1.12653c0,0 -1.12047,2.23485 -3.35532,1.11437z" fill="#000000" stroke="none" stroke-width="0.5"/><path d="M235.40614,194.61784c0.36662,-0.40653 1.70533,-1.65206 3.40075,-0.37702c1.99803,1.50262 0.49541,3.50065 0.49541,3.50065l-1.35896,1.23181c-2.8284,1.16823 -6.26056,2.62631 -9.38214,2.6398c-1.8944,0.00818 -3.70972,-0.85655 -5.60117,-0.9624c-3.31742,-0.18565 -7.22328,0.36523 -10.29194,1.54921c0,0 -2.34161,0.87571 -3.21732,-1.46589c-0.87571,-2.34161 1.46589,-3.21732 1.46589,-3.21732c3.77299,-1.37671 8.28451,-2.07274 12.33786,-1.85731c1.78817,0.09504 3.49608,0.94237 5.28674,0.95376c2.21242,0.01408 4.76784,-1.10156 6.86489,-1.99529z" fill="#000000" stroke="none" stroke-width="0.5"/></g></g></svg>