<svg version="1.1" xmlns="http://www.w3.org/2000/svg" xmlns:xlink="http://www.w3.org/1999/xlink" width="97.61638" height="88.63115" viewBox="0,0,97.61638,88.63115"><g transform="translate(-173.28653,-147.09213)"><g data-paper-data="{&quot;isPaintingLayer&quot;:true}" fill-rule="nonzero" stroke-linecap="butt" stroke-linejoin="miter" stroke-miterlimit="10" stroke-dasharray="" stroke-dashoffset="0" style="mix-blend-mode: normal"><path d="M211.09719,210.90787v-61.81574h57.80573v61.81574z" fill="#00f6f7" stroke="#000000" stroke-width="4"/><path d="M218.22687,235.16347c-1.99804,1.5026 -3.50065,-0.49544 -3.50065,-0.49544l-1.31308,-2.3371c-0.87081,-8.35009 2.17125,-12.93232 7.26318,-19.36537c0,0 1.5517,-1.96016 3.51186,-0.40846c1.96016,1.5517 0.40846,3.51186 0.40846,3.51186c-4.28525,5.41263 -6.95711,8.76281 -6.21112,15.7371l0.33679,-0.14323c0,0 1.5026,1.99804 -0.49544,3.50065z" data-paper-data="{&quot;index&quot;:null}" fill="#000000" stroke="none" stroke-width="0.5"/><path d="M190.26315,226.75979c-1.82151,-1.71234 -0.10917,-3.53385 -0.10917,-3.53385l1.71036,-1.71674c0.69449,-2.72484 1.47219,-5.31406 2.25346,-7.98321c1.52832,-5.22142 1.51464,-9.60646 5.17381,-13.93882c0,0 1.62955,-1.89593 3.52548,-0.26638c1.89593,1.62955 0.26638,3.52548 0.26638,3.52548c-3.16327,3.59652 -2.8987,7.70197 -4.17572,12.11374c-0.86742,2.99671 -1.77342,6.00591 -2.6963,9.01955l-2.41445,2.67105c0,0 -1.71234,1.82151 -3.53385,0.10917z" data-paper-data="{&quot;index&quot;:null}" fill="#000000" stroke="none" stroke-width="0.5"/><path d="M180.42607,224.83303c-2.5,0 -2.5,-2.5 -2.5,-2.5l0.0046,-0.83718c0.53834,-8.61848 3.20345,-17.07288 7.80795,-24.35911c0,0 1.33758,-2.11208 3.44966,-0.77449c2.11208,1.33758 0.77449,3.44966 0.77449,3.44966c-4.15446,6.54475 -6.58499,14.22825 -7.0413,21.9871l0.0046,0.53403c0,0 0,2.5 -2.5,2.5z" data-paper-data="{&quot;index&quot;:null}" fill="#000000" stroke="none" stroke-width="0.5"/><path d="M203.99715,187.46502l-0.63198,-2.82178c0.51147,-7.28877 -8.85775,-9.30897 -14.46626,-10.75482c-0.91708,-0.2186 -1.82322,-0.48962 -2.75123,-0.65581c-1.67009,-0.29909 -3.3915,-0.32165 -5.03608,-0.73881c-0.67099,-0.1702 -1.16914,-0.76434 -1.81993,-1.00028c-0.78202,-0.28351 -1.19949,2.85352 -1.07059,3.1818c0.48041,1.22345 2.05716,1.63708 3.10593,2.42937c2.26992,1.71481 4.69566,1.08128 7.36777,2.61701c1.89051,1.08652 2.77084,3.38013 4.33827,4.89595c1.89902,1.83649 4.92703,2.10349 6.96026,3.79019c0.7643,0.63404 0.97172,1.75718 1.65723,2.47568c0.73796,0.77348 1.74977,1.46651 2.81986,2.0888c-0.00604,-1.42531 0.07619,-2.84926 0.26575,-4.25962c-0.55134,-0.54583 -0.739,-1.24766 -0.739,-1.24766zM197.97472,194.27297c-0.60491,-0.6108 -0.71051,-1.63222 -1.36769,-2.18639c-2.05479,-1.73273 -5.09327,-2.06073 -7.06402,-3.88848c-1.30598,-1.21122 -1.80832,-3.28176 -3.36139,-4.1539c-1.45029,-0.81443 -3.27907,-0.61916 -4.85615,-1.14777c-2.17885,-0.73031 -6.97235,-4.18052 -7.76903,-6.42079c-0.45855,-1.28946 -0.24907,-2.76245 0.0131,-4.10567c0.69985,-3.58576 1.71456,-5.56528 5.79104,-5.87598c1.11333,-0.08485 2.04322,0.93659 3.12978,1.19366c2.56135,0.606 5.05061,0.74176 7.61196,1.34775c5.46842,1.41828 13.32098,3.34607 16.82149,8.50057c0.41645,0.61322 0.72658,1.15041 0.95564,1.64471c2.53445,-1.08529 6.23389,0.40275 8.02424,1.6748c3.5408,2.51576 4.0629,7.38251 3.61976,11.66808c2.61721,-0.20196 5.25574,1.21852 7.26296,2.78263c1.07265,0.83585 2.56872,1.46093 3.01866,2.7442c0.45509,1.29795 -0.41768,2.71894 -0.62652,4.07841c0,0 -0.63785,2.41726 -3.05511,1.77941c-0.01482,-0.00391 -0.02952,-0.00789 -0.04411,-0.01193c-0.52935,0.1281 -0.96828,0.07946 -0.96828,0.07946l-0.96214,-0.1219c-1.11061,-0.00126 -3.69226,0.07236 -5.2863,-0.16326l-0.31675,1.09949c-1.12379,0.74006 -2.53077,1.5456 -4.04613,2.13142c1.00917,1.04649 0.44336,2.57002 0.44336,2.57002c-0.80815,2.11802 -2.09909,4.01936 -3.20238,5.99972c-2.28542,4.10225 -2.68171,10.36697 -3.87365,14.88411l0.08275,0.18483c0,0 0,2.5 -2.5,2.5c-2.5,0 -2.5,-2.5 -2.5,-2.5l0.08275,-1.46061c1.33977,-5.07666 1.90438,-11.442 4.37598,-16.10479c0.92989,-1.75428 2.17127,-3.366 2.84375,-5.23396c-1.35505,-0.03867 -2.67302,-0.43383 -3.84117,-1.36941c-1.09324,-0.87558 -0.5203,-2.75298 -0.82163,-4.12083c-0.24659,-1.11938 -0.46234,-2.25577 -0.63689,-3.40252c-2.62953,-1.35123 -4.75117,-2.34671 -6.97787,-4.5951zM214.02434,195.12403c0.68083,-2.48591 1.12994,-6.66277 -0.15646,-8.98122c-0.61405,-1.10669 -1.98261,-1.59238 -3.08682,-2.21087c-0.19754,-0.11065 -0.44391,-0.74444 -0.43931,-0.51807c0.0842,4.14226 -0.94053,8.4878 -0.7526,12.85883c0.18876,0.40392 0.27592,0.90407 0.11514,1.49698c0.03682,0.32547 0.08182,0.65097 0.13595,0.97642c0.15714,0.94474 0.66058,1.83079 0.69469,2.7879c0.01745,0.4895 -0.94868,1.08407 -0.54671,1.36395c0.76248,0.53088 2.80589,-0.45678 4.2576,-1.30066c-0.07412,-0.09632 -0.14182,-0.19846 -0.20228,-0.307c-0.92789,-1.66566 -0.77239,-3.41573 -0.02658,-4.90814c-0.14013,-0.66976 0.00737,-1.25812 0.00737,-1.25812zM223.07304,198.89094c-0.81343,-0.53294 -1.84487,-1.22524 -2.51513,-1.36158c-0.5177,-0.10531 -1.58135,0.25341 -2.10869,0.60994c0.40673,0.18812 0.68885,0.46483 0.88437,0.76414c1.13381,0.13387 2.59658,0.04453 3.73945,-0.01249z" data-paper-data="{&quot;index&quot;:null}" fill="#000000" stroke="none" stroke-width="0.5"/></g></g></svg>