<svg version="1.1" xmlns="http://www.w3.org/2000/svg" xmlns:xlink="http://www.w3.org/1999/xlink" width="44.60386" height="44.60386" viewBox="0,0,44.60386,44.60386"><g transform="translate(-217.24407,-161.33012)"><g data-paper-data="{&quot;isPaintingLayer&quot;:true}" fill-rule="nonzero" stroke-linecap="butt" stroke-linejoin="miter" stroke-miterlimit="10" stroke-dasharray="" stroke-dashoffset="0" style="mix-blend-mode: normal"><path d="M219.49407,183.63205c0,-11.07437 8.97755,-20.05193 20.05193,-20.05193c11.07437,0 20.05193,8.97755 20.05193,20.05193c0,11.07437 -8.97755,20.05193 -20.05193,20.05193c-11.07437,0 -20.05193,-8.97755 -20.05193,-20.05193z" fill="#66aaff" stroke="#000000" stroke-width="4.5"/><path d="M228.79822,176.74629c0,-1.38071 1.11929,-2.5 2.5,-2.5c1.38071,0 2.5,1.11929 2.5,2.5c0,1.38071 -1.11929,2.5 -2.5,2.5c-1.38071,0 -2.5,-1.11929 -2.5,-2.5z" fill="#000000" stroke="none" stroke-width="0.5"/><path d="M243.78042,176.89763c0,-1.38071 1.11929,-2.5 2.5,-2.5c1.38071,0 2.5,1.11929 2.5,2.5c0,1.38071 -1.11929,2.5 -2.5,2.5c-1.38071,0 -2.5,-1.11929 -2.5,-2.5z" fill="#000000" stroke="none" stroke-width="0.5"/><path d="M227.28487,189.60979c0.53004,-1.18549 1.43719,-1.98461 2.5649,-2.49917c3.16195,-1.44278 8.05791,-0.64851 11.23718,0.13849c1.67964,0.41578 4.21275,-0.32713 4.21275,2.66335c0,4.01996 -7.98544,1.63946 -10.28333,1.74332c-0.36801,0.01663 -5.6391,0.79094 -6.05278,0.31598z" fill="#000000" stroke="none" stroke-width="0.5"/></g></g></svg>