<svg version="1.1" xmlns="http://www.w3.org/2000/svg" xmlns:xlink="http://www.w3.org/1999/xlink" width="72.5067" height="57.51564" viewBox="0,0,72.5067,57.51564"><g transform="translate(-223.46195,-152.01818)"><g data-paper-data="{&quot;isPaintingLayer&quot;:true}" fill-rule="nonzero" stroke-linecap="butt" stroke-linejoin="miter" stroke-miterlimit="10" stroke-dasharray="" stroke-dashoffset="0" style="mix-blend-mode: normal"><path d="M225.71195,207.28381v-53.01563h29.45313v53.01564z" fill="#ff0000" stroke="#000000" stroke-width="4.5"/><path d="M231.68334,169.80318c0,-0.36839 0.07968,-0.71817 0.22275,-1.03304c-0.19057,-0.10395 -0.38113,-0.20789 -0.5717,-0.31184c0,0 -2.19474,-1.19713 -0.99761,-3.39187c1.19713,-2.19474 3.39187,-0.99761 3.39187,-0.99761c0.86524,0.47195 1.73048,0.9439 2.59572,1.41585l1.20272,-0.054c0,0 2.48471,0.27608 2.20863,2.76079c-0.27608,2.48471 -2.76079,2.20863 -2.76079,2.20863l-0.34931,-0.06034c-0.24556,1.12285 -1.24576,1.96343 -2.44228,1.96343c-1.38071,0 -2.5,-1.11929 -2.5,-2.5z" fill="#000000" stroke="none" stroke-width="0.5"/><path d="M250.36987,168.62331c0,1.38071 -1.11929,2.5 -2.5,2.5c-0.99039,0 -1.84627,-0.5759 -2.25103,-1.4111l-0.40653,0.20326c0,0 -2.23607,1.11803 -3.3541,-1.11803c-1.11803,-2.23607 1.11803,-3.3541 1.11803,-3.3541l0.9439,-0.47195c1.94941,-0.9245 4.15237,-1.40145 6.30948,-1.44381c0,0 2.5,0 2.5,2.5c0,2.14328 -1.83747,2.4491 -2.36183,2.49274c0.00138,0.03416 0.00208,0.06849 0.00208,0.10298z" fill="#000000" stroke="none" stroke-width="0.5"/><path d="M247.49785,181.81315c-0.44721,2.45967 -2.90689,2.01246 -2.90689,2.01246l-2.37302,-0.44173c-2.67822,0.01141 -5.35635,0.0101 -8.0346,0.0101c0,0 -2.5,0 -2.5,-2.5c0,-2.5 2.5,-2.5 2.5,-2.5c2.82792,0 5.65572,-0.00003 8.48363,0.0101l2.81842,0.50217c0,0 2.45967,0.44721 2.01246,2.90689z" fill="#000000" stroke="none" stroke-width="0.5"/><path d="M268.27186,181.24552c1.765,-0.05058 2.32781,1.80164 2.32781,1.80164c0.65115,2.14855 1.60747,4.20024 2.20034,6.36559c0.23686,0.86506 0.33651,1.76798 0.37906,2.66388c0.01708,0.35971 -0.48718,0.84116 -0.20216,1.06127c0.29171,0.22528 0.65465,-0.37066 1.01824,-0.43102c0.20059,-0.0333 5.03641,0.4378 4.55401,-1.27595c-0.63293,-2.24852 -1.54554,-4.55638 -2.22636,-6.83128c-0.40874,-1.36578 -1.93282,-2.80059 -1.29566,-4.07591c0.81325,-1.62778 3.07846,-1.95402 4.7104,-2.7589c2.94036,-1.45022 9.14547,-4.57193 12.16134,-3.05354c-1.28461,-1.35687 -1.98976,-3.00279 -3.25392,-4.41152c-0.32174,-0.35854 -0.59097,-1.00909 -1.07113,-0.97019c-1.23449,0.10003 -2.27199,1.01021 -3.4664,1.33786c-2.85215,0.78239 -6.34105,0.54427 -9.08111,1.69108c-0.79063,0.33091 -1.32977,1.10033 -2.08676,1.50228c-0.63155,0.33534 -4.25854,1.66721 -5.19712,1.96366c-0.33133,0.10465 -0.97324,-0.10935 -1.01545,0.23555c-0.08559,0.69941 0.58882,1.29123 0.74452,1.97844c0.26706,1.17872 0.51758,2.22221 0.80035,3.20707zM267.51764,190.43448l-1.01351,-0.71813c-2.10163,-3.622 -3.55377,-6.73013 -3.97981,-10.95309c-0.15624,-1.54866 -0.97708,-3.20591 -0.40184,-4.65223c1.24081,-3.11977 5.97608,-3.32847 8.46061,-4.66011c0.88766,-0.47576 1.5657,-1.31926 2.4986,-1.69874c3.04276,-1.2377 6.7632,-1.25983 9.94813,-1.96723c1.76724,-0.39252 3.44307,-1.57131 5.2458,-1.40587c2.86296,0.26274 6.99198,5.12236 7.52213,7.85478c0.35001,1.80396 0.04982,3.67487 0.07472,5.51231c-3.98791,1.19271 -7.75546,2.29352 -11.62587,3.7845c-0.92063,0.35465 -1.83268,0.78645 -2.80788,0.93586c-0.56883,0.08715 -1.19943,-0.51104 -1.70909,-0.24382c-0.39061,0.2048 0.99655,0.12047 1.22627,0.49697c0.50403,0.82607 0.52501,1.86284 0.7827,2.7956c0.9714,3.51619 3.31519,6.74812 0.30526,10.28298c-1.78039,2.09089 -10.06564,2.93016 -12.18596,1.24757c-1.1152,-0.88497 -1.17146,-2.60444 -1.57777,-3.9689c-0.26086,-0.876 -0.51285,-1.75743 -0.76251,-2.64245z" fill="#000000" stroke="none" stroke-width="0.5"/><path d="M267.42326,178.02533c-0.1557,-0.68721 -0.82807,-1.285 -0.74248,-1.98441c0.04221,-0.3449 0.68507,-0.13306 1.0164,-0.23772c0.93858,-0.29645 4.5782,-1.64495 5.20975,-1.98029c0.757,-0.40195 1.30707,-1.17853 2.09771,-1.50944c2.74006,-1.14681 6.27128,-0.90918 9.12342,-1.69157c1.19441,-0.32765 2.23975,-1.23339 3.47424,-1.33342c0.48016,-0.03891 0.75334,0.61469 1.07508,0.97323c1.26416,1.40873 1.98125,3.06965 3.26586,4.42652c-3.01587,-1.51839 -9.27143,1.67602 -12.21178,3.12623c-1.63193,0.80489 -3.84178,1.08995 -4.65503,2.71773c-0.63716,1.27532 0.87096,2.6644 1.2797,4.03018c0.68082,2.2749 1.55638,4.6699 2.18931,6.91842c0.4824,1.71375 -4.37074,1.23814 -4.57133,1.27144c-0.3636,0.06036 -0.729,0.65507 -1.02071,0.42979c-0.28502,-0.22011 0.21811,-0.70218 0.20103,-1.06189c-0.04254,-0.89589 -0.14874,-1.80324 -0.3856,-2.6683c-0.59288,-2.16535 -1.56698,-4.24606 -2.21813,-6.39461c0,0 -0.56383,-1.86233 -2.32883,-1.81175c-0.28278,-0.98486 -0.53154,-2.04142 -0.7986,-3.22013z" data-paper-data="{&quot;noHover&quot;:false,&quot;origItem&quot;:[&quot;Path&quot;,{&quot;applyMatrix&quot;:true,&quot;segments&quot;:[[[268.27186,181.24552],[-0.28278,-0.98486],[1.765,-0.05058]],[[270.59967,183.04716],[0,0],[0.65115,2.14855]],[[272.80001,189.41275],[-0.59288,-2.16535],[0.23686,0.86506]],[[273.17907,192.07663],[-0.04254,-0.89589],[0.01708,0.35971]],[[272.97691,193.13789],[-0.28502,-0.22011],[0.29171,0.22528]],[[273.99515,192.70687],[-0.3636,0.06036],[0.20059,-0.0333]],[[278.54916,191.43093],[0.4824,1.71375],[-0.63293,-2.24852]],[[276.3228,184.59965],[0.68082,2.2749],[-0.40874,-1.36578]],[[275.02714,180.52374],[-0.63716,1.27532],[0.81325,-1.62778]],[[279.73754,177.76484],[-1.63193,0.80489],[2.94036,-1.45022]],[[291.89888,174.7113],[-3.01587,-1.51839],[-1.28461,-1.35687]],[[288.64495,170.29977],[1.26416,1.40873],[-0.32174,-0.35854]],[[287.57382,169.32959],[0.48016,-0.03891],[-1.23449,0.10003]],[[284.10742,170.66745],[1.19441,-0.32765],[-2.85215,0.78239]],[[275.02631,172.35852],[2.74006,-1.14681],[-0.79063,0.33091]],[[272.93955,173.8608],[0.757,-0.40195],[-0.63155,0.33534]],[[267.74243,175.82446],[0.93858,-0.29645],[-0.33133,0.10465]],[[266.72698,176.06001],[0.04221,-0.3449],[-0.08559,0.69941]],[[267.4715,178.03845],[-0.1557,-0.68721],[0.26706,1.17872]]],&quot;closed&quot;:true}]}" fill="#0090ff" stroke="none" stroke-width="0.5"/></g></g></svg>