<svg version="1.1" xmlns="http://www.w3.org/2000/svg" xmlns:xlink="http://www.w3.org/1999/xlink" width="529" height="415.5" viewBox="0,0,529,415.5"><g transform="translate(3.5,25.5)"><g data-paper-data="{&quot;isPaintingLayer&quot;:true}" fill-rule="nonzero" stroke-linejoin="miter" stroke-miterlimit="10" stroke-dasharray="" stroke-dashoffset="0" style="mix-blend-mode: normal"><path d="M363.5,389v-161h161v161z" fill="#9f6c00" stroke="#000000" stroke-width="2" stroke-linecap="butt"/><path d="M513.5,227l-52,72l-96,-74" fill="none" stroke="#000000" stroke-width="2" stroke-linecap="round"/><path d="M364.5,386.5l96,-88l54,85" fill="none" stroke="#000000" stroke-width="2" stroke-linecap="round"/><path d="M-2.5,251.5v-276h136.21176v276z" fill="#a7a7a7" stroke="#000000" stroke-width="2" stroke-linecap="butt"/><path d="M260.5,257.5v-276h136.21177l4,229c0,0 -10.6993,-3.41352 -20.27953,-0.20215c-6.82766,2.28868 -24.95381,23.28985 -38.10037,26.2171c-38.29762,8.52745 -81.83187,20.98505 -81.83187,20.98505z" fill="#a7a7a7" stroke="#000000" stroke-width="2" stroke-linecap="butt"/><text transform="translate(369.05219,335.59667) rotate(0.65032) scale(0.5,0.5)" font-size="40" xml:space="preserve" fill="#66c0ff" fill-rule="nonzero" stroke="none" stroke-width="1" stroke-linecap="butt" stroke-linejoin="miter" stroke-miterlimit="10" stroke-dasharray="" stroke-dashoffset="0" font-family="Pixel" font-weight="normal" text-anchor="start" style="mix-blend-mode: normal"><tspan x="0" dy="0">EVENTS</tspan><tspan x="0" dy="46.150000000000006px">closed</tspan></text><path d="M506.6441,69.16397c0,-1.38071 1.11929,-2.5 2.5,-2.5c1.38071,0 2.5,1.11929 2.5,2.5c0,1.38071 -1.11929,2.5 -2.5,2.5c-1.38071,0 -2.5,-1.11929 -2.5,-2.5z" fill="#000000" stroke="none" stroke-width="0.5" stroke-linecap="butt"/></g></g></svg>