<svg version="1.1" xmlns="http://www.w3.org/2000/svg" xmlns:xlink="http://www.w3.org/1999/xlink" width="46" height="68.90909" viewBox="0,0,46,68.90909"><g transform="translate(-217,-145.54545)"><g data-paper-data="{&quot;isPaintingLayer&quot;:true}" fill-rule="nonzero" stroke-linecap="butt" stroke-linejoin="miter" stroke-miterlimit="10" stroke-dasharray="" stroke-dashoffset="0" style="mix-blend-mode: normal"><path d="M219,212.45455v-64.90909h42v64.90909z" fill="#000000" stroke="#000000" stroke-width="4"/><path d="M226.15909,163.45454c0,-2.6359 2.13683,-4.77273 4.77273,-4.77273c2.6359,0 4.77273,2.13683 4.77273,4.77273c0,2.6359 -2.13683,4.77273 -4.77273,4.77273c-2.6359,0 -4.77273,-2.13683 -4.77273,-4.77273z" fill="#000000" stroke="none" stroke-width="0.5"/><path d="M223.25,162.25c0,-2.76142 2.23858,-5 5,-5c2.76142,0 5,2.23858 5,5c0,2.76142 -2.23858,5 -5,5c-2.76142,0 -5,-2.23858 -5,-5z" fill="#ffffff" stroke="none" stroke-width="0.5"/><path d="M251.1529,180.26942c0.98058,4.9029 -3.92232,5.88348 -3.92232,5.88348l-1.6776,0.26071c-6.32028,3.97472 -14.21454,6.05644 -21.48099,7.26836c0,0 -4.93197,0.82199 -5.75396,-4.10997c-0.82199,-4.93197 4.10997,-5.75396 4.10997,-5.75396c6.78544,-1.13015 13.50861,-3.25423 19.51901,-6.73164l3.3224,-0.73929c0,0 4.9029,-0.98058 5.88348,3.92232z" fill="#ffffff" stroke="none" stroke-width="0.5"/></g></g></svg>