<svg version="1.1" xmlns="http://www.w3.org/2000/svg" xmlns:xlink="http://www.w3.org/1999/xlink" width="64.33256" height="217.31921" viewBox="0,0,64.33256,217.31921"><g transform="translate(-204.13959,-122.84703)"><g data-paper-data="{&quot;isPaintingLayer&quot;:true}" fill-rule="nonzero" stroke="none" stroke-linecap="butt" stroke-linejoin="miter" stroke-miterlimit="10" stroke-dasharray="" stroke-dashoffset="0" style="mix-blend-mode: normal"><path d="M237.42865,168.71219c1.21133,-3.05319 4.95434,-5.22169 5.79567,-8.34902c0.35557,-1.32167 1.20948,-1.73839 1.99949,-2.71134c1.03906,-1.27966 1.27044,-3.07864 2.33285,-4.34619c1.17844,-1.40599 2.81294,-1.93903 4.38222,-2.73781c0.73388,-0.37355 1.43378,-0.96611 2.3295,-0.40843c0.39452,0.24563 3.01332,7.52533 3.17885,8.7827c0.1888,1.43409 -1.2097,2.38849 -1.75415,3.59571c-1.32405,2.93587 -2.22883,6.11219 -3.78969,8.89246c-0.61302,1.09193 -1.68322,2.15318 -2.00573,3.33673c-0.91407,3.35441 -2.34012,6.27019 -3.517,9.46418c-0.18765,0.50928 -0.36804,1.15785 -0.66981,1.67438c2.64833,0.71534 7.9891,1.81795 7.68447,4.77393c-0.75533,7.32935 -7.12986,4.68444 -11.5709,2.84473c-0.04946,-0.02049 -0.10237,-0.04042 -0.15838,-0.05992l-0.1472,0.39088l-0.02498,0.01068l-0.3507,0.48088l-0.12778,0.17841l-0.04301,0.09436l-0.01508,0.13538l-0.01225,0.03295l0.00336,0.03499l-0.14005,0.93111l-0.04106,0.09869l-0.00235,0.10687l-0.28009,1.02422l-0.0344,0.06122l-0.00693,0.06988l-0.23342,0.65178l-0.01912,0.02863l-0.00468,0.03411l-0.18673,0.46555l-0.02031,0.02807l-0.00601,0.03412l-0.34605,0.77647l-0.44412,1.24015l-0.12237,0.18321l-0.07436,0.20739l-0.44992,0.67305l-0.59342,1.53868l-0.16692,0.63256l-0.03422,0.44355l-0.02405,0.0721l0.00643,0.07573l-0.23341,1.44323l-0.0257,0.05989l0.00087,0.06516l-0.16374,0.69399l-0.10702,0.8894l0.03313,0.42938l-0.02288,0.13494l0.04059,0.07577l-0.11149,0.34232l-0.06019,0.35495l-0.07113,0.04826l-0.04239,0.13014l-0.23342,0.37245l-0.66373,0.63843l-0.07374,-0.003l-0.04279,0.06012l-0.9112,0.13358l-0.46682,-0.04656l-0.05616,-0.02014l-0.05947,0.00478l-0.84029,-0.13967l-0.05513,-0.02394l-0.0601,0.00087l-0.7936,-0.18622l-0.09027,-0.04648l-0.10105,-0.00985l-0.57505,-0.20481l-2.30003,-0.58468l-0.13395,-0.07212l-0.14988,-0.02607l-0.42015,-0.18622l-0.01263,-0.00985l-0.01573,-0.00302l-2.61536,-1.21418l-0.33695,-0.11202l-0.94209,-0.16339l-0.08808,-0.03898l-0.09627,-0.00314l-0.32678,-0.09312l-0.03439,-0.01981l-0.03957,-0.00301l-0.28009,-0.0931l-0.41777,-0.26537l-0.1371,-0.019l-0.0912,-0.12602l-0.13131,-0.0834l-0.02726,-0.1357l-0.29016,-0.40095l-0.09337,-0.23278l-0.08229,-0.59912l-0.05961,-0.10656l0.03103,-0.10153l-0.01445,-0.10518l0.07584,-0.09569l0.17676,-0.57833l0.07162,-0.11904l0.50933,-1.2275l0.1425,-0.19208l0.09646,-0.21885l0.84649,-1.09041l0.20443,-1.18924l0.09181,-0.20825l0.0405,-0.22395l0.39653,-0.8788l0.07562,-0.20112l0.34199,-1.53476l0.07789,-0.38837l-0.00895,-0.02409l0.20945,-0.43239l0.2059,-0.43409l0.02438,-0.00811l0.35039,-0.41933l0.15231,-0.24303c0.13754,-0.22762 0.32443,-0.42208 0.54584,-0.56856l0.52622,-1.3274l0.16565,-0.46256l0.06728,-0.43619l0.00787,-0.01871l-0.00142,-0.02024l0.2801,-1.58289l0.00905,-0.02026c-1.48083,-0.5392 -2.93066,-1.09362 -3.64164,-1.25792c-0.67609,-0.15625 -1.56259,-0.29421 -1.94045,-0.94813c-1.3757,-2.3808 1.13214,-7.11282 2.81847,-8.6751c1.19373,-1.10591 3.42991,0.20205 4.74124,0.62033c0.11714,0.03736 0.23413,0.0751 0.35097,0.11319c1.41146,-3.7242 5.33432,-8.44092 6.58552,-11.59462zM243.66299,180.56948c2.89841,-5.35281 4.64388,-11.05553 7.68975,-16.39693c0.98509,-1.72751 1.09695,-3.63817 2.36005,-5.23952c0.14453,-0.18323 -1.13903,-2.19788 -1.20473,-2.39838c-0.1726,-0.52674 -0.21746,-1.10427 -0.31726,-1.65035c-0.03918,-0.2144 0.08171,-0.73471 -0.11622,-0.64345c-2.1611,0.9963 -2.45734,3.42036 -3.73109,5.21004c-2.95021,4.14521 -9.11406,11.86476 -10.81736,16.28268c-0.38489,0.9983 -1.68925,3.79045 -3.02641,5.87851c2.73113,1.04482 5.42443,2.19733 8.18159,3.24429c-0.07053,-1.47649 0.5143,-3.42372 0.98168,-4.28689zM246.58563,191.58391c0.40583,0.15095 2.3408,0.97008 2.54507,0.21249c0.0587,-0.2177 0.34469,-0.49603 0.1815,-0.65163c-1.31711,-1.25586 -4.31879,-1.60349 -5.6985,-2.14173c-3.35646,-1.30937 -11.96085,-5.23992 -15.73164,-5.96518c-0.18806,-0.03617 -1.6936,2.61665 -1.61894,2.84863c0.07153,0.22227 1.47412,0.24144 1.85018,0.34594c0.55175,0.15331 3.51838,1.3018 4.78195,1.95433l0.4795,0.16736l0.12857,0.08438l0.14858,0.03968l0.32124,0.17798l0.1828,0.07292l0.08999,0.01496l0.05992,0.02602l0.06533,-0.00057l1.30439,0.314l0.97701,0.17715l0.1537,0.06944l0.16743,0.02041l0.35538,0.13631c1.45077,-1.82358 7.78257,1.54883 9.25656,2.09711zM228.76605,199.99411l-0.32644,0.72345l-0.22904,1.33241l0.00941,0.02279l-0.02185,0.04957l-0.00002,0.00013l-0.1748,0.3965l-0.17477,0.39651l-0.00008,0.0001l-0.02185,0.04957l-0.02317,0.00843l-0.65667,0.8459l0.36751,0.12218l0.08723,0.05541l0.10149,0.01948l2.69346,1.25044l0.26814,0.11885l2.23475,0.56809l0.07477,0.04026l0.08452,0.00824l0.55948,0.19927l0.11279,0.02647l0.03516,-0.29223l0.0363,-0.09508l-0.00135,-0.10177l0.17208,-0.72936l0.21133,-1.30671l0.04096,-0.53094l0.05172,-0.15503l0.00213,-0.16342l0.23341,-0.88455l0.04826,-0.08772l0.01229,-0.09936l0.70024,-1.81566l0.1145,-0.16275l0.06716,-0.18731l0.43774,-0.65483l0.39254,-1.09613l0.0382,-0.0572l0.01193,-0.06774l0.35972,-0.80715l0.16166,-0.40306l0.19891,-0.55543l0.23419,-0.85636l0.1193,-0.79317l0.04289,-0.38495l0.09857,-0.26513l0.05139,-0.27815l0.04164,-0.09136l-0.36064,-0.05395l-0.18102,-0.07514l-0.19455,-0.02371l-1.05739,-0.40558l-0.86223,-0.15634l-0.0474,-0.02141l-0.05201,0.00045l-1.29163,-0.31093l-0.21702,-0.03607l-0.17743,-0.07705l-0.19169,-0.02596l-0.46683,-0.18622l-0.09307,-0.06709l-0.11085,-0.0296l-0.28686,-0.15894l-0.01323,-0.00462c-0.0384,-0.00499 -0.07641,-0.01119 -0.114,-0.01858l-0.17802,1.00604l-0.09035,0.58571l-0.06673,0.15871l-0.017,0.17133l-0.23342,0.65178l-0.01708,0.02558l-0.00406,0.03049l-0.79361,2.00188l-0.1637,0.22813l-0.12132,0.25322l-0.64832,0.78267l-0.06372,0.22243l-0.13283,0.66233l0.1165,0.32759l-0.41297,0.82316l-0.2801,0.32588l-0.04388,0.03105z" fill="#000000" stroke-width="0.5"/><path d="M242.67666,184.90616c-2.75716,-1.04696 -5.47696,-2.21014 -8.20809,-3.25496c1.33715,-2.08806 2.63624,-4.88507 3.02113,-5.88338c1.7033,-4.41792 7.92291,-12.21782 10.87313,-16.36303c1.27374,-1.78968 1.57374,-4.21198 3.73483,-5.20828c0.19793,-0.09125 0.07809,0.42961 0.11727,0.64402c0.0998,0.54608 0.14765,1.12539 0.32024,1.65213c0.0657,0.20051 1.35569,2.22009 1.21116,2.40332c-1.2631,1.60135 -1.36834,3.51929 -2.35344,5.24681c-3.04587,5.3414 -4.83354,11.12386 -7.73194,16.47667c-0.46739,0.86317 -1.05483,2.81022 -0.9843,4.28672z" data-paper-data="{&quot;noHover&quot;:false,&quot;origItem&quot;:[&quot;Path&quot;,{&quot;applyMatrix&quot;:true,&quot;segments&quot;:[[[243.66298,180.56947],[-0.46739,0.86317],[2.89841,-5.35281]],[[251.35273,164.17255],[-3.04587,5.3414],[0.98509,-1.72751]],[[253.71278,158.93303],[-1.2631,1.60135],[0.14453,-0.18323]],[[252.50805,156.53464],[0.0657,0.20051],[-0.1726,-0.52674]],[[252.19079,154.8843],[0.0998,0.54608],[-0.03918,-0.2144]],[[252.07457,154.24084],[0.19793,-0.09125],[-2.1611,0.9963]],[[248.34348,159.45088],[1.27374,-1.78968],[-2.95021,4.14521]],[[237.52612,175.73356],[1.7033,-4.41792],[-0.38489,0.9983]],[[234.49971,181.61207],[1.33715,-2.08806],[2.73113,1.04482]],[[242.6813,184.85636],[-2.75716,-1.04696],[-0.07053,-1.47649]]],&quot;closed&quot;:true}]}" fill="#cecece" stroke-width="0.5"/><path d="M237.31684,189.53528l-0.36449,-0.13957l-0.17094,-0.02224l-0.15718,-0.07163l-0.98953,-0.18951l-1.31079,-0.32645l-0.06542,0.0003l-0.06011,-0.02658l-0.09016,-0.01548l-0.18325,-0.07442l-0.32197,-0.18093l-0.14874,-0.04046l-0.12879,-0.08556l-0.47987,-0.16984c-1.26357,-0.65253 -4.23011,-1.81404 -4.78186,-1.96736c-0.37606,-0.10449 -1.77859,-0.12404 -1.85012,-0.34631c-0.07466,-0.23198 1.43487,-2.89835 1.62294,-2.86217c3.77079,0.72526 12.4692,4.68854 15.82567,5.99791c1.37971,0.53823 4.38059,0.88874 5.6977,2.1446c0.16319,0.1556 -0.1237,0.43657 -0.1824,0.65428c-0.20427,0.75759 -2.14061,-0.05823 -2.54644,-0.20919c-1.47399,-0.54828 -7.86349,-3.89298 -9.31426,-2.0694z" data-paper-data="{&quot;noHover&quot;:false,&quot;origItem&quot;:[&quot;Path&quot;,{&quot;applyMatrix&quot;:true,&quot;segments&quot;:[[[246.58562,191.5839],[-1.47399,-0.54828],[0.40583,0.15095]],[[249.13068,191.79639],[-0.20427,0.75759],[0.0587,-0.2177]],[[249.31218,191.14476],[0.16319,0.1556],[-1.31711,-1.25586]],[[243.61368,189.00303],[1.37971,0.53823],[-3.35646,-1.30937]],[[227.88205,183.03785],[3.77079,0.72526],[-0.18806,-0.03617]],[[226.26311,185.88648],[-0.07466,-0.23198],[0.07153,0.22227]],[[228.11328,186.23241],[-0.37606,-0.10449],[0.55175,0.15331]],[[232.89523,188.18674],[-1.26357,-0.65253],[0,0]],[233.37473,188.3541],[233.5033,188.43848],[233.65187,188.47816],[233.97311,188.65615],[234.15591,188.72907],[234.2459,188.74402],[234.30582,188.77004],[234.37115,188.76947],[235.67554,189.08347],[236.65255,189.26062],[236.80625,189.33007],[236.97368,189.35047],[[237.32906,189.48679],[0,0],[1.45077,-1.82358]]],&quot;closed&quot;:true}]}" fill="#8e5715" stroke-width="0.5"/><path d="M228.72713,199.95617l0.04381,-0.03129l0.27928,-0.32938l0.41214,-0.83584l-0.11589,-0.33282l0.13583,-0.67288l0.06524,-0.22579l0.65791,-0.79596l0.12441,-0.25604l0.16702,-0.23069l0.81114,-2.00972l0.00417,-0.03051l0.01731,-0.02563l0.23677,-0.65241l0.01738,-0.17138l0.0675,-0.15882l0.09165,-0.58586l0.17994,-1.0062c0.03759,0.00738 0.07637,0.01355 0.11477,0.01853l0.01332,0.00461l0.28882,0.15888l0.11163,0.0296l0.09374,0.0671l0.47026,0.18641l0.19309,0.0261l0.17878,0.07723l0.21862,0.03633l1.301,0.31358l0.05233,-0.00033l0.04775,0.02156l0.86769,0.15896l1.06377,0.40981l0.19544,0.02442l0.18198,0.07595l0.36213,0.05528l-0.04149,0.09151l-0.05064,0.27887l-0.09799,0.2657l-0.04165,0.38624l-0.11668,0.79626l-0.23141,0.86029l-0.1971,0.55851l-0.16035,0.40568l-0.3572,0.81373l-0.01171,0.06846l-0.03805,0.05773l-0.39073,1.10975l-0.43891,0.66531l-0.06794,0.19039l-0.11544,0.16568l-0.71692,1.83857l-0.01306,0.09994l-0.04926,0.08843l-0.24037,0.88863l-0.00286,0.16377l-0.05283,0.15553l-0.04323,0.53185l-0.21634,1.3083l-0.17454,0.72993l0.00122,0.1018l-0.03668,0.09516l-0.03577,0.29235l-0.1135,-0.02634l-0.5631,-0.19879l-0.08511,-0.00819l-0.07528,-0.04022l-2.25131,-0.56967l-0.27023,-0.11946l-2.71234,-1.2614l-0.10195,-0.01991l-0.08775,-0.05591l-0.36921,-0.12392l0.65573,-0.84695l0.02322,-0.00837l0.02173,-0.04971l0.00008,-0.0001l0.17372,-0.39775l0.17364,-0.39796l0.00002,-0.00013l0.0217,-0.04977l-0.00955,-0.02298l0.22357,-1.34174l0.32403,-0.73z" data-paper-data="{&quot;noHover&quot;:false,&quot;origItem&quot;:[&quot;Path&quot;,{&quot;applyMatrix&quot;:true,&quot;segments&quot;:[[228.76604,199.9941],[228.4396,200.71755],[228.21056,202.04996],[228.21997,202.07275],[228.19812,202.12232],[228.1981,202.12245],[228.0233,202.51895],[227.84854,202.91546],[227.84846,202.91556],[227.8266,202.96513],[227.80343,202.97356],[227.14676,203.81946],[227.51427,203.94164],[227.6015,203.99706],[227.70298,204.01654],[230.39645,205.26697],[230.66458,205.38582],[232.89933,205.95391],[232.97411,205.99417],[233.05863,206.00241],[233.61811,206.20167],[233.7309,206.22814],[233.76606,205.93591],[233.80237,205.84082],[233.80101,205.73906],[233.9731,205.0097],[234.18443,203.70298],[234.22539,203.17205],[234.27711,203.01701],[234.27923,202.85359],[234.51264,201.96904],[234.5609,201.88132],[234.5732,201.78197],[235.27344,199.9663],[235.38793,199.80355],[235.4551,199.61624],[235.89283,198.96141],[236.28538,197.86528],[236.32358,197.80808],[236.33551,197.74033],[236.69523,196.93318],[236.85689,196.53012],[237.0558,195.97469],[237.28999,195.11833],[237.40929,194.32516],[237.45217,193.94021],[237.55074,193.67508],[237.60213,193.39693],[237.64378,193.30556],[237.28314,193.25162],[237.10212,193.17647],[236.90756,193.15276],[235.85017,192.74718],[234.98794,192.59084],[234.94054,192.56943],[234.88854,192.56988],[233.59691,192.25895],[233.37989,192.22289],[233.20246,192.14584],[233.01077,192.11988],[232.54394,191.93366],[232.45087,191.86657],[232.34002,191.83697],[232.05316,191.67804],[[232.03993,191.67342],[0,0],[-0.0384,-0.00499]],[[231.92593,191.65484],[0.03759,0.00738],[0,0]],[231.74791,192.66088],[231.65756,193.24659],[231.59082,193.4053],[231.57382,193.57663],[231.34041,194.22841],[231.32332,194.25399],[231.31926,194.28447],[230.52565,196.28636],[230.36196,196.51449],[230.24063,196.76771],[229.59231,197.55039],[229.52859,197.77282],[229.39576,198.43515],[229.51226,198.76274],[229.09928,199.5859],[228.81919,199.91178],[228.77531,199.94283]],&quot;closed&quot;:true}]}" fill="#8e5715" stroke-width="0.5"/><text transform="translate(231.65965,144.31579) scale(0.5,0.5)" font-size="40" xml:space="preserve" fill="#000000" fill-rule="nonzero" stroke="none" stroke-width="1" stroke-linecap="butt" stroke-linejoin="miter" stroke-miterlimit="10" stroke-dasharray="" stroke-dashoffset="0" font-family="Sans Serif" font-weight="normal" text-anchor="start" style="mix-blend-mode: normal"><tspan x="0" dy="0">ATK</tspan></text><text transform="translate(210.01195,229.4319) scale(0.5,0.5)" font-size="40" xml:space="preserve" fill="#000000" fill-rule="nonzero" stroke="none" stroke-width="1" stroke-linecap="butt" stroke-linejoin="miter" stroke-miterlimit="10" stroke-dasharray="" stroke-dashoffset="0" font-family="Sans Serif" font-weight="normal" text-anchor="start" style="mix-blend-mode: normal"><tspan x="0" dy="0">DEF</tspan></text><path d="M230.11553,284.22707c-2.20734,0 -2.46574,-1.94895 -2.49599,-2.40524c-1.09872,-2.57644 -3.24051,-4.02127 -4.73524,-6.483c-1.41465,-2.32985 -2.29242,-4.86866 -4.08374,-6.97963c-1.98261,-2.3364 -4.872,-4.49719 -7.22508,-6.43261c-1.82262,-1.49912 -4.80294,-1.48826 -6.22574,-3.37107c-0.80294,-1.06254 -0.27049,-2.65043 -0.45375,-3.96957c-0.42997,-3.09503 -0.15236,-5.76502 -0.262,-8.86716c-0.0527,-1.49102 -0.8929,-3.11804 -0.25849,-4.46839c0.57963,-1.23374 2.27655,-1.49989 3.41483,-2.24983c0.57816,-0.31917 3.47646,-1.83028 3.99561,-2.44202c0.66805,-0.78721 0.76464,-1.99629 1.52261,-2.69734c1.03775,-0.95983 2.31975,-1.71814 3.67731,-2.11213c1.08605,-0.31519 2.26124,0.04958 3.39206,0.06047c4.03465,0.03886 8.0182,0.08459 12.04712,0.26139c2.08251,0.09139 4.22763,-0.80399 6.24696,-0.28678c1.67251,0.42838 2.8124,2.17377 4.48987,2.58229c0.94123,0.22922 5.8118,0.91556 6.2723,1.27387c3.56607,2.77475 1.84737,3.86317 2.23312,7.21462c0.23861,2.07312 1.25697,4.05983 1.19313,6.14566c-0.05129,1.67591 -0.56208,3.39598 -0.17371,5.02707c0.51748,3.18357 1.28463,5.09058 -0.57692,8.34473c-0.47344,0.82761 -1.78113,0.78771 -2.46343,1.45371c-1.26932,1.23899 -1.48091,3.31365 -2.74335,4.55965c-1.41095,1.39259 -3.61872,1.67742 -5.22833,2.83467c-1.07456,0.77257 -2.06425,3.76758 -2.67412,4.50053c-1.10409,1.32691 -4.76673,4.22645 -6.77279,4.20878c0.07499,0.16195 0.14737,0.3279 0.21692,0.49828l0.17082,1.29906c0,0 0,2.5 -2.5,2.5zM216.94848,259.8259c1.83418,-1.48703 3.42059,0.32108 3.42059,0.32108c1.01386,1.18246 2.20606,2.23283 3.04158,3.54737c0.42721,0.67214 0.19415,1.65504 0.67064,2.29319c1.1873,1.59013 3.16122,2.45178 4.42861,3.97884c0.04195,0.05055 3.06582,5.00719 3.74986,4.96237c2.76398,-0.18108 4.61685,-6.28636 6.41294,-7.70685c1.37675,-1.08884 3.46703,-1.12608 4.69924,-2.37614c1.24505,-1.26309 1.49929,-3.2947 2.7429,-4.5592c0.50703,-0.51555 1.53995,-0.3157 1.97781,-0.89116c0.60853,-0.79976 -0.21361,-3.88747 -0.31561,-4.42177c-0.38962,-2.02171 -0.02545,-4.12031 0.08752,-6.17611c0.09955,-1.81152 -0.95481,-3.5153 -1.15811,-5.31813c-0.13932,-1.23548 1.01682,-3.22056 -0.1182,-3.72805c-1.44002,-0.64386 -3.17888,-0.13286 -4.70016,-0.5499c-1.10298,-0.30237 -2.2313,-0.60275 -3.22712,-1.16518c-0.59321,-0.33504 -0.76976,-1.28344 -1.42686,-1.46335c-1.61114,-0.44112 -3.31767,0.56059 -4.9868,0.49484c-4.34014,-0.17098 -9.8121,-1.15918 -14.08226,-0.45975c-1.82974,0.2997 -1.58198,2.10562 -2.6376,3.26731c-1.2665,1.39375 -3.75714,2.63211 -5.4094,3.55035c-0.42923,0.03168 -1.17681,-0.32084 -1.2877,0.09504c-0.16749,0.62812 0.68672,1.1422 0.78652,1.78456c0.30561,1.96713 -0.34625,3.97813 -0.25477,5.96675c0.04486,0.97514 0.50158,1.90675 0.51528,2.88282c0.00734,0.52289 -0.80911,1.11813 -0.45375,1.50179c0.47414,0.51189 1.44127,-0.03346 2.07802,0.25182c1.16361,0.52133 2.19305,1.31566 3.19127,2.10896c0.72198,0.57376 1.48434,1.17905 2.25556,1.8085z" fill="#000000" stroke-width="0.5"/><path d="M214.64364,258.02585c-0.99822,-0.7933 -2.02837,-1.59529 -3.19198,-2.11662c-0.63676,-0.28528 -1.60389,0.25933 -2.07803,-0.25256c-0.35536,-0.38366 0.46124,-0.9829 0.45391,-1.50579c-0.0137,-0.97607 -0.46933,-1.91481 -0.51419,-2.88995c-0.09148,-1.98863 0.56525,-4.01247 0.25964,-5.9796c-0.0998,-0.64236 -0.95271,-1.15866 -0.78523,-1.78678c0.11089,-0.41587 0.85939,-0.0648 1.28862,-0.09647c1.65226,-0.91824 4.15273,-2.16752 5.41923,-3.56127c1.05563,-1.16169 0.81575,-2.97295 2.64549,-3.27265c4.27017,-0.69943 9.77581,0.28361 14.11596,0.45458c1.66914,0.06576 3.38663,-0.93242 4.99777,-0.49131c0.6571,0.17991 0.83783,1.13045 1.43104,1.46549c0.99582,0.56243 2.13074,0.86734 3.23372,1.16971c1.52128,0.41704 3.26616,-0.08818 4.70618,0.55568c1.13502,0.50749 -0.0171,2.4978 0.12222,3.73327c0.2033,1.80283 1.26325,3.51773 1.1637,5.32925c-0.11298,2.05581 -0.4743,4.16938 -0.08468,6.19109c0.102,0.5343 0.92327,3.63318 0.31474,4.43294c-0.43786,0.57546 -1.47154,0.37896 -1.97858,0.89452c-1.24361,1.2645 -1.50372,3.30972 -2.74876,4.57281c-1.23221,1.25006 -3.33208,1.29858 -4.70882,2.38742c-1.79609,1.42048 -3.67243,7.53722 -6.43641,7.71829c-0.68405,0.04481 -3.71751,-4.91093 -3.75946,-4.96148c-1.26738,-1.52707 -3.261,-2.39284 -4.4483,-3.98296c-0.47649,-0.63815 -0.25051,-1.62482 -0.67771,-2.29696c-0.83551,-1.31455 -2.04459,-2.38295 -3.05845,-3.56541c0,0 -1.58964,-1.81526 -3.42382,-0.32822c-0.77121,-0.62945 -1.53582,-1.24324 -2.2578,-1.817z" data-paper-data="{&quot;noHover&quot;:false,&quot;origItem&quot;:[&quot;Path&quot;,{&quot;applyMatrix&quot;:true,&quot;segments&quot;:[[[216.94847,259.8259],[-0.77121,-0.62945],[1.83418,-1.48703]],[[220.36907,260.14698],[0,0],[1.01386,1.18246]],[[223.41065,263.69435],[-0.83551,-1.31455],[0.42721,0.67214]],[[224.08128,265.98755],[-0.47649,-0.63815],[1.1873,1.59013]],[[228.50989,269.96639],[-1.26738,-1.52707],[0.04195,0.05055]],[[232.25975,274.92876],[-0.68405,0.04481],[2.76398,-0.18108]],[[238.67269,267.22191],[-1.79609,1.42048],[1.37675,-1.08884]],[[243.37193,264.84577],[-1.23221,1.25006],[1.24505,-1.26309]],[[246.11483,260.28657],[-1.24361,1.2645],[0.50703,-0.51555]],[[248.09264,259.3954],[-0.43786,0.57546],[0.60853,-0.79976]],[[247.77703,254.97364],[0.102,0.5343],[-0.38962,-2.02171]],[[247.86455,248.79752],[-0.11298,2.05581],[0.09955,-1.81152]],[[246.70645,243.4794],[0.2033,1.80283],[-0.13932,-1.23548]],[[246.58825,239.75135],[1.13502,0.50749],[-1.44002,-0.64386]],[[241.88809,239.20145],[1.52128,0.41704],[-1.10298,-0.30237]],[[238.66098,238.03627],[0.99582,0.56243],[-0.59321,-0.33504]],[[237.23412,236.57292],[0.6571,0.17991],[-1.61114,-0.44112]],[[232.24732,237.06776],[1.66914,0.06576],[-4.34014,-0.17098]],[[218.16505,236.60801],[4.27017,-0.69943],[-1.82974,0.2997]],[[215.52745,239.87532],[1.05563,-1.16169],[-1.2665,1.39375]],[[210.11805,243.42567],[1.65226,-0.91824],[-0.42923,0.03168]],[[208.83035,243.5207],[0.11089,-0.41587],[-0.16749,0.62812]],[[209.61686,245.30526],[-0.0998,-0.64236],[0.30561,1.96713]],[[209.36209,251.27201],[-0.09148,-1.98863],[0.04486,0.97514]],[[209.87737,254.15484],[-0.0137,-0.97607],[0.00734,0.52289]],[[209.42362,255.65662],[-0.35536,-0.38366],[0.47414,0.51189]],[[211.50165,255.90845],[-0.63676,-0.28528],[1.16361,0.52133]],[[214.69292,258.0174],[-0.99822,-0.7933],[0.72198,0.57376]]],&quot;closed&quot;:true}]}" fill="#cecece" stroke-width="0.5"/><text transform="translate(214.48944,302.70079) scale(0.5,0.5)" font-size="40" xml:space="preserve" fill="#000000" fill-rule="nonzero" stroke="none" stroke-width="1" stroke-linecap="butt" stroke-linejoin="miter" stroke-miterlimit="10" stroke-dasharray="" stroke-dashoffset="0" font-family="Sans Serif" font-weight="normal" text-anchor="start" style="mix-blend-mode: normal"><tspan x="0" dy="0">HP</tspan></text><path d="M232.07878,340.03631c-1.38478,0.51175 -2.55295,-0.65323 -2.55295,-0.65323c-2.70065,-2.69365 -7.16326,-5.78151 -8.92827,-9.18602c-1.03588,-1.99811 -0.99457,-4.39063 -1.4326,-6.59826c-0.34238,-1.72557 -1.26612,-3.34567 -1.34615,-5.10306c-0.17908,-3.93237 2.4959,-8.7641 6.4749,-9.75539c2.56447,-0.63889 5.46048,0.12502 7.48263,1.75347c1.10499,0.88985 2.17892,1.89256 2.93825,3.09059c0.49716,-0.54323 1.13399,-0.97642 1.72857,-1.41266c1.89073,-1.38721 4.32298,-1.97824 6.644,-2.31307c1.4455,0.75256 3.56644,0.82142 4.33649,2.25768c0.87132,1.62514 0.28382,3.74016 -0.16136,5.52959c-0.60718,2.44065 -2.86025,4.14342 -4.43969,6.10067c-1.15337,1.42927 -0.90519,3.72634 -1.71365,5.20304c-1.62969,2.97672 -4.10018,5.41174 -6.02551,8.20635l-1.01369,1.64276c0,0 -0.73403,1.18539 -1.99099,1.23752zM231.22686,333.94897c1.75299,-2.4403 3.9515,-4.58188 5.39904,-7.21336c1.02702,-1.86702 0.9401,-4.28547 2.20514,-6.00017c1.16031,-1.57275 2.79168,-2.83005 3.65906,-4.58148c0.24093,-0.48648 0.62441,-0.96212 0.62242,-1.50499c-0.0008,-0.21694 -0.4182,0.11557 -0.6273,0.17335c-2.25088,0.43654 -2.9695,1.66588 -4.75696,2.96611c-1.25676,0.91419 -2.40078,2.72073 -3.93841,2.49512c-1.51782,-0.2227 -1.97033,-2.35209 -2.97688,-3.50977c-1.45805,-1.67698 -2.77729,-3.65547 -5.32568,-3.17798c-4.0659,0.76183 -1.78673,7.28305 -1.40249,9.11125c0.52479,2.4969 -0.19599,2.93579 0.91863,5.12605c0.65336,1.28388 2.3497,2.24845 3.28949,3.13076c1.01728,0.95506 1.97424,1.97138 2.93394,2.98512z" fill="#000000" stroke-width="0.5"/><path d="M228.2652,331.00546c-0.93978,-0.88231 -2.65303,-1.86594 -3.30639,-3.14981c-1.11462,-2.19026 -0.3989,-2.65737 -0.92369,-5.15427c-0.38424,-1.8282 -2.64377,-8.38373 1.42213,-9.14556c2.54839,-0.47749 3.88202,1.49349 5.34007,3.17047c1.00655,1.15768 1.48441,3.2855 3.00223,3.50821c1.53762,0.22561 2.70262,-1.57136 3.95938,-2.48555c1.78747,-1.30023 2.51165,-2.52453 4.76253,-2.96107c0.2091,-0.05778 0.62728,-0.38946 0.62807,-0.17252c0.00199,0.54287 -0.37961,1.0207 -0.62054,1.50718c-0.86739,1.75143 -2.49336,3.01694 -3.65367,4.58969c-1.26503,1.7147 -1.18435,4.1888 -2.21137,6.05582c-1.44754,2.63148 -3.69315,4.78979 -5.44614,7.2301c-0.9597,-1.01374 -1.93533,-2.03762 -2.95261,-2.99268z" data-paper-data="{&quot;noHover&quot;:false,&quot;origItem&quot;:[&quot;Path&quot;,{&quot;applyMatrix&quot;:true,&quot;segments&quot;:[[[231.22686,333.94897],[-0.9597,-1.01374],[1.75299,-2.4403]],[[236.6259,326.73561],[-1.44754,2.63148],[1.02702,-1.86702]],[[238.83103,320.73544],[-1.26503,1.7147],[1.16031,-1.57275]],[[242.4901,316.15396],[-0.86739,1.75143],[0.24093,-0.48648]],[[243.11252,314.64897],[0.00199,0.54287],[-0.0008,-0.21694]],[[242.48522,314.82232],[0.2091,-0.05778],[-2.25088,0.43654]],[[237.72825,317.78843],[1.78747,-1.30023],[-1.25676,0.91419]],[[233.78985,320.28355],[1.53762,0.22561],[-1.51782,-0.2227]],[[230.81297,316.77378],[1.00655,1.15768],[-1.45805,-1.67698]],[[225.48729,313.5958],[2.54839,-0.47749],[-4.0659,0.76183]],[[224.0848,322.70705],[-0.38424,-1.8282],[0.52479,2.4969]],[[225.00343,327.83309],[-1.11462,-2.19026],[0.65336,1.28388]],[[228.29292,330.96385],[-0.93978,-0.88231],[1.01728,0.95506]]],&quot;closed&quot;:true}]}" fill="#ff0000" stroke-width="0.5"/></g></g></svg>