<svg version="1.1" xmlns="http://www.w3.org/2000/svg" xmlns:xlink="http://www.w3.org/1999/xlink" width="94.8082" height="103.75166" viewBox="0,0,94.8082,103.75166"><g transform="translate(-209.09719,-109.15621)"><g data-paper-data="{&quot;isPaintingLayer&quot;:true}" fill-rule="nonzero" stroke-linecap="butt" stroke-linejoin="miter" stroke-miterlimit="10" stroke-dasharray="" stroke-dashoffset="0" style="mix-blend-mode: normal"><path d="M211.0972,210.90787v-61.81574h57.80573v61.81574z" fill="#00f6f7" stroke="#000000" stroke-width="4"/><path d="M282.91512,173.98892c0.9194,-1.12833 1.78105,-2.21446 2.53918,-3.01317c-0.005,-0.06586 -0.01366,-0.13284 -0.02534,-0.19988c0.01835,0.0425 0.0406,0.07896 0.06752,0.10765c0.80819,0.86112 1.95904,1.3365 2.99917,1.89578c1.66662,0.89614 3.23153,2.10722 4.69596,3.3056c0.89839,0.73519 1.94009,1.3138 2.93829,1.90641c0.67282,0.39942 1.36202,0.77908 2.07512,1.10111c0.24746,0.11175 0.77345,-0.07212 0.78992,0.19891c0.01981,0.32634 -0.473,0.46138 -0.73999,0.65008c-0.6092,0.43053 -3.83198,3.67518 -4.79094,3.12901c-1.76967,-1.00793 -2.46326,-2.6431 -3.79596,-4.0461c-1.97787,-2.0822 -5.08692,-3.04431 -6.75292,-5.03541z" data-paper-data="{&quot;noHover&quot;:false,&quot;origItem&quot;:[&quot;Path&quot;,{&quot;applyMatrix&quot;:true,&quot;segments&quot;:[[[290.70156,197.04816],[0,0],[-1.15982,2.32268]],[[288.83299,205.20695],[1.11875,-2.64498],[-0.75382,1.78221]],[[286.62252,210.25816],[0.21708,-2.02498],[-0.11762,1.0973]],[[291.36824,213.38896],[-0.63805,-0.3865],[0.27964,0.16939]],[[292.25489,213.80837],[-0.29126,0.14853],[0.24189,-0.12336]],[[292.12154,213.00479],[-0.00359,0.2715],[0.01036,-0.78237]],[[292.29649,210.664],[-0.09739,0.77636],[0.14452,-1.15183]],[[292.84666,207.22513],[-0.3151,1.11728],[0.51362,-1.82123]],[[294.00682,201.66814],[-0.15577,1.88585],[0.09722,-1.17696]],[[294.55628,198.16809],[-0.46658,1.0849],[0.01555,-0.03614]],[[294.62793,198.06315],[-0.03163,0.0338],[-0.0568,0.03749]],[[294.45536,198.16652],[0.05838,-0.03089],[-1.03506,-0.37595]],[[290.70155,197.04816],[1.40167,0.39212],[0,0]]],&quot;closed&quot;:true,&quot;fillColor&quot;:[0,0,0,1]}]}" fill="#8f4c00" stroke="none" stroke-width="0.5"/><path d="M280.10601,169.67192c-0.34125,-0.08447 -0.75556,-0.10001 -1.23332,0.00154c-2.44537,0.51978 -1.87784,2.87731 -1.87784,2.87731c0.05734,0.22819 0.0539,0.55022 0.09233,0.78647c-0.92654,0.97937 -1.89872,1.77999 -2.88183,2.13345c-1.29112,0.4642 -1.9457,-1.57501 -2.51637,-2.00353c-0.57797,-0.43399 -1.30693,-0.64359 -2.00468,-0.84341c1.97676,-0.37978 3.7665,-1.92491 5.49221,-3.01307c5.05815,-3.18949 8.68461,-7.59468 13.42353,-11.2103c1.27325,-0.97145 2.33963,-2.27185 3.78764,-2.95609c0.50866,-0.24037 0.68417,1.01536 0.62288,1.5746c-0.08516,0.77724 -1.0434,2.30945 -1.39569,2.92914c-2.54555,1.25757 -4.37134,2.67085 -6.19741,4.57319c-0.18276,-0.03759 -0.37203,-0.04773 -0.56931,-0.02193c-0.61824,0.08082 -1.08978,0.47679 -1.49728,0.9712l-0.04522,-0.02139c0,0 -2.49113,0.457 -2.09,2.89128c-0.34933,0.39223 -0.72676,0.84495 -1.10964,1.33154z" data-paper-data="{&quot;noHover&quot;:false,&quot;origItem&quot;:[&quot;Path&quot;,{&quot;applyMatrix&quot;:true,&quot;segments&quot;:[[[293.58691,192.69103],[0,0],[0.59903,0.15663]],[[295.24835,193.16655],[-0.49912,-0.16356],[2.07137,-1.34015]],[298.68417,193.89486],[[298.68272,193.94485],[0,0],[0.61603,0.17607]],[[300.15051,194.93518],[-0.32106,-0.53448],[0.10246,0.17055]],[[300.35854,195.46549],[-0.03855,-0.18256],[2.47343,0.91411]],[[307.01163,199.33176],[-2.16974,-1.83126],[0.70883,0.07542]],[[310.25,199.44706],[-0.74655,0.23241],[0.53717,-0.16721]],[[311.44186,198.25205],[0.42355,0.37029],[-1.20571,-1.05412]],[[307.21838,195.96155],[1.3992,0.77918],[-5.20767,-2.90005]],[[291.58051,188.13092],[4.94454,3.36293],[-1.68694,-1.14735]],[[286.71033,184.35047],[1.13782,1.66048],[0.09555,0.71948]],[[286.74129,186.51905],[0.16698,-0.70322],[-0.16488,0.69434]],[[285.9135,189.61448],[-0.94132,-0.99819],[0.71676,0.76006]],[[289.02128,191.39794],[-1.26796,-0.45817],[0.20123,-0.1296]],[[289.60575,190.99099],[-0.18629,0.14372],[0,0]],[[293.09325,191.57177],[-1.45336,-2.03415],[0.28395,0.39742]],[[293.58691,192.69102],[-0.05888,-0.34658],[0,0]]],&quot;closed&quot;:true,&quot;fillColor&quot;:[0,0,0,1]}]}" fill="#8f4c00" stroke="none" stroke-width="0.5"/><g stroke="none" stroke-width="0.5"><path d="M280.00039,156.59599c-4.53035,-3.93789 -10.62996,-7.1612 -14.0408,-12.16068c-1.90906,-2.79824 -3.21826,-6.72374 -5.29972,-9.36133c-0.84046,-1.06502 -2.16702,-1.67074 -3.02961,-2.7179c-1.82467,-2.21511 -2.39618,-4.7373 -4.77388,-6.64292c-2.89902,-2.32343 -8.07356,-3.90931 -11.68158,-6.44918c-0.17749,1.77276 -0.39044,3.54384 -0.27336,5.31546c0.13562,2.05231 1.71658,3.79907 2.0049,5.83555c0.21073,1.4885 -1.26485,3.45775 -0.18738,4.50611c1.31147,1.27604 3.26839,1.78154 4.51745,3.11872c4.64558,4.97337 9.23767,10.10861 14.13509,14.88961c1.26641,1.23631 2.71165,2.30841 3.81722,3.69043c2.97604,3.72026 3.31304,6.48386 7.77789,8.47379c3.1603,-2.07447 5.7608,-4.66596 8.50089,-7.17934c-0.48904,-0.43945 -0.97806,-0.87889 -1.4671,-1.31833zM257.87809,156.50664c-4.96781,-4.80355 -9.71221,-9.95532 -14.30897,-15.06809c-1.32085,-1.46913 -3.64244,-1.86955 -4.80932,-3.46371c-1.37096,-1.87296 -0.51531,-4.61374 -0.81183,-6.91582c-0.27386,-2.12614 -1.85652,-3.96508 -2.03224,-6.10158c-0.19922,-2.4222 0.48256,-4.83762 0.64367,-7.26265c-0.58542,-0.81754 -1.17085,-1.6351 -1.75628,-2.45264l-0.00042,0.00028l-1.44867,-2.13322c-0.6002,-0.84084 -0.63655,-2.00252 -0.00714,-2.89433c0.76315,-1.08132 2.22805,-1.37337 3.34171,-0.69451l3.4364,2.04868l-0.01655,0.02776c0.05112,0.0196 0.10212,0.0395 0.15302,0.05972c2.70171,1.07299 5.93482,4.5366 8.40651,6.12561c2.44614,1.57258 4.98996,2.17956 7.30619,4.02215c2.70406,2.15111 3.56166,5.05262 5.62715,7.5136c0.8583,1.02265 2.17038,1.61137 2.98925,2.66585c2.6525,3.4157 3.58389,8.34195 6.84049,11.358c3.69479,3.42185 8.06081,6.20066 11.87851,9.50601c0.66018,0.59316 1.32036,1.1863 1.98054,1.77947l0.00855,0.00843c0.07754,-0.05996 0.1554,-0.11968 0.23356,-0.17917c1.49147,-1.13512 4.94132,-4.01852 6.77302,-3.97965c8.38197,0.17785 5.1398,9.34803 2.68805,13.13647c-2.22066,1.26578 -3.89554,2.31664 -5.52774,3.88113c1.50308,0.80962 3.15153,1.37456 4.54777,2.35609c1.63078,1.1464 2.87919,2.81418 4.59802,3.82376c1.77121,1.04034 5.0168,2.26918 5.27408,4.82942c0.47736,4.75031 -7.72512,10.6791 -11.99317,9.27596c-3.18147,-1.04592 -3.92112,-3.28901 -5.8428,-5.37496c-1.82444,-1.98038 -4.52494,-2.85135 -6.56463,-4.53703c-1.33116,1.23608 -2.74427,2.18871 -4.20607,2.45101c-1.4152,0.25393 -2.96178,0.02899 -4.27831,-0.54894c-0.98471,-0.43227 -1.38574,-1.67097 -2.24666,-2.31541c-2.26908,-1.69855 -5.91808,-1.32077 -4.36727,-6.45266c0.01742,-0.05763 2.02166,-1.44376 4.036,-2.82492c-4.35504,-3.11885 -6.5066,-7.76579 -10.5444,-11.67009zM282.96076,174.00931c1.66599,1.9911 4.75523,2.89 6.7331,4.9722c1.3327,1.403 1.97798,3.03632 3.74766,4.04425c0.95896,0.54617 4.15672,-2.66942 4.76592,-3.09996c0.267,-0.18869 0.7585,-0.31895 0.73868,-0.64529c-0.01646,-0.27103 -0.54249,-0.08701 -0.78995,-0.19876c-0.7131,-0.32203 -1.4032,-0.69605 -2.07602,-1.09546c-0.9982,-0.59261 -2.0344,-1.14291 -2.93279,-1.87809c-1.46443,-1.19839 -2.96428,-2.38728 -4.6309,-3.28343c-1.04014,-0.55929 -2.18097,-1.04076 -2.98916,-1.90188c-0.02692,-0.02869 -0.04923,-0.06511 -0.06758,-0.10761c0.01168,0.06705 0.02083,0.13364 0.02583,0.1995c-0.75813,0.79871 -1.60539,1.8662 -2.52479,2.99454zM280.11899,169.62364c0.38288,-0.48659 0.7503,-0.94093 1.09963,-1.33316c-0.40113,-2.43427 2.04019,-2.85884 2.04019,-2.85884l0.04525,0.0213c0.4075,-0.49441 0.87598,-0.86916 1.49422,-0.94998c0.19728,-0.0258 0.3865,-0.01645 0.56926,0.02113c1.82607,-1.90235 3.65655,-3.29717 6.2021,-4.55473c0.3523,-0.61969 1.31417,-2.14547 1.39934,-2.9227c0.06129,-0.55924 -0.11075,-1.81037 -0.61941,-1.57c-1.44801,0.68424 -2.51371,1.98542 -3.78696,2.95687c-4.73892,3.61562 -8.36742,8.01835 -13.42557,11.20784c-1.72571,1.08816 -3.43444,2.57476 -5.41121,2.95454c0.69775,0.19982 1.42243,0.40391 2.0004,0.8379c0.57067,0.42852 1.21593,2.45961 2.50704,1.99541c0.98311,-0.35346 1.94991,-1.15723 2.87645,-2.1366c-0.03842,-0.23625 -0.08225,-0.47018 -0.13959,-0.69838c0,0 -0.51979,-2.44537 1.92558,-2.96515c0.47776,-0.10155 0.88202,-0.08992 1.22327,-0.00545zM285.39087,170.49242c-0.01457,-0.17486 -0.00762,-0.37193 0.00433,-0.55055l-0.09945,0.03231c0.01382,0.16958 0.05452,0.34392 0.09512,0.51823z" fill="#000000"/><path d="M280.81577,156.93176c0.48904,0.43944 0.97774,0.87936 1.46678,1.31881c-2.74009,2.51338 -5.35579,5.1196 -8.51609,7.19408c-4.46485,-1.98993 -4.80828,-4.75015 -7.78433,-8.47041c-1.10557,-1.38202 -2.56054,-2.45102 -3.82695,-3.68733c-4.89742,-4.781 -9.54578,-9.98469 -14.19136,-14.95806c-1.24905,-1.33719 -3.20473,-1.8454 -4.5162,-3.12144c-1.07747,-1.04836 0.40341,-3.02605 0.19267,-4.51455c-0.28832,-2.03648 -1.86499,-3.78809 -2.00061,-5.8404c-0.11708,-1.77161 0.10083,-3.547 0.27832,-5.31976c3.60802,2.53987 8.79541,4.11869 11.69443,6.44212c2.37771,1.90561 2.95884,4.42529 4.78351,6.6404c0.86258,1.04716 2.20503,1.65294 3.04549,2.71795c2.08147,2.6376 3.43164,6.62186 5.3407,9.4201c3.41084,4.99948 9.50327,8.24061 14.03362,12.17849z" data-paper-data="{&quot;noHover&quot;:false,&quot;origItem&quot;:[&quot;Path&quot;,{&quot;applyMatrix&quot;:true,&quot;segments&quot;:[[[305.48257,187.37814],[0,0],[1.8003,-5.72625]],[[311.02193,169.64846],[-3.22072,5.12402],[1.80266,-2.86794]],[[317.48681,161.05038],[-1.58652,2.96182],[0.64061,-1.19593]],[[318.76819,157.18728],[-0.6154,1.20908],[1.30179,-2.55763]],[[322.95103,150.15719],[-0.79714,2.94099],[0.97192,-3.58581]],[[324.19684,136.87189],[-0.88712,4.32224],[-1.69607,0.54545]],[[319.21472,138.74466],[1.57735,-0.81504],[-1.82727,0.94417]],[[314.66589,142.91377],[1.75176,-1.07783],[-1.28039,0.7878]],[[310.46009,144.54206],[0.53066,-1.40656],[-0.64591,1.71202]],[[309.4056,149.92925],[0.7269,-1.67923],[-2.70354,6.24553]],[[301.40217,168.8355],[2.42658,-6.39956],[-0.62749,1.65485]],[[299.54384,173.80914],[0.82532,-1.5656],[-2.22169,4.21441]],[[294.88257,184.32452],[0.04068,-4.88805],[3.16421,2.0685]],[[304.86007,189.24974],[-3.39872,-1.50794],[0.20751,-0.62387]],[[305.48258,187.37815],[-0.2075,0.62387],[0,0]]],&quot;closed&quot;:true,&quot;fillColor&quot;:[0,0,0,1]}]}" fill="#c6c6c6"/></g></g></g></svg>