<svg version="1.1" xmlns="http://www.w3.org/2000/svg" xmlns:xlink="http://www.w3.org/1999/xlink" width="107.41278" height="98.6023" viewBox="0,0,107.41278,98.6023"><g transform="translate(-209.09719,-119.81111)"><g data-paper-data="{&quot;isPaintingLayer&quot;:true}" fill-rule="nonzero" stroke-linecap="butt" stroke-linejoin="miter" stroke-miterlimit="10" stroke-dasharray="" stroke-dashoffset="0" style="mix-blend-mode: normal"><path d="M211.0972,210.90787v-61.81574h57.80573v61.81574z" fill="#00f6f7" stroke="#000000" stroke-width="4"/><path d="M302.70226,184.87327c0.48912,-5.98262 -0.52702,-12.80629 1.48055,-18.51578c1.12365,-3.19563 3.51085,-6.57569 4.40295,-9.81507c0.36022,-1.308 0.06244,-2.73559 0.39517,-4.05084c0.70383,-2.78222 2.39738,-4.7367 2.52426,-7.78116c0.1547,-3.71197 -1.63272,-8.82039 -1.72361,-13.2318c-1.53341,0.90709 -3.08648,1.78463 -4.44448,2.92837c-1.57317,1.32496 -2.04402,3.6334 -3.51399,5.072c-1.07442,1.0515 -3.53508,1.02913 -3.74148,2.51823c-0.25123,1.81248 0.50068,3.68858 0.16322,5.487c-1.25513,6.68883 -2.67237,13.43045 -3.62334,20.20823c-0.24591,1.75265 -0.25359,3.55211 -0.71218,5.26149c-1.23448,4.60144 -3.26144,6.50997 -2.21993,11.28595c3.54337,1.31738 7.17168,1.87749 10.81976,2.59632c0.06438,-0.65432 0.12875,-1.30861 0.19312,-1.96292zM289.67009,166.99684c0.92744,-6.84785 2.26777,-13.72198 3.66414,-20.45404c0.40124,-1.93442 -0.65134,-4.04207 -0.05816,-5.92651c0.69692,-2.214 3.41196,-3.14812 5.09106,-4.75066c1.55077,-1.48006 2.09488,-3.84448 3.71213,-5.25161c1.83351,-1.5953 4.18342,-2.47677 6.23265,-3.78344c0.3119,-0.95594 0.62381,-1.91189 0.93572,-2.86782l-0.00047,-0.00017l0.86057,-2.43078c0.32193,-0.98164 1.23633,-1.69905 2.32767,-1.72021c1.32325,-0.02566 2.42628,0.98159 2.53901,2.28096l0.38497,3.98217l-0.03217,0.00311c0.01449,0.05279 0.02866,0.10568 0.04253,0.15866c0.73587,2.8123 -0.13955,7.46882 0.04432,10.40147c0.18198,2.90233 1.19978,5.31138 1.08726,8.26898c-0.13136,3.45282 -1.96105,5.86248 -2.72032,8.98437c-0.31551,1.29728 -0.01262,2.70313 -0.37714,3.9875c-1.18075,4.16036 -4.59803,7.82883 -5.09895,12.23916c-0.56831,5.00375 -0.22092,10.1674 -0.62257,15.20117c-0.08683,0.88325 -0.17366,1.7665 -0.26051,2.64975l-0.00173,0.01188c0.09424,0.02695 0.18847,0.05431 0.2827,0.08204c1.79802,0.52926 6.16463,1.60075 7.21832,3.09954c4.82177,6.85854 -4.48696,9.67835 -8.99153,9.94711c-2.33523,-1.03936 -4.174,-1.7663 -6.40131,-2.1546c0.23805,1.69058 0.75935,3.35335 0.79562,5.05968c0.04236,1.99295 -0.56184,3.98669 -0.35709,5.96954c0.211,2.04328 1.14347,5.38609 -0.76687,7.10993c-3.54447,3.19845 -13.17992,0.10179 -14.57762,-4.16804c-1.04187,-3.1828 0.32721,-5.10741 0.86951,-7.89129c0.51485,-2.64299 -0.38307,-5.33465 -0.23316,-7.97651c-1.7844,-0.3403 -3.38897,-0.91452 -4.4662,-1.93689c-1.04288,-0.98978 -1.77777,-2.36908 -2.09199,-3.77212c-0.23502,-1.04942 0.52542,-2.10626 0.53467,-3.18163c0.0244,-2.83429 -2.44146,-5.55045 2.61182,-7.34086c0.05675,-0.0201 2.36075,0.7736 4.66671,1.57838c-0.06691,-5.35622 2.40256,-9.84231 3.15639,-15.4082zM290.42627,197.57317c-0.61734,2.52169 0.48835,5.54309 -0.01765,8.37001c-0.34094,1.9048 -1.27465,3.39219 -1.03845,5.41503c0.128,1.09614 4.61294,1.76775 5.32067,2.00355c0.31018,0.10334 0.70626,0.42218 0.95746,0.2129c0.20861,-0.17381 -0.25124,-0.48861 -0.30779,-0.75418c-0.16295,-0.76528 -0.2704,-1.54284 -0.34714,-2.32151c-0.11383,-1.15527 -0.28426,-2.31608 -0.2241,-3.47538c0.09806,-1.88973 0.1675,-3.80237 -0.09772,-5.67596c-0.16552,-1.16931 -0.45338,-2.37366 -0.23832,-3.53489c0.00717,-0.03868 0.02329,-0.07823 0.04666,-0.11819c-0.0471,0.04912 -0.09533,0.09594 -0.14543,0.13898c-1.09258,-0.13769 -2.45452,-0.18798 -3.9082,-0.26036zM292.2764,192.68576c0.61884,0.02025 1.20253,0.04714 1.72547,0.09625c1.72364,-1.76512 3.51181,-0.0497 3.51181,-0.0497l0.00964,0.04907c0.63972,0.03545 1.21916,0.19091 1.65048,0.64114c0.13765,0.14366 0.2422,0.30165 0.32018,0.47116c2.61436,0.34437 4.82242,0.99294 7.34348,2.29892c0.70796,-0.08323 2.50701,-0.21207 3.18366,-0.60385c0.48688,-0.28188 1.39298,-1.1616 0.89802,-1.42904c-1.40901,-0.76132 -3.08861,-0.84919 -4.6255,-1.29958c-5.72014,-1.67634 -11.41667,-1.99179 -16.98258,-4.17775c-1.89894,-0.7458 -4.10883,-1.2419 -5.58574,-2.60958c0.25232,0.68052 0.51716,1.38528 0.50986,2.10802c-0.00722,0.71361 -1.2614,2.4366 -0.12261,3.20186c0.86712,0.58269 2.08739,0.88552 3.42529,1.05188c0.16758,-0.1709 0.33009,-0.34478 0.47998,-0.52615c0,0 1.66229,-1.8673 3.52958,-0.205c0.36482,0.32477 0.59492,0.65736 0.729,0.98234zM294.69923,197.44782c0.13225,-0.11532 0.29514,-0.22645 0.44613,-0.32263l-0.08494,-0.06098c-0.12844,0.11158 -0.2448,0.24765 -0.36119,0.38361z" data-paper-data="{&quot;index&quot;:null}" fill="#000000" stroke="none" stroke-width="0.5"/><path d="M302.70515,184.92319c-0.06437,0.65431 -0.12932,1.30864 -0.19369,1.96295c-3.64808,-0.71883 -7.29727,-1.28246 -10.84064,-2.59984c-1.04151,-4.77598 0.97891,-6.68769 2.21339,-11.28913c0.45858,-1.70937 0.458,-3.51483 0.70391,-5.26749c0.95096,-6.77778 2.39002,-13.60529 3.64515,-20.29411c0.33747,-1.79842 -0.41152,-3.67512 -0.16029,-5.4876c0.2064,-1.4891 2.67699,-1.46747 3.75141,-2.51896c1.46997,-1.4386 1.94727,-3.74646 3.52044,-5.07142c1.358,-1.14374 2.91748,-2.01983 4.45089,-2.92693c0.09089,4.4114 1.89162,9.52599 1.73691,13.23797c-0.12688,3.04446 -1.8127,5.0052 -2.51653,7.78743c-0.33272,1.31525 -0.02559,2.75567 -0.38581,4.06367c-0.8921,3.23938 -3.30237,6.68726 -4.42602,9.8829c-2.00757,5.70949 -1.01003,12.53793 -1.49915,18.52055z" data-paper-data="{&quot;noHover&quot;:false,&quot;origItem&quot;:[&quot;Path&quot;,{&quot;applyMatrix&quot;:true,&quot;segments&quot;:[[[305.48257,187.37814],[0,0],[1.8003,-5.72625]],[[311.02193,169.64846],[-3.22072,5.12402],[1.80266,-2.86794]],[[317.48681,161.05038],[-1.58652,2.96182],[0.64061,-1.19593]],[[318.76819,157.18728],[-0.6154,1.20908],[1.30179,-2.55763]],[[322.95103,150.15719],[-0.79714,2.94099],[0.97192,-3.58581]],[[324.19684,136.87189],[-0.88712,4.32224],[-1.69607,0.54545]],[[319.21472,138.74466],[1.57735,-0.81504],[-1.82727,0.94417]],[[314.66589,142.91377],[1.75176,-1.07783],[-1.28039,0.7878]],[[310.46009,144.54206],[0.53066,-1.40656],[-0.64591,1.71202]],[[309.4056,149.92925],[0.7269,-1.67923],[-2.70354,6.24553]],[[301.40217,168.8355],[2.42658,-6.39956],[-0.62749,1.65485]],[[299.54384,173.80914],[0.82532,-1.5656],[-2.22169,4.21441]],[[294.88257,184.32452],[0.04068,-4.88805],[3.16421,2.0685]],[[304.86007,189.24974],[-3.39872,-1.50794],[0.20751,-0.62387]],[[305.48258,187.37815],[-0.2075,0.62387],[0,0]]],&quot;closed&quot;:true,&quot;fillColor&quot;:[0,0,0,1]}],&quot;index&quot;:null}" fill="#c6c6c6" stroke="none" stroke-width="0.5"/><path d="M290.41565,197.52432c1.45368,0.07237 2.83916,0.12322 3.93174,0.26092c0.0501,-0.04304 0.09893,-0.08969 0.14603,-0.13882c-0.02337,0.03996 -0.03957,0.07948 -0.04674,0.11817c-0.21506,1.16123 0.08365,2.37003 0.24917,3.53934c0.26522,1.87359 0.21645,3.85179 0.11839,5.74151c-0.06017,1.1593 0.09071,2.34132 0.20454,3.49658c0.07674,0.77867 0.17911,1.55884 0.34205,2.32413c0.05655,0.26557 0.51626,0.58044 0.30765,0.75424c-0.25119,0.20927 -0.65191,-0.10778 -0.96209,-0.21113c-0.70774,-0.2358 -5.2309,-0.91036 -5.3589,-2.0065c-0.2362,-2.02284 0.67038,-3.55024 1.01132,-5.45504c0.506,-2.82692 -0.5605,-5.90173 0.05684,-8.42342z" data-paper-data="{&quot;noHover&quot;:false,&quot;origItem&quot;:[&quot;Path&quot;,{&quot;applyMatrix&quot;:true,&quot;segments&quot;:[[[290.70156,197.04816],[0,0],[-1.15982,2.32268]],[[288.83299,205.20695],[1.11875,-2.64498],[-0.75382,1.78221]],[[286.62252,210.25816],[0.21708,-2.02498],[-0.11762,1.0973]],[[291.36824,213.38896],[-0.63805,-0.3865],[0.27964,0.16939]],[[292.25489,213.80837],[-0.29126,0.14853],[0.24189,-0.12336]],[[292.12154,213.00479],[-0.00359,0.2715],[0.01036,-0.78237]],[[292.29649,210.664],[-0.09739,0.77636],[0.14452,-1.15183]],[[292.84666,207.22513],[-0.3151,1.11728],[0.51362,-1.82123]],[[294.00682,201.66814],[-0.15577,1.88585],[0.09722,-1.17696]],[[294.55628,198.16809],[-0.46658,1.0849],[0.01555,-0.03614]],[[294.62793,198.06315],[-0.03163,0.0338],[-0.0568,0.03749]],[[294.45536,198.16652],[0.05838,-0.03089],[-1.03506,-0.37595]],[[290.70155,197.04816],[1.40167,0.39212],[0,0]]],&quot;closed&quot;:true,&quot;fillColor&quot;:[0,0,0,1]}],&quot;index&quot;:null}" fill="#8f4c00" stroke="none" stroke-width="0.5"/><path d="M292.22981,192.7039c-0.13408,-0.32497 -0.36698,-0.66798 -0.7318,-0.99275c-1.86729,-1.6623 -3.43053,0.19144 -3.43053,0.19144c-0.14989,0.18137 -0.41137,0.36935 -0.57895,0.54025c-1.3379,-0.16636 -2.55881,-0.47538 -3.42593,-1.05808c-1.13879,-0.76526 0.11642,-2.50057 0.12363,-3.21418c0.0073,-0.72274 -0.25563,-1.4342 -0.50796,-2.11473c1.47692,1.36768 3.78195,1.89438 5.68089,2.64017c5.56591,2.18596 11.26322,2.49831 16.98336,4.17465c1.53689,0.45039 3.21626,0.53927 4.62527,1.30059c0.49496,0.26743 -0.41279,1.15267 -0.89967,1.43456c-0.67665,0.39178 -2.47874,0.52736 -3.18669,0.6106c-2.52105,-1.30598 -4.74121,-1.93982 -7.35557,-2.2842c-0.07798,-0.16951 -0.18192,-0.32801 -0.31956,-0.47167c-0.43133,-0.45023 -1.02967,-0.59559 -1.66939,-0.63104l-0.00955,-0.0491c0,0 -1.84382,-1.73634 -3.56746,0.02878c-0.52293,-0.04911 -1.11125,-0.08503 -1.73009,-0.10528z" data-paper-data="{&quot;noHover&quot;:false,&quot;origItem&quot;:[&quot;Path&quot;,{&quot;applyMatrix&quot;:true,&quot;segments&quot;:[[[293.58691,192.69103],[0,0],[0.59903,0.15663]],[[295.24835,193.16655],[-0.49912,-0.16356],[2.07137,-1.34015]],[298.68417,193.89486],[[298.68272,193.94485],[0,0],[0.61603,0.17607]],[[300.15051,194.93518],[-0.32106,-0.53448],[0.10246,0.17055]],[[300.35854,195.46549],[-0.03855,-0.18256],[2.47343,0.91411]],[[307.01163,199.33176],[-2.16974,-1.83126],[0.70883,0.07542]],[[310.25,199.44706],[-0.74655,0.23241],[0.53717,-0.16721]],[[311.44186,198.25205],[0.42355,0.37029],[-1.20571,-1.05412]],[[307.21838,195.96155],[1.3992,0.77918],[-5.20767,-2.90005]],[[291.58051,188.13092],[4.94454,3.36293],[-1.68694,-1.14735]],[[286.71033,184.35047],[1.13782,1.66048],[0.09555,0.71948]],[[286.74129,186.51905],[0.16698,-0.70322],[-0.16488,0.69434]],[[285.9135,189.61448],[-0.94132,-0.99819],[0.71676,0.76006]],[[289.02128,191.39794],[-1.26796,-0.45817],[0.20123,-0.1296]],[[289.60575,190.99099],[-0.18629,0.14372],[0,0]],[[293.09325,191.57177],[-1.45336,-2.03415],[0.28395,0.39742]],[[293.58691,192.69102],[-0.05888,-0.34658],[0,0]]],&quot;closed&quot;:true,&quot;fillColor&quot;:[0,0,0,1]}],&quot;index&quot;:null}" fill="#8f4c00" stroke="none" stroke-width="0.5"/></g></g></svg>