<svg version="1.1" xmlns="http://www.w3.org/2000/svg" xmlns:xlink="http://www.w3.org/1999/xlink" width="146.43001" height="86.9557" viewBox="0,0,146.43001,86.9557"><g transform="translate(-209.09724,-125.95217)"><g data-paper-data="{&quot;isPaintingLayer&quot;:true}" fill-rule="nonzero" stroke-linecap="butt" stroke-linejoin="miter" stroke-miterlimit="10" stroke-dasharray="" stroke-dashoffset="0" style="mix-blend-mode: normal"><path d="M211.09725,210.90787v-61.81574h57.80573v61.81574z" fill="#00f6f7" stroke="#000000" stroke-width="4"/><g stroke="none" stroke-width="0.5"><g><path d="M274.73574,176.67135c0.2705,1.43012 0.54596,2.78889 0.66829,3.8833c0.0536,0.03861 0.1104,0.07515 0.16918,0.10941c-0.04432,-0.01335 -0.08655,-0.01983 -0.12583,-0.01774c-1.17927,0.06324 -2.28435,0.63705 -3.38224,1.07215c-1.75916,0.69717 -3.69364,1.1136 -5.55369,1.4614c-1.14108,0.21336 -2.25478,0.6372 -3.35113,1.01873c-0.73897,0.25719 -1.47338,0.53963 -2.17913,0.87749c-0.24491,0.11724 -0.44319,0.63796 -0.66108,0.47594c-0.26234,-0.19511 -0.04808,-0.659 -0.02036,-0.98477c0.06327,-0.74329 -0.34161,-5.29851 0.69397,-5.67999c1.91106,-0.70394 3.60845,-0.18079 5.54009,-0.296c2.86676,-0.17099 5.60576,-1.92875 8.20191,-1.91993z" data-paper-data="{&quot;noHover&quot;:false,&quot;origItem&quot;:[&quot;Path&quot;,{&quot;applyMatrix&quot;:true,&quot;segments&quot;:[[[290.70156,197.04816],[0,0],[-1.15982,2.32268]],[[288.83299,205.20695],[1.11875,-2.64498],[-0.75382,1.78221]],[[286.62252,210.25816],[0.21708,-2.02498],[-0.11762,1.0973]],[[291.36824,213.38896],[-0.63805,-0.3865],[0.27964,0.16939]],[[292.25489,213.80837],[-0.29126,0.14853],[0.24189,-0.12336]],[[292.12154,213.00479],[-0.00359,0.2715],[0.01036,-0.78237]],[[292.29649,210.664],[-0.09739,0.77636],[0.14452,-1.15183]],[[292.84666,207.22513],[-0.3151,1.11728],[0.51362,-1.82123]],[[294.00682,201.66814],[-0.15577,1.88585],[0.09722,-1.17696]],[[294.55628,198.16809],[-0.46658,1.0849],[0.01555,-0.03614]],[[294.62793,198.06315],[-0.03163,0.0338],[-0.0568,0.03749]],[[294.45536,198.16652],[0.05838,-0.03089],[-1.03506,-0.37595]],[[290.70155,197.04816],[1.40167,0.39212],[0,0]]],&quot;closed&quot;:true,&quot;fillColor&quot;:[0,0,0,1]}]}" fill="#8f4c00"/><path d="M279.84716,177.3046c0.28448,-0.20655 0.56331,-0.51339 0.79348,-0.94419c1.17809,-2.20502 -0.9905,-3.29 -0.9905,-3.29c-0.21145,-0.10317 -0.45552,-0.31329 -0.66095,-0.43613c-0.152,-1.33961 -0.13787,-2.59894 0.22526,-3.57852c0.4769,-1.28649 2.45815,-0.47317 3.15357,-0.6335c0.70429,-0.16238 1.33427,-0.58481 1.93665,-0.98966c-0.98323,1.75643 -0.95475,4.12071 -1.23449,6.14157c-0.81988,5.92331 0.2124,11.535 -0.0759,17.48875c-0.07746,1.59965 0.22994,3.25305 -0.17976,4.80129c-0.14391,0.54388 -1.21733,-0.13098 -1.60552,-0.53821c-0.53952,-0.56592 -1.09388,-2.28597 -1.34081,-2.95467c0.67842,-2.75701 0.77399,-5.06389 0.49574,-7.68611c0.1465,-0.11555 0.27621,-0.25375 0.38358,-0.42125c0.33654,-0.52487 0.33754,-1.14062 0.222,-1.77082l0.0455,-0.02081c0,0 1.25559,-2.19956 -0.86449,-3.46125c-0.07489,-0.51988 -0.17792,-1.10021 -0.30333,-1.70653z" data-paper-data="{&quot;noHover&quot;:false,&quot;origItem&quot;:[&quot;Path&quot;,{&quot;applyMatrix&quot;:true,&quot;segments&quot;:[[[293.58691,192.69103],[0,0],[0.59903,0.15663]],[[295.24835,193.16655],[-0.49912,-0.16356],[2.07137,-1.34015]],[298.68417,193.89486],[[298.68272,193.94485],[0,0],[0.61603,0.17607]],[[300.15051,194.93518],[-0.32106,-0.53448],[0.10246,0.17055]],[[300.35854,195.46549],[-0.03855,-0.18256],[2.47343,0.91411]],[[307.01163,199.33176],[-2.16974,-1.83126],[0.70883,0.07542]],[[310.25,199.44706],[-0.74655,0.23241],[0.53717,-0.16721]],[[311.44186,198.25205],[0.42355,0.37029],[-1.20571,-1.05412]],[[307.21838,195.96155],[1.3992,0.77918],[-5.20767,-2.90005]],[[291.58051,188.13092],[4.94454,3.36293],[-1.68694,-1.14735]],[[286.71033,184.35047],[1.13782,1.66048],[0.09555,0.71948]],[[286.74129,186.51905],[0.16698,-0.70322],[-0.16488,0.69434]],[[285.9135,189.61448],[-0.94132,-0.99819],[0.71676,0.76006]],[[289.02128,191.39794],[-1.26796,-0.45817],[0.20123,-0.1296]],[[289.60575,190.99099],[-0.18629,0.14372],[0,0]],[[293.09325,191.57177],[-1.45336,-2.03415],[0.28395,0.39742]],[[293.58691,192.69102],[-0.05888,-0.34658],[0,0]]],&quot;closed&quot;:true,&quot;fillColor&quot;:[0,0,0,1]}]}" fill="#8f4c00"/><g><path d="M289.91511,185.64892c5.93053,-0.92736 12.32567,-3.51523 18.34673,-2.90242c3.37002,0.34299 7.2156,1.87106 10.57386,1.97871c1.356,0.04347 2.67396,-0.58075 4.03057,-0.56572c2.8697,0.03181 5.16679,1.21985 8.15611,0.62932c3.64476,-0.72001 8.19162,-3.65546 12.45873,-4.77822c-1.24137,-1.27797 -2.45861,-2.58196 -3.8889,-3.63392c-1.6569,-1.21862 -4.01139,-1.13506 -5.75457,-2.2267c-1.27412,-0.79791 -1.82937,-3.19519 -3.32535,-3.04669c-1.82087,0.18077 -3.46834,1.35163 -5.29574,1.4453c-6.79665,0.34829 -13.68264,0.55139 -20.49443,1.21622c-1.76146,0.17192 -3.51253,0.5864 -5.28179,0.54142c-4.76262,-0.12109 -7.09323,-1.64401 -11.49183,0.48835c-0.44977,3.75348 -0.14347,7.41198 0.01315,11.12691c0.65117,-0.09085 1.30232,-0.1817 1.95348,-0.27254zM304.23728,168.78831c6.87441,-0.70414 13.87118,-1.01306 20.74296,-1.2342c1.97458,-0.06354 3.77663,-1.58099 5.74764,-1.44622c2.3157,0.15835 3.86041,2.57864 5.81199,3.83515c1.80243,1.16048 4.22851,1.13499 5.97563,2.3772c1.98076,1.40831 3.38868,3.48602 5.13944,5.17172c1.00242,0.07905 2.00485,0.15812 3.00728,0.23717l0.00005,-0.0005l2.56479,0.26659c1.02976,0.08276 1.94158,0.80346 2.21805,1.85941c0.33524,1.28034 -0.38528,2.58881 -1.622,3.00308l-3.78088,1.30799l-0.01056,-0.03054c-0.04792,0.02646 -0.09601,0.05264 -0.14427,0.07856c-2.56134,1.37479 -7.29331,1.61567 -10.10108,2.48206c-2.77874,0.85744 -4.88196,2.41177 -7.78349,2.9959c-3.38736,0.68194 -6.15888,-0.53171 -9.37175,-0.53776c-1.3351,-0.00253 -2.63072,0.62157 -3.96477,0.56838c-4.32124,-0.17228 -8.68874,-2.63408 -13.09357,-2.08688c-4.99751,0.62084 -9.93573,2.16935 -14.92334,2.95926c-0.87899,0.1227 -1.75796,0.24539 -2.63695,0.36808l-0.01197,0.00111c-0.0041,0.09793 -0.00861,0.19596 -0.01346,0.29406c-0.09289,1.87199 -0.1106,6.36812 -1.32053,7.74387c-5.53668,6.29557 -10.46064,-2.09243 -11.77817,-6.40838c0.4628,-2.51383 0.7383,-4.4718 0.59352,-6.72806c-1.58763,0.62784 -3.0818,1.52449 -4.73205,1.95985c-1.92745,0.5085 -4.00729,0.38864 -5.88683,1.05264c-1.93683,0.68423 -4.9678,2.37454 -7.09153,0.9217c-3.94041,-2.69565 -3.18945,-12.7886 0.63359,-15.14854c2.84975,-1.75914 5.04175,-0.87953 7.87516,-1.00512c2.69004,-0.11925 5.09609,-1.6233 7.69944,-2.09703c-0.08761,-1.81444 0.09437,-3.50893 0.83564,-4.79585c0.71765,-1.24589 1.88617,-2.28372 3.17641,-2.91818c0.96505,-0.47453 2.17075,0.01689 3.21829,-0.22628c2.76099,-0.64088 4.8232,-3.67489 7.74863,0.81768c0.03286,0.05045 -0.19847,2.47632 -0.44011,4.9067c5.1912,-1.32101 10.13128,0.0277 15.71874,-0.54463zM274.69074,176.69312c-2.59614,-0.00882 -5.27404,1.77451 -8.14079,1.94548c-1.93164,0.11521 -3.59651,-0.4437 -5.50755,0.26026c-1.03556,0.38146 -0.63681,4.89883 -0.70007,5.64214c-0.02774,0.32576 -0.24479,0.78556 0.01753,0.98069c0.21788,0.16205 0.41608,-0.35881 0.66099,-0.47606c0.70574,-0.33785 1.43642,-0.62463 2.17537,-0.88181c1.09636,-0.38155 2.18486,-0.81941 3.32593,-1.03278c1.86004,-0.34779 3.73564,-0.72879 5.49482,-1.42593c1.09791,-0.4351 2.20117,-0.99732 3.38045,-1.06056c0.03929,-0.0021 0.0815,0.0043 0.12583,0.01765c-0.0588,-0.03427 -0.11563,-0.07017 -0.16922,-0.10879c-0.12233,-1.09441 -0.39281,-2.43017 -0.66332,-3.86028zM279.87571,177.34564c0.12542,0.60633 0.23615,1.18006 0.31103,1.69993c2.12007,1.26168 0.87178,3.40226 0.87178,3.40226l-0.04545,0.02087c0.11554,0.6302 0.10028,1.22993 -0.23626,1.75481c-0.10738,0.1675 -0.23645,0.30618 -0.38294,0.42173c0.27826,2.62222 0.16554,4.9208 -0.51287,7.67781c0.24691,0.6687 0.79402,2.3874 1.33353,2.95331c0.38819,0.40719 1.45586,1.08176 1.59976,0.53789c0.40971,-1.54824 0.10128,-3.20162 0.17873,-4.80127c0.28831,-5.95374 -0.74079,-11.56541 0.07909,-17.48871c0.27973,-2.02087 0.24382,-4.28548 1.22705,-6.04192c-0.60238,0.40486 -1.22539,0.82756 -1.9297,0.98994c-0.69541,0.16031 -2.66446,-0.65488 -3.14133,0.63159c-0.36313,0.97959 -0.37136,2.23684 -0.21938,3.57644c0.20543,0.12284 0.41257,0.24005 0.62404,0.34323c0,0 2.20502,1.17808 1.02694,3.3831c-0.23017,0.4308 -0.49953,0.73248 -0.78401,0.93902zM275.81454,180.81757c0.14312,0.10152 0.28934,0.23382 0.41824,0.35804l0.03938,-0.09687c-0.1386,-0.09869 -0.29815,-0.1799 -0.4576,-0.26117z" fill="#000000"/><path d="M289.13296,186.05614c-0.65117,0.09086 -1.30247,0.18115 -1.95364,0.27199c-0.15664,-3.71491 -0.4644,-7.39453 -0.01464,-11.14802c4.39861,-2.13236 6.73078,-0.61655 11.4934,-0.49545c1.76926,0.04497 3.52423,-0.37895 5.28569,-0.55086c6.81181,-0.66484 13.78638,-0.86686 20.58305,-1.21515c1.82741,-0.09365 3.47614,-1.26181 5.29701,-1.44259c1.49597,-0.14852 2.05427,2.25826 3.32839,3.05616c1.74317,1.09165 4.09862,1.01448 5.75552,2.2331c1.43028,1.05194 2.64762,2.36251 3.889,3.64048c-4.2671,1.12276 -8.81685,4.07259 -12.46161,4.7926c-2.98933,0.59055 -5.29071,-0.58851 -8.16039,-0.62031c-1.35659,-0.01505 -2.68485,0.62128 -4.04084,0.57783c-3.35825,-0.10764 -7.27518,-1.64223 -10.64519,-1.98522c-6.02105,-0.6128 -12.42522,1.9581 -18.35571,2.88545z" data-paper-data="{&quot;noHover&quot;:false,&quot;origItem&quot;:[&quot;Path&quot;,{&quot;applyMatrix&quot;:true,&quot;segments&quot;:[[[305.48257,187.37814],[0,0],[1.8003,-5.72625]],[[311.02193,169.64846],[-3.22072,5.12402],[1.80266,-2.86794]],[[317.48681,161.05038],[-1.58652,2.96182],[0.64061,-1.19593]],[[318.76819,157.18728],[-0.6154,1.20908],[1.30179,-2.55763]],[[322.95103,150.15719],[-0.79714,2.94099],[0.97192,-3.58581]],[[324.19684,136.87189],[-0.88712,4.32224],[-1.69607,0.54545]],[[319.21472,138.74466],[1.57735,-0.81504],[-1.82727,0.94417]],[[314.66589,142.91377],[1.75176,-1.07783],[-1.28039,0.7878]],[[310.46009,144.54206],[0.53066,-1.40656],[-0.64591,1.71202]],[[309.4056,149.92925],[0.7269,-1.67923],[-2.70354,6.24553]],[[301.40217,168.8355],[2.42658,-6.39956],[-0.62749,1.65485]],[[299.54384,173.80914],[0.82532,-1.5656],[-2.22169,4.21441]],[[294.88257,184.32452],[0.04068,-4.88805],[3.16421,2.0685]],[[304.86007,189.24974],[-3.39872,-1.50794],[0.20751,-0.62387]],[[305.48258,187.37815],[-0.2075,0.62387],[0,0]]],&quot;closed&quot;:true,&quot;fillColor&quot;:[0,0,0,1]}]}" fill="#c6c6c6"/></g></g><path d="M330.74392,135.2595c2.46215,-0.4334 2.89554,2.02874 2.89554,2.02874l0.11734,0.99053c1.22363,3.01315 2.54553,5.89663 3.74138,8.9079c0.33864,0.85272 2.90343,6.2269 2.97951,7.4589c0.07046,1.14106 -0.53835,2.2222 -0.80751,3.33331c0,0 -0.68065,2.40556 -3.08621,1.72491c-2.40556,-0.68065 -1.72491,-3.08621 -1.72491,-3.08621c1.05373,-2.91537 -0.8581,-4.68976 -2.02574,-7.63118c-1.18397,-2.98253 -2.48899,-5.83609 -3.7075,-8.8224l-0.41065,-2.00898c0,0 -0.4334,-2.46215 2.02874,-2.89554z" fill="#000000"/><path d="M311.74,128.30409l2.83623,-2.35192c1.85862,2.79072 2.82092,5.71402 4.15425,8.7492c3.10024,7.0574 6.57795,12.47588 5.80782,20.39843c0,0 -0.25441,2.48703 -2.74143,2.23261c-2.48703,-0.25441 -2.23261,-2.74143 -2.23261,-2.74143c0.73865,-6.81644 -2.74041,-11.80149 -5.42066,-17.89951c-0.99378,-2.26102 -1.70621,-4.46297 -2.87431,-6.57376c-0.44286,-0.41437 -0.65473,-0.88034 -0.65473,-0.88034l0.08909,-0.07388c-0.08999,-0.1416 -0.18259,-0.28275 -0.27806,-0.42345z" fill="#000000"/><path d="M305.16523,136.73016c2.20341,-1.1811 3.38451,1.02231 3.38451,1.02231l0.82718,1.56247c1.40654,3.26695 3.60201,6.66088 4.20207,10.19957c0.49147,2.89838 -0.03957,5.82534 0.57735,8.7962c0,0 0.50111,2.44927 -1.94815,2.95037c-2.44927,0.50111 -2.95037,-1.94815 -2.95037,-1.94815c-0.61414,-3.04127 -0.15073,-6.08489 -0.61999,-9.03361c-0.4906,-3.08276 -2.62168,-6.12716 -3.85326,-8.98692l-0.64166,-1.17773c0,0 -1.1811,-2.20341 1.02231,-3.38451z" fill="#000000"/><path d="M294.91137,141.55272c2.07532,-1.39392 3.46925,0.68139 3.46925,0.68139l0.33683,0.50917c2.41968,4.13336 2.66329,7.94153 3.76015,12.5148c0,0 0.57867,2.43211 -1.85345,3.01078c-2.43211,0.57867 -3.01078,-1.85345 -3.01078,-1.85345c-0.96412,-4.08208 -1.04868,-7.51134 -3.20275,-11.13216l-0.18067,-0.2613c0,0 -1.39392,-2.07532 0.68139,-3.46925z" fill="#000000"/></g></g></g></svg>