<svg version="1.1" xmlns="http://www.w3.org/2000/svg" xmlns:xlink="http://www.w3.org/1999/xlink" width="105.46673" height="109.70819" viewBox="0,0,105.46673,109.70819"><g transform="translate(-209.09722,-103.19968)"><g data-paper-data="{&quot;isPaintingLayer&quot;:true}" fill-rule="nonzero" stroke-linecap="butt" stroke-linejoin="miter" stroke-miterlimit="10" stroke-dasharray="" stroke-dashoffset="0" style="mix-blend-mode: normal"><path d="M211.09723,210.90787v-61.81574h57.80573v61.81574z" fill="#00f6f7" stroke="#000000" stroke-width="4"/><g stroke="none" stroke-width="0.5"><path d="M265.24234,174.27995c1.33801,0.57284 2.61955,1.10179 3.59626,1.61044c0.06194,-0.02296 0.12394,-0.04974 0.18516,-0.07944c-0.03579,0.02935 -0.06471,0.06079 -0.08488,0.09457c-0.60503,1.01421 -0.74485,2.25151 -0.99581,3.40549c-0.40212,1.84905 -1.13503,3.68711 -1.88342,5.42511c-0.45912,1.06621 -0.72824,2.22704 -1.02281,3.34989c-0.19852,0.75684 -0.37355,1.52398 -0.48658,2.29822c-0.03923,0.26867 0.28248,0.72362 0.02649,0.81415c-0.30824,0.10898 -0.57387,-0.32753 -0.82884,-0.53218c-0.58175,-0.46696 -4.58892,-2.67072 -4.32819,-3.74308c0.48118,-1.97892 1.86189,-3.09628 2.84327,-4.76403c1.45648,-2.47512 1.5245,-5.72892 2.97936,-7.87914z" data-paper-data="{&quot;noHover&quot;:false,&quot;origItem&quot;:[&quot;Path&quot;,{&quot;applyMatrix&quot;:true,&quot;segments&quot;:[[[290.70156,197.04816],[0,0],[-1.15982,2.32268]],[[288.83299,205.20695],[1.11875,-2.64498],[-0.75382,1.78221]],[[286.62252,210.25816],[0.21708,-2.02498],[-0.11762,1.0973]],[[291.36824,213.38896],[-0.63805,-0.3865],[0.27964,0.16939]],[[292.25489,213.80837],[-0.29126,0.14853],[0.24189,-0.12336]],[[292.12154,213.00479],[-0.00359,0.2715],[0.01036,-0.78237]],[[292.29649,210.664],[-0.09739,0.77636],[0.14452,-1.15183]],[[292.84666,207.22513],[-0.3151,1.11728],[0.51362,-1.82123]],[[294.00682,201.66814],[-0.15577,1.88585],[0.09722,-1.17696]],[[294.55628,198.16809],[-0.46658,1.0849],[0.01555,-0.03614]],[[294.62793,198.06315],[-0.03163,0.0338],[-0.0568,0.03749]],[[294.45536,198.16652],[0.05838,-0.03089],[-1.03506,-0.37595]],[[290.70155,197.04816],[1.40167,0.39212],[0,0]]],&quot;closed&quot;:true,&quot;fillColor&quot;:[0,0,0,1]}]}" fill="#8f4c00"/><path d="M268.618,170.38989c-0.01285,-0.35132 -0.1121,-0.75387 -0.34138,-1.18514c-1.17358,-2.20742 -3.2834,-1.01216 -3.2834,-1.01216c-0.20355,0.11801 -0.51406,0.20346 -0.73057,0.3055c-1.19679,-0.62075 -2.23433,-1.33464 -2.84504,-2.18227c-0.80204,-1.1132 0.9778,-2.30441 1.23245,-2.97109c0.2579,-0.67519 0.25848,-1.43369 0.25827,-2.15948c0.90985,1.79555 2.88838,3.09015 4.40999,4.44914c4.45997,3.98327 9.69398,6.25526 14.47561,9.81422c1.28473,0.95621 2.82866,1.62292 3.88546,2.82628c0.37125,0.42272 -0.78748,0.93751 -1.34197,1.0327c-0.77061,0.13234 -2.50757,-0.36653 -3.20035,-0.53439c-1.91041,-2.1004 -3.77213,-3.46599 -6.10405,-4.69708c-0.01424,-0.18604 -0.05664,-0.37078 -0.13582,-0.5533c-0.24807,-0.57202 -0.75866,-0.91618 -1.34623,-1.17164l0.0081,-0.04937c0,0 -1.12584,-2.26872 -3.3553,-1.21225c-0.47332,-0.2277 -1.01252,-0.46575 -1.58578,-0.69971z" data-paper-data="{&quot;noHover&quot;:false,&quot;origItem&quot;:[&quot;Path&quot;,{&quot;applyMatrix&quot;:true,&quot;segments&quot;:[[[293.58691,192.69103],[0,0],[0.59903,0.15663]],[[295.24835,193.16655],[-0.49912,-0.16356],[2.07137,-1.34015]],[298.68417,193.89486],[[298.68272,193.94485],[0,0],[0.61603,0.17607]],[[300.15051,194.93518],[-0.32106,-0.53448],[0.10246,0.17055]],[[300.35854,195.46549],[-0.03855,-0.18256],[2.47343,0.91411]],[[307.01163,199.33176],[-2.16974,-1.83126],[0.70883,0.07542]],[[310.25,199.44706],[-0.74655,0.23241],[0.53717,-0.16721]],[[311.44186,198.25205],[0.42355,0.37029],[-1.20571,-1.05412]],[[307.21838,195.96155],[1.3992,0.77918],[-5.20767,-2.90005]],[[291.58051,188.13092],[4.94454,3.36293],[-1.68694,-1.14735]],[[286.71033,184.35047],[1.13782,1.66048],[0.09555,0.71948]],[[286.74129,186.51905],[0.16698,-0.70322],[-0.16488,0.69434]],[[285.9135,189.61448],[-0.94132,-0.99819],[0.71676,0.76006]],[[289.02128,191.39794],[-1.26796,-0.45817],[0.20123,-0.1296]],[[289.60575,190.99099],[-0.18629,0.14372],[0,0]],[[293.09325,191.57177],[-1.45336,-2.03415],[0.28395,0.39742]],[[293.58691,192.69102],[-0.05888,-0.34658],[0,0]]],&quot;closed&quot;:true,&quot;fillColor&quot;:[0,0,0,1]}]}" fill="#8f4c00"/><g><path d="M281.15846,166.68473c2.53686,-5.44017 3.95434,-12.19189 7.82021,-16.84846c2.16375,-2.60631 5.57643,-4.94664 7.53826,-7.6744c0.79215,-1.10142 1.00882,-2.54354 1.77771,-3.66132c1.62647,-2.36448 3.89348,-3.60895 5.07002,-6.41974c1.43451,-3.42708 1.5329,-8.83828 2.98008,-13.00655c-1.75303,0.31794 -3.51421,0.60134 -5.18496,1.20212c-1.93545,0.69597 -3.17888,2.6971 -5.05703,3.5355c-1.37278,0.61279 -3.67243,-0.26293 -4.38326,1.06173c-0.8652,1.61235 -0.81181,3.6328 -1.75297,5.202c-3.50049,5.8363 -7.17132,11.6658 -10.41748,17.69116c-0.83942,1.5581 -1.4717,3.24282 -2.49552,4.68645c-2.75601,3.88607 -5.31972,4.97165 -6.00211,9.812c2.86509,2.4662 6.07291,4.2518 9.2441,6.19312c0.28766,-0.59121 0.57531,-1.1824 0.86296,-1.7736zM275.1476,145.3945c3.24844,-6.09926 6.89319,-12.07972 10.54112,-17.9075c1.04822,-1.67458 0.79332,-4.01661 2.00416,-5.57766c1.42261,-1.83404 4.29306,-1.76687 6.42427,-2.68634c1.96833,-0.8492 3.29988,-2.87737 5.30522,-3.63509c2.2735,-0.85905 4.78327,-0.86934 7.15879,-1.3828c0.62454,-0.78806 1.24911,-1.57613 1.87365,-2.36419l-0.00039,-0.00032l1.65136,-1.98047c0.64287,-0.80869 1.74954,-1.16378 2.78027,-0.80452c1.24977,0.43559 1.93422,1.76328 1.58857,3.0209l-1.0223,3.86792l-0.03124,-0.00826c-0.00475,0.05453 -0.00983,0.10905 -0.01523,0.16356c-0.28687,2.89279 -2.72532,6.95524 -3.57163,9.76913c-0.83755,2.7848 -0.71995,5.39739 -1.85286,8.13173c-1.32259,3.19217 -3.8754,4.8162 -5.67183,7.47993c-0.74651,1.1069 -0.95083,2.53041 -1.73881,3.60818c-2.55242,3.49113 -7.03121,5.74409 -9.03297,9.70577c-2.27108,4.49475 -3.73903,9.45751 -5.86425,14.0383c-0.38825,0.79809 -0.77648,1.59616 -1.16473,2.39424l-0.00575,0.01055c0.07901,0.05801 0.15787,0.1164 0.2366,0.17513c1.50221,1.12088 5.22469,3.64249 5.69213,5.41397c2.13905,8.10639 -7.56953,7.517 -11.88695,6.20428c-1.82876,-1.78583 -3.30052,-3.10623 -5.25423,-4.24407c-0.36403,1.668 -0.45279,3.4083 -1.01152,5.02097c-0.65257,1.88356 -1.91172,3.54326 -2.4085,5.47376c-0.51192,1.98933 -0.79872,5.44789 -3.1889,6.4008c-4.43479,1.76803 -12.39453,-4.48289 -12.22197,-8.97234c0.12862,-3.34651 2.08101,-4.6757 3.55658,-7.09783c1.40089,-2.29957 1.49388,-5.13552 2.55217,-7.56078c-1.55507,-0.93895 -2.86025,-2.03481 -3.51525,-3.36771c-0.63411,-1.29041 -0.84411,-2.8391 -0.65139,-4.26392c0.14416,-1.0657 1.22436,-1.79258 1.60658,-2.79776c1.00743,-2.64932 -0.36136,-6.05289 4.99919,-5.97645c0.0602,0.00086 1.945,1.54548 3.82781,3.10118c1.79786,-5.04592 5.67189,-8.39483 8.3122,-13.35226zM265.23533,174.32944c-1.45485,2.15021 -1.46758,5.36755 -2.92406,7.84266c-0.98139,1.66775 -2.37363,2.73817 -2.8548,4.71709c-0.26074,1.07234 3.7116,3.26008 4.29337,3.72704c0.25496,0.20466 0.51563,0.64122 0.82388,0.53225c0.256,-0.09052 -0.06587,-0.54546 -0.02664,-0.81414c0.11304,-0.77424 0.28238,-1.54069 0.4809,-2.29751c0.29456,-1.12287 0.53799,-2.2706 0.9971,-3.3368c0.74839,-1.73799 1.47789,-3.50741 1.88004,-5.35647c0.25097,-1.154 0.3994,-2.38334 1.00444,-3.39755c0.02016,-0.03379 0.04902,-0.06526 0.08481,-0.09461c-0.06123,0.02971 -0.12272,0.05686 -0.18466,0.07982c-0.97671,-0.50866 -2.23637,-1.02891 -3.57439,-1.60174zM268.66799,170.38907c0.57326,0.23396 1.11127,0.46193 1.58458,0.68964c2.22945,-1.05646 3.3104,1.17331 3.3104,1.17331l-0.00801,0.04937c0.58757,0.25547 1.07692,0.60253 1.32499,1.17455c0.07917,0.18253 0.12233,0.367 0.13657,0.55303c2.33193,1.23108 4.1772,2.60627 6.08761,4.70667c0.69278,0.16788 2.42457,0.67201 3.19517,0.53967c0.55447,-0.09521 1.70974,-0.60539 1.3385,-1.02809c-1.0568,-1.20337 -2.60129,-1.8692 -3.88602,-2.82542c-4.78162,-3.55897 -10.01383,-5.83358 -14.4738,-9.81685c-1.52161,-1.35899 -3.42155,-2.59186 -4.33141,-4.38741c0.00022,0.72579 0.00374,1.47866 -0.25416,2.15386c-0.25466,0.66667 -2.02926,1.8467 -1.22722,2.95987c0.61072,0.84763 1.6498,1.55548 2.84659,2.17623c0.21652,-0.10204 0.42931,-0.20864 0.63287,-0.32666c0,0 2.20741,-1.17359 3.381,1.03383c0.22928,0.43127 0.32953,0.82308 0.34237,1.1744zM269.28576,175.69622c0.16407,-0.0622 0.35543,-0.10982 0.53042,-0.14756l-0.05846,-0.0867c-0.1592,0.06003 -0.31558,0.14719 -0.47195,0.23425z" fill="#000000"/><path d="M281.0604,167.56107c-0.28765,0.59121 -0.57584,1.18222 -0.8635,1.77343c-3.1712,-1.9413 -6.39735,-3.73746 -9.26246,-6.20365c0.6824,-4.84035 3.24107,-5.93119 5.99709,-9.81726c1.02381,-1.44364 1.65043,-3.13686 2.48986,-4.69495c3.24616,-6.02538 6.96727,-11.92782 10.46777,-17.76413c0.94117,-1.5692 0.89073,-3.5892 1.75592,-5.20155c0.71082,-1.32466 3.02005,-0.44617 4.39282,-1.05897c1.87815,-0.83839 3.12742,-2.83674 5.06287,-3.53271c1.67073,-0.60079 3.43742,-0.8806 5.19046,-1.19855c-1.44717,4.16827 -1.53524,9.58989 -2.96975,13.01696c-1.17653,2.8108 -3.43848,4.06384 -5.06494,6.42831c-0.76889,1.11776 -0.98125,2.57518 -1.77338,3.6766c-1.96182,2.72777 -5.41969,5.12368 -7.58344,7.72999c-3.86587,4.65657 -5.30246,11.40631 -7.83931,16.84646z" data-paper-data="{&quot;noHover&quot;:false,&quot;origItem&quot;:[&quot;Path&quot;,{&quot;applyMatrix&quot;:true,&quot;segments&quot;:[[[305.48257,187.37814],[0,0],[1.8003,-5.72625]],[[311.02193,169.64846],[-3.22072,5.12402],[1.80266,-2.86794]],[[317.48681,161.05038],[-1.58652,2.96182],[0.64061,-1.19593]],[[318.76819,157.18728],[-0.6154,1.20908],[1.30179,-2.55763]],[[322.95103,150.15719],[-0.79714,2.94099],[0.97192,-3.58581]],[[324.19684,136.87189],[-0.88712,4.32224],[-1.69607,0.54545]],[[319.21472,138.74466],[1.57735,-0.81504],[-1.82727,0.94417]],[[314.66589,142.91377],[1.75176,-1.07783],[-1.28039,0.7878]],[[310.46009,144.54206],[0.53066,-1.40656],[-0.64591,1.71202]],[[309.4056,149.92925],[0.7269,-1.67923],[-2.70354,6.24553]],[[301.40217,168.8355],[2.42658,-6.39956],[-0.62749,1.65485]],[[299.54384,173.80914],[0.82532,-1.5656],[-2.22169,4.21441]],[[294.88257,184.32452],[0.04068,-4.88805],[3.16421,2.0685]],[[304.86007,189.24974],[-3.39872,-1.50794],[0.20751,-0.62387]],[[305.48258,187.37815],[-0.2075,0.62387],[0,0]]],&quot;closed&quot;:true,&quot;fillColor&quot;:[0,0,0,1]}]}" fill="#c6c6c6"/></g></g><path d="M262.09366,104.69588c1.01304,-2.28555 3.29859,-1.27251 3.29859,-1.27251l0.8877,0.45489c3.18357,0.66428 6.31428,1.17467 9.4808,1.86095c0.89668,0.19434 6.788,1.06171 7.85315,1.68549c0.98652,0.57773 1.54455,1.68593 2.31683,2.52889c0,0 1.61742,1.9063 -0.28888,3.52371c-1.9063,1.61742 -3.52371,-0.28888 -3.52371,-0.28888c-1.8326,-2.50026 -4.37156,-1.90254 -7.46436,-2.5733c-3.13603,-0.68013 -6.2325,-1.18784 -9.39093,-1.84141l-1.89668,-0.77925c0,0 -2.28555,-1.01304 -1.27251,-3.29859z" fill="#000000" stroke="none" stroke-width="0.5"/><path d="M245.72375,116.59346l-0.371,-3.6658c3.35297,0.01312 6.31624,0.84424 9.57926,1.42973c7.58716,1.3614 14.02426,1.49564 20.1716,6.55232c0,0 1.9227,1.59789 0.32481,3.52058c-1.59789,1.9227 -3.52058,0.32481 -3.52058,0.32481c-5.24668,-4.41382 -11.32474,-4.30527 -17.88132,-5.48039c-2.43104,-0.43571 -4.65618,-1.07205 -7.0597,-1.27929c-0.59091,0.13659 -1.09586,0.05266 -1.09586,0.05266l-0.01165,-0.11515c-0.16772,-0.00425 -0.33653,-0.00608 -0.50656,-0.00528z" fill="#000000" stroke="none" stroke-width="0.5"/><path d="M249.05258,126.7495c0.24809,-2.48766 2.73575,-2.23957 2.73575,-2.23957l1.75826,0.18452c3.49624,0.65394 7.53776,0.72378 10.80991,2.19872c2.68006,1.20806 4.81372,3.28089 7.6239,4.42523c0,0 2.31261,0.94965 1.36296,3.26226c-0.94965,2.31261 -3.26226,1.36296 -3.26226,1.36296c-2.86708,-1.18591 -5.13529,-3.26763 -7.84475,-4.52221c-2.83263,-1.3116 -6.54811,-1.23999 -9.60877,-1.81214l-1.33543,-0.12401c0,0 -2.48766,-0.24809 -2.23957,-2.73575z" fill="#000000" stroke="none" stroke-width="0.5"/><path d="M247.33868,137.95044c0,-2.5 2.5,-2.5 2.5,-2.5l0.61049,0.00429c4.78037,0.29599 8.07748,2.21709 12.48546,3.85647c0,0 2.34161,0.8757 1.46591,3.21732c-0.8757,2.34161 -3.21732,1.46591 -3.21732,1.46591c-3.92622,-1.4757 -6.8201,-3.31756 -11.02689,-3.54827l-0.31765,0.00429c0,0 -2.5,0 -2.5,-2.5z" fill="#000000" stroke="none" stroke-width="0.5"/></g></g></svg>