<svg version="1.1" xmlns="http://www.w3.org/2000/svg" xmlns:xlink="http://www.w3.org/1999/xlink" width="133.04233" height="89.6045" viewBox="0,0,133.04233,89.6045"><g transform="translate(-209.09729,-123.30337)"><g data-paper-data="{&quot;isPaintingLayer&quot;:true}" fill-rule="nonzero" stroke-linecap="butt" stroke-linejoin="miter" stroke-miterlimit="10" stroke-dasharray="" stroke-dashoffset="0" style="mix-blend-mode: normal"><path d="M211.09729,210.90787v-61.81574h57.80573v61.81574z" fill="#00f6f7" stroke="#000000" stroke-width="4"/><path d="M282.62924,190.33453c0.14963,-0.43702 0.46602,-0.87897 1.05703,-1.26243c2.09722,-1.36076 3.45798,0.73647 3.45798,0.73647c5.06576,8.22466 13.45558,-0.21048 20.77534,1.82646c2.60776,0.72569 4.47353,2.0317 6.3367,3.86166c0.99624,0.97848 2.68124,1.71058 2.81728,3.10033c0.41747,4.26477 -4.19199,6.52347 -6.55814,9.00986c-0.76276,0.80152 -1.19196,1.9751 -2.14962,2.52929c-2.9731,1.72052 -7.22954,1.58786 -10.55393,1.77536c-3.17899,-0.28726 -6.9343,0.38732 -9.96922,-0.76139c-3.2756,-1.23981 -6.47304,-4.4796 -8.66439,-7.11281c-2.49752,-3.0011 -2.40255,-3.41006 -2.27093,-7.65111c0.04723,-1.52163 -0.47753,-3.4299 0.57386,-4.53088c1.59468,-1.66989 3.37674,-1.80308 5.14805,-1.52081zM287.61654,197.30506c-1.05608,0.22752 -2.00832,-0.42995 -2.00832,-0.42995l-1.16601,-0.99973c-0.63498,-0.17828 -1.26778,-0.3645 -1.90493,-0.53485c-0.39954,-0.10682 -0.97584,-0.64103 -1.20475,-0.29659c-0.25308,0.38081 0.5134,0.79267 0.57387,1.24589c0.14064,1.05419 -0.23022,2.15639 0.01801,3.19054c0.44572,1.85691 4.24201,4.67053 5.685,5.79967c2.91562,2.28146 6.82808,1.31795 10.28199,1.63212c2.15839,-0.13253 5.82948,0.18526 7.73841,-0.96101c0.60168,-0.3613 0.73053,-1.20917 1.2039,-1.72732c0.80758,-0.88398 1.72396,-1.66303 2.61948,-2.4578c0.87294,-0.77472 2.84901,-1.05512 2.71239,-2.21424c-0.04572,-0.38789 -0.8142,-0.03812 -1.14603,-0.24414c-1.46536,-0.90983 -2.67562,-2.35252 -4.33384,-2.82726c-4.78157,-1.36897 -9.88865,2.78442 -14.77753,2.18716c-1.7006,-0.20776 -3.09132,-0.6711 -4.29163,-1.36249z" fill="#000000" stroke="none" stroke-width="0.5"/><path d="M291.86289,199.42435c4.88888,0.59726 10.08692,-3.55531 14.86849,-2.18634c1.65821,0.47475 2.87249,1.93219 4.33785,2.84202c0.33182,0.20603 1.10043,-0.14256 1.14615,0.24533c0.13662,1.15912 -1.83936,1.44725 -2.7123,2.22197c-0.89553,0.79477 -1.81427,1.58603 -2.62185,2.47002c-0.47337,0.51815 -0.60621,1.37509 -1.20789,1.73638c-1.90893,1.14626 -5.61401,0.85296 -7.7724,0.98549c-3.45391,-0.31418 -7.42102,0.62183 -10.33664,-1.65963c-1.44299,-1.12914 -5.24394,-3.96917 -5.68966,-5.82608c-0.24823,-1.03415 0.12468,-2.14642 -0.01596,-3.20061c-0.06047,-0.45322 -0.82593,-0.868 -0.57285,-1.24881c0.22891,-0.34445 0.80539,0.1893 1.20493,0.29612c0.63715,0.17036 1.36274,0.39387 1.99772,0.57215l1.16675,0.99783c0,0 0.85878,0.62192 1.91487,0.3944c1.20031,0.6914 2.59221,1.152 4.29281,1.35976z" data-paper-data="{&quot;noHover&quot;:false,&quot;origItem&quot;:[&quot;Path&quot;,{&quot;applyMatrix&quot;:true,&quot;segments&quot;:[[[287.61654,198.08304],[1.20031,0.6914],[-1.05608,0.22752]],[285.60822,197.65309],[[284.44221,196.65336],[0,0],[-0.63498,-0.17828]],[[282.53728,196.11851],[0.63715,0.17036],[-0.39954,-0.10682]],[[281.33252,195.82192],[0.22891,-0.34445],[-0.25308,0.38081]],[[281.90639,197.06781],[-0.06047,-0.45322],[0.14064,1.05419]],[[281.9244,200.25835],[-0.24823,-1.03415],[0.44572,1.85691]],[[287.6094,206.05802],[-1.44299,-1.12914],[2.91562,2.28146]],[[297.89139,207.69014],[-3.45391,-0.31418],[2.15839,-0.13253]],[[305.6298,206.72914],[-1.90893,1.14626],[0.60168,-0.3613]],[[306.83369,205.00182],[-0.47337,0.51815],[0.80758,-0.88398]],[[309.45318,202.54402],[-0.89553,0.79477],[0.87294,-0.77472]],[[312.16557,200.32978],[0.13662,1.15912],[-0.04572,-0.38789]],[[311.01954,200.08564],[0.33182,0.20603],[-1.46536,-0.90983]],[[306.68571,197.25837],[1.65821,0.47475],[-4.78157,-1.36897]],[[291.90818,199.44553],[4.88888,0.59726],[-1.7006,-0.20776]]],&quot;closed&quot;:true}]}" fill="#00f6f7" stroke="none" stroke-width="0.5"/><path d="M279.06152,166.40777c0,-1.38071 1.11929,-2.5 2.5,-2.5c0.8828,0 1.65873,0.45757 2.10355,1.14849c0.50827,-0.94238 1.19237,-1.80664 2.15961,-2.59991c1.12065,-1.31459 2.37329,-2.20752 4.05845,-3.60531c0,0 0.09772,-0.08026 0.26726,-0.1827c-0.60934,-1.62437 -1.33028,-3.09642 -2.6653,-4.56283c-0.16568,-0.14894 -0.32971,-0.30066 -0.49287,-0.45377c-0.20905,-0.04867 -1.65262,-0.43219 -1.94888,-1.80148c-0.92896,-0.7851 -1.92345,-1.44356 -3.11211,-1.74029c-1.29267,-0.3227 -2.65324,-0.24669 -3.97986,-0.37004l-1.90403,-0.57052c0,0 -2.37235,-0.78863 -1.58372,-3.16098c0.78863,-2.37235 3.16098,-1.58372 3.16098,-1.58372l0.83988,0.34163c4.25266,0.4742 5.4625,0.04239 9.03961,2.6317c0.80137,0.58008 1.48729,1.313 2.19112,2.01914l0.27215,0.1062c0.42619,0.39943 0.81331,0.79659 1.1673,1.19333c0.22504,0.17062 0.45874,0.32937 0.70424,0.472c0,0 1.37235,0.82118 1.26499,2.24758c1.30428,2.25406 1.9976,4.62607 3.10645,7.43735c1.83665,-0.47952 4.05977,-1.11448 5.19293,-2.55901c0.94602,-1.20597 1.77096,-3.03568 2.24324,-4.88535c0.59873,-8.36398 -0.2492,-16.70972 -0.64968,-25.05955l-0.41711,-2.08962c0,0 -0.46195,-2.45695 1.995,-2.9189c2.45695,-0.46195 2.9189,1.995 2.9189,1.995l0.49752,2.77506c0.31128,6.55049 0.87194,13.09096 0.84942,19.64357c0.06802,0.31628 0.06802,0.54244 0.06802,0.54244l-0.0342,-0.10806c0.24025,1.67537 0.1453,3.68184 -0.24961,5.69056c-0.00916,0.12884 -0.01864,0.25769 -0.02845,0.38654c0,0 -0.03784,0.49056 -0.29756,1.01964c-0.61926,2.31265 -1.63176,4.52461 -2.98231,6.12109c-2.24113,2.64925 -4.43137,3.25816 -7.26185,4.07056c-0.10236,0.80909 -0.21461,1.83734 -0.22068,2.53055c0.44093,0.75832 1.00197,1.39964 1.78934,1.78011c0.29433,0.14222 0.63208,0.26055 1.00346,0.35733c0.35628,0.08753 0.72517,0.15761 1.09872,0.21367c1.44216,0.20113 3.16836,0.17878 4.79524,0.02492l0.62367,-0.28794c0,0 0.80942,-0.26907 1.63984,-0.02008c0.85763,-0.15507 1.61362,-0.34093 2.18682,-0.5381c1.8757,-0.64521 4.79612,-4.47159 5.73119,-5.21674c2.09772,-1.67168 4.89228,-2.87436 6.06795,-5.28532c0.91452,-1.87542 1.33015,-3.96003 2.13328,-5.88527l-0.21473,0.50284c0,0 -0.49162,-2.45118 1.95956,-2.94281c2.45118,-0.49162 2.94281,1.95956 2.94281,1.95956l-0.00935,2.25606c-0.90864,2.06388 -1.28409,4.35504 -2.3403,6.34743c-0.83902,1.58268 -1.82478,3.14212 -3.13182,4.36706c-1.22116,1.14446 -2.99007,1.55136 -4.29777,2.59584c-3.00179,2.39758 -3.26125,4.56823 -6.99023,5.94628c-1.48705,0.54954 -3.67705,0.99148 -6.0055,1.19347l-0.71235,0.2002c-0.88813,-0.00382 -1.84062,-0.02522 -2.81629,-0.09378c-2.30803,-0.07072 -4.47422,-0.44296 -5.94682,-1.24608c-0.08469,-0.04619 -0.16761,-0.09263 -0.24881,-0.13934c-1.25248,-0.57594 -2.37444,-1.37318 -3.24931,-2.47541c-0.53268,-0.67112 -0.7973,-1.55847 -0.90504,-2.52683c-0.42197,-1.00556 -0.82473,-2.08948 -1.41591,-3.25921c0,0 -0.0274,-0.05465 -0.06509,-0.15116c-0.87255,0.01894 -1.67938,0.07025 -1.89339,0.19046c-0.05516,0.03099 -0.10898,0.06269 -0.16148,0.0951c-0.3546,0.45279 -0.67845,0.95816 -0.96523,1.54502c-1.40275,2.8705 -0.59994,7.29478 -0.00298,10.2384l0.52961,1.52332c0,0 0.79251,2.37106 -1.57855,3.16357c-2.37106,0.79251 -3.16357,-1.57855 -3.16357,-1.57855l-0.68988,-2.12519c-0.29918,-1.5069 -0.59865,-3.24554 -0.74764,-5.03025c-1.5862,-1.09876 -0.82253,-2.88295 -0.72294,-3.09757c0.11633,-0.64875 0.23038,-1.27242 0.35787,-1.87206c-0.26724,0.09748 -0.55578,0.15066 -0.85675,0.15066c-1.38071,0 -2.5,-1.11929 -2.5,-2.5z" fill="#ff0000" stroke="none" stroke-width="0.5"/><path d="M319.60947,147.40515c0,-1.38071 1.11929,-2.5 2.5,-2.5c1.38071,0 2.5,1.11929 2.5,2.5c0,1.38071 -1.11929,2.5 -2.5,2.5c-1.38071,0 -2.5,-1.11929 -2.5,-2.5z" fill="#ff0000" stroke="none" stroke-width="0.5"/><path d="M337.13962,143.60461c0,-1.38071 1.11929,-2.5 2.5,-2.5c1.38071,0 2.5,1.11929 2.5,2.5c0,1.38071 -1.11929,2.5 -2.5,2.5c-1.38071,0 -2.5,-1.11929 -2.5,-2.5z" fill="#ff0000" stroke="none" stroke-width="0.5"/><path d="M322.20091,181.1538c0,-1.38071 1.11929,-2.5 2.5,-2.5c1.38071,0 2.5,1.11929 2.5,2.5c0,1.38071 -1.11929,2.5 -2.5,2.5c-1.38071,0 -2.5,-1.11929 -2.5,-2.5z" fill="#ff0000" stroke="none" stroke-width="0.5"/><path d="M308.02435,178.87348c0,-1.38071 1.11929,-2.5 2.5,-2.5c1.38071,0 2.5,1.11929 2.5,2.5c0,1.38071 -1.11929,2.5 -2.5,2.5c-1.38071,0 -2.5,-1.11929 -2.5,-2.5z" fill="#ff0000" stroke="none" stroke-width="0.5"/><path d="M289.88445,174.16084c0,-1.38071 1.11929,-2.5 2.5,-2.5c1.38071,0 2.5,1.11929 2.5,2.5c0,1.38071 -1.11929,2.5 -2.5,2.5c-1.38071,0 -2.5,-1.11929 -2.5,-2.5z" fill="#ff0000" stroke="none" stroke-width="0.5"/><path d="M286.68331,133.72325c0,-1.38071 1.11929,-2.5 2.5,-2.5c1.38071,0 2.5,1.11929 2.5,2.5c0,1.38071 -1.11929,2.5 -2.5,2.5c-1.38071,0 -2.5,-1.11929 -2.5,-2.5z" fill="#ff0000" stroke="none" stroke-width="0.5"/><path d="M330.58487,161.99914c0,-1.38071 1.11929,-2.5 2.5,-2.5c1.38071,0 2.5,1.11929 2.5,2.5c0,1.38071 -1.11929,2.5 -2.5,2.5c-1.38071,0 -2.5,-1.11929 -2.5,-2.5z" fill="#ff0000" stroke="none" stroke-width="0.5"/><path d="M274.03113,134.63538c0,-1.38071 1.11929,-2.5 2.5,-2.5c1.38071,0 2.5,1.11929 2.5,2.5c0,1.38071 -1.11929,2.5 -2.5,2.5c-1.38071,0 -2.5,-1.11929 -2.5,-2.5z" fill="#ff0000" stroke="none" stroke-width="0.5"/></g></g></svg>