<svg version="1.1" xmlns="http://www.w3.org/2000/svg" xmlns:xlink="http://www.w3.org/1999/xlink" width="99.89845" height="110.30624" viewBox="0,0,99.89845,110.30624"><g transform="translate(-209.0972,-102.60162)"><g data-paper-data="{&quot;isPaintingLayer&quot;:true}" fill-rule="nonzero" stroke-linecap="butt" stroke-linejoin="miter" stroke-miterlimit="10" stroke-dasharray="" stroke-dashoffset="0" style="mix-blend-mode: normal"><path d="M211.09721,210.90787v-61.81574h57.80573v61.81574z" fill="#00f6f7" stroke="#000000" stroke-width="4"/><path d="M289.56975,176.58903c1.15136,-0.89039 2.2369,-1.75279 3.15642,-2.35873c0.01007,-0.06528 0.01683,-0.13248 0.02066,-0.20042c0.00823,0.04555 0.02163,0.08611 0.04134,0.12016c0.59182,1.02198 1.60485,1.746 2.49103,2.52662c1.41993,1.25079 2.66937,2.78525 3.82383,4.28455c0.70823,0.91979 1.59155,1.71959 2.42932,2.52316c0.56469,0.54161 1.14982,1.0677 1.7713,1.54307c0.21566,0.16496 0.76965,0.10519 0.72422,0.37289c-0.05472,0.32233 -0.56532,0.34207 -0.86815,0.4653c-0.69097,0.28114 -4.56568,2.71027 -5.37578,1.96083c-1.49494,-1.38304 -1.79958,-3.13291 -2.77933,-4.80162c-1.45406,-2.47654 -4.26387,-4.11874 -5.43485,-6.43582z" data-paper-data="{&quot;noHover&quot;:false,&quot;origItem&quot;:[&quot;Path&quot;,{&quot;applyMatrix&quot;:true,&quot;segments&quot;:[[[290.70156,197.04816],[0,0],[-1.15982,2.32268]],[[288.83299,205.20695],[1.11875,-2.64498],[-0.75382,1.78221]],[[286.62252,210.25816],[0.21708,-2.02498],[-0.11762,1.0973]],[[291.36824,213.38896],[-0.63805,-0.3865],[0.27964,0.16939]],[[292.25489,213.80837],[-0.29126,0.14853],[0.24189,-0.12336]],[[292.12154,213.00479],[-0.00359,0.2715],[0.01036,-0.78237]],[[292.29649,210.664],[-0.09739,0.77636],[0.14452,-1.15183]],[[292.84666,207.22513],[-0.3151,1.11728],[0.51362,-1.82123]],[[294.00682,201.66814],[-0.15577,1.88585],[0.09722,-1.17696]],[[294.55628,198.16809],[-0.46658,1.0849],[0.01555,-0.03614]],[[294.62793,198.06315],[-0.03163,0.0338],[-0.0568,0.03749]],[[294.45536,198.16652],[0.05838,-0.03089],[-1.03506,-0.37595]],[[290.70155,197.04816],[1.40167,0.39212],[0,0]]],&quot;closed&quot;:true,&quot;fillColor&quot;:[0,0,0,1]}]}" fill="#8f4c00" stroke="none" stroke-width="0.5"/><path d="M287.81299,171.7474c-0.3132,-0.15967 -0.71319,-0.26877 -1.20153,-0.27823c-2.49953,-0.0484 -2.48151,2.37641 -2.48151,2.37641c0.00409,0.23525 -0.0723,0.54811 -0.08846,0.78692c-1.12452,0.7437 -2.25296,1.30295 -3.29062,1.42422c-1.36276,0.15926 -1.53776,-1.97527 -1.99637,-2.52206c-0.46447,-0.55377 -1.1269,-0.92324 -1.76114,-1.27611c2.01138,0.07847 4.10493,-1.02046 6.03247,-1.68885c5.64974,-1.95913 10.18083,-5.42699 15.61631,-7.87355c1.4604,-0.65735 2.79394,-1.68199 4.3594,-2.01997c0.54992,-0.11874 0.43605,1.14408 0.24951,1.67484c-0.25923,0.73767 -1.54002,2.01261 -2.02368,2.53625c-2.76444,0.64744 -4.8632,1.60978 -7.07315,3.04837c-0.16947,-0.07806 -0.35151,-0.13087 -0.5495,-0.15048c-0.62046,-0.06151 -1.16952,0.21719 -1.67854,0.60629l-0.03919,-0.03109c0,0 -2.52986,-0.11992 -2.69131,2.3419c-0.42919,0.30278 -0.89946,0.65809 -1.38273,1.04516z" data-paper-data="{&quot;noHover&quot;:false,&quot;origItem&quot;:[&quot;Path&quot;,{&quot;applyMatrix&quot;:true,&quot;segments&quot;:[[[293.58691,192.69103],[0,0],[0.59903,0.15663]],[[295.24835,193.16655],[-0.49912,-0.16356],[2.07137,-1.34015]],[298.68417,193.89486],[[298.68272,193.94485],[0,0],[0.61603,0.17607]],[[300.15051,194.93518],[-0.32106,-0.53448],[0.10246,0.17055]],[[300.35854,195.46549],[-0.03855,-0.18256],[2.47343,0.91411]],[[307.01163,199.33176],[-2.16974,-1.83126],[0.70883,0.07542]],[[310.25,199.44706],[-0.74655,0.23241],[0.53717,-0.16721]],[[311.44186,198.25205],[0.42355,0.37029],[-1.20571,-1.05412]],[[307.21838,195.96155],[1.3992,0.77918],[-5.20767,-2.90005]],[[291.58051,188.13092],[4.94454,3.36293],[-1.68694,-1.14735]],[[286.71033,184.35047],[1.13782,1.66048],[0.09555,0.71948]],[[286.74129,186.51905],[0.16698,-0.70322],[-0.16488,0.69434]],[[285.9135,189.61448],[-0.94132,-0.99819],[0.71676,0.76006]],[[289.02128,191.39794],[-1.26796,-0.45817],[0.20123,-0.1296]],[[289.60575,190.99099],[-0.18629,0.14372],[0,0]],[[293.09325,191.57177],[-1.45336,-2.03415],[0.28395,0.39742]],[[293.58691,192.69102],[-0.05888,-0.34658],[0,0]]],&quot;closed&quot;:true,&quot;fillColor&quot;:[0,0,0,1]}]}" fill="#8f4c00" stroke="none" stroke-width="0.5"/><g stroke="none" stroke-width="0.5"><path d="M290.67589,158.98828c-3.51913,-4.8628 -8.7287,-9.38556 -10.91671,-15.02836c-1.22464,-3.15831 -1.60937,-7.27845 -3.03835,-10.3194c-0.577,-1.22789 -1.7316,-2.1187 -2.33421,-3.33422c-1.27471,-2.57124 -1.25926,-5.15732 -3.14278,-7.55256c-2.29649,-2.92041 -6.97648,-5.6386 -9.9144,-8.93061c-0.57495,1.6863 -1.18405,3.36293 -1.47184,5.11493c-0.3334,2.02958 0.81017,4.0894 0.62909,6.1382c-0.13237,1.4975 -2.01614,3.08076 -1.20453,4.34618c0.98787,1.54024 2.77914,2.47642 3.69236,4.06205c3.3965,5.89743 6.70419,11.94037 10.38959,17.70756c0.953,1.49133 2.11741,2.86328 2.88071,4.46004c2.05469,4.2983 1.75609,7.06632 5.65324,10.01706c3.54845,-1.30362 6.66896,-3.23775 9.9077,-5.06415c-0.37662,-0.53892 -0.75323,-1.07782 -1.12985,-1.61673zM269.15038,153.88369c-3.74885,-5.80512 -7.20113,-11.89871 -10.51846,-17.92082c-0.95321,-1.73043 -3.12348,-2.64697 -3.89838,-4.46425c-0.91042,-2.1351 0.54456,-4.61038 0.77791,-6.91972c0.21551,-2.13284 -0.90882,-4.28282 -0.59537,-6.4035c0.35535,-2.40426 1.56721,-4.6021 2.27414,-6.92739c-0.38474,-0.92901 -0.76948,-1.85805 -1.15422,-2.78706l-0.00047,0.00018l-0.92708,-2.4062c-0.39385,-0.95506 -0.16577,-2.09471 0.64951,-2.82052c0.98852,-0.88005 2.48148,-0.83223 3.41214,0.08152l2.88218,2.7747l-0.02241,0.02328c0.04534,0.03068 0.0905,0.06163 0.13549,0.09287c2.38793,1.6578 4.7512,5.76445 6.79807,7.87266c2.02571,2.08641 4.36557,3.25453 6.20352,5.57445c2.14569,2.70836 2.32285,5.72877 3.77634,8.59408c0.60398,1.19067 1.74834,2.06164 2.3067,3.27437c1.80866,3.9283 1.59845,8.93741 4.0861,12.61349c2.82239,4.17069 6.44436,7.86734 9.41288,11.95244c0.50844,0.72744 1.01688,1.45486 1.52532,2.1823l0.00642,0.01015c0.08912,-0.04081 0.17849,-0.08131 0.26811,-0.12153c1.71006,-0.76726 5.72399,-2.79305 7.49913,-2.33974c8.12319,2.07433 2.88562,10.27017 -0.36149,13.4038c-2.44988,0.72912 -4.31946,1.37272 -6.26396,2.52623c1.28028,1.12943 2.75763,2.05354 3.89486,3.32617c1.32826,1.4864 2.16587,3.39387 3.61092,4.76699c1.48909,1.41496 4.37138,3.34791 4.04127,5.89978c-0.6125,4.73478 -9.94593,8.64865 -13.7845,6.31404c-2.86133,-1.74025 -3.07295,-4.09265 -4.47143,-6.56009c-1.32772,-2.34257 -3.7603,-3.80334 -5.3645,-5.90772c-1.57682,0.90195 -3.16917,1.50924 -4.65237,1.43315c-1.43591,-0.07367 -2.89117,-0.64353 -4.04231,-1.505c-0.861,-0.64435 -0.97063,-1.94172 -1.66295,-2.76463c-1.8247,-2.16894 -5.46428,-2.62863 -2.78992,-7.27504c0.03004,-0.05218 2.29643,-0.9476 4.57154,-1.83589c-3.53415,-4.02534 -4.57567,-9.03917 -7.6227,-13.75754zM289.60958,176.61924c1.17097,2.31707 3.97582,3.89322 5.42988,6.36976c0.97975,1.66871 1.23776,3.40582 2.73271,4.78886c0.81009,0.74944 4.65384,-1.65706 5.34482,-1.93821c0.30284,-0.12321 0.81107,-0.1386 0.86579,-0.46093c0.04544,-0.2677 -0.50862,-0.20778 -0.72428,-0.37275c-0.62148,-0.47538 -1.20876,-0.99617 -1.77345,-1.53777c-0.83778,-0.80357 -1.72216,-1.57455 -2.43039,-2.49433c-1.15446,-1.49931 -2.34557,-2.99739 -3.7655,-4.2482c-0.88618,-0.78063 -1.88808,-1.5083 -2.47989,-2.53029c-0.01971,-0.03405 -0.03318,-0.07458 -0.04141,-0.12013c-0.00383,0.06795 -0.01002,0.13488 -0.02009,0.20016c-0.91953,0.60594 -1.98683,1.45345 -3.13818,2.34385zM287.83659,171.70332c0.48327,-0.38707 0.94416,-0.74623 1.37335,-1.04901c0.16144,-2.46181 2.63544,-2.3216 2.63544,-2.3216l0.03924,0.03101c0.50902,-0.3891 1.05029,-0.64783 1.67074,-0.58632c0.19799,0.01962 0.38016,0.07164 0.54963,0.14969c2.20995,-1.4386 4.30909,-2.3819 7.07353,-3.02933c0.48367,-0.52363 1.76654,-1.79149 2.02577,-2.52915c0.18653,-0.53076 0.30275,-1.78831 -0.24717,-1.66957c-1.56547,0.33798 -2.89851,1.36354 -4.35892,2.02089c-5.43548,2.44656 -9.968,5.91156 -15.61774,7.87069c-1.92754,0.66839 -3.92892,1.72869 -5.94031,1.65022c0.63424,0.35287 1.29375,0.71601 1.75822,1.26978c0.4586,0.54679 0.62638,2.6713 1.98912,2.51203c1.03766,-0.12127 2.16157,-0.68481 3.28609,-1.42851c0.01617,-0.23881 0.02654,-0.47658 0.02245,-0.71184c0,0 0.04839,-2.49953 2.54792,-2.45113c0.48834,0.00946 0.87943,0.11247 1.19263,0.27214zM292.77403,173.74517c0.02547,-0.17361 0.07694,-0.36397 0.12909,-0.53522l-0.10419,0.00891c-0.025,0.1683 -0.02491,0.34732 -0.0249,0.5263z" fill="#000000"/><path d="M291.39386,159.50024c0.37663,0.53891 0.75281,1.0782 1.12943,1.61712c-3.23874,1.8264 -6.37739,3.77143 -9.92584,5.07506c-3.89715,-2.95075 -3.60559,-5.71692 -5.66028,-10.01523c-0.7633,-1.59676 -1.93789,-2.9679 -2.89089,-4.45923c-3.68541,-5.76719 -7.03237,-11.88956 -10.42887,-17.78699c-0.91321,-1.58564 -2.70265,-2.52417 -3.69053,-4.06441c-0.81161,-1.26542 1.07924,-2.85569 1.2116,-4.3532c0.18109,-2.0488 -0.95721,-4.11237 -0.62381,-6.14195c0.28779,-1.75199 0.9027,-3.43169 1.47764,-5.118c2.93792,3.29202 7.63203,6.00624 9.92852,8.92665c1.88353,2.39524 1.87803,4.98106 3.15273,7.55229c0.60259,1.21551 1.77266,2.10999 2.34966,3.33787c1.42899,3.04096 1.8403,7.22762 3.06494,10.38593c2.18801,5.6428 7.38655,10.18129 10.90568,15.04408z" data-paper-data="{&quot;noHover&quot;:false,&quot;origItem&quot;:[&quot;Path&quot;,{&quot;applyMatrix&quot;:true,&quot;segments&quot;:[[[305.48257,187.37814],[0,0],[1.8003,-5.72625]],[[311.02193,169.64846],[-3.22072,5.12402],[1.80266,-2.86794]],[[317.48681,161.05038],[-1.58652,2.96182],[0.64061,-1.19593]],[[318.76819,157.18728],[-0.6154,1.20908],[1.30179,-2.55763]],[[322.95103,150.15719],[-0.79714,2.94099],[0.97192,-3.58581]],[[324.19684,136.87189],[-0.88712,4.32224],[-1.69607,0.54545]],[[319.21472,138.74466],[1.57735,-0.81504],[-1.82727,0.94417]],[[314.66589,142.91377],[1.75176,-1.07783],[-1.28039,0.7878]],[[310.46009,144.54206],[0.53066,-1.40656],[-0.64591,1.71202]],[[309.4056,149.92925],[0.7269,-1.67923],[-2.70354,6.24553]],[[301.40217,168.8355],[2.42658,-6.39956],[-0.62749,1.65485]],[[299.54384,173.80914],[0.82532,-1.5656],[-2.22169,4.21441]],[[294.88257,184.32452],[0.04068,-4.88805],[3.16421,2.0685]],[[304.86007,189.24974],[-3.39872,-1.50794],[0.20751,-0.62387]],[[305.48258,187.37815],[-0.2075,0.62387],[0,0]]],&quot;closed&quot;:true,&quot;fillColor&quot;:[0,0,0,1]}]}" fill="#c6c6c6"/></g></g></g></svg>