<svg version="1.1" xmlns="http://www.w3.org/2000/svg" xmlns:xlink="http://www.w3.org/1999/xlink" width="109.70917" height="79.40879" viewBox="0,0,109.70917,79.40879"><g transform="translate(-209.09713,-143.56355)"><g data-paper-data="{&quot;isPaintingLayer&quot;:true}" fill-rule="nonzero" stroke-linecap="butt" stroke-linejoin="miter" stroke-miterlimit="10" stroke-dasharray="" stroke-dashoffset="0" style="mix-blend-mode: normal"><path d="M211.09714,210.90787v-61.81574h57.80573v61.81574z" fill="#00f6f7" stroke="#000000" stroke-width="4"/><path d="M298.67726,171.28117c-2.09722,1.36075 -3.45798,-0.73647 -3.45798,-0.73647l-1.13763,-1.87977c-5.28178,-2.96761 -10.85809,-2.94733 -16.25137,-5.44496c0,0 -2.26316,-1.06213 -1.20103,-3.32529c1.06213,-2.26316 3.32529,-1.20103 3.32529,-1.20103c2.91558,1.39077 5.42838,1.43016 8.5634,2.15566c4.59958,1.06442 4.55898,1.56068 9.00855,4.19165l1.88724,2.78223c0,0 1.36075,2.09722 -0.73647,3.45798z" fill="#000000" stroke="none" stroke-width="0.5"/><path d="M292.89949,185.62103c-1.76535,1.77018 -3.53553,0.00482 -3.53553,0.00482l-0.77054,-0.77006c-3.78466,-3.61672 -8.64318,-4.20155 -12.4288,-7.86846c0,0 -1.77016,-1.76537 -0.00478,-3.53553c1.76537,-1.77016 3.53553,-0.00478 3.53553,-0.00478c3.47026,3.60278 8.50832,4.23657 12.31992,7.76312l0.87938,0.87536c0,0 1.77018,1.76535 0.00482,3.53553z" fill="#000000" stroke="none" stroke-width="0.5"/><path d="M290.01404,214.67392c-0.9263,2.32206 -3.24836,1.39576 -3.24836,1.39576l-2.57518,-1.10051c-1.86173,-1.31463 -3.62021,-2.77692 -5.31805,-4.29733c0,0 -1.86051,-1.66989 -0.19062,-3.53039c1.66989,-1.86051 3.53039,-0.19062 3.53039,-0.19062c1.54804,1.39287 3.15172,2.73383 4.85646,3.92981l1.54959,0.54491c0,0 2.32206,0.9263 1.39576,3.24836z" fill="#000000" stroke="none" stroke-width="0.5"/><path d="M301.68479,188.297c-0.03595,0.03095 -0.07205,0.06169 -0.10831,0.09223l-1.23561,1.53199c-0.09744,0.40295 -0.18516,0.80872 -0.26197,1.21766c0.45462,-0.97299 1.07174,-1.89227 1.60589,-2.84188zM293.99155,190.71164c0,-0.32137 0.06064,-0.62858 0.1711,-0.91081l1.08011,-2.96224l0.02494,0.00909l0.00007,-0.0748c1.24175,-2.87888 2.7681,-5.53362 4.35926,-8.19124c1.53595,-3.34052 3.07424,-6.81802 3.60247,-10.30511c0.51692,-3.41238 0.31583,-7.00857 0.65667,-10.4715c-0.84709,-0.97276 -0.44455,-2.34913 -0.44455,-2.34913c1.26905,-4.30289 3.37937,-13.69658 10.29886,-11.58828c1.59628,0.48637 1.84087,2.8069 2.48232,4.34743c1.56445,3.75722 1.54073,9.22756 1.74003,13.30808l0.56263,0.64429c0,0 1.00534,2.00532 -0.78814,3.16918c0.18778,0.74279 0.28236,1.44409 0.20825,2.0227c-0.00328,0.02558 -0.00662,0.05115 -0.01002,0.0767l0.01843,-0.00179l0.40925,4.21796c0.00982,0.09003 0.01486,0.18151 0.01486,0.27415c0,0.81286 -0.38794,1.53512 -0.98879,1.99171c-0.23329,2.79848 -0.66834,5.56975 -1.3843,8.3205c-0.07299,2.01551 -0.12893,4.03426 -0.14565,6.05993l-0.28695,0.38817l0.15685,0.06179l-1.49107,3.78508c-0.35117,0.95596 -1.26964,1.63795 -2.3474,1.63795c-0.13263,0 -0.26284,-0.01033 -0.38988,-0.03022c-0.49003,0.92439 -0.99224,1.83024 -1.487,2.70379c0.39761,0.10157 0.78816,0.22374 1.16991,0.3702c1.58923,0.6097 3.59328,1.12551 4.37153,2.63935c0.65299,1.27018 -1.71907,7.46288 -2.83271,8.16065c-1.20062,0.75226 -2.78219,0.37109 -4.22795,0.39396c-0.1184,0.55509 -0.26441,1.11248 -0.29687,1.66882c-0.10393,1.78152 0.2138,6.82778 -0.18477,8.15835c-0.50321,1.67992 -1.05084,3.79472 -2.6306,4.55609c-1.35836,0.65467 -2.9564,-0.64846 -4.36597,-1.18405c-2.2375,-0.85019 -4.86782,-2.61479 -5.88668,-4.88306c-0.94796,-2.11042 -0.28664,-7.25937 -0.30449,-9.81412c-2.6439,0.36099 -5.78765,0.63557 -7.02191,-0.7669c-1.27735,-1.45142 -1.49138,-3.36307 -1.03715,-5.19298c-0.01361,-0.01793 -0.02056,-0.02782 -0.02056,-0.02782l-0.32993,-0.74557c-2.8853,-1.97902 -5.53205,-3.76442 -8.1988,-6.06931c0,0 -1.88872,-1.63791 -0.25081,-3.52663c1.63791,-1.88872 3.52663,-0.25081 3.52663,-0.25081c2.51413,2.18827 5.01923,3.85108 7.7504,5.72295l0.29158,0.36504c0.75525,-0.65402 1.59973,-1.12604 2.46692,-1.32483c0.15186,-0.03481 1.31917,0.17509 2.66746,0.4392c0.10358,-0.95064 0.2199,-1.8801 0.35668,-2.79646c-0.62668,-0.45428 -1.03427,-1.19228 -1.03427,-2.02547zM311.53183,166.26961c-0.00197,-0.1232 -0.00466,-0.24675 -0.00799,-0.37062c-0.19941,0.95198 -0.45516,1.88272 -0.80229,2.78042c0.12746,0.27406 0.20671,0.57509 0.22684,0.89217c0.17238,-0.34889 0.34765,-0.69663 0.52612,-1.04309l-0.2597,-0.04493l0.32195,-1.86099c-0.00141,-0.11763 -0.00305,-0.23528 -0.00493,-0.35296zM309.16369,203.8468l-0.00018,0.00203c0.27543,0.08764 0.54439,0.12003 0.79545,-0.00037c0.42447,-0.20357 -0.0716,-0.98601 0.14299,-1.40501c0.1595,-0.31145 1.0585,-0.28374 0.8742,-0.58118c-0.20035,-0.32334 -0.74817,0.18679 -1.12824,0.1712c-0.20553,-0.00843 -0.41079,-0.02126 -0.61581,-0.03753c-0.02875,0.69176 -0.04655,1.33624 -0.0684,1.85087zM303.89472,201.49191c0.11939,0.01263 0.23841,0.02799 0.35699,0.04628c0.00057,-0.01289 0.00114,-0.02579 0.00171,-0.0387c-0.11951,-0.00312 -0.23908,-0.00561 -0.35869,-0.00758zM298.79164,201.43266c-2.06826,-0.13285 -4.0047,-1.12343 -6.05976,-1.3919c-0.4241,-0.0554 -1.31721,2.38414 -1.30146,2.66195c0.01784,0.31452 0.39293,-0.55208 0.69546,-0.63994c1.37205,-0.39846 4.17354,-0.47066 5.60957,-0.54716c0,0 0.84318,-0.04425 1.57522,0.40869c0.87618,-0.18392 1.78178,-0.35641 2.68745,-0.43483c-1.07039,0.00639 -2.14109,0.01163 -3.20649,-0.0568zM299.83472,206.90538c0.07965,2.00767 0.19238,4.31527 0.11929,6.29375c-0.02084,0.56412 -0.37759,1.15715 -0.1758,1.68436c0.38153,0.99686 2.5856,1.67842 3.32986,2.15137c-0.06752,-1.2434 0.08079,-2.49175 0.09583,-3.73775c0.01432,-1.18611 -0.07771,-2.3753 0.00546,-3.55858c0.06048,-0.86043 0.30285,-1.69867 0.42409,-2.55266c0.03495,-0.24619 0.2873,-0.69316 0.04404,-0.74467c-0.84646,-0.17926 -2.57178,0.17505 -3.84278,0.46417z" fill="#000000" stroke="none" stroke-width="0.5"/></g></g></svg>