<svg version="1.1" xmlns="http://www.w3.org/2000/svg" xmlns:xlink="http://www.w3.org/1999/xlink" width="430.23249" height="548.95488" viewBox="0,0,430.23249,548.95488"><g transform="translate(-10.97762,94.41314)"><g data-paper-data="{&quot;isPaintingLayer&quot;:true}" fill-rule="nonzero" stroke="none" stroke-width="0.5" stroke-linecap="butt" stroke-linejoin="miter" stroke-miterlimit="10" stroke-dasharray="" stroke-dashoffset="0" style="mix-blend-mode: normal"><path d="M304.72858,70.26608c-0.29947,-2.49765 0.59989,-4.9614 1.31709,-7.4303c0.14489,-0.83206 0.2894,-1.66438 0.43395,-2.4968c-0.81048,-1.11757 -0.14871,-2.51086 -0.14871,-2.51086c0.31848,-0.67053 0.63093,-1.34259 0.93769,-2.01615c1.07901,-6.14797 2.20206,-12.28823 3.53964,-18.36477c2.48805,-11.30305 5.79613,-22.48992 8.68549,-33.69811c5.82431,-22.5932 11.61843,-45.19393 17.40055,-67.79796c1.65212,-6.45862 3.28693,-12.92197 4.95642,-19.37612c0.44849,-1.73381 0.34976,-3.71828 1.35848,-5.19805c0.07026,-0.10306 0.14245,-0.20447 0.21644,-0.30432l-0.04564,-0.02796l2.58844,-4.22568c0.43475,-0.73739 1.23715,-1.23214 2.15512,-1.23214c1.38071,0 2.5,1.11929 2.5,2.5c0,0.29885 -0.05244,0.58545 -0.14861,0.85111l-1.54769,4.60915c-6.59435,27.09072 -12.95625,54.2366 -19.35569,81.37396c0.53878,-0.8947 1.07435,-1.79073 1.59161,-2.69266c0.47421,-1.35664 0.94941,-2.71364 1.42538,-4.07116c0.97889,-2.79193 2.0905,-5.59827 3.10601,-8.42283c0.18987,-1.13686 0.37682,-2.27464 0.62075,-3.39606c0.99628,-4.5803 1.99595,-9.05086 3.28608,-13.55847l0.93776,-3.27326c0.28111,-1.07301 1.25738,-1.86465 2.41855,-1.86465c1.38071,0 2.5,1.11929 2.5,2.5c0,0.19224 -0.0217,0.3794 -0.06278,0.55919l-1.005,4.8444c-0.06819,4.7673 -2.22197,10.39401 -3.77433,14.82924c-0.05341,0.15259 -0.10682,0.30518 -0.16024,0.45777c-0.62711,2.87999 -1.42765,6.53915 -1.47575,6.67018c-0.82896,2.25817 -1.94483,4.42191 -3.1596,6.55156c-0.60736,1.73131 -1.21467,3.46263 -1.82173,5.19405c-6.3689,18.16503 -12.36432,36.24229 -17.68859,54.7409c-3.29808,11.45882 -6.56652,22.92673 -9.90171,34.37488c1.77755,-0.40954 2.66846,1.36749 2.66846,1.36749c0.59241,1.62554 2.81058,2.13785 4.46345,2.64907c6.34173,1.96146 12.49227,4.36824 18.88618,6.16453c4.55353,1.27926 8.39544,3.47375 12.15565,6.00091c0.40006,0.16192 0.77988,0.3571 1.11411,0.629c0.1739,0.14147 0.33283,0.2971 0.48061,0.46325c1.34685,0.93738 2.69467,1.90703 4.07265,2.88197c6.85737,4.85165 13.55802,9.8236 20.12214,15.06373c3.80615,3.03845 6.81061,6.26867 11.06381,8.64262c8.54924,4.48668 17.629,9.3345 24.49788,16.1555c2.05609,2.04176 4.6444,3.68178 6.11494,6.17854c0.91524,1.55393 1.25792,3.38149 1.95593,5.04437c1.31897,3.14217 3.70939,5.90894 4.33475,9.25885c0.32361,1.73351 1.15179,4.48277 -0.42455,5.27331c-0.20522,0.10292 -0.56719,0.12502 -1.04045,0.08469l1.17419,2.73231c0.14442,0.3161 0.22491,0.66755 0.22491,1.03779c0,1.38071 -1.11929,2.5 -2.5,2.5c-0.68913,0 -1.31314,-0.27883 -1.76536,-0.72983c-0.00006,-0.00006 -0.00012,-0.00012 -0.00018,-0.00018l-2.13944,-2.13363c-0.54397,-0.36464 -0.88146,-1.10132 -1.52009,-1.23513c-0.31848,-0.06673 -0.41392,0.5451 -0.44465,0.86905c-0.1291,1.36074 0.01295,2.73419 -0.02684,4.10046c-0.04808,1.65088 -0.18783,3.29822 -0.23671,4.94908c-0.14283,4.82338 -0.13094,9.50189 -0.56871,14.31451c-0.319,3.50694 -0.54006,7.02588 -0.6746,10.54993c0.19821,-0.09448 0.4072,-0.17003 0.62809,-0.22396c1.95492,-0.47725 3.71972,1.9257 4.85628,3.58633c1.07142,1.56544 0.93123,3.67798 1.37744,5.52173c1.03979,4.2965 1.0214,8.74754 1.16039,13.15422c0.24874,7.88596 0.03261,15.68812 -0.34614,23.51518c0.59035,10.85279 1.01145,21.68195 1.32748,32.55212c0.3848,1.29388 0.59987,2.6256 0.27477,3.99148l-0.03065,4.99796c-0.00721,1.37455 -1.12372,2.48661 -2.49996,2.48661c-0.78435,0 -1.48433,-0.3612 -1.94269,-0.92635c-0.02477,0.26041 -0.05016,0.52069 -0.07616,0.78083l0.3014,1.42771c0.72884,1.77257 1.19809,3.62318 1.08222,5.55801c-0.11283,1.88409 -1.14529,3.59708 -1.7378,5.38913c-0.7789,2.35576 -1.57419,4.69361 -2.34454,7.03936c-1.489,9.39719 -3.21679,18.53677 -5.38837,27.61581c0.11449,-0.01606 0.23146,-0.02436 0.35037,-0.02436c1.38071,0 2.5,1.11929 2.5,2.5c0,0.71708 -0.30191,1.36365 -0.78554,1.81953l-3.54018,3.35146c-0.24074,0.34503 -0.48861,0.68522 -0.7426,1.02125c-0.9072,3.32073 -1.88278,6.64177 -2.93685,9.97281c-0.26736,0.84491 -0.53296,1.68995 -0.79727,2.53501c1.78076,-1.17672 3.55926,-2.35843 5.32673,-3.56291c2.60415,-1.77466 5.90138,-4.95242 9.65916,-3.78401c5.4067,1.68111 4.735,4.11123 4.75155,8.35435c0.02774,7.11489 -2.53555,14.19789 -6.66373,20.01971c-1.10616,1.55998 -2.10321,3.26963 -3.58377,4.48003c-1.25019,1.02206 -2.92361,1.37237 -4.39329,2.04141c-5.18855,2.36198 -11.50128,4.18635 -16.51331,7.09038c-0.44875,1.1634 -0.90783,2.32382 -1.37858,3.48095l-1.16545,4.67197c-0.2522,1.1139 -1.24813,1.94559 -2.43831,1.94559c-1.16017,0 -2.13577,-0.79028 -2.41783,-1.86189l-0.23572,-0.81914c-0.84986,1.06124 -1.66991,2.07609 -2.4569,2.92415c-2.00083,2.12748 -4.26796,3.96791 -6.7237,5.56752c-0.32029,1.23844 -0.68857,2.45554 -1.14423,3.63257c-2.00426,5.1772 -6.91147,10.41779 -10.01881,15.0197c-0.97461,1.44337 -1.80037,2.99945 -2.47684,4.61707c-0.29293,0.7999 -0.58595,1.59927 -0.88073,2.39709c-0.12915,0.40491 -0.24947,0.81198 -0.36094,1.22049c-0.50637,1.85568 -0.2758,4.14218 -1.58931,5.5474c-0.17847,0.19093 -0.37391,0.35671 -0.58302,0.50225l0.06528,0.07955l-1.92604,1.58059c-0.4335,0.36132 -0.99119,0.57869 -1.59965,0.57869c-1.38071,0 -2.5,-1.11929 -2.5,-2.5c0,-0.44231 0.11487,-0.8578 0.3164,-1.21825l2.2756,-4.26718c0.30247,-0.79166 0.60091,-1.58643 0.89699,-2.38325c0.33515,-1.49849 0.59429,-3.0271 1.22377,-4.42107c0.38197,-0.84588 0.83261,-1.69074 1.33056,-2.53229c1.1637,-3.14285 2.36453,-6.27039 3.70249,-9.31889c0.42075,-0.95866 0.86462,-1.90718 1.32738,-2.84743c-6.13029,2.12489 -12.60066,3.45061 -18.63405,4.43989c-14.75392,2.41915 -29.98204,4.58446 -44.92046,5.45153c-6.65127,0.38606 -13.34454,0.01779 -20.00658,0.36834c-5.00412,0.26266 -10.26382,0.96865 -15.26898,0.78464c-4.3123,-0.15854 -8.62759,-1.85844 -12.91483,-2.33205c-7.90193,-0.87293 -16.11861,-0.32389 -24.06563,-0.65294c-9.98189,-0.4133 -20.18849,-0.63059 -30.12299,-1.67233c-6.36339,-0.66727 -12.74399,-2.0918 -19.05822,-3.13003c-5.30698,-0.88601 -9.76188,-2.56455 -14.76017,-4.52521c-1.74685,-0.68523 -3.68001,-1.02828 -5.22662,-2.09083c-1.30186,-0.8944 -1.87204,-2.58086 -3.0711,-3.60869c-1.02632,-0.35053 -2.0531,-0.69499 -3.08082,-1.03012c-4.76325,-1.55324 -9.7655,-2.78615 -14.427,-4.61888c-9.55867,-3.75812 -18.70702,-8.64391 -28.26749,-12.4784c-10.86526,-2.87879 -21.1024,-6.07324 -31.56128,-10.19689c-4.43942,-1.75034 -10.9767,-3.2468 -14.4942,-6.64565c-1.35415,-1.30847 -1.98278,-3.20194 -2.95702,-4.81337c-2.40108,-3.97147 -4.73907,-7.98277 -7.10819,-11.97345l-1.01472,-1.51192c-2.10626,2.46266 -4.04744,5.15653 -6.94831,6.6126c-1.67425,0.84037 -5.57433,-0.04846 -7.32738,-0.45187c-1.89773,-0.43671 -6.40735,-1.22823 -8.13395,-2.92157c-2.26157,-2.218 -3.44581,-5.31653 -5.20315,-7.95205c-1.47187,-2.20741 -5.16094,-7.22255 -5.34176,-9.90892c-0.13305,-1.97653 1.10844,-3.80423 1.7109,-5.6914c2.13249,-6.67987 6.18228,-13.54242 10.23984,-19.24841c0,0 0.07696,-0.10746 0.2202,-0.25526c-7.4619,-5.03337 -9.26414,-14.92156 -8.06278,-23.66267c5.18551,-6.73415 12.00902,-14.03418 19.90059,-17.56407c1.62325,-0.72608 3.24291,-1.32462 4.86433,-1.82319c-0.08984,-15.16263 -1.08036,-30.34271 -1.07928,-45.51224c0.00042,-5.86334 -0.34708,-11.68523 -0.64822,-17.54122c-0.08559,-1.66447 -0.47614,-3.34123 -0.25678,-4.9934l-0.01538,-0.29915c-0.02483,0.00073 -0.04975,0.0011 -0.07475,0.0011c-1.38071,0 -2.5,-1.11929 -2.5,-2.5c0,-0.34907 0.07154,-0.68144 0.20077,-0.98323l1.84022,-4.58806l0.39866,0.1599c0.55854,-2.88619 1.26829,-5.71362 2.05897,-8.53668c0.03974,-1.02722 0.07589,-2.05554 0.10716,-3.08524c0.13466,-4.43485 -0.22641,-9.289 0.6854,-13.66563c1.63572,-7.85133 6.77426,-14.32184 11.55202,-20.51362c1.34104,-3.89824 2.46417,-7.92239 4.39669,-11.4949c1.16152,-2.14722 2.42233,-4.25715 3.76087,-6.32432c2.5651,-7.71555 4.96614,-15.50604 7.75174,-23.08292c5.36967,-14.60473 10.48574,-29.31636 16.44358,-43.691c-0.37713,-0.33264 -0.65315,-0.77724 -0.77605,-1.2818l-1.27767,-4.77825c-0.54684,-1.10659 -0.89252,-2.75348 -1.13286,-4.42082c-0.95159,-2.64925 -1.86016,-5.33458 -2.39954,-7.99488c-1.80414,-8.89815 -2.06948,-18.42551 -3.23072,-27.4587c-0.98004,-7.62363 -1.91147,-15.26187 -2.8052,-22.90544c-0.45039,-0.9835 -0.91123,-1.9627 -1.38448,-2.93681c-4.27693,-8.8034 -10.42647,-18.16264 -12.81882,-27.68926c-0.4313,-1.71749 -0.58735,-3.18372 -0.59379,-4.61021l-0.61695,-4.92199c-0.01603,-0.11441 -0.02432,-0.2313 -0.02432,-0.35012c0,-1.38071 1.11929,-2.5 2.5,-2.5c0.57368,0 1.10223,0.19323 1.52411,0.51815l2.47836,1.86696l-0.10497,0.13935l0.47323,0.20102c1.67685,2.84572 3.33774,5.70092 4.98093,8.56621c-0.34065,-2.75932 -0.55211,-5.90624 0.62342,-8.17228c-0.16464,-0.74336 -0.3259,-1.48747 -0.48302,-2.23246l-0.81417,-2.87976c-0.0715,-0.23257 -0.10998,-0.4796 -0.10998,-0.73562c0,-1.38071 1.11929,-2.5 2.5,-2.5c0.98345,0 1.83426,0.56785 2.24245,1.39356l2.02132,3.88766c0.0811,-0.00583 0.16321,-0.01088 0.24632,-0.01513c1.41055,-0.07217 5.32075,8.61722 5.57319,9.42372c0.28425,0.90813 0.46573,1.84083 0.60212,2.78437c1.69868,2.50116 3.6164,4.8498 5.40808,7.28631l0.48362,0.65768c0,0 1.48104,2.01408 -0.53304,3.49512c-0.98709,0.72585 -1.84615,0.6122 -2.46558,0.30757c1.14247,2.44125 2.53457,4.81143 3.9539,6.93902c1.78981,6.57067 3.92253,13.19591 5.30484,19.86462c0.6511,3.14112 0.72752,6.38411 1.39126,9.52259c0.27158,1.28417 2.54444,8.72141 2.71433,9.81202c0.46473,2.98345 0.02848,6.03883 0.02302,9.05826c-0.00424,2.34298 -0.06386,4.6952 -0.13879,7.05164c0.13302,0.28803 0.26643,0.57602 0.40019,0.86398c0.97108,1.67563 1.93568,3.34883 2.86285,5.02725c2.28359,4.13635 4.44042,8.37423 6.42888,12.68332c0.08525,-0.06434 0.17076,-0.12852 0.25654,-0.19253l3.44558,-3.43621c0.00006,-0.00006 0.00012,-0.00012 0.00018,-0.00018c0.45222,-0.451 1.07623,-0.72983 1.76536,-0.72983c1.38071,0 2.5,1.11929 2.5,2.5c0,0.16615 -0.01621,0.32852 -0.04713,0.4856l-0.61917,3.48271l-0.05001,-0.00889c-0.01886,0.15252 -0.04311,0.30473 -0.07339,0.4566c-0.01964,0.09852 -1.98315,3.33163 -3.54138,5.88712c0.07891,0.19753 0.15743,0.39516 0.23554,0.59289l1.52482,3.86357c0.12587,0.29846 0.19545,0.62646 0.19545,0.97072c0,1.38071 -1.11929,2.5 -2.5,2.5c-0.99701,0 -1.8577,-0.58362 -2.25908,-1.42786l-0.56267,-1.12227c-1.80507,2.6541 -3.81501,5.17064 -5.86674,7.65552l-0.67334,2.51818c-0.19193,1.51612 -0.54334,2.98757 -1.19325,4.30596c-0.78921,1.60095 -2.10546,2.88455 -3.08647,4.3757c-0.61608,0.93646 -1.23645,1.88262 -1.85643,2.8368c1.89734,-1.61399 4.00589,-3.02787 6.41268,-4.22011c1.66476,-0.82466 3.16409,-2.29393 5.01711,-2.42733c0.19223,-0.01384 0.38318,-0.01515 0.57305,-0.00571v-0.06085h2.91255c1.38071,0 2.5,1.11929 2.5,2.5c0,0.82957 -0.40406,1.56477 -1.0261,2.01953l-2.30657,1.72523l-0.09738,-0.1302l-0.26787,0.3572c-2.49545,0.79599 -5.14048,1.18974 -7.51574,2.29384c-4.50423,2.09372 -6.86916,7.06775 -9.52655,10.91593c-3.4676,5.02144 -6.67428,10.2272 -10.01769,15.33394c-3.84785,8.42173 -6.9965,17.29899 -10.63369,25.77264c-1.06141,2.4728 -1.82293,5.09912 -3.19648,7.41315c-1.73675,2.92591 -3.87317,5.59557 -5.77209,8.41893c-1.80025,2.67651 -3.97897,5.13105 -5.41813,8.01782c-2.10008,4.21251 -3.23637,9.42584 -4.77557,13.87818c-1.96238,5.67645 -4.05957,10.71435 -4.53545,16.69667l-0.02157,0.04726l0.01598,0.00198l-0.60951,4.92959c-0.13653,1.25173 -1.19707,2.22585 -2.48514,2.22585c-0.16357,0 -0.32347,-0.01571 -0.47828,-0.0457c-0.01413,0.6153 -0.02615,1.23099 -0.03578,1.84713c0.20883,2.53792 0.44377,5.07636 0.68283,7.61468c1.28639,0.13223 1.93093,1.41777 1.93093,1.41777c2.35405,4.95406 0.79259,8.92432 0.24865,14.18796c-0.23918,2.31451 -0.41928,4.65348 -0.54618,7.00387c0.19171,7.03314 0.11101,14.08371 0.32213,21.11206c0.47587,2.57425 1.36919,5.01601 2.40258,7.4211c3.91485,-0.53322 7.89548,-0.78781 12.01404,-1.13475c5.2002,-0.43806 9.13486,-0.16432 14.25503,1.23575c3.49976,0.95698 5.54241,1.38361 6.97384,5.11016c0.44213,1.15102 0.10978,2.46393 0.12881,3.69679c0.07683,4.97711 -0.05846,9.18929 -1.0761,14.07337c-1.13619,5.37154 -2.10772,9.49225 -5.25677,14.03445c-0.88239,1.27277 -1.62363,2.66063 -2.67017,3.80225c-0.00716,0.00781 -0.01536,0.01513 -0.02448,0.02198c2.70601,-0.12099 5.04751,-0.38546 7.61855,1.64775c1.08085,0.85475 1.17554,2.49271 1.77103,3.73538c3.00887,6.27892 3.10796,14.70567 -0.0777,21.22025c1.52623,1.53438 3.59576,2.48044 5.34557,3.7751c5.352,3.95988 10.70691,7.56133 16.39268,11.02493c0.44458,0.27083 8.67167,5.26973 8.88022,5.45111c1.03933,0.90394 5.34515,6.72114 6.47549,7.86693c2.28698,2.31827 4.98895,4.18678 7.47999,6.28424c2.44019,2.05464 4.53923,4.58818 7.2965,6.1924c2.77421,1.61407 6.06067,2.12068 9.04419,3.30392c0.03633,0.01441 9.18937,3.89615 9.26079,3.92644c1.64759,0.70928 3.4152,1.18756 4.94278,2.12783c1.45947,0.89835 2.51911,2.33946 3.9196,3.32723c8.64384,6.09652 18.95184,10.85989 28.41014,15.58782c2.31311,1.15626 4.27651,3.00279 6.69363,3.92201c5.22256,1.9861 12.13519,2.07201 17.65587,2.94871c4.10384,0.6517 8.14073,1.50427 12.17842,2.23804c10.24765,-0.14498 20.48607,-0.47598 30.65116,-1.57968c12.70634,-1.37962 24.97536,-4.18073 37.21642,-7.71503c5.2292,-2.59757 10.4337,-5.5174 15.81217,-7.78524c1.19509,-0.50391 8.15911,-2.82898 9.45517,-3.35545c7.69793,-3.12698 14.87506,-7.34584 22.3401,-10.86651c7.71096,-3.63664 16.09549,-4.01194 24.09504,-6.4782c1.7166,-0.52923 3.35508,-1.26616 4.93654,-2.137c0.56192,-3.3095 1.13526,-6.62282 2.28639,-9.67963c0.08981,-0.23849 4.16325,-8.93236 4.34062,-9.31141c0.13462,-0.28768 3.99594,-8.60567 4.26076,-8.91151c1.24341,-1.43602 2.81345,-2.69622 4.53579,-3.79962c0.01302,-0.03216 0.02604,-0.06432 0.03904,-0.09648c-0.65063,-0.45137 -1.07668,-1.2037 -1.07668,-2.05555v-3.4856h0.20769l-0.15638,-0.50388c0.58252,-1.35551 1.45617,-2.62022 1.74757,-4.06654c0.29237,-1.45117 -0.18595,-2.96839 -0.03357,-4.44086c0.25041,-2.41969 0.74062,-4.97965 1.33564,-7.55422c0.72606,-8.0087 2.25373,-15.89041 3.32958,-23.85606c0.65183,-4.82619 0.74126,-9.95485 1.78055,-14.71154c0.93596,-4.28378 2.5001,-8.24866 3.46172,-12.51017c-0.73669,-2.26866 -1.13213,-4.62555 -1.16577,-5.63738c-0.05868,-1.76499 0.49741,-3.49841 0.65268,-5.25753c0.416,-4.71301 0.57261,-9.46973 0.69077,-14.22109c-1.19937,-3.53414 -2.32076,-7.0767 -3.05284,-10.68436c-1.50337,-7.40855 -2.21238,-15.12884 -2.89451,-22.79878c-0.66603,-3.46817 -1.29756,-6.94595 -1.88434,-10.4378c-2.0406,-12.30991 -8.27963,-23.73573 -10.95114,-35.90302c-1.05685,-4.8134 -1.21829,-9.93284 -1.2229,-14.82996l0,-0.31193c-1.47352,-2.21684 -2.77134,-4.57831 -3.92683,-6.92826c-2.47737,-3.3789 -5.15036,-6.54643 -8.48609,-9.00846c-5.13175,-3.78764 -11.55139,-6.55739 -17.09933,-9.71901c-2.47706,-1.41161 -5.2512,-2.40623 -7.41571,-4.26186c-3.75423,-3.21849 -7.00419,-7.67403 -10.33017,-11.34094c-3.1105,-3.14871 -6.35924,-7.70265 -9.84071,-10.36219c-3.53024,-2.69679 -9.12085,-4.43558 -13.15264,-6.2617l-0.09033,-0.10586l-0.02484,0.04241l-2.33624,-1.3685c-0.76218,-0.42827 -1.27713,-1.2445 -1.27713,-2.18101c0,-0.85164 0.42585,-1.60383 1.07622,-2.05523c-0.13199,-0.05789 -0.26381,-0.11625 -0.39545,-0.17508l-0.18382,-0.32982l-0.1023,0.12128l-2.40541,-2.02891c-0.27901,-0.2322 -0.50667,-0.52399 -0.66346,-0.85582l-2.01847,3.15132c-0.44055,0.71218 -1.22869,1.18666 -2.12765,1.18666c-1.38071,0 -2.5,-1.11929 -2.5,-2.5c0,-0.25797 0.03907,-0.50681 0.11162,-0.74093l1.35501,-4.7529c0.35962,-3.31388 1.82777,-6.41122 2.74166,-9.61682c0.67992,-2.38495 1.35985,-4.76989 2.03977,-7.15484l0.2382,-1.28674c0.10368,-0.56007 0.20648,-1.12049 0.30853,-1.68122zM106.53463,71.60844c-1.70889,-3.5626 -3.35961,-7.15531 -5.02053,-10.74173c-0.05171,5.21416 0.13125,10.41008 0.98252,15.5333c1.39046,-1.44114 2.81636,-2.84864 4.30956,-4.20897c-0.08872,-0.1954 -0.17904,-0.38973 -0.27156,-0.58261zM97.58131,77.32172c-1.43846,-8.64346 -0.95759,-17.34394 -0.72481,-26.06853c-2.07437,-3.58645 -4.13233,-7.19504 -5.88597,-10.89764c-1.89146,-3.99359 -3.59016,-8.06955 -5.22889,-12.17221c0.89967,5.43396 1.73014,10.87546 2.34263,16.37287c0.55365,4.96925 1.11087,9.93811 1.66095,14.90776c0.15519,1.40205 0.22495,2.81639 0.43222,4.21087c0.5574,1.5413 1.12744,3.07079 1.63902,4.57622c0.45808,-0.51878 1.12816,-0.84597 1.87465,-0.84597c1.38071,0 2.5,1.11929 2.5,2.5c0,0.0866 -0.0044,0.17218 -0.013,0.25651l-0.44809,4.94857l-0.01368,-0.00124c0.00148,0.02962 0.00288,0.05925 0.00419,0.08889c0.17083,3.87348 -1.1134,7.64393 -2.42073,11.2717c2.17228,-2.37807 4.25652,-4.74829 6.37381,-7.05922c-1.77122,-0.16731 -2.09229,-2.08858 -2.09229,-2.08858zM67.54747,-25.25535c0.67827,2.68456 1.88729,5.29148 3.18283,7.83704c-0.58776,-1.69345 -1.14005,-3.39663 -1.6095,-5.12137c-0.52672,-0.90389 -1.0512,-1.8091 -1.57334,-2.71566zM84.56434,-9.54032c1.89761,9.51306 3.3506,19.27524 5.78011,28.65713c1.79519,6.93235 4.1728,13.5824 6.87877,20.1192c0.04802,-1.70275 0.01717,-3.38771 -0.23557,-4.97693c-0.51407,-3.23254 -1.97495,-6.25221 -2.65218,-9.45454c-0.66584,-3.14841 -0.74391,-6.40149 -1.39748,-9.55247c-1.30925,-6.31218 -3.35032,-12.55047 -4.95701,-18.79666c-1.32242,-1.91918 -2.45693,-3.9219 -3.41664,-5.99574zM81.62124,2.29234c0.16715,1.03727 0.32307,2.07857 0.47352,3.12065c0.18324,0.38663 0.36548,0.77362 0.5466,1.16101c-0.4192,-2.08277 -0.82787,-4.16737 -1.23427,-6.25097c0.07162,0.65642 0.14297,1.31286 0.21414,1.96931zM52.02881,361.92053l1.23644,1.85599c2.36903,3.99054 4.7758,7.96146 7.10819,11.97345c0.72916,1.25424 1.11505,2.76659 2.14781,3.78551c2.87927,2.8407 9.19306,4.13733 12.83794,5.57441c10.37695,4.09135 20.52305,7.22606 31.29895,10.10183c8.50924,3.37806 16.66854,7.61279 25.08178,11.16566c-6.88617,-4.58476 -13.55856,-9.41892 -20.35166,-14.30218c-3.76853,-2.70903 -7.90459,-4.40487 -11.68638,-7.02133c-3.37812,-2.33718 -6.33405,-6.5388 -9.16542,-9.48512c-3.86226,-5.01625 -7.46893,-11.1431 -11.94249,-15.60691c-1.34387,-1.34094 -3.24238,-2.33025 -5.19952,-3.25859c-2.57405,0.34564 -5.23638,0.45474 -7.83002,0.92931c-4.14676,0.75875 -8.31082,2.00423 -12.47447,2.81429c-0.55458,0.26582 -1.0741,0.57798 -1.56637,0.92631c0.32601,0.27925 0.50524,0.54736 0.50524,0.54736zM291.2194,423.30386c6.72304,-0.30062 13.49285,-0.23417 20.2043,-0.4028c5.92377,-0.14884 11.4849,-1.46013 17.26239,-2.65809c3.74175,-0.77585 7.67821,-0.96108 10.53263,-3.65406c3.73336,-3.33024 7.20212,-7.06501 11.02829,-10.276c5.58711,-4.6888 12.12633,-8.38009 17.88178,-12.92269c-6.71862,1.62803 -13.65254,2.27058 -20.02986,5.29542c-7.53724,3.57501 -14.80546,7.8136 -22.58543,10.9739c-3.0781,1.25036 -6.33292,2.03942 -9.39427,3.33024c-5.42627,2.288 -10.65119,5.25576 -15.94607,7.83944c-2.98016,0.87272 -5.96303,1.70045 -8.95376,2.47462zM396.74017,376.38537c-2.09786,6.79059 -4.20322,13.56114 -6.56122,20.25437c3.99276,-1.75097 8.26009,-3.22371 11.96622,-4.83911c1.11067,-0.48411 2.40959,-0.6476 3.34897,-1.41279c4.02731,-3.28052 7.29985,-11.12375 8.24639,-16.07521c0.14816,-0.77504 1.30817,-7.65449 -0.92699,-8.0022c-1.80181,-0.2803 -4.90427,2.59999 -5.56028,3.05946c-3.45401,2.41921 -6.99621,4.69394 -10.51309,7.01548zM379.15579,404.18174c-0.00471,-0.123 -0.01122,-0.2456 -0.02003,-0.3677c-0.13504,-1.87198 -0.10545,-3.71654 0.03276,-5.54637c-0.39031,1.10772 -0.81633,2.1906 -1.30061,3.22697c-1.53104,3.27643 -3.31619,6.44276 -5.17595,9.57674c-0.05982,0.24746 -0.11809,0.49571 -0.17514,0.7446c0.48183,-0.45605 0.9471,-0.92857 1.39441,-1.41828c1.64889,-1.77684 3.39145,-4.10894 5.24456,-6.21596zM362.5624,418.31157c1.77319,-3.0514 3.642,-6.06079 5.44652,-9.09813c0.15747,-0.63571 0.3269,-1.26537 0.51403,-1.88624c1.12386,-3.72873 2.6618,-7.34296 3.92842,-11.03237c-6.0479,4.94431 -13.02312,8.84045 -18.99016,13.84809c-3.78707,3.17818 -7.2189,6.88011 -10.9139,10.17701c-3.79755,3.26395 -8.02749,3.81746 -12.84494,4.81867c-7.84067,1.62953 -15.13096,2.65101 -23.16041,2.82087c-6.4152,0.1357 -12.93105,0.11989 -19.3304,0.58503c-4.71924,0.34302 -9.43459,1.36375 -14.16094,1.90413c0.68303,-0.04913 1.36268,-0.09319 2.03763,-0.12861c6.65256,-0.34833 13.33786,0.01865 19.97893,-0.36682c14.76508,-0.857 29.81781,-3.00286 44.40116,-5.39404c7.35533,-1.20603 15.78693,-2.90514 23.09403,-6.24759zM269.06444,430.76464c-0.31755,0.01201 -0.63517,0.0204 -0.95286,0.02482c-2.90416,0.04034 -5.78312,0.12983 -8.65696,0.26259c0.315,0.02657 0.62965,0.04556 0.94389,0.0558c2.83884,0.09249 5.75994,-0.10974 8.66594,-0.34321zM152.75996,413.45181c6.6917,2.29664 13.36642,4.83988 20.16439,6.69784c9.15871,2.50318 18.81634,3.80847 28.11743,5.73435c0.28311,-0.00909 0.56627,-0.0179 0.84946,-0.02643c-1.1197,-0.28 -2.20464,-0.60891 -3.23788,-1.00322c-1.01296,-0.38658 -1.70023,-1.35839 -2.63724,-1.90388c-2.81614,-1.63944 -5.83695,-2.89889 -8.75295,-4.3533c-8.15475,-4.06736 -17.11578,-8.49404 -24.5735,-13.7363c-2.55232,-1.79411 -5.06546,-3.74695 -7.94533,-4.94676c-3.05076,-1.29373 -6.07167,-2.66018 -9.15201,-3.88181c-0.61249,-0.24291 -9.38053,-3.43518 -9.71536,-3.63c-0.24474,-0.1424 -7.59521,-6.34646 -8.0025,-6.6894c-0.22593,-0.19023 -7.71202,-6.4891 -7.81901,-6.59755c-2.29667,-2.32809 -3.72972,-5.45953 -6.19728,-7.60566c-2.40958,-2.0957 -5.47291,-3.29237 -8.20016,-4.95372c-5.81206,-3.54052 -11.29453,-7.22777 -16.7654,-11.2756c-1.6756,-1.23975 -3.57368,-2.24048 -5.1593,-3.57953c-0.38515,0.43772 -0.79251,0.85658 -1.22227,1.25441c-0.78466,0.72637 -1.61001,1.31103 -2.46777,1.78579c0.667,0.4409 1.28974,0.92138 1.84573,1.46016c4.6928,4.54751 8.45358,10.91576 12.43655,16.10527c2.57746,2.67388 5.32138,6.67989 8.39696,8.763c3.77261,2.55521 7.83216,4.25471 11.58201,6.94432c10.28938,7.38012 20.27007,14.66799 31.17804,21.12065c0.19728,0.1167 4.90681,2.89465 7.27738,4.31739zM388.45078,374.51381c-0.15482,0.58229 -0.30276,1.16751 -0.44304,1.756c0.14978,-0.10697 0.29961,-0.21302 0.44953,-0.31808c1.33676,-0.93525 2.68237,-1.85278 4.03296,-2.76046c0.83679,-2.70277 1.67519,-5.40841 2.53001,-8.11373c-1.22238,1.37708 -2.3857,2.79396 -3.40777,4.30626c-1.12832,1.66951 -2.16387,3.39012 -3.16167,5.13001zM408.76635,290.857c-0.09536,0.46864 -0.18186,0.94696 -0.25916,1.43675c-0.2213,1.35153 -0.45774,2.71963 -0.71122,4.09667c0.18584,-0.31317 0.43811,-0.58228 0.7374,-0.78792c0.10721,-1.57222 0.18668,-3.15282 0.23299,-4.7455zM402.99674,315.30856c-0.81951,2.34933 -2.27005,4.47343 -2.88518,6.88436c-0.85592,3.3547 -1.93614,7.04473 -2.77965,10.69311c-0.05185,0.60341 -0.10156,1.20718 -0.15006,1.81108c1.50067,-4.35271 3.03422,-8.69541 4.67356,-13.02303c1.40173,-3.70036 3.74958,-7.89716 4.4909,-11.79054c0.60241,-3.16385 0.56187,-6.41684 0.85423,-9.62422l0.13084,-1.4354c-1.10671,5.59015 -2.5096,11.25268 -4.33464,16.48465zM402.11848,200.85242c0.60863,1.63756 1.21616,3.27449 1.82348,4.91017c0.19049,-3.47339 0.40325,-6.95372 0.59622,-10.47046c0.25884,-4.71728 0.04523,-9.44453 0.3436,-14.16778c0.02927,-0.46334 0.02217,-0.93704 0.00546,-1.4137c-0.21454,-0.09179 -0.41364,-0.21273 -0.59232,-0.35784l-2.8968,-2.31117l0.14538,-0.18222c-0.10861,-0.0795 -0.2177,-0.15844 -0.32724,-0.23684c-0.73886,-0.32295 -1.47424,-0.66306 -2.2023,-1.02052c0.72394,5.18963 1.1413,10.47627 1.80305,15.75428c0.39723,3.16822 0.84127,6.33284 1.30147,9.49608zM381.47992,147.97311c-0.23255,-0.26964 -0.46899,-0.53545 -0.70909,-0.79763c-0.69117,-0.56221 -1.38406,-1.12285 -2.08018,-1.67825c0.46789,0.77481 0.93441,1.52865 1.40691,2.23988c0.4459,0.99978 0.91549,2.02498 1.41314,3.05748c0.95826,1.27402 1.89549,2.56862 2.82735,3.8573c1.08894,0.27013 1.89607,1.25409 1.89607,2.42656l0,0.18251c1.16486,1.58567 2.33797,3.13397 3.54993,4.59314c0.09217,-0.82436 0.1537,-1.65066 0.15945,-2.48066l0.00724,-0.73797c-3.01569,-3.27537 -5.56076,-7.31518 -8.47084,-10.66237zM411.61969,166.42357c-0.03694,-0.08224 -0.07454,-0.16403 -0.11298,-0.24526c-1.79251,-3.7882 -2.57982,-7.79271 -5.56419,-10.72503c-2.29883,-2.25873 -4.27262,-4.88208 -6.83026,-6.84293c-6.08745,-4.66701 -13.2876,-8.43286 -20.0693,-11.99297c-5.77223,-3.2959 -10.47998,-8.0791 -15.69844,-12.24245c-3.38713,-2.70229 -6.86233,-5.3143 -10.38715,-7.85795c1.75498,2.90856 3.60278,5.74336 5.76184,8.01754c2.00796,2.11504 4.83425,3.26406 7.22491,4.93441c6.30503,4.40532 12.95613,8.45935 18.23058,14.03841c1.91995,1.56148 3.8291,3.12931 5.75789,4.62925c5.28716,4.1429 10.45341,8.36722 15.56306,12.72719c2.17162,1.85301 4.25798,3.61073 6.12405,5.55979zM408.44083,171.79307c-0.89148,-0.35204 -1.61603,-0.67365 -2.03225,-0.90761c-0.19059,-0.10713 -8.01683,-5.81832 -8.34518,-6.05762c-0.50351,-0.36695 -1.01982,-0.71913 -1.54091,-1.06584c0.49593,1.61298 0.91478,3.24476 1.27532,4.89173c1.67977,0.99475 3.37125,1.9731 4.98996,3.02416c0.29727,0.1693 0.58163,0.35197 0.84257,0.55889c0.48825,0.33127 0.96825,0.67085 1.43756,1.02133l0.06069,0.13021l0.03922,-0.04221l0.80213,0.74535c0.72273,-1.11925 1.55958,-1.88014 2.4709,-2.29839zM350.35661,121.43503c-1.31511,-2.14423 -2.56359,-4.32802 -3.833,-6.22694c-1.16368,-1.74076 -1.84496,-3.90932 -3.22649,-5.44329c-0.51166,-0.34819 -1.01516,-0.71139 -1.51575,-1.08008c-0.53628,-0.16385 -1.12895,-0.22522 -1.63348,-0.46532c-2.07486,-0.98738 -4.1464,-2.00727 -6.27697,-2.86796c2.62663,1.32305 5.34311,2.74265 7.22434,4.52089c3.54869,3.35442 5.69416,8.25096 9.26135,11.5627zM360.2958,133.75337c-3.15974,-1.84138 -6.43941,-3.55496 -9.41464,-5.5761c-2.27657,-1.34511 -4.64826,-2.75283 -4.75723,-2.84402c-0.52655,-0.44062 -6.04235,-7.07061 -6.70991,-7.76222c-0.55494,-0.57493 -1.12693,-1.13234 -1.70959,-1.67882c3.14384,3.48199 6.20043,7.70072 9.73007,10.77026c1.95343,1.6988 4.51377,2.53643 6.76297,3.81819c1.96002,1.11696 4.02176,2.18884 6.09833,3.27271zM408.69204,260.20439c0.71509,0.41235 1.41237,1.03297 2.11182,1.6283c0.09513,-1.6109 0.18897,-3.21884 0.27593,-4.82594c-0.12799,-2.35314 -0.26398,-4.70741 -0.40863,-7.0635c-0.25154,-4.14325 -0.8795,-8.07282 -1.75065,-11.92868c-0.15215,3.17478 -0.4504,6.37101 -0.73246,9.57124c-0.07488,1.07517 -0.16855,2.15101 -0.27272,3.22718c-0.12255,1.55145 -0.22848,3.10246 -0.29931,4.65106c0.30429,1.3405 0.60866,2.68144 0.91249,4.02301c0.05417,0.23917 0.10871,0.47827 0.16353,0.71734zM409.57019,217.38312c-0.10131,1.00119 -0.22056,2.00275 -0.34992,3.00393c0.70731,2.09538 1.38523,4.2 2.01905,6.31516c-0.07183,-1.02269 -0.16143,-2.04144 -0.27314,-3.05451c-0.23443,-2.12609 -1.05505,-4.15461 -1.396,-6.26458zM404.04496,289.11968c-0.58821,1.64943 -1.18262,3.29673 -1.55615,5.00353c-0.62208,2.84253 -0.88749,5.82918 -1.14665,8.79868c0.89408,-3.82847 1.62326,-7.69989 2.2303,-11.43339c0.13306,-0.79272 0.29069,-1.58309 0.4725,-2.36882zM383.97114,399.08252c2.21469,-5.99445 4.19429,-12.05591 6.1098,-18.14758c-1.25848,0.91461 -2.5125,1.8722 -3.776,2.83311c-1.09226,5.07288 -2.03738,10.31459 -2.3338,15.31447zM389.07605,181.05694c1.14981,3.73829 2.50691,7.43115 3.84378,11.12921c-0.04791,-0.56442 -0.10032,-1.12788 -0.15826,-1.69015c-1.22155,-3.14766 -2.45306,-6.29264 -3.68552,-9.43906zM98.4412,88.24404c0.58286,-0.54327 1.16543,-1.08684 1.74711,-1.63132l0.13712,-0.04875l-0.02813,-0.0376l2.30966,-1.72754c0.42084,-0.322 0.94697,-0.5133 1.51779,-0.5133c0.01446,0 0.02889,0.00012 0.04328,0.00037c1.76244,-2.34645 3.33118,-4.74656 4.86689,-7.19977c-0.01364,-0.02473 -0.02722,-0.0495 -0.04074,-0.07431c-3.71851,3.53649 -7.0499,7.35014 -10.55298,11.23222zM74.46954,127.14866c-0.27159,0.79695 -0.54071,1.59531 -0.80797,2.39476c0.09217,-0.10916 0.18444,-0.21812 0.27682,-0.3269c0.17527,-0.68986 0.35239,-1.37912 0.53115,-2.06786zM89.54092,103.64345c-0.22515,0.19567 -0.45409,0.38795 -0.6814,0.58158c-0.10814,0.483 -0.21631,0.96594 -0.32456,1.4488c0.32139,-0.68398 0.65592,-1.3612 1.00596,-2.03038z" fill="#4cbd63"/><path d="M72.69292,213.37781c7.46189,5.03337 9.26413,14.92156 8.06278,23.66267c-5.18551,6.73415 -12.00902,14.03418 -19.90059,17.56407c-8.46857,3.78798 -16.83927,4.10466 -25.87365,4.8657c-5.20019,0.43806 -9.13486,0.16432 -14.25502,-1.23575c-3.49975,-0.95698 -5.54242,-1.38362 -6.97385,-5.11016c-0.44213,-1.15102 -0.10978,-2.46392 -0.12881,-3.69679c-0.07683,-4.9771 0.05846,-9.18929 1.0761,-14.07337c1.13618,-5.37154 2.10772,-9.49225 5.25677,-14.03445c0.88239,-1.27276 1.62363,-2.66063 2.67017,-3.80226c0.00716,-0.00781 0.01536,-0.01513 0.02448,-0.02198c-2.70602,0.12099 -5.04752,0.38546 -7.61855,-1.64774c-1.08086,-0.85475 -1.17554,-2.49271 -1.77103,-3.73538c-3.95856,-8.26072 -2.88063,-20.23906 4.08762,-26.68966c4.76669,-4.41259 11.03509,-3.59567 16.94664,-4.67732c4.14676,-0.75875 8.31081,-2.00423 12.47446,-2.81429c4.97236,-2.38332 7.12658,-8.49284 12.08717,-10.98275c1.67424,-0.84037 5.57433,0.04845 7.32738,0.45187c1.89774,0.4367 6.40736,1.22823 8.13395,2.92156c2.26157,2.21801 3.44581,5.31653 5.20315,7.95205c1.47187,2.2074 5.16094,7.22256 5.34176,9.90892c0.13305,1.97652 -1.10844,3.80423 -1.7109,5.6914c-2.13249,6.67987 -6.18228,13.54242 -10.23985,19.2484c0,0 -0.07697,0.10746 -0.2202,0.25526z" data-paper-data="{&quot;index&quot;:null}" fill="#4cbd63"/><path d="M83.49382,96.50094c-4.05756,-5.70598 -8.10736,-12.56854 -10.23985,-19.2484c-0.60246,-1.88716 -1.84395,-3.71487 -1.7109,-5.6914c0.18083,-2.68636 3.86989,-7.70151 5.34177,-9.90892c1.75733,-2.63553 2.94158,-5.73405 5.20315,-7.95205c1.7266,-1.69334 6.23622,-2.48486 8.13395,-2.92157c1.75305,-0.40341 5.65313,-1.29224 7.32738,-0.45187c4.96058,2.48991 7.11481,8.59944 12.08717,10.98275c4.16365,0.81006 8.3277,2.05554 12.47446,2.81429c5.91156,1.08166 12.17995,0.26473 16.94665,4.67732c6.96825,6.4506 8.04618,18.42894 4.08762,26.68966c-0.59549,1.24267 -0.69018,2.88063 -1.77103,3.73538c-2.57103,2.0332 -4.91253,1.76874 -7.61855,1.64774c0.00913,0.00685 0.01732,0.01417 0.02448,0.02198c1.04654,1.14162 1.78778,2.52949 2.67017,3.80226c3.14905,4.54219 4.12059,8.66291 5.25677,14.03445c1.01764,4.88409 1.15293,9.09627 1.0761,14.07338c-0.01903,1.23287 0.31332,2.54577 -0.12881,3.69679c-1.43143,3.72654 -3.47409,4.15318 -6.97385,5.11016c-5.12016,1.40007 -9.05483,1.67381 -14.25502,1.23575c-9.03438,-0.76104 -17.40508,-1.07772 -25.87365,-4.8657c-7.89157,-3.52989 -14.71508,-10.82992 -19.90059,-17.56407c-1.20135,-8.74111 0.60089,-18.6293 8.06278,-23.66267c-0.14324,-0.1478 -0.2202,-0.25526 -0.2202,-0.25526z" data-paper-data="{&quot;index&quot;:null}" fill="#4cbd63"/><path d="M276.40171,92.2524c-7.46189,-5.03337 -9.26413,-14.92156 -8.06278,-23.66267c5.18551,-6.73415 12.00903,-14.03418 19.9006,-17.56407c8.46857,-3.78798 16.83927,-4.10466 25.87364,-4.8657c5.2002,-0.43806 9.13486,-0.16432 14.25503,1.23575c3.49976,0.95698 5.54242,1.38362 6.97384,5.11016c0.44213,1.15102 0.10978,2.46392 0.12881,3.69679c0.07683,4.9771 -0.05846,9.18929 -1.0761,14.07337c-1.13618,5.37154 -2.10772,9.49225 -5.25677,14.03445c-0.88239,1.27276 -1.62363,2.66063 -2.67017,3.80226c-0.00717,0.00781 -0.01536,0.01513 -0.02449,0.02198c2.70601,-0.12099 5.04751,-0.38546 7.61855,1.64774c1.08085,0.85475 1.17554,2.49271 1.77103,3.73538c3.95855,8.26072 2.88063,20.23906 -4.08762,26.68966c-4.7667,4.41259 -11.03509,3.59567 -16.94664,4.67732c-4.14676,0.75875 -8.31082,2.00423 -12.47447,2.81429c-4.97236,2.38332 -7.12659,8.49284 -12.08717,10.98276c-1.67424,0.84037 -5.57432,-0.04845 -7.32738,-0.45187c-1.89774,-0.4367 -6.40735,-1.22823 -8.13395,-2.92157c-2.26157,-2.21801 -3.44582,-5.31653 -5.20315,-7.95205c-1.47188,-2.2074 -5.16094,-7.22256 -5.34177,-9.90892c-0.13304,-1.97652 1.10844,-3.80423 1.7109,-5.6914c2.13249,-6.67987 6.18229,-13.54242 10.23985,-19.24841c0,0 0.07696,-0.10746 0.2202,-0.25526z" fill="#4cbd63"/><path d="M363.9843,172.32747c-7.4619,-5.03337 -9.26414,-14.92156 -8.06278,-23.66267c5.18551,-6.73415 12.00902,-14.03418 19.90059,-17.56407c8.46857,-3.78798 16.83927,-4.10466 25.87365,-4.8657c5.2002,-0.43806 9.13486,-0.16432 14.25502,1.23575c3.49975,0.95698 5.54242,1.38362 6.97385,5.11016c0.44212,1.15102 0.10978,2.46392 0.12881,3.69679c0.07683,4.9771 -0.05846,9.18929 -1.0761,14.07337c-1.13619,5.37154 -2.10773,9.49225 -5.25677,14.03445c-0.88239,1.27277 -1.62363,2.66063 -2.67017,3.80226c-0.00717,0.00781 -0.01536,0.01513 -0.02448,0.02198c2.70601,-0.12099 5.04751,-0.38546 7.61855,1.64774c1.08085,0.85475 1.17554,2.49271 1.77103,3.73538c3.95855,8.26073 2.88063,20.23907 -4.08762,26.68966c-4.76669,4.41259 -11.03509,3.59566 -16.94664,4.67732c-4.14676,0.75875 -8.31081,2.00423 -12.47447,2.81429c-4.97236,2.38331 -7.12658,8.49284 -12.08717,10.98275c-1.67425,0.84037 -5.57433,-0.04845 -7.32738,-0.45187c-1.89773,-0.43671 -6.40735,-1.22823 -8.13395,-2.92157c-2.26157,-2.218 -3.44582,-5.31653 -5.20315,-7.95205c-1.47188,-2.2074 -5.16093,-7.22256 -5.34177,-9.90892c-0.13304,-1.97652 1.10844,-3.80424 1.7109,-5.6914c2.13249,-6.67987 6.18229,-13.54242 10.23985,-19.2484c0,0 0.07697,-0.10746 0.22021,-0.25526z" fill="#4cbd63"/><path d="M379.49481,297.44759c-7.4619,-5.03337 -9.26414,-14.92156 -8.06278,-23.66267c5.18551,-6.73415 12.00902,-14.03418 19.90059,-17.56407c8.46857,-3.78798 16.83927,-4.10466 25.87365,-4.8657c5.2002,-0.43806 9.13486,-0.16432 14.25502,1.23575c3.49975,0.95698 5.54242,1.38362 6.97384,5.11016c0.44213,1.15102 0.10978,2.46392 0.12881,3.69679c0.07683,4.9771 -0.05846,9.18929 -1.0761,14.07337c-1.13619,5.37154 -2.10773,9.49225 -5.25677,14.03445c-0.88239,1.27276 -1.62363,2.66063 -2.67017,3.80226c-0.00717,0.00781 -0.01536,0.01513 -0.02449,0.02198c2.70601,-0.12099 5.04752,-0.38546 7.61855,1.64774c1.08085,0.85475 1.17554,2.49271 1.77103,3.73538c3.95855,8.26072 2.88062,20.23906 -4.08762,26.68966c-4.7667,4.41259 -11.03509,3.59566 -16.94664,4.67732c-4.14676,0.75875 -8.31081,2.00423 -12.47447,2.81429c-4.97236,2.38331 -7.12658,8.49284 -12.08717,10.98275c-1.67424,0.84037 -5.57432,-0.04845 -7.32738,-0.45187c-1.89773,-0.43671 -6.40735,-1.22823 -8.13395,-2.92157c-2.26157,-2.21801 -3.44581,-5.31653 -5.20315,-7.95205c-1.47188,-2.2074 -5.16093,-7.22256 -5.34177,-9.90892c-0.13304,-1.97652 1.10844,-3.80424 1.7109,-5.6914c2.13249,-6.67987 6.18229,-13.54242 10.23985,-19.2484c0,0 0.07697,-0.10746 0.22021,-0.25526z" fill="#4cbd63"/></g></g></svg>