<svg version="1.1" xmlns="http://www.w3.org/2000/svg" xmlns:xlink="http://www.w3.org/1999/xlink" width="30.08361" height="30.08361" viewBox="0,0,30.08361,30.08361"><g transform="translate(-224.9582,-164.9582)"><g data-paper-data="{&quot;isPaintingLayer&quot;:true}" fill-rule="nonzero" stroke-linecap="butt" stroke-linejoin="miter" stroke-miterlimit="10" stroke-dasharray="" stroke-dashoffset="0" style="mix-blend-mode: normal"><path d="M253.03623,192.96367l-25.9999,0.07256l-0.07256,-25.9999l25.9999,-0.07256z" data-paper-data="{&quot;index&quot;:null}" fill="#66f4ff" stroke="#000000" stroke-width="4"/><path d="M235.60775,173.82473c0.00385,1.3807 -1.11231,2.50311 -2.49301,2.50697c-1.3807,0.00385 -2.50311,-1.11231 -2.50697,-2.49301c-0.00385,-1.3807 1.11231,-2.50311 2.49301,-2.50697c1.3807,-0.00385 2.50311,1.11231 2.50697,2.49301z" data-paper-data="{&quot;index&quot;:null}" fill="#000000" stroke="none" stroke-width="0.5"/><path d="M235.39019,185.45039c0.00385,1.3807 -1.11231,2.50311 -2.49301,2.50697c-1.3807,0.00385 -2.50311,-1.11231 -2.50697,-2.49301c-0.00385,-1.3807 1.11231,-2.50311 2.49301,-2.50697c1.3807,-0.00385 2.50311,1.11231 2.50697,2.49301z" data-paper-data="{&quot;index&quot;:null}" fill="#000000" stroke="none" stroke-width="0.5"/></g></g></svg>