<svg version="1.1" xmlns="http://www.w3.org/2000/svg" xmlns:xlink="http://www.w3.org/1999/xlink" width="56.16828" height="59.63622" viewBox="0,0,56.16828,59.63622"><g transform="translate(-250.56135,-155.81298)"><g data-paper-data="{&quot;isPaintingLayer&quot;:true}" fill-rule="nonzero" stroke-linecap="butt" stroke-linejoin="miter" stroke-miterlimit="10" stroke-dasharray="" stroke-dashoffset="0" style="mix-blend-mode: normal"><path d="M251.81135,214.1992v-57.13622h53.66828v57.13622z" fill="#000000" stroke="#000000" stroke-width="2.5"/><path d="M262.35927,177.09345c-0.26891,-0.60341 -0.53783,-1.20682 -0.80674,-1.81022c-0.58547,0.09735 -1.17045,0.21744 -1.75485,0.3649c0,0 -2.42574,0.6048 -3.03054,-1.82094c-0.6048,-2.42574 1.82094,-3.03054 1.82094,-3.03054c6.68044,-1.64812 13.3948,0.17801 19.98325,-1.24381l1.71098,0.21015c0,0 2.37238,0.78856 1.58382,3.16093c-0.63354,1.906 -2.28938,1.7717 -2.91594,1.64524c-2.56582,0.44797 -5.14168,0.44946 -7.719,0.39666c0.00166,1.99805 -0.00871,6.03978 -0.20656,6.24895c-3.45784,3.65574 -7.811,1.14791 -8.60354,-2.93028c-0.06426,-0.33066 -0.03235,-0.65072 0.06086,-0.96403c-0.08245,-0.1367 -0.1227,-0.22702 -0.1227,-0.22702z" fill="#ffffff" stroke="none" stroke-width="0.5"/><path d="M285.52749,198.92662c-0.83883,2.35507 -3.1939,1.51625 -3.1939,1.51625l-1.31668,-0.5468c-6.31267,-0.62951 -12.37298,-0.01101 -18.65789,-0.26155c0,0 -2.49784,-0.10379 -2.39406,-2.60163c0.10379,-2.49784 2.60163,-2.39406 2.60163,-2.39406c6.3667,0.27645 12.54154,-0.35676 18.94645,0.28191l2.4982,0.81198c0,0 2.35507,0.83883 1.51625,3.1939z" fill="#ffffff" stroke="none" stroke-width="0.5"/></g></g></svg>