<svg version="1.1" xmlns="http://www.w3.org/2000/svg" xmlns:xlink="http://www.w3.org/1999/xlink" width="132.53305" height="96.49585" viewBox="0,0,132.53305,96.49585"><g transform="translate(-209.09723,-116.41202)"><g data-paper-data="{&quot;isPaintingLayer&quot;:true}" fill-rule="nonzero" stroke-linecap="butt" stroke-linejoin="miter" stroke-miterlimit="10" stroke-dasharray="" stroke-dashoffset="0" style="mix-blend-mode: normal"><path d="M211.09724,210.90787v-61.81574h57.80573v61.81574z" fill="#00f6f7" stroke="#000000" stroke-width="4"/><g stroke="none" stroke-width="0.5"><g><path d="M271.99805,182.76229c1.02162,1.03668 2.00759,2.01136 2.71909,2.85187c0.06602,0.00219 0.13355,0.00087 0.20145,-0.00344c-0.04424,0.01362 -0.08291,0.03177 -0.11436,0.0554c-0.94391,0.70973 -1.54167,1.80204 -2.21076,2.77517c-1.0721,1.55926 -2.44622,2.98313 -3.79679,4.30854c-0.82854,0.81309 -1.51703,1.78568 -2.2147,2.71348c-0.47023,0.62538 -0.92261,1.26919 -1.3203,1.94304c-0.13801,0.23383 -0.01244,0.7767 -0.28365,0.7636c-0.32656,-0.0158 -0.40719,-0.52038 -0.56573,-0.80631c-0.36171,-0.65242 -3.23656,-4.20899 -2.58932,-5.10287c1.19444,-1.64954 2.89535,-2.16114 4.43499,-3.33332c2.28499,-1.73965 3.57957,-4.7256 5.74008,-6.16514z" data-paper-data="{&quot;noHover&quot;:false,&quot;origItem&quot;:[&quot;Path&quot;,{&quot;applyMatrix&quot;:true,&quot;segments&quot;:[[[290.70156,197.04816],[0,0],[-1.15982,2.32268]],[[288.83299,205.20695],[1.11875,-2.64498],[-0.75382,1.78221]],[[286.62252,210.25816],[0.21708,-2.02498],[-0.11762,1.0973]],[[291.36824,213.38896],[-0.63805,-0.3865],[0.27964,0.16939]],[[292.25489,213.80837],[-0.29126,0.14853],[0.24189,-0.12336]],[[292.12154,213.00479],[-0.00359,0.2715],[0.01036,-0.78237]],[[292.29649,210.664],[-0.09739,0.77636],[0.14452,-1.15183]],[[292.84666,207.22513],[-0.3151,1.11728],[0.51362,-1.82123]],[[294.00682,201.66814],[-0.15577,1.88585],[0.09722,-1.17696]],[[294.55628,198.16809],[-0.46658,1.0849],[0.01555,-0.03614]],[[294.62793,198.06315],[-0.03163,0.0338],[-0.0568,0.03749]],[[294.45536,198.16652],[0.05838,-0.03089],[-1.03506,-0.37595]],[[290.70155,197.04816],[1.40167,0.39212],[0,0]]],&quot;closed&quot;:true,&quot;fillColor&quot;:[0,0,0,1]}]}" fill="#8f4c00"/><path d="M276.595,180.43943c0.12109,-0.33004 0.1816,-0.74021 0.13262,-1.22618c-0.25071,-2.4874 -2.65597,-2.17968 -2.65597,-2.17968c-0.23307,0.03218 -0.55282,-0.00626 -0.79185,0.00623c-0.87278,-1.02757 -1.56289,-2.08107 -1.80732,-3.0968c-0.321,-1.33396 1.77731,-1.76283 2.26536,-2.28352c0.49428,-0.52733 0.78193,-1.22917 1.05646,-1.90104c0.1625,2.00634 1.50379,3.95353 2.39777,5.78736c2.62038,5.37507 6.60495,9.45918 9.68366,14.56327c0.82719,1.37136 2.00388,2.57287 2.52656,4.08671c0.18362,0.53179 -1.08375,0.56968 -1.63302,0.4479c-0.76336,-0.1692 -2.18225,-1.28842 -2.75995,-1.70602c-0.97322,-2.66724 -2.17952,-4.63592 -3.87194,-6.65809c0.05724,-0.17759 0.08792,-0.36463 0.08372,-0.56354c-0.01309,-0.62336 -0.35542,-1.13518 -0.80257,-1.59404l0.02618,-0.04263c0,0 -0.18332,-2.52606 -2.64678,-2.3921c-0.35191,-0.38992 -0.76089,-0.81435 -1.20293,-1.24789z" data-paper-data="{&quot;noHover&quot;:false,&quot;origItem&quot;:[&quot;Path&quot;,{&quot;applyMatrix&quot;:true,&quot;segments&quot;:[[[293.58691,192.69103],[0,0],[0.59903,0.15663]],[[295.24835,193.16655],[-0.49912,-0.16356],[2.07137,-1.34015]],[298.68417,193.89486],[[298.68272,193.94485],[0,0],[0.61603,0.17607]],[[300.15051,194.93518],[-0.32106,-0.53448],[0.10246,0.17055]],[[300.35854,195.46549],[-0.03855,-0.18256],[2.47343,0.91411]],[[307.01163,199.33176],[-2.16974,-1.83126],[0.70883,0.07542]],[[310.25,199.44706],[-0.74655,0.23241],[0.53717,-0.16721]],[[311.44186,198.25205],[0.42355,0.37029],[-1.20571,-1.05412]],[[307.21838,195.96155],[1.3992,0.77918],[-5.20767,-2.90005]],[[291.58051,188.13092],[4.94454,3.36293],[-1.68694,-1.14735]],[[286.71033,184.35047],[1.13782,1.66048],[0.09555,0.71948]],[[286.74129,186.51905],[0.16698,-0.70322],[-0.16488,0.69434]],[[285.9135,189.61448],[-0.94132,-0.99819],[0.71676,0.76006]],[[289.02128,191.39794],[-1.26796,-0.45817],[0.20123,-0.1296]],[[289.60575,190.99099],[-0.18629,0.14372],[0,0]],[[293.09325,191.57177],[-1.45336,-2.03415],[0.28395,0.39742]],[[293.58691,192.69102],[-0.05888,-0.34658],[0,0]]],&quot;closed&quot;:true,&quot;fillColor&quot;:[0,0,0,1]}]}" fill="#8f4c00"/><g><path d="M289.60484,181.75676c4.40731,-4.07514 8.27497,-9.78794 13.6158,-12.63473c2.98929,-1.59336 7.0339,-2.46779 9.88227,-4.25c1.15012,-0.71962 1.89654,-1.97243 3.03132,-2.716c2.40045,-1.5729 4.96984,-1.86666 7.12277,-4.02297c2.62499,-2.62909 4.7643,-7.60042 7.68157,-10.91076c-1.74294,-0.36927 -3.48035,-0.7736 -5.25419,-0.84993c-2.05488,-0.08842 -3.96325,1.29315 -6.01901,1.35825c-1.50259,0.04757 -3.29965,-1.63345 -4.459,-0.67642c-1.41113,1.16489 -2.12649,3.05521 -3.59159,4.15141c-5.44918,4.07704 -11.05345,8.08331 -16.33879,12.43161c-1.36673,1.12443 -2.58966,2.44447 -4.08375,3.39315c-4.0219,2.55372 -6.80576,2.58811 -9.26954,6.81001c1.71841,3.36719 4.01166,6.23415 6.21207,9.23138c0.49004,-0.43834 0.98006,-0.87666 1.47009,-1.31499zM292.09998,159.77543c5.31542,-4.41584 10.9527,-8.57171 16.53512,-12.58505c1.60409,-1.15321 2.25465,-3.41746 3.96629,-4.40403c2.01098,-1.15909 4.64242,-0.0104 6.96309,-0.05475c2.14331,-0.04096 4.14349,-1.41421 6.28643,-1.35649c2.4295,0.06543 4.75643,1.0059 7.14955,1.42983c0.87637,-0.49302 1.75276,-0.98604 2.62913,-1.47907l-0.00024,-0.00044l2.27813,-1.20804c0.90114,-0.50518 2.05988,-0.41495 2.87793,0.30773c0.9919,0.87624 1.12287,2.36422 0.3269,3.39743l-2.41032,3.19316l-0.02579,-0.01947c-0.02504,0.04867 -0.05038,0.09722 -0.07601,0.14563c-1.3605,2.56896 -5.15523,5.40614 -7.00368,7.69031c-1.82933,2.26056 -2.7094,4.72327 -4.79301,6.82533c-2.43248,2.45403 -5.41007,2.99093 -8.0811,4.77648c-1.10995,0.74197 -1.83789,1.98222 -2.9752,2.68154c-3.68396,2.26523 -8.68229,2.65525 -12.03468,5.56445c-3.80345,3.30066 -7.04067,7.33852 -10.74167,10.77403c-0.66145,0.59175 -1.32288,1.18348 -1.98433,1.77522l-0.00932,0.00759c0.05117,0.0836 0.10206,0.1675 0.15271,0.25166c0.96616,1.60609 3.45719,5.34911 3.21931,7.16571c-1.08853,8.31289 -9.85164,4.09248 -13.35092,1.24321c-1.01672,-2.34517 -1.87917,-4.12442 -3.25682,-5.91711c-0.96831,1.4061 -1.70921,2.98331 -2.83679,4.2645c-1.31698,1.4964 -3.11067,2.556 -4.30121,4.15481c-1.22683,1.64754 -2.80142,4.7402 -5.37445,4.71748c-4.77405,-0.04217 -9.77544,-8.8409 -7.91638,-12.93099c1.38577,-3.04882 3.69601,-3.5401 5.97861,-5.22347c2.16709,-1.5982 3.32662,-4.18794 5.22417,-6.03216c-1.08395,-1.45771 -1.87721,-2.96607 -1.97895,-4.44772c-0.09848,-1.43442 0.29335,-2.94736 1.01105,-4.19322c0.53682,-0.93184 1.81179,-1.19576 2.54605,-1.98147c1.93529,-2.07086 1.95666,-5.7393 6.88942,-3.63948c0.0554,0.02358 1.21529,2.16671 2.36914,4.31933c3.57406,-3.98995 8.42747,-5.62328 12.7478,-9.21244zM271.97282,182.80545c-2.1605,1.43953 -3.3901,4.41266 -5.67509,6.1523c-1.53964,1.17218 -3.23347,1.63597 -4.42789,3.28551c-0.64724,0.89386 2.20143,4.42242 2.56316,5.07485c0.15852,0.28594 0.23455,0.78868 0.56111,0.8045c0.27122,0.01312 0.1455,-0.52981 0.28351,-0.76365c0.39769,-0.67384 0.84455,-1.31917 1.31477,-1.94453c0.69767,-0.92782 1.35743,-1.89801 2.18595,-2.7111c1.35057,-1.32539 2.69555,-2.68703 3.76768,-4.24628c0.66911,-0.97314 1.27182,-2.05482 2.21574,-2.76455c0.03145,-0.02364 0.07007,-0.04185 0.11431,-0.05547c-0.06792,0.00432 -0.13511,0.00618 -0.20113,0.00398c-0.7115,-0.84052 -1.68051,-1.79886 -2.70214,-2.83553zM276.64158,180.45759c0.44205,0.43354 0.85374,0.8482 1.20564,1.23812c2.46345,-0.13396 2.61996,2.33906 2.61996,2.33906l-0.0261,0.04266c0.44715,0.45887 0.76872,0.96533 0.78181,1.58869c0.00419,0.19892 -0.02569,0.386 -0.08292,0.56358c1.69243,2.02216 2.87987,3.9935 3.85309,6.66074c0.57769,0.41762 1.9898,1.53975 2.75315,1.70895c0.54925,0.12175 1.81168,0.08682 1.62806,-0.44495c-0.52267,-1.51385 -1.70021,-2.71476 -2.5274,-4.08612c-3.0787,-5.10409 -7.06062,-9.18995 -9.68099,-14.56502c-0.89399,-1.83383 -2.1859,-3.69413 -2.34841,-5.70048c-0.27452,0.67187 -0.55624,1.37005 -1.05053,1.89739c-0.48806,0.52067 -2.57728,0.94118 -2.25627,2.27511c0.24443,1.01573 0.93827,2.06422 1.81104,3.09179c0.23903,-0.01249 0.47634,-0.03061 0.70943,-0.0628c0,0 2.48739,-0.25072 2.73811,2.23668c0.04898,0.48597 -0.00654,0.88657 -0.12764,1.21661zM275.20452,185.60369c0.17541,0.00453 0.37055,0.03289 0.54681,0.06419l-0.02129,-0.10238c-0.17008,-0.0047 -0.34781,0.01679 -0.5255,0.03818z" fill="#000000"/><path d="M289.18236,182.53078c-0.49003,0.43834 -0.98049,0.87629 -1.47053,1.31462c-2.20042,-2.99721 -4.50665,-5.88089 -6.22507,-9.24808c2.46379,-4.2219 5.24498,-4.26306 9.26689,-6.81678c1.49408,-0.94869 2.71499,-2.27874 4.08173,-3.40316c5.28535,-4.34832 10.96377,-8.40307 16.41296,-12.48011c1.46511,-1.09619 2.18303,-2.98498 3.59415,-4.14987c1.15934,-0.95704 2.96422,0.73017 4.46681,0.68259c2.05575,-0.06509 3.96848,-1.44188 6.02336,-1.35346c1.77383,0.07632 3.51498,0.48605 5.25793,0.85532c-2.91726,3.31034 -5.05096,8.29522 -7.67595,10.92431c-2.15293,2.15632 -4.72088,2.45993 -7.12131,4.03283c-1.13477,0.74355 -1.88299,2.01215 -3.03309,2.73178c-2.84836,1.78222 -6.95584,2.69099 -9.94513,4.28435c-5.34082,2.84679 -9.22543,8.55053 -13.63272,12.62565z" data-paper-data="{&quot;noHover&quot;:false,&quot;origItem&quot;:[&quot;Path&quot;,{&quot;applyMatrix&quot;:true,&quot;segments&quot;:[[[305.48257,187.37814],[0,0],[1.8003,-5.72625]],[[311.02193,169.64846],[-3.22072,5.12402],[1.80266,-2.86794]],[[317.48681,161.05038],[-1.58652,2.96182],[0.64061,-1.19593]],[[318.76819,157.18728],[-0.6154,1.20908],[1.30179,-2.55763]],[[322.95103,150.15719],[-0.79714,2.94099],[0.97192,-3.58581]],[[324.19684,136.87189],[-0.88712,4.32224],[-1.69607,0.54545]],[[319.21472,138.74466],[1.57735,-0.81504],[-1.82727,0.94417]],[[314.66589,142.91377],[1.75176,-1.07783],[-1.28039,0.7878]],[[310.46009,144.54206],[0.53066,-1.40656],[-0.64591,1.71202]],[[309.4056,149.92925],[0.7269,-1.67923],[-2.70354,6.24553]],[[301.40217,168.8355],[2.42658,-6.39956],[-0.62749,1.65485]],[[299.54384,173.80914],[0.82532,-1.5656],[-2.22169,4.21441]],[[294.88257,184.32452],[0.04068,-4.88805],[3.16421,2.0685]],[[304.86007,189.24974],[-3.39872,-1.50794],[0.20751,-0.62387]],[[305.48258,187.37815],[-0.2075,0.62387],[0,0]]],&quot;closed&quot;:true,&quot;fillColor&quot;:[0,0,0,1]}]}" fill="#c6c6c6"/></g></g><path d="M295.42254,117.16389c1.80279,-1.73204 3.53482,0.07075 3.53482,0.07075l0.64946,0.75705c2.69525,1.81989 5.39982,3.47734 8.07096,5.31115c0.7564,0.51929 5.88105,3.5521 6.63083,4.53264c0.69443,0.90816 0.79147,2.14513 1.18721,3.21769c0,0 0.7755,2.37668 -1.60118,3.15218c-2.37668,0.7755 -3.15218,-1.60118 -3.15218,-1.60118c-0.74985,-3.0079 -3.32614,-3.4157 -5.93492,-5.20723c-2.64525,-1.81657 -5.31914,-3.45858 -7.99518,-5.25904l-1.46059,-1.4392c0,0 -1.73204,-1.80279 0.07075,-3.53482z" fill="#000000"/><path d="M275.76719,121.97989l1.04418,-3.53347c3.09852,1.28131 5.52671,3.17224 8.32532,4.94928c6.50731,4.13199 12.41464,6.6928 16.19053,13.70012c0,0 1.17481,2.20678 -1.03196,3.38157c-2.20678,1.17481 -3.38157,-1.03196 -3.38157,-1.03196c-3.18558,-6.07137 -8.85248,-8.27156 -14.4764,-11.84103c-2.08523,-1.32349 -3.90394,-2.75473 -6.05018,-3.85633c-0.59864,-0.09724 -1.03425,-0.36606 -1.03425,-0.36606l0.0328,-0.11099c-0.15363,-0.06742 -0.30919,-0.13301 -0.46687,-0.19663z" fill="#000000"/><path d="M275.00408,132.64028c1.17126,-2.20866 3.37991,-1.0374 3.37991,-1.0374l1.55759,0.83633c2.98857,1.92868 6.70294,3.52311 9.17333,6.12688c2.02337,2.13263 3.21367,4.85885 5.3816,6.98175c0,0 1.78108,1.75436 0.02672,3.53543c-1.75436,1.78108 -3.53543,0.02672 -3.53543,0.02672c-2.20486,-2.18291 -3.51633,-4.9683 -5.54931,-7.15511c-2.1254,-2.28621 -5.59153,-3.62631 -8.20789,-5.31441l-1.18913,-0.62027c0,0 -2.20866,-1.17126 -1.0374,-3.37991z" fill="#000000"/><path d="M269.17794,142.35906c0.9463,-2.31398 3.26028,-1.36769 3.26028,-1.36769l0.56344,0.23505c4.31264,2.08343 6.63725,5.1096 10.09671,8.29551c0,0 1.83591,1.69689 0.13902,3.53281c-1.69689,1.83591 -3.53281,0.13902 -3.53281,0.13902c-3.0755,-2.85205 -5.05688,-5.65225 -8.86333,-7.45814l-0.29564,-0.11627c0,0 -2.31398,-0.9463 -1.36769,-3.26028z" fill="#000000"/></g></g></g></svg>