<svg version="1.1" xmlns="http://www.w3.org/2000/svg" xmlns:xlink="http://www.w3.org/1999/xlink" width="30.08361" height="30.08361" viewBox="0,0,30.08361,30.08361"><g transform="translate(-224.95819,-164.95819)"><g data-paper-data="{&quot;isPaintingLayer&quot;:true}" fill-rule="nonzero" stroke-linecap="butt" stroke-linejoin="miter" stroke-miterlimit="10" stroke-dasharray="" stroke-dashoffset="0" style="mix-blend-mode: normal"><path d="M227.03633,166.96377l25.9999,0.07256l-0.07256,25.9999l-25.9999,-0.07256z" data-paper-data="{&quot;index&quot;:null}" fill="#66f4ff" stroke="#000000" stroke-width="4"/><path d="M246.89922,171.33172c1.3807,0.00386 2.49686,1.12627 2.49301,2.50697c-0.00386,1.3807 -1.12627,2.49686 -2.50697,2.49301c-1.3807,-0.00386 -2.49686,-1.12627 -2.49301,-2.50697c0.00386,-1.3807 1.12627,-2.49686 2.50697,-2.49301z" data-paper-data="{&quot;index&quot;:null}" fill="#000000" stroke="none" stroke-width="0.5"/><path d="M247.11678,182.95738c1.3807,0.00386 2.49686,1.12627 2.49301,2.50697c-0.00386,1.3807 -1.12627,2.49686 -2.50697,2.49301c-1.3807,-0.00386 -2.49686,-1.12627 -2.49301,-2.50697c0.00386,-1.3807 1.12627,-2.49686 2.50697,-2.49301z" data-paper-data="{&quot;index&quot;:null}" fill="#000000" stroke="none" stroke-width="0.5"/></g></g></svg>