<svg version="1.1" xmlns="http://www.w3.org/2000/svg" xmlns:xlink="http://www.w3.org/1999/xlink" width="89.37802" height="119.31949" viewBox="0,0,89.37802,119.31949"><g transform="translate(-209.09721,-93.58838)"><g data-paper-data="{&quot;isPaintingLayer&quot;:true}" fill-rule="nonzero" stroke-linecap="butt" stroke-linejoin="miter" stroke-miterlimit="10" stroke-dasharray="" stroke-dashoffset="0" style="mix-blend-mode: normal"><path d="M211.09722,210.90787v-61.81574h57.80573v61.81574z" fill="#00f6f7" stroke="#000000" stroke-width="4"/><g stroke="none" stroke-width="0.5"><path d="M273.88146,174.37964c1.43014,-0.27041 2.78893,-0.54577 3.88334,-0.66803c0.03862,-0.05359 0.07516,-0.11039 0.10942,-0.16918c-0.01335,0.04432 -0.01983,0.08654 -0.01774,0.12583c0.06316,1.17928 0.6369,2.28439 1.07192,3.38231c0.69704,1.75921 1.11335,3.69372 1.46102,5.55378c0.21328,1.1411 0.63704,2.25482 1.01851,3.3512c0.25714,0.73898 0.53953,1.47342 0.87735,2.17918c0.11722,0.24491 0.63794,0.44324 0.47589,0.66111c-0.19513,0.26232 -0.65901,0.04803 -0.98477,0.02029c-0.74328,-0.06332 -5.29854,0.34124 -5.67994,-0.69436c-0.70381,-1.9111 -0.18054,-3.60846 -0.29562,-5.54011c-0.17079,-2.86677 -1.92836,-5.60589 -1.91936,-8.20204z" data-paper-data="{&quot;noHover&quot;:false,&quot;origItem&quot;:[&quot;Path&quot;,{&quot;applyMatrix&quot;:true,&quot;segments&quot;:[[[290.70156,197.04816],[0,0],[-1.15982,2.32268]],[[288.83299,205.20695],[1.11875,-2.64498],[-0.75382,1.78221]],[[286.62252,210.25816],[0.21708,-2.02498],[-0.11762,1.0973]],[[291.36824,213.38896],[-0.63805,-0.3865],[0.27964,0.16939]],[[292.25489,213.80837],[-0.29126,0.14853],[0.24189,-0.12336]],[[292.12154,213.00479],[-0.00359,0.2715],[0.01036,-0.78237]],[[292.29649,210.664],[-0.09739,0.77636],[0.14452,-1.15183]],[[292.84666,207.22513],[-0.3151,1.11728],[0.51362,-1.82123]],[[294.00682,201.66814],[-0.15577,1.88585],[0.09722,-1.17696]],[[294.55628,198.16809],[-0.46658,1.0849],[0.01555,-0.03614]],[[294.62793,198.06315],[-0.03163,0.0338],[-0.0568,0.03749]],[[294.45536,198.16652],[0.05838,-0.03089],[-1.03506,-0.37595]],[[290.70155,197.04816],[1.40167,0.39212],[0,0]]],&quot;closed&quot;:true,&quot;fillColor&quot;:[0,0,0,1]}]}" fill="#8f4c00"/><path d="M274.51506,169.26826c-0.20653,-0.28449 -0.51335,-0.56334 -0.94413,-0.79354c-2.20493,-1.17824 -3.29007,0.99028 -3.29007,0.99028c-0.10319,0.21145 -0.31333,0.4555 -0.43618,0.66092c-1.33961,0.1519 -2.59895,0.1377 -3.57851,-0.2255c-1.28645,-0.47699 -0.473,-2.45818 -0.63328,-3.15361c-0.16233,-0.7043 -0.58472,-1.33431 -0.98953,-1.93672c1.75637,0.98335 4.12064,0.95503 6.14149,1.2349c5.92325,0.82029 11.53502,-0.21162 17.48874,0.07709c1.59964,0.07756 3.25306,-0.22972 4.80127,0.18009c0.54387,0.14395 -0.13107,1.21732 -0.53831,1.60548c-0.56596,0.53949 -2.28605,1.09373 -2.95476,1.34061c-2.75696,-0.6786 -5.06384,-0.77434 -7.68607,-0.49627c-0.11554,-0.14651 -0.25374,-0.27623 -0.42123,-0.38361c-0.52485,-0.33657 -1.1406,-0.33762 -1.7708,-0.22212l-0.0208,-0.0455c0,0 -2.19948,-1.25574 -3.46131,0.86426c-0.51988,0.07485 -1.10022,0.17784 -1.70656,0.30322z" data-paper-data="{&quot;noHover&quot;:false,&quot;origItem&quot;:[&quot;Path&quot;,{&quot;applyMatrix&quot;:true,&quot;segments&quot;:[[[293.58691,192.69103],[0,0],[0.59903,0.15663]],[[295.24835,193.16655],[-0.49912,-0.16356],[2.07137,-1.34015]],[298.68417,193.89486],[[298.68272,193.94485],[0,0],[0.61603,0.17607]],[[300.15051,194.93518],[-0.32106,-0.53448],[0.10246,0.17055]],[[300.35854,195.46549],[-0.03855,-0.18256],[2.47343,0.91411]],[[307.01163,199.33176],[-2.16974,-1.83126],[0.70883,0.07542]],[[310.25,199.44706],[-0.74655,0.23241],[0.53717,-0.16721]],[[311.44186,198.25205],[0.42355,0.37029],[-1.20571,-1.05412]],[[307.21838,195.96155],[1.3992,0.77918],[-5.20767,-2.90005]],[[291.58051,188.13092],[4.94454,3.36293],[-1.68694,-1.14735]],[[286.71033,184.35047],[1.13782,1.66048],[0.09555,0.71948]],[[286.74129,186.51905],[0.16698,-0.70322],[-0.16488,0.69434]],[[285.9135,189.61448],[-0.94132,-0.99819],[0.71676,0.76006]],[[289.02128,191.39794],[-1.26796,-0.45817],[0.20123,-0.1296]],[[289.60575,190.99099],[-0.18629,0.14372],[0,0]],[[293.09325,191.57177],[-1.45336,-2.03415],[0.28395,0.39742]],[[293.58691,192.69102],[-0.05888,-0.34658],[0,0]]],&quot;closed&quot;:true,&quot;fillColor&quot;:[0,0,0,1]}]}" fill="#8f4c00"/><g><path d="M282.86006,159.20088c-0.92695,-5.93059 -3.51438,-12.32591 -2.90117,-18.34692c0.34322,-3.36999 1.87155,-7.21548 1.97943,-10.57372c0.04356,-1.356 -0.58057,-2.674 -0.56544,-4.03061c0.03201,-2.86969 1.2202,-5.1667 0.62987,-8.15607c-0.71976,-3.64481 -3.6549,-8.19187 -4.77737,-12.45905c-1.27805,1.24128 -2.58213,2.45843 -3.63418,3.88865c-1.21874,1.65681 -1.13533,4.01131 -2.22709,5.75442c-0.798,1.27406 -3.19532,1.82915 -3.04691,3.32514c0.18065,1.82088 1.3514,3.46843 1.44493,5.29584c0.34783,6.79668 0.55045,13.68268 1.21482,20.49452c0.1718,1.76147 0.58616,3.51258 0.54106,5.28183c-0.12141,4.7626 -1.6445,7.09312 0.48757,11.49186c3.75345,0.45003 7.41197,0.14398 11.1269,-0.01239c-0.0908,-0.65118 -0.1816,-1.30233 -0.27241,-1.9535zM266.00044,144.87756c-0.70367,-6.87446 -1.01211,-13.87124 -1.23279,-20.74305c-0.0634,-1.97458 -1.58073,-3.77675 -1.44583,-5.74774c0.1585,-2.31568 2.5789,-3.86024 3.83555,-5.81173c1.1606,-1.80235 1.13528,-4.22843 2.37761,-5.97547c1.40845,-1.98066 3.48625,-3.38844 5.17207,-5.13908c0.07912,-1.00241 0.15825,-2.00485 0.23737,-3.00726l-0.0005,-0.00005l0.26677,-2.56478c0.08283,-1.02976 0.80359,-1.94153 1.85956,-2.21793c1.28037,-0.33515 2.58878,0.38546 3.00297,1.6222l1.30774,3.78097l-0.03054,0.01056c0.02646,0.04792 0.05264,0.09601 0.07854,0.14427c1.37462,2.56143 1.61517,7.29342 2.48138,10.10125c0.85726,2.7788 2.41144,4.88212 2.99537,7.78369c0.68171,3.3874 -0.53213,6.15884 -0.5384,9.37172c-0.00262,1.3351 0.62139,2.63076 0.56811,3.9648c-0.17258,4.32123 -2.63467,8.68855 -2.08778,13.09342c0.62051,4.99755 2.16867,9.93588 2.95824,14.92354c0.12263,0.879 0.24527,1.75798 0.3679,2.63698l0.00111,0.01196c0.09793,0.00411 0.19595,0.00862 0.29406,0.01348c1.87199,0.09302 6.36811,0.11104 7.74378,1.32106c6.2952,5.53711 -2.09314,10.46049 -6.40919,11.77773c-2.5138,-0.46298 -4.47175,-0.73861 -6.72802,-0.59398c0.62773,1.58767 1.52428,3.0819 1.95953,4.73218c0.50837,1.92749 0.38837,4.00731 1.05224,5.88691c0.6841,1.93688 2.37421,4.96796 0.92121,7.09159c-2.69592,3.94022 -12.78881,3.18858 -15.14849,-0.63463c-1.75895,-2.84987 -0.87918,-5.04181 -1.00458,-7.87523c-0.11907,-2.69004 -1.62295,-5.0962 -2.09651,-7.69959c-1.81445,0.08749 -3.50892,-0.0946 -4.79579,-0.83596c-1.24584,-0.71773 -2.28359,-1.88632 -2.91796,-3.17661c-0.47447,-0.96508 0.01704,-2.17074 -0.22606,-3.2183c-0.6407,-2.76104 -3.67456,-4.82345 0.81821,-7.74857c0.05046,-0.03285 2.4763,0.19864 4.90668,0.44044c-1.32065,-5.19129 0.02838,-10.13127 -0.54355,-15.71878zM273.90323,174.42464c-0.009,2.59613 1.77415,5.27416 1.94493,8.14093c0.11507,1.93165 -0.44394,3.59647 0.25988,5.50757c0.38139,1.03559 4.89879,0.63714 5.64209,0.70045c0.32576,0.02776 0.78555,0.24485 0.98069,-0.01747c0.16206,-0.21787 -0.35879,-0.4161 -0.47601,-0.66102c-0.33781,-0.70577 -0.62453,-1.43646 -0.88167,-2.17543c-0.38148,-1.09639 -0.81927,-2.18491 -1.03255,-3.326c-0.34766,-1.86006 -0.72853,-3.73568 -1.42556,-5.49491c-0.43502,-1.09793 -0.99718,-2.20124 -1.06033,-3.38052c-0.0021,-0.03929 0.00431,-0.08151 0.01766,-0.12583c-0.03427,0.0588 -0.07018,0.11562 -0.1088,0.16921c-1.09442,0.12226 -2.43019,0.39264 -3.86033,0.66306zM274.5561,169.23971c0.60634,-0.12538 1.18007,-0.23607 1.69995,-0.31091c1.26182,-2.11999 3.40232,-0.87155 3.40232,-0.87155l0.02088,0.04545c0.63021,-0.1155 1.22994,-0.1002 1.75479,0.23637c0.16749,0.10739 0.30616,0.23647 0.4217,0.38297c2.62224,-0.27808 4.92081,-0.16521 7.67777,0.5134c0.66872,-0.24687 2.38745,-0.79385 2.9534,-1.33333c0.40722,-0.38816 1.08186,-1.45578 0.538,-1.59972c-1.54822,-0.40982 -3.20161,-0.10149 -4.80126,-0.17906c-5.95372,-0.28872 -11.56546,0.74 -17.48871,-0.08029c-2.02085,-0.27987 -4.28546,-0.24411 -6.04184,-1.22746c0.40482,0.60241 0.82748,1.22545 0.98981,1.92976c0.16027,0.69542 -0.65507,2.66441 0.63137,3.14138c0.97956,0.36319 2.23681,0.37152 3.57642,0.21962c0.12286,-0.20542 0.24008,-0.41255 0.34327,-0.62401c0,0 1.17823,-2.20494 3.38317,-1.0267c0.43078,0.2302 0.73244,0.49958 0.93897,0.78407zM278.02776,173.30112c0.10153,-0.14311 0.23384,-0.28933 0.35807,-0.41822l-0.09687,-0.03938c-0.0987,0.13859 -0.17992,0.29813 -0.2612,0.45759z" fill="#000000"/><path d="M283.26723,159.98306c0.09081,0.65117 0.18106,1.30248 0.27186,1.95366c-3.71493,0.15638 -7.39456,0.4639 -11.14802,0.01388c-2.13206,-4.39875 -0.61609,-6.73082 -0.49467,-11.49343c0.04509,-1.76925 -0.37871,-3.52426 -0.5505,-5.28573c-0.66438,-6.81185 -0.86592,-13.78644 -1.21375,-20.58313c-0.09352,-1.82742 -1.26157,-3.47623 -1.44223,-5.29711c-0.14842,-1.49598 2.2584,-2.05411 3.05639,-3.32818c1.09177,-1.7431 1.01476,-4.09855 2.2335,-5.75536c1.05204,-1.43021 2.36269,-2.64746 3.64074,-3.88875c1.12247,4.26718 4.07199,8.81713 4.79175,12.46193c0.59034,2.98937 -0.58887,5.29067 -0.62088,8.16035c-0.01514,1.3566 0.6211,2.68489 0.57755,4.04088c-0.10787,3.35825 -1.64273,7.27507 -1.98595,10.64506c-0.61322,6.02101 1.95725,12.42534 2.8842,18.35591z" data-paper-data="{&quot;noHover&quot;:false,&quot;origItem&quot;:[&quot;Path&quot;,{&quot;applyMatrix&quot;:true,&quot;segments&quot;:[[[305.48257,187.37814],[0,0],[1.8003,-5.72625]],[[311.02193,169.64846],[-3.22072,5.12402],[1.80266,-2.86794]],[[317.48681,161.05038],[-1.58652,2.96182],[0.64061,-1.19593]],[[318.76819,157.18728],[-0.6154,1.20908],[1.30179,-2.55763]],[[322.95103,150.15719],[-0.79714,2.94099],[0.97192,-3.58581]],[[324.19684,136.87189],[-0.88712,4.32224],[-1.69607,0.54545]],[[319.21472,138.74466],[1.57735,-0.81504],[-1.82727,0.94417]],[[314.66589,142.91377],[1.75176,-1.07783],[-1.28039,0.7878]],[[310.46009,144.54206],[0.53066,-1.40656],[-0.64591,1.71202]],[[309.4056,149.92925],[0.7269,-1.67923],[-2.70354,6.24553]],[[301.40217,168.8355],[2.42658,-6.39956],[-0.62749,1.65485]],[[299.54384,173.80914],[0.82532,-1.5656],[-2.22169,4.21441]],[[294.88257,184.32452],[0.04068,-4.88805],[3.16421,2.0685]],[[304.86007,189.24974],[-3.39872,-1.50794],[0.20751,-0.62387]],[[305.48258,187.37815],[-0.2075,0.62387],[0,0]]],&quot;closed&quot;:true,&quot;fillColor&quot;:[0,0,0,1]}]}" fill="#c6c6c6"/></g></g></g></g></svg>