<svg version="1.1" xmlns="http://www.w3.org/2000/svg" xmlns:xlink="http://www.w3.org/1999/xlink" width="122.26327" height="92.57954" viewBox="0,0,122.26327,92.57954"><g transform="translate(-209.0972,-126.02869)"><g data-paper-data="{&quot;isPaintingLayer&quot;:true}" fill-rule="nonzero" stroke-linecap="butt" stroke-linejoin="miter" stroke-miterlimit="10" stroke-dasharray="" stroke-dashoffset="0" style="mix-blend-mode: normal"><path d="M211.0972,210.90787v-61.81574h57.80573v61.81574z" fill="#ff2b2b" stroke="#000000" stroke-width="4"/><path d="M305.48258,187.37814c1.8003,-5.72625 2.31864,-12.60566 5.53936,-17.72968c1.80266,-2.86794 4.87836,-5.63626 6.46488,-8.59808c0.64061,-1.19593 0.66598,-2.65402 1.28138,-3.8631c1.30179,-2.55763 3.3857,-4.0891 4.18284,-7.03009c0.97192,-3.58581 0.35869,-8.96306 1.24581,-13.2853c-1.69607,0.54545 -3.40477,1.05773 -4.98212,1.87277c-1.82727,0.94417 -2.79706,3.09129 -4.54882,4.16912c-1.28039,0.7878 -3.67515,0.22172 -4.20581,1.62828c-0.64591,1.71202 -0.32759,3.70796 -1.05449,5.38719c-2.70354,6.24553 -5.57685,12.50669 -8.00343,18.90625c-0.62749,1.65485 -1.033,3.40804 -1.85832,4.97364c-2.22169,4.21441 -4.62059,5.62733 -4.66127,10.51538c3.16421,2.0685 6.57877,3.41728 9.97749,4.92522c0.20751,-0.62387 0.41501,-1.24772 0.62251,-1.87159zM296.72727,167.06192c2.41914,-6.4731 5.24675,-12.88049 8.09759,-19.13695c0.81918,-1.79776 0.25885,-4.08602 1.25416,-5.79258c1.16937,-2.00501 4.02378,-2.31546 6.01575,-3.50691c1.83973,-1.10039 2.89335,-3.28589 4.78178,-4.30045c2.14096,-1.15023 4.62764,-1.4901 6.91513,-2.31113c0.51562,-0.86327 1.03125,-1.72655 1.54687,-2.58982l-0.00042,-0.00027l1.37692,-2.18022c0.53108,-0.88612 1.58152,-1.3835 2.65051,-1.16275c1.29615,0.26766 2.14907,1.49394 1.9716,2.78606l-0.50538,3.96869l-0.03206,-0.00408c0.00245,0.05469 0.00458,0.1094 0.00638,0.16414c0.09559,2.90541 -1.78812,7.25296 -2.25747,10.15364c-0.46449,2.87069 -0.00476,5.4452 -0.76868,8.30465c-0.89183,3.33824 -3.20919,5.28351 -4.64018,8.16013c-0.59464,1.19536 -0.61021,2.63338 -1.24979,3.80531c-2.07173,3.79614 -6.21579,6.61788 -7.67982,10.80818c-1.66101,4.75411 -2.46437,9.8667 -3.96948,14.68695c-0.28005,0.84217 -0.56009,1.68433 -0.84015,2.5265l-0.00431,0.0112c0.08594,0.04713 0.17179,0.09465 0.25755,0.14254c1.63642,0.91385 5.65787,2.92465 6.35395,4.61938c3.18531,7.75518 -6.51657,8.44616 -10.96901,7.7119c-2.04749,-1.53014 -3.67993,-2.64579 -5.76618,-3.51713c-0.14178,1.70136 -0.00118,3.43825 -0.34323,5.11034c-0.39951,1.95296 -1.42974,3.76367 -1.66864,5.7427c-0.24618,2.03934 -0.0762,5.5056 -2.32051,6.7642c-4.16414,2.33523 -12.87598,-2.81598 -13.29462,-7.28921c-0.31206,-3.33441 1.44881,-4.90853 2.59344,-7.5035c1.0867,-2.46365 0.80638,-5.28725 1.53693,-7.83051c-1.66493,-0.72656 -3.10275,-1.64147 -3.92716,-2.87679c-0.79812,-1.19594 -1.20972,-2.70362 -1.20582,-4.14141c0.00292,-1.07541 0.97829,-1.93787 1.22517,-2.98456c0.65071,-2.75869 -1.15329,-5.95299 4.17085,-6.58133c0.05979,-0.00705 2.13116,1.27661 4.202,2.57151c1.11948,-5.23835 4.52006,-9.06711 6.48633,-14.3284zM290.70158,197.04816c-1.15982,2.32268 -0.74982,5.51381 -1.86857,8.15879c-0.75382,1.78221 -1.99339,3.02623 -2.21047,5.05121c-0.11762,1.0973 4.10767,2.7443 4.74572,3.1308c0.27964,0.16939 0.59539,0.56794 0.88665,0.41941c0.24189,-0.12336 -0.13694,-0.53208 -0.13335,-0.80358c0.01036,-0.78237 0.07756,-1.56443 0.17495,-2.34079c0.14452,-1.15183 0.23507,-2.32159 0.55017,-3.43887c0.51362,-1.82123 1.00439,-3.67114 1.16016,-5.55699c0.09722,-1.17696 0.08288,-2.41515 0.54946,-3.50005c0.01555,-0.03614 0.04002,-0.07114 0.07165,-0.10494c-0.0568,0.03749 -0.11419,0.07248 -0.17257,0.10337c-1.03506,-0.37595 -2.35214,-0.72624 -3.75381,-1.11836zM293.58691,192.69103c0.59903,0.15663 1.16232,0.31196 1.66144,0.47552c2.07137,-1.34015 3.43582,0.72831 3.43582,0.72831l-0.00145,0.04999c0.61603,0.17607 1.14673,0.45585 1.46779,0.99033c0.10246,0.17055 0.16948,0.34775 0.20803,0.53031c2.47343,0.91411 4.48335,2.03501 6.65309,3.86627c0.70883,0.07542 2.49182,0.34771 3.23837,0.1153c0.53717,-0.16721 1.61541,-0.82472 1.19186,-1.19501c-1.20571,-1.05412 -2.82428,-1.51132 -4.22348,-2.2905c-5.20767,-2.90005 -10.69333,-4.4677 -15.63787,-7.83063c-1.68694,-1.14735 -3.73236,-2.11997 -4.87018,-3.78045c0.09555,0.71948 0.19794,1.46536 0.03096,2.16858c-0.16488,0.69434 -1.76911,2.09724 -0.82779,3.09543c0.71676,0.76006 1.83982,1.32529 3.10778,1.78346c0.20123,-0.1296 0.39818,-0.26323 0.58447,-0.40695c0,0 2.03414,-1.45337 3.4875,0.58078c0.28395,0.39742 0.43478,0.77267 0.49366,1.11925zM294.89642,197.87105c0.15448,-0.08321 0.33792,-0.15556 0.50644,-0.21596l-0.06935,-0.07826c-0.14994,0.08041 -0.29351,0.18737 -0.43709,0.29422z" fill="#000000" stroke="none" stroke-width="0.5"/><path d="M305.47436,187.42746c-0.2075,0.62387 -0.41557,1.24762 -0.62308,1.87149c-3.39872,-1.50794 -6.83286,-2.86477 -9.99707,-4.93327c0.04068,-4.88805 2.43391,-6.30552 4.6556,-10.51993c0.82532,-1.5656 1.2241,-3.32647 1.85159,-4.98132c2.42658,-6.39956 5.34016,-12.73965 8.0437,-18.98518c0.7269,-1.67923 0.41157,-3.67511 1.05748,-5.38713c0.53066,-1.40656 2.93527,-0.839 4.21566,-1.6268c1.75176,-1.07783 2.72771,-3.22295 4.55498,-4.16712c1.57735,-0.81504 3.29198,-1.32449 4.98805,-1.86994c-0.88712,4.32224 -0.26228,9.70845 -1.2342,13.29426c-0.79714,2.94099 -2.8749,4.48028 -4.17669,7.03791c-0.6154,1.20908 -0.63448,2.68175 -1.27509,3.87768c-1.58652,2.96182 -4.69972,5.79118 -6.50238,8.65912c-3.22072,5.12402 -3.75826,12.00397 -5.55856,17.73022z" data-paper-data="{&quot;noHover&quot;:false,&quot;origItem&quot;:[&quot;Path&quot;,{&quot;applyMatrix&quot;:true,&quot;segments&quot;:[[[305.48257,187.37814],[0,0],[1.8003,-5.72625]],[[311.02193,169.64846],[-3.22072,5.12402],[1.80266,-2.86794]],[[317.48681,161.05038],[-1.58652,2.96182],[0.64061,-1.19593]],[[318.76819,157.18728],[-0.6154,1.20908],[1.30179,-2.55763]],[[322.95103,150.15719],[-0.79714,2.94099],[0.97192,-3.58581]],[[324.19684,136.87189],[-0.88712,4.32224],[-1.69607,0.54545]],[[319.21472,138.74466],[1.57735,-0.81504],[-1.82727,0.94417]],[[314.66589,142.91377],[1.75176,-1.07783],[-1.28039,0.7878]],[[310.46009,144.54206],[0.53066,-1.40656],[-0.64591,1.71202]],[[309.4056,149.92925],[0.7269,-1.67923],[-2.70354,6.24553]],[[301.40217,168.8355],[2.42658,-6.39956],[-0.62749,1.65485]],[[299.54384,173.80914],[0.82532,-1.5656],[-2.22169,4.21441]],[[294.88257,184.32452],[0.04068,-4.88805],[3.16421,2.0685]],[[304.86007,189.24974],[-3.39872,-1.50794],[0.20751,-0.62387]],[[305.48258,187.37815],[-0.2075,0.62387],[0,0]]],&quot;closed&quot;:true,&quot;fillColor&quot;:[0,0,0,1]}]}" fill="#c6c6c6" stroke="none" stroke-width="0.5"/><path d="M290.70203,196.99817c1.40167,0.39212 2.74158,0.74816 3.77664,1.12411c0.05838,-0.03089 0.11632,-0.06559 0.17312,-0.10308c-0.03163,0.0338 -0.05617,0.06876 -0.07172,0.1049c-0.46658,1.0849 -0.44265,2.32983 -0.53987,3.50679c-0.15577,1.88585 -0.64088,3.80426 -1.1545,5.62549c-0.3151,1.11728 -0.42941,2.30339 -0.57393,3.45522c-0.09739,0.77636 -0.17013,1.55985 -0.18049,2.34222c-0.00359,0.2715 0.37509,0.68025 0.1332,0.80361c-0.29126,0.14853 -0.61192,-0.24931 -0.89156,-0.4187c-0.63805,-0.3865 -4.89997,-2.04483 -4.78235,-3.14213c0.21708,-2.02498 1.43905,-3.31402 2.19287,-5.09623c1.11875,-2.64498 0.75878,-5.87953 1.9186,-8.20221z" data-paper-data="{&quot;noHover&quot;:false,&quot;origItem&quot;:[&quot;Path&quot;,{&quot;applyMatrix&quot;:true,&quot;segments&quot;:[[[290.70156,197.04816],[0,0],[-1.15982,2.32268]],[[288.83299,205.20695],[1.11875,-2.64498],[-0.75382,1.78221]],[[286.62252,210.25816],[0.21708,-2.02498],[-0.11762,1.0973]],[[291.36824,213.38896],[-0.63805,-0.3865],[0.27964,0.16939]],[[292.25489,213.80837],[-0.29126,0.14853],[0.24189,-0.12336]],[[292.12154,213.00479],[-0.00359,0.2715],[0.01036,-0.78237]],[[292.29649,210.664],[-0.09739,0.77636],[0.14452,-1.15183]],[[292.84666,207.22513],[-0.3151,1.11728],[0.51362,-1.82123]],[[294.00682,201.66814],[-0.15577,1.88585],[0.09722,-1.17696]],[[294.55628,198.16809],[-0.46658,1.0849],[0.01555,-0.03614]],[[294.62793,198.06315],[-0.03163,0.0338],[-0.0568,0.03749]],[[294.45536,198.16652],[0.05838,-0.03089],[-1.03506,-0.37595]],[[290.70155,197.04816],[1.40167,0.39212],[0,0]]],&quot;closed&quot;:true,&quot;fillColor&quot;:[0,0,0,1]}]}" fill="#8f4c00" stroke="none" stroke-width="0.5"/><path d="M293.53747,192.69842c-0.05888,-0.34658 -0.21014,-0.73261 -0.49409,-1.13003c-1.45336,-2.03415 -3.3879,-0.5721 -3.3879,-0.5721c-0.18629,0.14372 -0.48288,0.26921 -0.68411,0.39881c-1.26796,-0.45817 -2.39028,-1.02959 -3.10704,-1.78965c-0.94132,-0.99819 0.66663,-2.41288 0.83151,-3.10722c0.16698,-0.70322 0.06793,-1.45522 -0.02762,-2.1747c1.13782,1.66048 3.26926,2.68398 4.9562,3.83133c4.94454,3.36293 10.43164,4.92773 15.63931,7.82778c1.3992,0.77918 3.01732,1.23731 4.22303,2.29143c0.42355,0.37029 -0.65752,1.03282 -1.19469,1.20003c-0.74655,0.23241 -2.53399,-0.03397 -3.24282,-0.10939c-2.16974,-1.83126 -4.19471,-2.94048 -6.66814,-3.85459c-0.03855,-0.18256 -0.10486,-0.36012 -0.20732,-0.53067c-0.32106,-0.53448 -0.87243,-0.80859 -1.48846,-0.98466l0.00155,-0.05c0,0 -1.41409,-2.10117 -3.48546,-0.76102c-0.49912,-0.16356 -1.06492,-0.32872 -1.66395,-0.48535z" data-paper-data="{&quot;noHover&quot;:false,&quot;origItem&quot;:[&quot;Path&quot;,{&quot;applyMatrix&quot;:true,&quot;segments&quot;:[[[293.58691,192.69103],[0,0],[0.59903,0.15663]],[[295.24835,193.16655],[-0.49912,-0.16356],[2.07137,-1.34015]],[298.68417,193.89486],[[298.68272,193.94485],[0,0],[0.61603,0.17607]],[[300.15051,194.93518],[-0.32106,-0.53448],[0.10246,0.17055]],[[300.35854,195.46549],[-0.03855,-0.18256],[2.47343,0.91411]],[[307.01163,199.33176],[-2.16974,-1.83126],[0.70883,0.07542]],[[310.25,199.44706],[-0.74655,0.23241],[0.53717,-0.16721]],[[311.44186,198.25205],[0.42355,0.37029],[-1.20571,-1.05412]],[[307.21838,195.96155],[1.3992,0.77918],[-5.20767,-2.90005]],[[291.58051,188.13092],[4.94454,3.36293],[-1.68694,-1.14735]],[[286.71033,184.35047],[1.13782,1.66048],[0.09555,0.71948]],[[286.74129,186.51905],[0.16698,-0.70322],[-0.16488,0.69434]],[[285.9135,189.61448],[-0.94132,-0.99819],[0.71676,0.76006]],[[289.02128,191.39794],[-1.26796,-0.45817],[0.20123,-0.1296]],[[289.60575,190.99099],[-0.18629,0.14372],[0,0]],[[293.09325,191.57177],[-1.45336,-2.03415],[0.28395,0.39742]],[[293.58691,192.69102],[-0.05888,-0.34658],[0,0]]],&quot;closed&quot;:true,&quot;fillColor&quot;:[0,0,0,1]}]}" fill="#8f4c00" stroke="none" stroke-width="0.5"/></g></g></svg>