<svg version="1.1" xmlns="http://www.w3.org/2000/svg" xmlns:xlink="http://www.w3.org/1999/xlink" width="33.95313" height="57.51564" viewBox="0,0,33.95313,57.51564"><g transform="translate(-223.46195,-152.01817)"><g data-paper-data="{&quot;isPaintingLayer&quot;:true}" fill-rule="nonzero" stroke-linecap="butt" stroke-linejoin="miter" stroke-miterlimit="10" stroke-dasharray="" stroke-dashoffset="0" style="mix-blend-mode: normal"><path d="M225.71195,207.28381v-53.01563h29.45313v53.01564z" fill="#005fff" stroke="#000000" stroke-width="4.5"/><path d="M234.45864,173.01202c-2.5,0 -2.5,-2.5 -2.5,-2.5c0,-0.68897 0,-2.65434 0,-3.92552c-0.53414,-0.00093 -1.06916,-0.00062 -1.60559,-0.00062c0,0 -2.5,0 -2.5,-2.5c0,-2.5 2.5,-2.5 2.5,-2.5c2.80619,0 5.57648,-0.00128 8.37747,0.18404l0.01221,-0.00554c0,0 2.5,0 2.5,2.5c0,2.5 -2.5,2.5 -2.5,2.5l-0.3448,-0.00554c-0.4806,-0.0323 -0.96024,-0.05857 -1.43929,-0.07995c0,0.56369 0,1.12739 0,1.69108v2.14205c0,0 0,2.5 -2.5,2.5z" fill="#000000" stroke="none" stroke-width="0.5"/><path d="M236.06612,189.61193c0,2.5 -2.5,2.5 -2.5,2.5l-0.71056,-0.02513c-1.60036,-0.22967 -3.20995,-0.40259 -4.82267,-0.51674c0,0 -2.49365,-0.17812 -2.31553,-2.67176c0.17812,-2.49365 2.67176,-2.31553 2.67176,-2.31553c1.7299,0.12461 3.45644,0.31003 5.17354,0.55428l0.00345,-0.02513c0,0 2.5,0 2.5,2.5z" fill="#000000" stroke="none" stroke-width="0.5"/></g></g></svg>