<svg version="1.1" xmlns="http://www.w3.org/2000/svg" xmlns:xlink="http://www.w3.org/1999/xlink" width="55.89004" height="66.38462" viewBox="0,0,55.89004,66.38462"><g transform="translate(-223.46195,-144.1175)"><g data-paper-data="{&quot;isPaintingLayer&quot;:true}" fill-rule="nonzero" stroke-linecap="butt" stroke-linejoin="miter" stroke-miterlimit="10" stroke-dasharray="" stroke-dashoffset="0" style="mix-blend-mode: normal"><path d="M225.71195,207.28381v-53.01563h29.45313v53.01564z" fill="#005fff" stroke="#000000" stroke-width="4.5"/><path d="M231.68334,169.80318c0,-0.36839 0.07968,-0.71817 0.22275,-1.03304c-0.19057,-0.10395 -0.38113,-0.20789 -0.5717,-0.31184c0,0 -2.19474,-1.19713 -0.99761,-3.39187c1.19713,-2.19474 3.39187,-0.99761 3.39187,-0.99761c0.86524,0.47195 1.73048,0.9439 2.59572,1.41585l1.20272,-0.054c0,0 2.48471,0.27608 2.20863,2.76079c-0.27608,2.48471 -2.76079,2.20863 -2.76079,2.20863l-0.34931,-0.06034c-0.24556,1.12285 -1.24576,1.96343 -2.44228,1.96343c-1.38071,0 -2.5,-1.11929 -2.5,-2.5z" fill="#000000" stroke="none" stroke-width="0.5"/><path d="M250.36987,168.62331c0,1.38071 -1.11929,2.5 -2.5,2.5c-0.99039,0 -1.84627,-0.5759 -2.25103,-1.4111l-0.40653,0.20326c0,0 -2.23607,1.11803 -3.3541,-1.11803c-1.11803,-2.23607 1.11803,-3.3541 1.11803,-3.3541l0.9439,-0.47195c1.94941,-0.9245 4.15237,-1.40145 6.30948,-1.44381c0,0 2.5,0 2.5,2.5c0,2.14328 -1.83747,2.4491 -2.36183,2.49274c0.00138,0.03416 0.00208,0.06849 0.00208,0.10298z" fill="#000000" stroke="none" stroke-width="0.5"/><path d="M247.49785,181.81315c-0.44721,2.45967 -2.90689,2.01246 -2.90689,2.01246l-2.37302,-0.44173c-2.67822,0.01141 -5.35635,0.0101 -8.0346,0.0101c0,0 -2.5,0 -2.5,-2.5c0,-2.5 2.5,-2.5 2.5,-2.5c2.82792,0 5.65572,-0.00003 8.48363,0.0101l2.81842,0.50217c0,0 2.45967,0.44721 2.01246,2.90689z" fill="#000000" stroke="none" stroke-width="0.5"/><path d="M273.37669,155.23183c0.11868,-0.31126 1.27666,-2.43729 0.94183,-3.19134c-0.21023,-0.47343 -0.77655,-0.68729 -1.13718,-1.05915c-0.50537,-0.52111 -1.0147,-1.04277 -1.45842,-1.61728c-0.11252,-0.14569 -0.17398,-0.7015 -0.1909,-0.5182c-0.1292,1.40011 -0.50428,2.82368 -1.20605,4.04209c-1.07741,1.87059 -3.03124,3.55025 -3.21376,5.83174c-0.10704,1.33797 0.24261,2.51806 0.73232,3.66618c0.84204,-0.78633 1.77163,-1.46561 2.84521,-1.44847c0.19498,0.00311 0.50912,0.16597 0.90013,0.44084c0.3294,-2.06045 0.95295,-3.95944 1.78683,-6.1464zM263.05659,154.84503c0.24664,-0.57116 2.5249,-3.74582 2.94482,-4.46672c0.59307,-1.01814 2.66909,-5.69052 3.04149,-5.86885c3.59247,-1.72033 8.86719,2.59107 9.95613,5.7724c1.5916,4.64989 -2.71833,9.58379 -2.67195,14.32987v0.23597c0,0 0,0.39939 -0.15964,0.87891c0.88076,0.97507 1.56576,1.82138 1.76188,2.20837c1.39481,2.75221 0.76269,6.60336 0.51937,9.52328c0.00358,4.1284 -0.56411,8.11293 -0.70612,12.20924c-0.16393,4.72863 0.4975,8.62841 -1.72446,13.19617c-1.09616,2.25341 -6.39154,7.91425 -9.00455,7.62798c-1.48836,-0.16306 -2.01786,-2.21313 -2.99426,-3.34822c-0.6652,-0.77331 -1.55113,-1.42804 -1.92921,-2.37544c-0.82789,-2.07455 -0.28115,-4.86415 -0.2004,-6.97294c0.1051,-2.74461 -0.00211,-5.41724 0.24465,-8.16036c0,0 0.13946,-1.5341 1.40366,-2.0844c-0.01553,-4.05883 -0.104,-8.14828 -0.23148,-12.20641c-0.0859,-2.73444 0.04566,-5.81004 1.1375,-8.45758c-1.66296,-4.08062 -3.35569,-7.48325 -1.38742,-12.04127zM266.94631,194.11667c-0.01248,1.27882 -0.00965,2.55849 -0.0598,3.85661c-0.06215,1.60878 -0.87805,3.36536 -0.2004,4.82579c0.27527,0.59325 1.11241,0.80093 1.37444,1.40015c0.01898,0.04341 0.03068,0.08783 0.03656,0.13306c0.00238,-0.00398 0.0048,-0.00786 0.00727,-0.01164c0.59969,-0.91686 1.46612,-1.62839 2.20516,-2.43714c1.19598,-1.30879 1.85055,-3.08863 2.26495,-4.81245c0.64172,-2.66937 0.07679,-4.8071 0.16881,-7.48847c0.14224,-4.1451 0.70638,-8.15937 0.70972,-12.33212c0.13863,-1.66361 0.95868,-5.3825 0.04742,-6.99495c-0.36321,-0.64269 -2.41022,-1.77878 -3.15097,-2.91042c-0.20844,0.46669 -0.47497,0.91193 -0.73142,1.35314c-0.72086,1.24019 -1.52995,2.57978 -1.55127,4.0141c-0.08289,5.57517 0.46416,11.11638 0.47315,16.67673v2.35975c0,0 0,1.85169 -1.59361,2.36785zM267.97861,204.91239c-0.07947,0.22548 -0.15527,0.45133 -0.08064,0.6581c0.09402,0.26048 0.05407,-0.20628 0.08064,-0.6581z" fill="#000000" stroke="none" stroke-width="0.5"/><path d="M271.59717,161.4277c-0.39101,-0.27487 -0.7129,-0.43719 -0.90787,-0.4403c-1.07358,-0.01715 -2.02233,0.65813 -2.86438,1.44447c-0.48971,-1.14812 -0.85764,-2.34157 -0.7506,-3.67954c0.18252,-2.2815 2.16675,-4.04322 3.24416,-5.91382c0.70177,-1.21841 1.09018,-2.6422 1.21939,-4.04231c0.01692,-0.1833 0.08034,0.37278 0.19286,0.51847c0.44372,0.57451 0.96864,1.10138 1.47401,1.62249c0.36063,0.37186 0.93903,0.59468 1.14926,1.06811c0.33483,0.75404 -0.8091,2.90844 -0.92778,3.21971c-0.83388,2.18696 -1.49965,4.14228 -1.82905,6.20272z" data-paper-data="{&quot;noHover&quot;:false,&quot;origItem&quot;:[&quot;Path&quot;,{&quot;applyMatrix&quot;:true,&quot;segments&quot;:[[[273.37669,155.23183],[-0.83388,2.18696],[0.11868,-0.31126]],[[274.31852,152.0405],[0.33483,0.75404],[-0.21023,-0.47343]],[[273.18134,150.98134],[0.36063,0.37186],[-0.50537,-0.52111]],[[271.72292,149.36406],[0.44372,0.57451],[-0.11252,-0.14569]],[[271.53202,148.84586],[0.01692,-0.1833],[-0.1292,1.40011]],[[270.32596,152.88795],[0.70177,-1.21841],[-1.07741,1.87059]],[[267.1122,158.71969],[0.18252,-2.2815],[-0.10704,1.33797]],[[267.84452,162.38587],[-0.48971,-1.14812],[0.84204,-0.78633]],[[270.68973,160.9374],[-1.07358,-0.01715],[0.19498,0.00311]],[[271.58986,161.37824],[-0.39101,-0.27487],[0.3294,-2.06045]]],&quot;closed&quot;:true}]}" fill="#efefef" stroke="none" stroke-width="0.5"/><path d="M268.52661,191.79702l-0.00757,-2.36251c-0.00899,-5.56034 -0.54308,-11.19636 -0.46019,-16.77153c0.02133,-1.43432 0.83672,-2.77451 1.55758,-4.0147c0.25645,-0.44121 0.52508,-0.88647 0.73352,-1.35317c0.74074,1.13164 2.79772,2.26883 3.16093,2.91152c0.91126,1.61245 0.09862,5.33353 -0.04002,6.99714c-0.00334,4.17276 -0.55702,8.27494 -0.69926,12.42004c-0.09201,2.68137 0.45506,4.82678 -0.18666,7.49615c-0.41441,1.72382 -1.079,3.50476 -2.27498,4.81355c-0.73904,0.80875 -1.61146,1.51997 -2.21115,2.43683c-0.00247,0.00377 -0.00491,0.00765 -0.00728,0.01163c-0.00588,-0.04523 -0.01771,-0.08966 -0.0367,-0.13308c-0.26202,-0.59922 -1.10352,-0.8076 -1.37879,-1.40085c-0.67764,-1.46043 0.13525,-3.21772 0.1974,-4.8265c0.05015,-1.29812 0.07854,-2.67264 0.09102,-3.95146c1.59361,-0.51616 1.56215,-2.27306 1.56215,-2.27306z" data-paper-data="{&quot;noHover&quot;:false,&quot;origItem&quot;:[&quot;Path&quot;,{&quot;applyMatrix&quot;:true,&quot;segments&quot;:[[[266.94631,194.11667],[1.59361,-0.51616],[-0.01248,1.27882]],[[266.88651,197.97328],[0.05015,-1.29812],[-0.06215,1.60878]],[[266.6861,202.79907],[-0.67764,-1.46043],[0.27527,0.59325]],[[268.06054,204.19922],[-0.26202,-0.59922],[0.01898,0.04341]],[[268.0971,204.33228],[-0.00588,-0.04523],[0.00238,-0.00398]],[[268.10436,204.32065],[-0.00247,0.00377],[0.59969,-0.91686]],[[270.30953,201.88351],[-0.73904,0.80875],[1.19598,-1.30879]],[[272.57448,197.07106],[-0.41441,1.72382],[0.64172,-2.66937]],[[272.74329,189.58259],[-0.09201,2.68137],[0.14224,-4.1451]],[[273.45301,177.25047],[-0.00334,4.17276],[0.13863,-1.66361]],[[273.50043,170.25552],[0.91126,1.61245],[-0.36321,-0.64269]],[[270.34946,167.34511],[0.74074,1.13164],[-0.20844,0.46669]],[[269.61804,168.69825],[0.25645,-0.44121],[-0.72086,1.24019]],[[268.06677,172.71235],[0.02133,-1.43432],[-0.08289,5.57517]],[[268.53992,189.38908],[-0.00899,-5.56034],[0,0]],[268.53992,191.74882]],&quot;closed&quot;:true}]}" fill="#bf7800" stroke="none" stroke-width="0.5"/></g></g></svg>