<svg version="1.1" xmlns="http://www.w3.org/2000/svg" xmlns:xlink="http://www.w3.org/1999/xlink" width="61.80573" height="65.81574" viewBox="0,0,61.80573,65.81574"><g transform="translate(-209.09715,-147.09213)"><g data-paper-data="{&quot;isPaintingLayer&quot;:true}" fill-rule="nonzero" stroke-linecap="butt" stroke-linejoin="miter" stroke-miterlimit="10" stroke-dasharray="" stroke-dashoffset="0" style="mix-blend-mode: normal"><path d="M211.09716,210.90787v-61.81574h57.80573v61.81574z" fill="#7399ff" stroke="#000000" stroke-width="4"/><path d="M213.19701,165.04789c0,-2.76142 2.23858,-5 5,-5c2.76142,0 5,2.23858 5,5c0,2.76142 -2.23858,5 -5,5c-2.76142,0 -5,-2.23858 -5,-5z" fill="#000000" stroke="none" stroke-width="0.5"/><path d="M226.6468,165.36725c0,-2.76142 2.23858,-5 5,-5c2.76142,0 5,2.23858 5,5c0,2.76142 -2.23858,5 -5,5c-2.76142,0 -5,-2.23858 -5,-5z" fill="#000000" stroke="none" stroke-width="0.5"/><path d="M222.28469,187.37609c1.77766,-0.19643 1.91443,-2.43433 4.41663,-1.59723c4.47051,1.49559 5.40017,3.36 3.90458,7.8305c-1.3354,3.99168 -10.14649,4.45116 -13.1643,3.39481c-1.11247,-0.38941 -3.82756,-1.74509 -3.59562,-3.23664c-0.21238,-0.55488 -0.32874,-1.15727 -0.32874,-1.78684c0,-2.76142 2.23858,-5 5,-5c0.46003,-0.39933 2.98931,0.48138 3.76745,0.39539z" fill="#000000" stroke="none" stroke-width="0.5"/></g></g></svg>